<?xml version="1.0" encoding="utf-8"?>
<!-- Generator: Adobe Illustrator 18.1.1, SVG Export Plug-In . SVG Version: 6.00 Build 0)  -->
<svg version="1.1" id="Layer_1" xmlns="http://www.w3.org/2000/svg" xmlns:xlink="http://www.w3.org/1999/xlink" x="0px" y="0px"
	 viewBox="0 0 512 512" enable-background="new 0 0 512 512" xml:space="preserve">
<g>
	<g>
		<path d="M253.8,492.1C123.6,492.1,17.7,386.2,17.7,256c0-130.2,105.9-236.1,236.1-236.1C384,19.9,489.9,125.8,489.9,256
			C489.9,386.2,384,492.1,253.8,492.1z M253.8,25.1C126.5,25.1,23,128.7,23,256c0,127.3,103.6,230.9,230.9,230.9
			c127.3,0,230.9-103.6,230.9-230.9C484.7,128.7,381.1,25.1,253.8,25.1z"/>
	</g>
	<g>
		<g>
			<path d="M291.9,381.8c-4.5,0-7.7-4-9.4-6.9c-1.8,2.6-4.8,6-8.8,6c-2.1,0-4.1-0.9-6-2.7c-2.4-2.3-3.5-4.8-3.3-7.5
				c0.3-3.1,2.5-5.7,4.4-7.5c-2.4-0.9-5.4-2.5-7-5.2c-1.3-2.2-1.5-4.7-0.6-7.4c1.2-3.5,3.8-5.5,7.3-5.5c2.7,0,5.5,1.1,7.5,2.1
				c0.2-2.8,0.9-6.7,3.2-9.2c1.6-1.7,3.7-2.5,6.3-2.3c2.4,0.2,4.4,1.3,5.7,3.1c2,2.8,2.1,6.9,1.8,9.8c1.6-0.5,3.7-1.1,5.7-1.1
				c4.5,0,7.4,2.4,8.3,6.9c0.6,2.9,0.1,5.4-1.6,7.4c-2.1,2.6-5.7,3.6-8.4,4c1.6,2.5,3.5,6.2,2.8,9.7c-0.4,2.2-1.8,4-4.1,5.2
				C294.6,381.4,293.2,381.8,291.9,381.8z M282.8,366.5l1.5,4c0.8,2.2,3.8,7.8,7.6,7.8c0.8,0,1.6-0.2,2.5-0.7c1.3-0.7,2-1.6,2.3-2.8
				c0.6-3.2-2.7-7.9-4-9.4l-2.6-3l4,0.1c0.7,0,6.6-0.1,8.9-2.9c0.9-1.1,1.2-2.6,0.8-4.5c-0.6-2.8-2.1-4.1-4.9-4.1
				c-3.4,0-7.1,1.9-7.1,1.9l-3.4,1.7l0.9-3.7c0.4-1.9,1.2-7.4-0.8-10.1c-0.7-1-1.7-1.5-3.1-1.6c-1.5-0.1-2.6,0.3-3.5,1.2
				c-2.3,2.4-2.4,7.8-2.3,9.7l0.2,3.6l-3-2c0,0-4.5-3.1-8.2-3.1c-2.1,0-3.3,1-4,3.1c-0.6,1.7-0.5,3.2,0.3,4.5
				c1.7,2.8,6.4,4.2,8.1,4.5l4.6,0.8l-4,2.4c-1.5,0.9-5.3,3.9-5.6,7.1c-0.2,1.6,0.6,3.1,2.2,4.6c1.3,1.2,2.5,1.8,3.7,1.8
				c3.4,0,6.5-5.2,7.3-7L282.8,366.5z"/>
		</g>
		<g>
			<path d="M283.5,365.3c-0.2,0-0.4,0-0.6,0c-2.9-0.4-5-3-4.6-5.9c0.3-2.9,3-4.9,5.9-4.6c2.9,0.3,4.9,3,4.6,5.9
				C288.4,363.3,286.2,365.3,283.5,365.3z M283.5,358.2c-0.9,0-1.7,0.7-1.8,1.6c-0.1,1,0.6,1.9,1.6,2c0.9,0.1,1.9-0.6,2-1.6
				c0.1-1-0.6-1.9-1.6-2C283.6,358.2,283.6,358.2,283.5,358.2z"/>
		</g>
	</g>
	<g>
		<g>
			<path d="M138.2,360.5c-4.5,0-7.7-4-9.4-6.9c-1.8,2.6-4.8,6-8.8,6c-2.1,0-4.1-0.9-6-2.7c-2.4-2.3-3.5-4.8-3.3-7.5
				c0.3-3.1,2.5-5.7,4.4-7.5c-2.4-0.9-5.4-2.5-7-5.2c-1.3-2.2-1.5-4.7-0.6-7.4c1.2-3.5,3.8-5.5,7.3-5.5c2.7,0,5.5,1.1,7.5,2.1
				c0.2-2.8,0.9-6.7,3.2-9.2c1.6-1.7,3.7-2.5,6.3-2.3c2.4,0.2,4.4,1.3,5.7,3.1c2,2.8,2.1,6.9,1.8,9.8c1.6-0.5,3.7-1.1,5.7-1.1
				c4.5,0,7.4,2.4,8.3,6.9c0.6,2.9,0.1,5.4-1.5,7.4c-2.1,2.6-5.7,3.6-8.4,4c1.6,2.5,3.5,6.2,2.8,9.7c-0.4,2.2-1.8,4-4.1,5.2
				C141,360.2,139.6,360.5,138.2,360.5z M129.1,345.3l1.5,4c0.8,2.2,3.8,7.8,7.6,7.8c0.8,0,1.6-0.2,2.5-0.7c1.3-0.7,2-1.6,2.3-2.8
				c0.6-3.2-2.7-7.9-4-9.4l-2.6-3l4,0.1c0,0,0,0,0,0c0.9,0,6.6-0.1,8.9-2.9c0.9-1.1,1.2-2.6,0.8-4.5c-0.6-2.8-2.1-4.1-4.9-4.1
				c-3.4,0-7.1,1.9-7.1,1.9l-3.4,1.7l0.9-3.7c0.4-1.9,1.2-7.4-0.8-10.1c-0.7-1-1.7-1.5-3.1-1.6c-1.5-0.1-2.6,0.3-3.5,1.2
				c-2.3,2.4-2.4,7.8-2.3,9.7l0.2,3.6l-3-2c0,0-4.5-3.1-8.2-3.1c-2.1,0-3.3,1-4,3.1c-0.6,1.7-0.5,3.2,0.3,4.5
				c1.7,2.8,6.4,4.2,8.1,4.5l4.6,0.8l-4,2.4c-1.5,0.9-5.3,3.9-5.6,7.1c-0.2,1.6,0.6,3.1,2.2,4.6c1.3,1.2,2.5,1.8,3.7,1.8
				c3.4,0,6.5-5.2,7.3-7L129.1,345.3z"/>
		</g>
		<g>
			<path d="M129.8,344c-0.2,0-0.4,0-0.6,0c-2.9-0.4-4.9-3-4.6-5.9c0.4-2.9,3-4.9,5.9-4.6c2.9,0.3,4.9,3,4.6,5.9
				C134.7,342,132.5,344,129.8,344z M129.8,337c-0.9,0-1.7,0.7-1.8,1.6c-0.1,1,0.6,1.9,1.6,2c0.9,0.1,1.9-0.6,2-1.6
				c0.1-1-0.6-1.9-1.6-2C130,337,129.9,337,129.8,337z"/>
		</g>
	</g>
	<g>
		<g>
			<path d="M132.9,229.9c-4.5,0-7.7-4-9.4-6.9c-1.8,2.6-4.8,6-8.8,6c-2.1,0-4.1-0.9-6-2.7c-2.4-2.3-3.5-4.8-3.3-7.5
				c0.3-3.1,2.5-5.7,4.4-7.5c-2.4-0.9-5.4-2.5-7-5.2c-1.3-2.2-1.5-4.7-0.6-7.4c1.2-3.5,3.8-5.5,7.3-5.5c2.7,0,5.5,1.1,7.5,2.1
				c0.2-2.8,0.9-6.7,3.2-9.2c1.6-1.7,3.7-2.5,6.3-2.3c2.4,0.2,4.4,1.3,5.7,3.1c2,2.8,2.1,6.9,1.8,9.8c1.6-0.5,3.7-1.1,5.7-1.1
				c4.5,0,7.4,2.4,8.3,6.9c0.6,2.9,0.1,5.4-1.5,7.4c-2.1,2.6-5.7,3.6-8.4,4c1.6,2.5,3.5,6.2,2.8,9.7c-0.4,2.2-1.8,4-4.1,5.2
				C135.7,229.5,134.3,229.9,132.9,229.9z M123.8,214.6l1.5,4c0.8,2.2,3.8,7.8,7.6,7.8c0.8,0,1.6-0.2,2.5-0.7c1.3-0.7,2-1.6,2.3-2.8
				c0.6-3.2-2.7-7.9-4-9.4l-2.6-3l4,0.1c0,0,0,0,0,0c0.9,0,6.6-0.1,8.9-2.9c0.9-1.1,1.2-2.6,0.8-4.5c-0.6-2.8-2.1-4.1-4.9-4.1
				c-3.4,0-7.1,1.9-7.1,1.9l-3.4,1.7l0.9-3.7c0.4-1.9,1.2-7.4-0.8-10.1c-0.7-1-1.7-1.5-3.1-1.6c-1.5-0.1-2.6,0.3-3.5,1.2
				c-2.3,2.4-2.4,7.8-2.3,9.7l0.2,3.6l-3-2c0,0-4.5-3.1-8.2-3.1c-2.1,0-3.3,1-4,3.1c-0.6,1.7-0.5,3.2,0.3,4.5
				c1.7,2.8,6.4,4.2,8.1,4.5l4.6,0.8l-4,2.4c-1.5,0.9-5.3,3.9-5.6,7.1c-0.2,1.6,0.6,3.1,2.2,4.6c1.3,1.2,2.5,1.8,3.7,1.8
				c3.4,0,6.5-5.2,7.3-7L123.8,214.6z"/>
		</g>
		<g>
			<path d="M124.5,213.4c-0.2,0-0.4,0-0.6,0c-2.9-0.4-4.9-3-4.6-5.9c0.3-2.9,3-4.9,5.9-4.6c2.9,0.3,4.9,3,4.6,5.9
				C129.5,211.4,127.2,213.4,124.5,213.4z M124.5,206.3c-0.9,0-1.7,0.7-1.8,1.6c-0.1,1,0.6,1.9,1.6,2c0.9,0.1,1.9-0.6,2-1.6
				c0.1-1-0.6-1.9-1.6-2C124.7,206.3,124.6,206.3,124.5,206.3z"/>
		</g>
	</g>
	<g>
		<path d="M208,316.4l-0.9-0.5c-1.8-0.9-17.3-9.5-17-18c0.2-5.4,3.3-8.5,8.6-8.5c3.4,0,7,1.3,8.5,1.9c1.6-0.8,5.3-2.5,8.9-2.5
			c4.8,0,7.9,2.9,8.6,8.3c1.1,8.4-14.3,17.8-16,18.8L208,316.4z M198.8,292.9c-3.4,0-5,1.6-5.2,5.1c-0.2,4.6,8.3,11,14.3,14.4
			c5.9-3.6,14.1-10.4,13.5-14.8c-0.5-3.6-2.1-5.2-5.2-5.2c-3.7,0-7.9,2.4-8,2.4l-0.8,0.5l-0.8-0.4
			C206.6,294.8,202.5,292.9,198.8,292.9z"/>
	</g>
	<g>
		<path d="M323.2,240.6l-0.9-0.5c-2.2-1.2-21.9-12-21.6-22.7c0.2-6.7,4-10.4,10.6-10.4c4.5,0,9.1,1.7,11,2.5c1.9-1,6.7-3.2,11.4-3.2
			c5.9,0,9.7,3.6,10.6,10.2c1.4,10.5-18.1,22.3-20.3,23.6L323.2,240.6z M311.4,210.6c-4.7,0-6.9,2.2-7.1,7
			c-0.3,6.9,12.8,15.6,18.8,19c6-3.7,18.7-13,17.8-19.6c-0.7-4.9-2.9-7.1-7.1-7.1c-4.9,0-10.4,3.2-10.5,3.2l-0.8,0.5l-0.8-0.4
			C321.7,213.1,316.2,210.6,311.4,210.6z"/>
	</g>
	<path d="M251.6,220c-0.2-19.4-21.4-30.1-27.7-32.9v-82.7h5.6V90.6h-44.6v13.8h6.2v82.8c-5.5,2.9-24.2,14.1-27.7,32.3l-0.4,172.4
		l0.5,0.7c6.7,9.8,35.9,10.6,44.6,10.6c15.6,0,35.9-2.1,41.4-7.9c1.5-1.6,1.8-3.2,1.7-4.1L251.6,220z M190.1,99.2v-3.3h34.1v3.3H224
		h-32.8H190.1z M218.7,104.4v81.8h-22.4v-81.8H218.7z M246.1,391.2c-0.5,2.3-13.9,6.7-37.9,6.7c-19.6,0-35.6-3.1-39.8-7.7l0.3-169.9
		c3.3-16.6,22.3-27.1,25.7-28.8h26.5c3.3,1.4,25.4,11.2,25.6,28.6L246.1,391.2z"/>
	<g>
		<path d="M238.7,347.5h-62.2V250h62.2V347.5z M179.9,344h55.3v-90.5h-55.3V344z"/>
	</g>
	<path d="M328.4,383.9v-44.6c12.4-1.9,22-10.3,26.2-23.1l0.1-60.6l-0.5-0.5c-4.9-4.6-25.9-5-32.2-5c-4.4,0-26.7,0.2-30.5,4.3
		c-0.7,0.8-0.8,1.6-0.8,1.9l0,59.5c1.2,13,13.4,21.5,26.2,23.5v44.7c-14.4,1-27.8,5.5-27.8,13.3v1.7h67.2v-1.7
		C356.2,389.4,342.7,384.8,328.4,383.9z M321.9,253.5c14.2,0,25.8,1.5,29.2,3.6l0,43.6h-57.1l0-44.2
		C295.8,255.2,306.1,253.5,321.9,253.5z M294.1,315.6l0-11.4h57.1l0,11.1c-4.4,13.1-15,20.9-28.5,20.9
		C309.6,336.2,295.3,328.4,294.1,315.6z M320.3,383.7v-43h4.5v43H320.3z M293,395.4c2.6-4.2,14-8.2,29.6-8.2c15.6,0,27,4,29.6,8.2
		H293z"/>
</g>
</svg>
