<?xml version="1.0" encoding="utf-8"?>
<!-- Generator: Adobe Illustrator 24.2.1, SVG Export Plug-In . SVG Version: 6.00 Build 0)  -->
<svg version="1.1" id="Layer_1" xmlns="http://www.w3.org/2000/svg" xmlns:xlink="http://www.w3.org/1999/xlink" x="0px" y="0px"
	 viewBox="0 0 430.47 430.47" style="enable-background:new 0 0 430.47 430.47;" xml:space="preserve">
<style type="text/css">
	.st0{fill:#343466;}
</style>
<g>
	<g>
		<path class="st0" d="M215.23,423.92c-115.07,0-208.68-93.61-208.68-208.68c0-115.07,93.61-208.68,208.68-208.68
			c115.07,0,208.68,93.61,208.68,208.68C423.92,330.3,330.3,423.92,215.23,423.92z M215.23,11.18
			c-112.52,0-204.06,91.54-204.06,204.06c0,112.52,91.54,204.06,204.06,204.06c112.51,0,204.06-91.54,204.06-204.06
			C419.29,102.72,327.75,11.18,215.23,11.18z"/>
	</g>
	<g>
		<g>
			<path class="st0" d="M248.86,326.42c-4,0-6.76-3.5-8.27-6.11c-1.55,2.34-4.23,5.34-7.76,5.34c-1.84,0-3.63-0.81-5.34-2.4
				c-2.16-2.02-3.14-4.25-2.89-6.64c0.29-2.76,2.21-5.07,3.88-6.6c-2.11-0.78-4.76-2.19-6.19-4.56c-1.16-1.92-1.34-4.12-0.54-6.53
				c1.03-3.13,3.33-4.85,6.47-4.85c2.39,0,4.88,0.99,6.64,1.88c0.17-2.44,0.8-5.94,2.84-8.13c1.44-1.54,3.28-2.23,5.6-2.05
				c2.12,0.18,3.85,1.12,5.01,2.71c1.79,2.48,1.86,6.13,1.63,8.64c1.42-0.48,3.25-0.94,5.07-0.94c3.96,0,6.57,2.16,7.35,6.07
				c0.51,2.59,0.05,4.77-1.37,6.5c-1.89,2.29-5.01,3.18-7.39,3.52c1.42,2.17,3.07,5.48,2.51,8.54c-0.36,1.96-1.6,3.56-3.59,4.62
				C251.31,326.09,250.07,326.42,248.86,326.42z M240.81,312.91l1.33,3.55c0.71,1.91,3.32,6.88,6.73,6.88c0.7,0,1.45-0.21,2.21-0.61
				c1.16-0.61,1.81-1.42,2-2.45c0.53-2.86-2.4-6.97-3.57-8.31l-2.31-2.64l3.51,0.09c0.66-0.01,5.82-0.07,7.9-2.59
				c0.82-1,1.06-2.29,0.73-3.95c-0.49-2.48-1.83-3.59-4.32-3.59c-2.99,0-6.27,1.66-6.3,1.68l-2.98,1.53l0.77-3.25
				c0.4-1.67,1.05-6.54-0.69-8.94c-0.63-0.86-1.53-1.34-2.76-1.44c-1.3-0.11-2.3,0.24-3.08,1.08c-2.01,2.15-2.16,6.92-2.05,8.57
				l0.22,3.18l-2.63-1.8c-0.04-0.03-4.01-2.72-7.28-2.72c-1.83,0-2.92,0.84-3.54,2.73c-0.51,1.54-0.42,2.83,0.25,3.97
				c1.51,2.51,5.7,3.73,7.19,3.99l4.04,0.7l-3.5,2.14c-1.29,0.78-4.7,3.44-4.98,6.25c-0.14,1.39,0.49,2.72,1.92,4.06
				c1.12,1.04,2.21,1.57,3.24,1.57c3.03,0,5.74-4.59,6.45-6.2L240.81,312.91z"/>
		</g>
		<g>
			<path class="st0" d="M241.45,311.81c-0.18,0-0.37-0.01-0.56-0.03c-2.55-0.31-4.38-2.63-4.07-5.18c0.31-2.52,2.62-4.37,5.18-4.07
				c2.55,0.31,4.37,2.63,4.07,5.18C245.8,310.05,243.81,311.81,241.45,311.81z M241.45,305.58c-0.8,0-1.47,0.6-1.57,1.39
				c-0.1,0.86,0.52,1.64,1.38,1.75c0.82,0.1,1.65-0.52,1.75-1.37c0.1-0.86-0.51-1.65-1.37-1.75
				C241.58,305.58,241.51,305.58,241.45,305.58z"/>
		</g>
	</g>
	<g>
		<g>
			<path class="st0" d="M113.03,307.63c-4,0-6.77-3.5-8.27-6.11c-1.55,2.34-4.23,5.34-7.76,5.34c-1.84,0-3.64-0.81-5.34-2.4
				c-2.16-2.02-3.13-4.25-2.89-6.64c0.29-2.76,2.21-5.07,3.88-6.6c-2.11-0.78-4.77-2.19-6.19-4.56c-1.16-1.92-1.34-4.12-0.54-6.53
				c1.03-3.13,3.33-4.85,6.47-4.85c2.38,0,4.88,0.99,6.64,1.88c0.17-2.44,0.8-5.94,2.84-8.13c1.44-1.54,3.28-2.24,5.6-2.05
				c2.12,0.18,3.86,1.12,5.01,2.71c1.8,2.48,1.86,6.13,1.63,8.64c1.42-0.48,3.25-0.94,5.07-0.94c3.96,0,6.57,2.16,7.35,6.07
				c0.51,2.59,0.05,4.77-1.37,6.5c-1.89,2.29-5.02,3.18-7.39,3.52c1.42,2.17,3.07,5.48,2.51,8.54c-0.36,1.96-1.6,3.56-3.59,4.62
				C115.48,307.3,114.25,307.63,113.03,307.63z M104.98,294.12l1.33,3.55c0.72,1.91,3.32,6.88,6.73,6.88c0.7,0,1.45-0.21,2.21-0.61
				c1.16-0.61,1.81-1.42,2-2.45c0.53-2.86-2.4-6.97-3.57-8.31l-2.31-2.64l3.51,0.09c0,0,0.01,0,0.01,0c0.76,0,5.83-0.09,7.89-2.59
				c0.82-1,1.06-2.29,0.73-3.95c-0.49-2.48-1.83-3.59-4.32-3.59c-2.99,0-6.27,1.66-6.3,1.68l-2.98,1.53l0.77-3.25
				c0.4-1.67,1.05-6.54-0.69-8.94c-0.63-0.86-1.53-1.34-2.76-1.44c-1.3-0.11-2.3,0.24-3.08,1.08c-2.01,2.15-2.16,6.92-2.05,8.57
				l0.22,3.18l-2.63-1.8c-0.04-0.03-4.01-2.72-7.28-2.72c-1.83,0-2.92,0.84-3.55,2.73c-0.51,1.54-0.42,2.83,0.25,3.97
				c1.51,2.51,5.7,3.73,7.18,3.99l4.04,0.7l-3.5,2.14c-1.29,0.78-4.7,3.44-4.98,6.25c-0.14,1.39,0.49,2.72,1.92,4.06
				c1.12,1.04,2.21,1.57,3.24,1.57c3.03,0,5.74-4.59,6.44-6.2L104.98,294.12z"/>
		</g>
		<g>
			<path class="st0" d="M105.63,293.02c-0.19,0-0.37-0.01-0.56-0.03c-2.55-0.31-4.37-2.63-4.07-5.18c0.31-2.52,2.61-4.37,5.18-4.07
				c2.55,0.31,4.37,2.63,4.07,5.18C109.97,291.26,107.99,293.02,105.63,293.02z M105.62,286.79c-0.79,0-1.47,0.6-1.56,1.39
				c-0.1,0.86,0.52,1.64,1.38,1.75c0.82,0.1,1.65-0.52,1.75-1.37c0.1-0.86-0.51-1.65-1.37-1.75
				C105.75,286.79,105.69,286.79,105.62,286.79z"/>
		</g>
	</g>
	<g>
		<g>
			<path class="st0" d="M108.37,192.18c-4,0-6.77-3.5-8.27-6.1c-1.55,2.34-4.23,5.34-7.76,5.34c-1.84,0-3.64-0.81-5.34-2.4
				c-2.16-2.02-3.13-4.25-2.89-6.64c0.29-2.76,2.21-5.07,3.88-6.6c-2.11-0.79-4.77-2.19-6.19-4.56c-1.16-1.92-1.34-4.12-0.54-6.53
				c1.03-3.13,3.33-4.85,6.47-4.85c2.38,0,4.88,0.99,6.64,1.88c0.17-2.44,0.8-5.94,2.84-8.13c1.44-1.54,3.29-2.24,5.6-2.05
				c2.12,0.18,3.86,1.11,5.01,2.71c1.79,2.48,1.86,6.13,1.63,8.64c1.42-0.48,3.25-0.94,5.07-0.94c3.96,0,6.57,2.16,7.35,6.07
				c0.51,2.59,0.05,4.77-1.37,6.5c-1.89,2.29-5.02,3.18-7.39,3.52c1.42,2.17,3.07,5.48,2.51,8.53c-0.36,1.96-1.6,3.56-3.59,4.62
				C110.82,191.85,109.59,192.18,108.37,192.18z M100.32,178.67l1.33,3.55c0.72,1.91,3.32,6.88,6.73,6.88c0.7,0,1.45-0.21,2.21-0.61
				c1.16-0.61,1.81-1.42,2-2.45c0.53-2.86-2.4-6.97-3.57-8.31l-2.31-2.64l3.51,0.09c0,0,0.01,0,0.02,0c0.76,0,5.83-0.09,7.88-2.59
				c0.82-1,1.06-2.29,0.73-3.95c-0.49-2.48-1.83-3.59-4.32-3.59c-2.99,0-6.27,1.66-6.3,1.68l-2.98,1.53l0.77-3.26
				c0.4-1.67,1.05-6.54-0.69-8.94c-0.63-0.86-1.53-1.33-2.76-1.44c-1.3-0.11-2.3,0.24-3.08,1.08c-2.01,2.15-2.16,6.92-2.05,8.57
				l0.22,3.18l-2.63-1.8c-0.04-0.03-4.01-2.72-7.28-2.72c-1.83,0-2.92,0.84-3.55,2.73c-0.51,1.54-0.42,2.83,0.25,3.97
				c1.51,2.51,5.7,3.73,7.18,3.99l4.04,0.7l-3.5,2.14c-1.29,0.78-4.7,3.44-4.98,6.25c-0.14,1.39,0.49,2.72,1.92,4.06
				c1.12,1.04,2.21,1.57,3.24,1.57c3.03,0,5.74-4.59,6.44-6.2L100.32,178.67z"/>
		</g>
		<g>
			<path class="st0" d="M100.97,177.57c-0.19,0-0.37-0.01-0.56-0.03c-2.55-0.31-4.37-2.63-4.07-5.18c0.31-2.52,2.62-4.37,5.18-4.07
				c2.55,0.31,4.37,2.63,4.07,5.18C105.31,175.81,103.32,177.57,100.97,177.57z M100.96,171.34c-0.79,0-1.47,0.6-1.56,1.39
				c-0.1,0.86,0.52,1.64,1.38,1.75c0.83,0.1,1.65-0.52,1.75-1.38c0.1-0.86-0.51-1.65-1.37-1.75
				C101.09,171.34,101.02,171.34,100.96,171.34z"/>
		</g>
	</g>
	<g>
		<path class="st0" d="M174.73,268.59l-0.76-0.41c-1.57-0.83-15.31-8.37-15.03-15.94c0.18-4.75,2.96-7.48,7.63-7.48
			c3.03,0,6.17,1.11,7.55,1.67c1.41-0.72,4.7-2.19,7.9-2.19c4.28,0,6.98,2.59,7.63,7.3c1.01,7.42-12.62,15.69-14.18,16.61
			L174.73,268.59z M166.58,247.85c-3.03,0-4.44,1.39-4.55,4.51c-0.15,4.06,7.37,9.74,12.64,12.69c5.19-3.21,12.47-9.2,11.94-13.09
			c-0.44-3.2-1.85-4.63-4.57-4.63c-3.29,0-7.02,2.13-7.05,2.15l-0.69,0.4l-0.73-0.34C173.52,249.53,169.85,247.85,166.58,247.85z"/>
	</g>
	<g>
		<path class="st0" d="M276.56,201.67l-0.76-0.41c-1.99-1.06-19.4-10.61-19.05-20.05c0.22-5.92,3.54-9.17,9.36-9.17
			c3.96,0,8.07,1.51,9.71,2.19c1.65-0.86,5.96-2.86,10.11-2.86c5.24,0,8.56,3.19,9.35,8.98c1.26,9.24-16,19.71-17.98,20.87
			L276.56,201.67z M266.11,175.12c-4.13,0-6.12,1.97-6.28,6.2c-0.22,6.07,11.3,13.8,16.66,16.8c5.28-3.26,16.54-11.51,15.74-17.35
			c-0.59-4.31-2.59-6.32-6.29-6.32c-4.36,0-9.22,2.79-9.26,2.82l-0.7,0.4l-0.73-0.34C275.2,177.32,270.41,175.12,266.11,175.12z"/>
	</g>
	<path class="st0" d="M213.31,183.39c-0.18-17.14-18.94-26.64-24.48-29.07V81.25h4.91V69.07h-39.43v12.18h5.51v73.19
		c-4.86,2.59-21.38,12.47-24.44,28.54l-0.34,152.39l0.41,0.59c5.96,8.66,31.69,9.33,39.43,9.33c13.82,0,31.7-1.83,36.61-6.99
		c1.34-1.41,1.57-2.82,1.52-3.64L213.31,183.39z M158.93,76.63V73.7h30.18v2.93h-0.28h-29.01H158.93z M184.2,81.25v72.3h-19.76
		v-72.3H184.2z M208.39,334.76c-0.43,2.06-12.32,5.91-33.51,5.91c-17.29,0-31.48-2.78-35.21-6.82l0.3-150.21
		c2.93-14.68,19.75-23.94,22.72-25.46h23.39c2.96,1.23,22.45,9.88,22.62,25.24L208.39,334.76z"/>
	<g>
		<path class="st0" d="M201.83,296.13h-55.01v-86.19h55.01V296.13z M149.91,293.05h48.84v-80.02h-48.84V293.05z"/>
	</g>
	<path class="st0" d="M281.11,328.25V288.8c10.98-1.71,19.46-9.08,23.18-20.43l0.05-53.56l-0.48-0.45
		c-4.3-4.09-22.87-4.41-28.46-4.41c-3.92,0-23.63,0.18-26.99,3.81c-0.63,0.68-0.72,1.37-0.69,1.72l0.04,52.57
		c1.09,11.49,11.89,18.96,23.18,20.74v39.49c-12.7,0.86-24.61,4.9-24.61,11.71v1.54h59.4v-1.54
		C305.72,333.15,293.81,329.11,281.11,328.25z M275.4,213.02c12.52,0,22.84,1.3,25.85,3.2l0.02,38.55h-50.45l-0.02-39.04
		C252.35,214.55,261.41,213.02,275.4,213.02z M250.83,267.88l-0.01-10.03h50.45l0.01,9.79c-3.87,11.57-13.27,18.46-25.19,18.46
		C264.53,286.1,251.91,279.23,250.83,267.88z M274.02,328.08v-38.04h4.01v38.04H274.02z M249.89,338.43
		c2.27-3.69,12.38-7.26,26.14-7.26c13.76,0,23.86,3.57,26.14,7.26H249.89z"/>
</g>
</svg>
