<?xml version="1.0" encoding="utf-8"?>
<!-- Generator: Adobe Illustrator 24.2.1, SVG Export Plug-In . SVG Version: 6.00 Build 0)  -->
<svg version="1.1" id="Layer_1" xmlns="http://www.w3.org/2000/svg" xmlns:xlink="http://www.w3.org/1999/xlink" x="0px" y="0px"
	 viewBox="0 0 430.47 430.47" style="enable-background:new 0 0 430.47 430.47;" xml:space="preserve">
<style type="text/css">
	.st0{fill:#343466;}
</style>
<g>
	<g>
		<path class="st0" d="M215.23,411.32c-108.12,0-196.08-87.96-196.08-196.09S107.11,19.15,215.23,19.15
			c108.12,0,196.09,87.96,196.09,196.09S323.36,411.32,215.23,411.32z M215.23,23.5c-105.72,0-191.74,86.01-191.74,191.74
			s86.01,191.74,191.74,191.74c105.73,0,191.74-86.01,191.74-191.74S320.96,23.5,215.23,23.5z"/>
	</g>
	<g>
		<path class="st0" d="M217.15,214.73l-0.83-0.58c-1.34-0.94-32.81-23.17-32.3-40.92c0.38-13.54,8.53-16.38,15.29-16.38
			c7.48,0,15.37,3.43,17.77,4.56c2.38-1.37,10.32-5.6,18-5.6c6.22,0,14,2.84,15.77,16.37c2.28,17.35-31.43,40.98-32.87,41.97
			L217.15,214.73z M199.31,159.75c-8.08,0-12.13,4.44-12.39,13.57c-0.42,14.71,25.26,34.23,30.24,37.87
			c5.18-3.75,32.68-24.41,30.82-38.62c-1.22-9.32-5.44-13.85-12.89-13.85c-8.15,0-17.07,5.53-17.16,5.58l-0.7,0.44l-0.73-0.37
			C216.4,164.31,207.38,159.75,199.31,159.75z"/>
	</g>
	<g>
		<g>
			<path class="st0" d="M199.91,286.02c-2.93,0-5-2.36-6.21-4.32c-1.22,1.74-3.19,3.74-5.8,3.74l0,0c-1.45,0-2.87-0.63-4.2-1.88
				c-2.11-1.96-2.39-3.92-2.26-5.22c0.21-1.98,1.45-3.64,2.64-4.81c-1.54-0.63-3.31-1.68-4.33-3.37c-0.9-1.5-1.05-3.27-0.43-5.13
				c0.82-2.47,2.64-3.84,5.13-3.84c1.67,0,3.4,0.62,4.71,1.25c0.17-1.84,0.69-4.24,2.18-5.83c1.13-1.21,2.6-1.78,4.43-1.62
				c1.68,0.14,3.05,0.88,3.97,2.15c1.31,1.81,1.45,4.33,1.32,6.23c1.02-0.31,2.24-0.58,3.46-0.58c3.12,0,5.18,1.7,5.79,4.79
				c0.5,2.53-0.31,4.18-1.09,5.12c-1.35,1.65-3.52,2.36-5.28,2.67c1.03,1.66,2.09,4.02,1.69,6.23c-0.29,1.56-1.27,2.83-2.84,3.67
				C201.84,285.76,200.87,286.02,199.91,286.02z M193.9,274.84l1.24,3.31c0.52,1.38,2.38,4.97,4.77,4.97c0.48,0,0.99-0.14,1.52-0.43
				c1.04-0.55,1.27-1.19,1.35-1.63c0.37-2.02-1.81-5.07-2.61-5.98L198,272.6l3.29,0.08h0c1.61,0,4.49-0.39,5.68-1.84
				c0.55-0.67,0.71-1.56,0.49-2.71c-0.34-1.72-1.22-2.45-2.95-2.45c-1.81,0-3.92,0.88-4.59,1.23l-2.8,1.44l0.73-3.07
				c0.29-1.22,0.77-4.75-0.47-6.45c-0.42-0.58-1.01-0.89-1.86-0.96c-0.89-0.07-1.54,0.15-2.07,0.71c-1.43,1.53-1.54,5-1.46,6.21
				l0.19,2.98l-2.46-1.69c-0.81-0.55-3.33-1.99-5.29-1.99c-1.24,0-1.95,0.55-2.38,1.85c-0.35,1.07-0.3,1.96,0.17,2.73
				c1.08,1.8,4.1,2.66,5.18,2.84l3.84,0.65l-3.33,2.01c-0.93,0.57-3.39,2.48-3.59,4.47c-0.1,0.95,0.35,1.86,1.35,2.8
				c0.78,0.73,1.53,1.1,2.23,1.1c2.1,0,4.05-3.31,4.56-4.47L193.9,274.84z"/>
		</g>
		<g>
			<path class="st0" d="M194.36,275.07c-0.15,0-0.3-0.01-0.45-0.03c-1-0.12-1.9-0.62-2.53-1.42c-0.63-0.8-0.9-1.79-0.78-2.79
				c0.25-2.05,2.1-3.56,4.21-3.31c1,0.12,1.9,0.62,2.52,1.42c0.62,0.8,0.9,1.79,0.78,2.79
				C197.89,273.63,196.27,275.07,194.36,275.07z M194.45,270.41c-0.55,0-0.92,0.33-0.97,0.77c-0.03,0.23,0.04,0.47,0.18,0.65
				c0.15,0.19,0.36,0.3,0.59,0.33l0.11,0.01c0.45,0,0.82-0.34,0.88-0.78c0.03-0.24-0.04-0.47-0.18-0.66
				c-0.15-0.19-0.35-0.3-0.59-0.33H194.45z"/>
		</g>
	</g>
	<g>
		<g>
			<path class="st0" d="M222.24,306.36c-2.93,0-5-2.36-6.21-4.31c-1.22,1.74-3.2,3.74-5.8,3.74h0c-1.45,0-2.87-0.63-4.2-1.87
				c-2.11-1.97-2.39-3.92-2.26-5.22c0.21-1.98,1.45-3.64,2.64-4.81c-1.54-0.63-3.31-1.68-4.33-3.37c-0.9-1.5-1.05-3.27-0.43-5.14
				c0.82-2.47,2.64-3.84,5.13-3.84c1.67,0,3.4,0.62,4.71,1.25c0.17-1.84,0.7-4.24,2.18-5.84c1.13-1.21,2.62-1.79,4.43-1.62
				c1.68,0.14,3.05,0.88,3.97,2.15c1.31,1.81,1.45,4.33,1.32,6.23c1.02-0.31,2.24-0.58,3.46-0.58c3.13,0,5.18,1.7,5.8,4.79
				c0.5,2.53-0.32,4.18-1.09,5.12c-1.36,1.65-3.52,2.36-5.28,2.67c1.03,1.66,2.09,4.02,1.69,6.23c-0.29,1.56-1.27,2.83-2.84,3.67
				C224.17,306.1,223.2,306.36,222.24,306.36z M216.23,295.19l1.24,3.31c0.52,1.38,2.39,4.97,4.77,4.97c0.48,0,0.99-0.14,1.52-0.43
				c1.04-0.55,1.27-1.2,1.35-1.63c0.37-2.03-1.81-5.07-2.61-5.98l-2.18-2.48l3.31,0.08h0c1.61,0,4.49-0.39,5.68-1.83
				c0.55-0.68,0.71-1.56,0.49-2.71c-0.34-1.72-1.22-2.45-2.95-2.45c-1.81,0-3.92,0.88-4.58,1.22l-2.8,1.44l0.73-3.07
				c0.29-1.22,0.77-4.75-0.47-6.45c-0.42-0.58-1.01-0.89-1.86-0.96c-0.88-0.07-1.54,0.15-2.07,0.72c-1.43,1.53-1.53,5.08-1.46,6.2
				l0.2,2.98l-2.47-1.69c-0.81-0.55-3.33-1.99-5.29-1.99c-1.24,0-1.95,0.55-2.38,1.85c-0.35,1.07-0.3,1.96,0.17,2.73
				c1.08,1.8,4.1,2.66,5.18,2.85l3.84,0.65l-3.33,2.01c-0.93,0.57-3.39,2.48-3.59,4.47c-0.1,0.95,0.35,1.86,1.35,2.8
				c0.78,0.73,1.53,1.1,2.23,1.1c2.1,0,4.05-3.31,4.56-4.47L216.23,295.19z"/>
		</g>
		<g>
			<path class="st0" d="M216.7,295.41c-0.15,0-0.3-0.01-0.45-0.03c-2.07-0.25-3.55-2.13-3.31-4.2c0.25-2.06,2.13-3.56,4.21-3.31
				c1,0.12,1.9,0.62,2.52,1.42c0.63,0.8,0.9,1.79,0.78,2.79C220.22,293.98,218.61,295.41,216.7,295.41z M216.78,290.75
				c-0.55,0-0.92,0.34-0.98,0.78c-0.06,0.48,0.29,0.92,0.78,0.98l0.11,0.01c0.45,0,0.82-0.33,0.87-0.78
				c0.03-0.24-0.04-0.47-0.18-0.66c-0.15-0.19-0.36-0.3-0.59-0.33H216.78z"/>
		</g>
	</g>
	<g>
		<g>
			<path class="st0" d="M243.94,286.81c-2.93,0-5-2.36-6.21-4.31c-1.22,1.74-3.2,3.74-5.8,3.74h0c-1.45,0-2.87-0.63-4.2-1.87
				c-2.11-1.97-2.39-3.92-2.26-5.22c0.21-1.98,1.45-3.64,2.64-4.81c-1.54-0.63-3.31-1.68-4.33-3.37c-0.9-1.5-1.05-3.27-0.43-5.13
				c0.82-2.47,2.64-3.84,5.13-3.84c1.67,0,3.4,0.62,4.71,1.25c0.17-1.84,0.7-4.24,2.18-5.84c1.13-1.21,2.62-1.79,4.43-1.62
				c1.68,0.14,3.05,0.88,3.97,2.15c1.31,1.81,1.45,4.33,1.32,6.23c1.02-0.31,2.24-0.58,3.46-0.58c3.13,0,5.18,1.7,5.8,4.79
				c0.5,2.53-0.32,4.18-1.09,5.12c-1.35,1.65-3.51,2.36-5.28,2.67c1.03,1.66,2.09,4.02,1.69,6.23c-0.29,1.56-1.27,2.83-2.84,3.67
				C245.87,286.56,244.9,286.81,243.94,286.81z M237.92,275.64l1.24,3.31c0.52,1.38,2.39,4.97,4.77,4.97c0.48,0,0.99-0.14,1.52-0.43
				c1.04-0.55,1.27-1.19,1.35-1.63c0.37-2.02-1.81-5.07-2.61-5.98l-2.16-2.48l3.29,0.08h0c1.61,0,4.49-0.39,5.68-1.84
				c0.55-0.68,0.71-1.56,0.49-2.71c-0.34-1.72-1.22-2.45-2.95-2.45c-1.81,0-3.93,0.88-4.59,1.22l-2.8,1.44l0.73-3.07
				c0.29-1.22,0.77-4.75-0.47-6.45c-0.42-0.58-1.01-0.89-1.86-0.96c-0.88-0.07-1.54,0.15-2.07,0.71c-1.43,1.53-1.54,5-1.46,6.21
				l0.19,2.97l-2.46-1.68c-0.81-0.55-3.33-1.99-5.29-1.99c-1.24,0-1.95,0.55-2.38,1.85c-0.35,1.07-0.3,1.96,0.17,2.73
				c1.08,1.8,4.1,2.66,5.18,2.85l3.84,0.65l-3.33,2.01c-0.93,0.57-3.39,2.48-3.59,4.47c-0.1,0.95,0.35,1.86,1.35,2.8
				c0.78,0.73,1.53,1.1,2.23,1.1c2.1,0,4.05-3.31,4.56-4.47L237.92,275.64z"/>
		</g>
		<g>
			<path class="st0" d="M238.39,275.86c-0.15,0-0.3-0.01-0.45-0.03c-1-0.12-1.9-0.62-2.52-1.42c-0.63-0.79-0.9-1.78-0.78-2.79
				c0.25-2.05,2.13-3.56,4.21-3.31c1,0.12,1.9,0.62,2.52,1.42c0.62,0.8,0.9,1.78,0.78,2.79
				C241.91,274.43,240.3,275.86,238.39,275.86z M238.48,271.2c-0.55,0-0.92,0.34-0.97,0.78c-0.03,0.23,0.04,0.46,0.18,0.65
				c0.15,0.19,0.36,0.3,0.59,0.33l0.11,0.01c0.45,0,0.82-0.34,0.88-0.78c0.03-0.24-0.04-0.47-0.18-0.65
				c-0.15-0.19-0.35-0.3-0.59-0.33H238.48z"/>
		</g>
	</g>
	<g>
		<path class="st0" d="M320.83,271.94L320.83,271.94c-1.49,0-3.01-0.05-4.52-0.15c-6.39-0.42-31.42-6.18-37.14-26.74
			c-1.18-4.23-0.1-8.96,2.95-12.98c3.46-4.56,8.87-7.28,14.47-7.28c5.42,0,10.84,2.47,15.68,7.15
			c22.71,21.94,40.65,27.98,40.83,28.04l2.59,0.85l-2.15,1.67C353.04,262.89,341.2,271.94,320.83,271.94z M296.58,227.69
			c-4.7,0-9.24,2.29-12.16,6.13c-2.46,3.24-3.38,7.14-2.46,10.45c5.26,18.91,28.58,24.23,34.53,24.62c1.44,0.09,2.9,0.14,4.33,0.14
			c14.37,0,24.42-4.83,28.66-7.34c-5.93-2.51-20.95-10-39.24-27.67C305.96,229.89,301.24,227.69,296.58,227.69z"/>
	</g>
	<g>
		<path class="st0" d="M244.04,137.92c0,0.98-0.8,1.78-1.78,1.78c-0.98,0-1.78-0.8-1.78-1.78c0-0.98,0.8-1.78,1.78-1.78
			C243.24,136.13,244.04,136.93,244.04,137.92z"/>
	</g>
	<g>
		<path class="st0" d="M114.35,271.94c-20.37,0-32.21-9.04-32.71-9.43l-2.15-1.67l2.59-0.85c0.18-0.06,18.12-6.1,40.83-28.04
			c4.84-4.68,10.27-7.15,15.68-7.15c5.6,0,11.01,2.72,14.47,7.28c3.05,4.01,4.12,8.74,2.95,12.98
			c-5.72,20.56-30.75,26.32-37.14,26.74C117.36,271.89,115.84,271.94,114.35,271.94z M85.68,261.7c4.25,2.51,14.29,7.34,28.66,7.34
			c1.43,0,2.89-0.05,4.33-0.14c5.96-0.39,29.27-5.71,34.53-24.62c0.92-3.3,0-7.21-2.46-10.45c-2.92-3.84-7.46-6.13-12.16-6.13
			c-4.65,0-9.38,2.19-13.67,6.34C106.63,251.7,91.62,259.19,85.68,261.7z"/>
	</g>
	<path class="st0" d="M365.46,257.93l-0.19,0.22c-0.06,0.06-0.19,0.21-0.67,0.21c-6.28,0-27.64-20.64-48.3-40.6l-1.36-1.32
		c-5.66-5.47-12.51-8.24-20.36-8.24c-17.8,0-35.31,14.08-39.67,17.84c-0.89-0.96-2.21-2.75-2.45-5.15c-0.29-2.86,0.97-5.9,3.74-9.05
		c19.54-22.26,26.94-48.19,18.85-66.06c-4.61-10.18-13.73-16.01-25.02-16.01c-7.24,0-14.94,2.94-17.33,7.88l-15.1,6.13l-15.1-6.13
		c-2.4-4.94-10.1-7.88-17.33-7.88c-11.3,0-20.42,5.84-25.02,16.01c-8.09,17.87-0.69,43.8,18.85,66.06c2.77,3.15,4.02,6.2,3.73,9.05
		c-0.24,2.41-1.56,4.19-2.45,5.15c-4.36-3.76-21.87-17.84-39.67-17.84c-7.85,0-14.7,2.77-20.36,8.24l-1.33,1.28
		c-20.67,19.97-42.05,40.63-48.33,40.63c-0.48,0-0.61-0.15-0.67-0.21l-0.19-0.22l-23.06-10.94l2.32,4.02
		c0.22,0.37,5.35,9.24,11.43,14.88c13.94,12.93,35.21,20.35,58.36,20.35c25.81,0,65.21-19.62,77.33-44.91
		c6.12-12.78,4.58-25.48-4.46-36.73c-28.96-36.04-22.86-47.22-19.22-53.91c0,0,0-0.01,0.01-0.01c2.79,1.77,7.72,2.18,14.07,2.18
		l3.14-0.01c3.93,0,7.18-1.07,9.53-2.96l18.42-2.38L236,149.9c2.35,1.89,5.61,2.96,9.53,2.96l3.14,0.01
		c6.35,0,11.28-0.41,14.07-2.18c0,0,0.01,0.01,0.01,0.01c3.65,6.68,9.74,17.87-19.22,53.9c-9.04,11.25-10.59,23.95-4.46,36.73
		c12.12,25.29,51.52,44.91,77.33,44.91c23.15,0,44.42-7.42,58.36-20.35c6.08-5.64,11.22-14.51,11.43-14.88l2.32-4.02L365.46,257.93z
		 M189.64,149.96l-3.14,0.01c-3.16,0-11.56,0-13.31-2.44l-1.41-1.96l-1.07,2.16c-0.25,0.5-0.53,1.02-0.83,1.58
		c-3.99,7.32-10.67,19.56,19.5,57.11c8.41,10.47,9.79,21.79,4.11,33.66c-11.67,24.36-49.75,43.26-74.72,43.26
		c-22.43,0-42.98-7.14-56.39-19.58c-3.2-2.97-6.2-7.01-8.24-10.02l13.84,6.57c0.51,0.47,1.34,0.94,2.59,0.94
		c7.09,0,23.75-15.75,50.34-41.44l1.33-1.28c5.1-4.93,11.27-7.43,18.35-7.43c18.96,0,38.52,17.78,38.71,17.96l0.88,0.81l0.96-0.72
		c0.16-0.12,3.92-2.97,4.44-7.93c0.39-3.7-1.1-7.51-4.43-11.31c-22.84-26.01-24.18-50.17-18.39-62.95
		c4.12-9.09,12.28-14.31,22.38-14.31c7.19,0,15.21,3.38,15.21,8.22C200.36,146.48,196.25,149.96,189.64,149.96z M201.89,146.62
		c0.85-1.6,1.33-3.46,1.36-5.54l10.03,4.07L201.89,146.62z M231.93,141.08c0.03,2.08,0.5,3.94,1.35,5.54l-11.38-1.47L231.93,141.08z
		 M372.79,263.77c-13.41,12.44-33.97,19.58-56.39,19.58c-24.96,0-63.04-18.9-74.71-43.26c-5.69-11.87-4.31-23.2,4.1-33.66
		c30.18-37.54,23.5-49.79,19.5-57.11c-0.3-0.55-0.59-1.08-0.83-1.58l-1.07-2.16l-1.41,1.96c-1.75,2.44-10.15,2.44-13.31,2.44
		l-3.14-0.01c-6.61,0-10.72-3.48-10.72-9.08c0-4.84,8.02-8.22,15.21-8.22c10.11,0,18.26,5.22,22.38,14.31
		c5.79,12.78,4.44,36.94-18.39,62.95c-3.34,3.8-4.83,7.6-4.44,11.31c0.52,4.96,4.28,7.81,4.44,7.93l0.96,0.72l0.88-0.81
		c0.2-0.18,19.75-17.96,38.71-17.96c7.07,0,13.25,2.5,18.35,7.43l1.36,1.32c26.57,25.67,43.22,41.41,50.31,41.41
		c1.25,0,2.08-0.47,2.59-0.94l13.84-6.57C378.99,256.76,376,260.8,372.79,263.77z"/>
	<g>
		<path class="st0" d="M191.14,137.92c0,0.98,0.8,1.78,1.78,1.78c0.98,0,1.78-0.8,1.78-1.78c0-0.98-0.8-1.78-1.78-1.78
			C191.93,136.13,191.14,136.93,191.14,137.92z"/>
	</g>
	<g>
		
			<rect x="185.18" y="243.43" transform="matrix(1.907379e-03 -1 1 1.907379e-03 -28.2007 461.5074)" class="st0" width="63.83" height="2.9"/>
	</g>
</g>
</svg>
