<?xml version="1.0" encoding="utf-8"?>
<!-- Generator: Adobe Illustrator 24.2.1, SVG Export Plug-In . SVG Version: 6.00 Build 0)  -->
<svg version="1.1" id="Layer_1" xmlns="http://www.w3.org/2000/svg" xmlns:xlink="http://www.w3.org/1999/xlink" x="0px" y="0px"
	 viewBox="0 0 430.47 430.47" style="enable-background:new 0 0 430.47 430.47;" xml:space="preserve">
<style type="text/css">
	.st0{fill:#343466;}
</style>
<g>
	<g>
		<path class="st0" d="M215.23,413.62c-109.39,0-198.38-88.99-198.38-198.38c0-109.39,88.99-198.38,198.38-198.38
			c109.39,0,198.38,88.99,198.38,198.38C413.62,324.62,324.62,413.62,215.23,413.62z M215.23,21.25
			c-106.96,0-193.98,87.02-193.98,193.99c0,106.96,87.02,193.99,193.98,193.99c106.96,0,193.99-87.02,193.99-193.99
			C409.22,108.27,322.2,21.25,215.23,21.25z"/>
	</g>
	<g>
		<path class="st0" d="M196.7,266.24l-0.8-0.49c-1.43-0.87-35.03-21.58-34.41-40.74c0.47-14.62,8.92-17.69,15.92-17.69
			c7.6,0,15.53,3.57,18.01,4.78c2.48-1.52,10.72-6.19,18.64-6.19c6.31,0,14.19,3.03,15.92,17.49c2.22,18.65-31.07,41.36-32.48,42.32
			L196.7,266.24z M177.41,210.25c-8.41,0-12.66,4.86-12.99,14.85c-0.51,15.94,27.1,34.37,32.2,37.64c5-3.54,32.27-23.58,30.43-39
			c-1.19-10.03-5.45-14.9-13-14.9c-8.36,0-17.65,6.1-17.75,6.16l-0.73,0.48l-0.77-0.41C194.72,215.02,185.63,210.25,177.41,210.25z"
			/>
	</g>
	<g>
		<path class="st0" d="M243.18,293l-0.8-0.49c-1.22-0.74-29.82-18.38-29.3-34.76c0.41-12.58,7.69-15.22,13.73-15.22
			c6.38,0,13.03,2.94,15.26,4.02c2.23-1.36,9.16-5.22,15.82-5.22c5.44,0,12.24,2.61,13.72,15.03c1.9,15.96-26.45,35.3-27.65,36.11
			L243.18,293z M226.8,245.46c-6.99,0-10.53,4.05-10.8,12.38c-0.43,13.28,22.47,28.69,27.09,31.66c4.53-3.21,27.13-19.95,25.6-32.79
			c-1-8.38-4.53-12.45-10.81-12.45c-7.02,0-14.85,5.14-14.93,5.19l-0.73,0.48l-0.77-0.41C241.38,249.49,233.72,245.46,226.8,245.46z
			"/>
	</g>
	<g>
		<g>
			<path class="st0" d="M259.42,213.09c-2.96,0-5.05-2.39-6.28-4.36c-1.24,1.76-3.23,3.78-5.87,3.78c-1.47,0-2.9-0.64-4.25-1.9
				c-2.13-1.99-2.42-3.97-2.28-5.28c0.21-2,1.46-3.68,2.67-4.86c-1.55-0.64-3.35-1.7-4.38-3.42c-0.91-1.51-1.06-3.31-0.44-5.19
				c0.83-2.5,2.67-3.88,5.19-3.88c1.68,0,3.44,0.63,4.77,1.26c0.17-1.86,0.7-4.29,2.21-5.9c1.14-1.22,2.66-1.8,4.48-1.65
				c1.7,0.14,3.09,0.9,4.01,2.18c1.32,1.83,1.47,4.38,1.33,6.3c1.03-0.31,2.27-0.58,3.5-0.58c3.16,0,5.24,1.72,5.86,4.84
				c0.51,2.56-0.32,4.23-1.1,5.18c-1.37,1.67-3.56,2.39-5.34,2.7c1.04,1.68,2.11,4.07,1.71,6.3c-0.29,1.58-1.28,2.86-2.87,3.71
				C261.37,212.83,260.39,213.09,259.42,213.09z M253.33,201.76l1.26,3.37c0.52,1.4,2.41,5.02,4.82,5.02c0.48,0,1-0.15,1.54-0.43
				c1.06-0.56,1.28-1.21,1.36-1.65c0.38-2.06-1.83-5.13-2.64-6.05l-2.2-2.51l3.35,0.08c0,0,0,0,0,0c1.63,0,4.54-0.39,5.74-1.86
				c0.56-0.68,0.72-1.58,0.49-2.75c-0.34-1.74-1.24-2.48-2.99-2.48c-2.19,0-4.62,1.23-4.64,1.24l-2.83,1.45l0.73-3.09
				c0.29-1.23,0.77-4.81-0.48-6.53c-0.43-0.59-1.02-0.9-1.88-0.97c-0.9-0.07-1.56,0.15-2.09,0.72c-1.45,1.54-1.56,5.06-1.48,6.28
				l0.2,3.01l-2.49-1.7c-0.82-0.56-3.37-2.01-5.35-2.01c-1.25,0-1.97,0.56-2.41,1.87c-0.36,1.08-0.3,1.98,0.17,2.77
				c1.09,1.82,4.15,2.7,5.24,2.88l3.88,0.66l-3.37,2.04c-0.94,0.57-3.43,2.51-3.64,4.52c-0.1,0.96,0.35,1.88,1.36,2.83
				c0.79,0.74,1.55,1.11,2.25,1.11c2.14,0,4.1-3.35,4.62-4.52L253.33,201.76z"/>
		</g>
		<g>
			<path class="st0" d="M253.8,202.01c-0.15,0-0.3-0.01-0.46-0.03c-2.1-0.25-3.6-2.16-3.35-4.26c0.25-2.08,2.12-3.6,4.26-3.35
				c2.09,0.25,3.59,2.16,3.34,4.26C257.37,200.56,255.74,202.01,253.8,202.01z M253.9,197.29c-0.55,0-0.93,0.34-0.98,0.78
				c-0.06,0.49,0.3,0.94,0.79,1l0.11,0.01c0.45,0,0.83-0.34,0.89-0.79c0.06-0.49-0.29-0.94-0.78-1
				C253.91,197.29,253.9,197.29,253.9,197.29z"/>
		</g>
	</g>
	<g>
		<g>
			<path class="st0" d="M171.06,288.71c-2.96,0-5.06-2.39-6.28-4.36c-1.24,1.76-3.23,3.78-5.87,3.78c-1.47,0-2.9-0.64-4.25-1.9
				c-2.13-1.99-2.42-3.97-2.28-5.28c0.21-2.01,1.46-3.68,2.67-4.86c-1.55-0.64-3.35-1.7-4.38-3.42c-0.91-1.51-1.06-3.31-0.44-5.19
				c0.83-2.5,2.67-3.88,5.19-3.88c1.69,0,3.44,0.63,4.77,1.26c0.17-1.86,0.7-4.29,2.21-5.91c1.14-1.22,2.67-1.8,4.48-1.64
				c1.7,0.14,3.09,0.9,4.01,2.18c1.32,1.83,1.47,4.38,1.33,6.3c1.03-0.31,2.27-0.58,3.5-0.58c3.16,0,5.25,1.72,5.86,4.84
				c0.51,2.56-0.32,4.22-1.1,5.18c-1.37,1.67-3.56,2.39-5.34,2.7c1.04,1.68,2.12,4.07,1.71,6.3c-0.29,1.58-1.28,2.87-2.87,3.71
				C173.01,288.45,172.03,288.71,171.06,288.71z M164.97,277.39l1.26,3.37c0.53,1.4,2.41,5.02,4.83,5.02c0.48,0,1-0.14,1.54-0.43
				c1.06-0.56,1.28-1.21,1.36-1.65c0.38-2.06-1.84-5.13-2.64-6.05l-2.21-2.51l3.35,0.08c0,0,0,0,0,0c1.63,0,4.55-0.39,5.75-1.86
				c0.56-0.68,0.72-1.58,0.49-2.75c-0.34-1.74-1.24-2.48-2.99-2.48c-1.83,0-3.97,0.9-4.64,1.24l-2.83,1.46l0.74-3.1
				c0.29-1.23,0.78-4.81-0.47-6.53c-0.43-0.59-1.02-0.9-1.88-0.97c-0.89-0.08-1.56,0.15-2.09,0.72c-1.45,1.54-1.55,5.06-1.47,6.28
				l0.2,3.01l-2.49-1.7c-0.82-0.56-3.37-2.01-5.35-2.01c-1.25,0-1.97,0.56-2.41,1.87c-0.36,1.08-0.3,1.98,0.17,2.76
				c1.09,1.82,4.15,2.7,5.24,2.88l3.88,0.66l-3.37,2.04c-0.94,0.58-3.43,2.51-3.64,4.52c-0.1,0.96,0.35,1.88,1.36,2.83
				c0.79,0.74,1.55,1.11,2.25,1.11c2.14,0,4.1-3.35,4.62-4.52L164.97,277.39z"/>
		</g>
		<g>
			<path class="st0" d="M165.45,277.63c-0.15,0-0.3-0.01-0.46-0.03c-2.1-0.26-3.6-2.17-3.35-4.26c0.25-2.08,2.15-3.59,4.26-3.35
				c2.1,0.25,3.6,2.16,3.35,4.26C169.02,276.18,167.38,277.63,165.45,277.63z M165.54,272.91c-0.55,0-0.93,0.34-0.98,0.79
				c-0.06,0.49,0.29,0.94,0.79,1l0.11,0.01c0.45,0,0.84-0.34,0.89-0.79c0.06-0.49-0.29-0.94-0.78-1
				C165.55,272.91,165.54,272.91,165.54,272.91z"/>
		</g>
	</g>
	<g>
		<path class="st0" d="M239.09,156.5h-49.11v-44.34h49.11V156.5z M192.91,153.57h43.24v-38.48h-43.24V153.57z"/>
	</g>
	<g>
		<rect x="213.07" y="113.62" class="st0" width="2.93" height="41.41"/>
	</g>
	<g>
		<rect x="191.44" y="132.86" class="st0" width="46.18" height="2.93"/>
	</g>
	<g>
		<path class="st0" d="M279.41,335.2h-39.38v-35.62h39.38V335.2z M242.96,332.26h33.52v-29.76h-33.52V332.26z"/>
	</g>
	<g>
		<rect x="258.25" y="301.04" class="st0" width="2.93" height="32.69"/>
	</g>
	<g>
		<rect x="241.5" y="315.92" class="st0" width="36.45" height="2.93"/>
	</g>
	<path class="st0" d="M214.86,43.09l-47.6,61.94V78.44H153.3l0.96,43.5l-36.24,47.16h17.05v195.19h160.58V169.1h16.04L214.86,43.09z
		 M156.3,81.38h8.03v27.47l-7.21,9.39L156.3,81.38z M230.92,359.89H199.8v-56.93h31.12V359.89z M291.25,359.89h-57.4v-59.86h-36.98
		v59.86h-57.4V169.1h151.78V359.89z M140.84,164.7l73.56-94.28l74.51,94.28H140.84z M294.51,164.7l-79.65-99.68l-77.73,99.68h-2.06
		h-8.12l87.91-114.4l87.9,114.4h-7.11H294.51z"/>
	<g>
		<path class="st0" d="M202.77,244.53c-3.25,0-5.9-2.65-5.9-5.9c0-3.25,2.65-5.9,5.9-5.9c3.25,0,5.9,2.65,5.9,5.9
			C208.67,241.88,206.02,244.53,202.77,244.53z M202.77,235.66c-1.64,0-2.97,1.33-2.97,2.97c0,1.64,1.33,2.97,2.97,2.97
			c1.64,0,2.97-1.33,2.97-2.97C205.74,236.99,204.41,235.66,202.77,235.66z"/>
	</g>
	<g>
		<path class="st0" d="M231.21,268.64c-3.13,0-5.68-2.55-5.68-5.68c0-3.13,2.55-5.68,5.68-5.68c3.13,0,5.68,2.55,5.68,5.68
			C236.89,266.1,234.34,268.64,231.21,268.64z M231.21,260.21c-1.52,0-2.75,1.23-2.75,2.75c0,1.52,1.23,2.75,2.75,2.75
			s2.75-1.23,2.75-2.75C233.96,261.45,232.72,260.21,231.21,260.21z"/>
	</g>
	<g>
		<path class="st0" d="M235.42,264.43c-16.58,0-34.12-15.07-34.12-29.32h2.93c0,12.58,16.32,26.39,31.19,26.39V264.43z"/>
	</g>
	<g>
		<path class="st0" d="M204.8,341.43c-1.93,0-3.5-1.57-3.5-3.5c0-1.93,1.57-3.5,3.5-3.5c1.93,0,3.5,1.57,3.5,3.5
			C208.3,339.85,206.73,341.43,204.8,341.43z M204.8,337.36c-0.31,0-0.57,0.26-0.57,0.57s0.26,0.57,0.57,0.57
			c0.31,0,0.57-0.25,0.57-0.57S205.12,337.36,204.8,337.36z"/>
	</g>
	<g>
		<path class="st0" d="M190.25,334.95h-39.38v-35.62h39.38V334.95z M153.8,332.02h33.52v-29.76H153.8V332.02z"/>
	</g>
	<g>
		<rect x="169.09" y="300.8" class="st0" width="2.93" height="32.69"/>
	</g>
	<g>
		<rect x="152.33" y="315.67" class="st0" width="36.45" height="2.93"/>
	</g>
</g>
</svg>
