<?xml version="1.0" encoding="utf-8"?>
<!-- Generator: Adobe Illustrator 24.2.1, SVG Export Plug-In . SVG Version: 6.00 Build 0)  -->
<svg version="1.1" id="Layer_1" xmlns="http://www.w3.org/2000/svg" xmlns:xlink="http://www.w3.org/1999/xlink" x="0px" y="0px"
	 viewBox="0 0 430.47 430.47" style="enable-background:new 0 0 430.47 430.47;" xml:space="preserve">
<style type="text/css">
	.st0{fill:#343466;}
</style>
<g>
	<g>
		<path class="st0" d="M215.24,412.47C106.48,412.47,18,323.99,18,215.23S106.48,18,215.24,18s197.23,88.48,197.23,197.23
			S323.99,412.47,215.24,412.47z M215.24,22.37c-106.34,0-192.86,86.52-192.86,192.86S108.89,408.1,215.24,408.1
			c106.34,0,192.86-86.52,192.86-192.86S321.58,22.37,215.24,22.37z"/>
	</g>
	<g>
		<path class="st0" d="M272.8,252.53l-0.55-0.32c-1.19-0.69-11.61-6.97-11.44-13.07c0.11-3.84,2.1-5.95,5.61-5.95
			c2.35,0,4.79,0.97,5.84,1.44c1.04-0.57,3.53-1.78,5.97-1.78c1.86,0,5.09,0.77,5.76,5.89c0.79,5.99-9.49,12.71-10.66,13.46
			L272.8,252.53z M266.42,235.27c-2.36,0-3.45,1.21-3.53,3.93c-0.11,3.91,6.63,8.89,9.86,10.89c3.16-2.12,9.67-7.34,9.18-11.08
			c-0.48-3.66-2.34-4.08-3.7-4.08c-2.52,0-5.34,1.74-5.37,1.76l-0.5,0.31l-0.52-0.27C271.81,236.71,268.95,235.27,266.42,235.27z"/>
	</g>
	<g>
		<g>
			<path class="st0" d="M240.72,318.96c-2.41,0-4.04-2.28-4.86-3.82c-0.86,1.39-2.45,3.36-4.58,3.36c-1.04,0-2.06-0.47-3.03-1.39
				c-1.23-1.17-1.78-2.45-1.64-3.82c0.18-1.72,1.46-3.16,2.47-4.04c-1.25-0.43-2.95-1.26-3.84-2.73c-0.67-1.11-0.77-2.37-0.32-3.77
				c0.59-1.81,1.85-2.77,3.64-2.77c1.49,0,3.05,0.68,4.08,1.23c0.07-1.44,0.4-3.7,1.66-5.05c0.81-0.86,1.84-1.25,3.13-1.14
				c1.2,0.1,2.15,0.61,2.8,1.52c1.11,1.54,1.08,3.88,0.91,5.36c0.85-0.31,2.03-0.64,3.2-0.64c2.24,0,3.72,1.24,4.16,3.48
				c0.29,1.5,0.03,2.76-0.79,3.75c-1.16,1.41-3.14,1.89-4.53,2.05c0.85,1.26,1.98,3.36,1.63,5.23c-0.21,1.12-0.88,2-2.01,2.61
				C242.11,318.77,241.41,318.96,240.72,318.96z M235.96,311.55l0.63,1.71c0.43,1.18,2.02,4.24,4.13,4.24
				c0.44,0,0.91-0.13,1.39-0.39c0.73-0.4,1.15-0.92,1.27-1.59c0.33-1.8-1.44-4.33-2.15-5.15l-1.07-1.25l1.65,0.04
				c0.49-0.03,3.5-0.04,4.78-1.6c0.53-0.65,0.69-1.48,0.48-2.55c-0.31-1.57-1.17-2.3-2.72-2.3c-1.8,0-3.77,1.01-3.79,1.02
				l-1.41,0.73l0.36-1.55c0.24-1.03,0.63-4.04-0.45-5.53c-0.4-0.55-0.97-0.85-1.75-0.92c-0.83-0.07-1.45,0.15-1.94,0.68
				c-1.24,1.33-1.34,4.27-1.27,5.3l0.1,1.51l-1.24-0.87c-0.02-0.02-2.4-1.66-4.39-1.66c-1.15,0-1.87,0.56-2.26,1.76
				c-0.32,0.99-0.26,1.83,0.18,2.56c1.12,1.87,4.31,2.45,4.34,2.46l1.88,0.33l-1.63,1.01c-0.03,0.02-2.81,1.76-3.03,3.88
				c-0.09,0.9,0.3,1.76,1.19,2.6c0.69,0.65,1.37,0.99,2.03,0.99c1.89,0,3.5-2.76,3.96-3.82L235.96,311.55z"/>
		</g>
		<g>
			<path class="st0" d="M236.36,310.21c-0.1,0-0.2-0.01-0.31-0.02c-1.4-0.17-2.41-1.47-2.24-2.88c0.17-1.41,1.46-2.43,2.86-2.27
				c1.4,0.17,2.41,1.46,2.24,2.88C238.75,309.23,237.66,310.21,236.36,310.21z M236.47,306.49c-0.68,0-1.14,0.43-1.21,1
				c-0.07,0.62,0.36,1.19,0.97,1.26l0.13,0.01c0.56,0,1.03-0.43,1.1-1c0.07-0.62-0.36-1.19-0.97-1.27
				C236.48,306.49,236.47,306.49,236.47,306.49z"/>
		</g>
	</g>
	<g>
		<g>
			<path class="st0" d="M272.44,318.1c-2.41,0-4.04-2.28-4.87-3.82c-0.86,1.39-2.45,3.36-4.58,3.36c-1.04,0-2.06-0.47-3.03-1.39
				c-1.23-1.17-1.78-2.45-1.64-3.81c0.18-1.73,1.46-3.16,2.47-4.04c-1.25-0.43-2.95-1.26-3.84-2.73c-0.67-1.1-0.77-2.37-0.32-3.77
				c0.59-1.81,1.85-2.77,3.65-2.77c1.48,0,3.05,0.68,4.08,1.23c0.07-1.44,0.39-3.69,1.66-5.05c0.81-0.86,1.83-1.25,3.13-1.14
				c1.2,0.1,2.15,0.61,2.81,1.52c1.11,1.54,1.08,3.88,0.91,5.35c0.85-0.31,2.03-0.64,3.19-0.64c2.24,0,3.72,1.24,4.16,3.48
				c0.29,1.5,0.03,2.76-0.79,3.75c-1.16,1.41-3.14,1.89-4.53,2.05c0.85,1.26,1.97,3.36,1.63,5.23c-0.21,1.12-0.88,2-2.01,2.61
				C273.83,317.91,273.13,318.1,272.44,318.1z M267.68,310.7l0.63,1.7c0.43,1.18,2.02,4.24,4.13,4.24c0.44,0,0.91-0.13,1.39-0.39
				c0.73-0.4,1.15-0.92,1.27-1.6c0.33-1.8-1.44-4.33-2.14-5.15l-1.08-1.25l1.65,0.04c0.42,0,3.49-0.04,4.78-1.6
				c0.54-0.65,0.69-1.48,0.49-2.55c-0.31-1.57-1.17-2.3-2.73-2.3c-1.8,0-3.77,1.01-3.79,1.02l-1.41,0.73l0.36-1.55
				c0.24-1.03,0.63-4.04-0.45-5.53c-0.4-0.55-0.97-0.86-1.75-0.92c-0.81-0.07-1.45,0.15-1.94,0.69c-1.25,1.33-1.34,4.28-1.27,5.3
				l0.1,1.52l-1.25-0.87c-0.02-0.02-2.4-1.66-4.39-1.66c-1.15,0-1.87,0.56-2.26,1.77c-0.32,0.99-0.26,1.83,0.18,2.56
				c0.94,1.56,3.45,2.3,4.34,2.45l1.89,0.33l-1.64,1.01c-0.03,0.02-2.81,1.76-3.03,3.88c-0.09,0.9,0.3,1.75,1.19,2.6
				c0.69,0.66,1.37,0.99,2.03,0.99c1.88,0,3.5-2.76,3.96-3.82L267.68,310.7z"/>
		</g>
		<g>
			<path class="st0" d="M268.08,309.35c-0.1,0-0.21-0.01-0.31-0.02c-1.4-0.17-2.41-1.46-2.24-2.88c0.17-1.41,1.44-2.43,2.86-2.27
				c1.4,0.17,2.41,1.46,2.24,2.88C270.47,308.37,269.37,309.35,268.08,309.35z M268.18,305.63c-0.68,0-1.15,0.43-1.21,0.99
				c-0.07,0.62,0.36,1.19,0.97,1.26l0.13,0.01c0.56,0,1.03-0.43,1.1-1c0.07-0.62-0.36-1.19-0.97-1.26
				C268.2,305.63,268.19,305.63,268.18,305.63z"/>
		</g>
	</g>
	<g>
		<g>
			<path class="st0" d="M304.46,318.73c-2.41,0-4.04-2.28-4.87-3.82c-0.86,1.39-2.45,3.36-4.58,3.36c-1.04,0-2.06-0.47-3.03-1.39
				c-1.23-1.17-1.78-2.45-1.64-3.82c0.18-1.73,1.46-3.16,2.47-4.04c-1.25-0.43-2.95-1.26-3.84-2.73c-0.67-1.1-0.77-2.37-0.32-3.77
				c0.59-1.81,1.85-2.77,3.65-2.77c1.49,0,3.05,0.68,4.08,1.23c0.07-1.44,0.39-3.69,1.66-5.05c0.81-0.86,1.84-1.26,3.13-1.14
				c1.2,0.1,2.15,0.61,2.8,1.52c1.11,1.54,1.08,3.88,0.91,5.36c0.85-0.31,2.03-0.64,3.19-0.64c2.24,0,3.72,1.24,4.15,3.48
				c0.29,1.5,0.03,2.76-0.79,3.75c-1.16,1.41-3.14,1.89-4.53,2.05c0.85,1.26,1.98,3.36,1.63,5.24c-0.21,1.12-0.88,2-2.01,2.61
				C305.85,318.55,305.15,318.73,304.46,318.73z M299.7,311.33l0.63,1.71c0.43,1.18,2.02,4.24,4.13,4.24c0.44,0,0.91-0.13,1.39-0.39
				c0.73-0.4,1.15-0.92,1.27-1.6c0.33-1.8-1.44-4.33-2.15-5.15l-1.08-1.25l1.65,0.04c0.41,0.06,3.5-0.04,4.78-1.6
				c0.53-0.65,0.69-1.48,0.48-2.55c-0.31-1.57-1.17-2.3-2.72-2.3c-1.81,0-3.77,1.01-3.79,1.02l-1.41,0.74l0.36-1.55
				c0.24-1.03,0.63-4.04-0.45-5.53c-0.4-0.55-0.97-0.85-1.75-0.92c-0.83-0.07-1.44,0.15-1.94,0.68c-1.24,1.33-1.34,4.27-1.27,5.3
				l0.1,1.51l-1.24-0.87c-0.02-0.02-2.4-1.66-4.39-1.66c-1.15,0-1.87,0.56-2.26,1.77c-0.32,0.99-0.26,1.82,0.18,2.56
				c1.13,1.87,4.32,2.45,4.35,2.46l1.89,0.33l-1.63,1.01c-0.03,0.02-2.81,1.76-3.03,3.89c-0.09,0.9,0.3,1.75,1.19,2.6
				c0.69,0.66,1.37,0.99,2.03,0.99c1.89,0,3.5-2.76,3.96-3.82L299.7,311.33z"/>
		</g>
		<g>
			<path class="st0" d="M300.1,309.99c-0.1,0-0.21-0.01-0.31-0.02c-1.4-0.17-2.41-1.47-2.24-2.88c0.17-1.41,1.44-2.45,2.86-2.27
				c1.4,0.17,2.41,1.46,2.24,2.88C302.49,309.01,301.39,309.99,300.1,309.99z M300.21,306.27c-0.68,0-1.14,0.43-1.21,0.99
				c-0.07,0.62,0.36,1.19,0.97,1.26l0.13,0.01c0.56,0,1.03-0.43,1.1-1c0.07-0.62-0.36-1.19-0.97-1.26
				C300.22,306.27,300.21,306.27,300.21,306.27z"/>
		</g>
	</g>
	<g>
		<path class="st0" d="M136.52,178.58h-16.13v15.66h16.13V178.58z M122.4,192.23v-11.63h12.1v11.63H122.4z"/>
		<path class="st0" d="M167.57,178.58h-16.13v15.66h16.13V178.58z M153.46,192.23v-11.63h12.1v11.63H153.46z"/>
		<path class="st0" d="M195.25,178.58h-16.13v15.66h16.13V178.58z M181.13,192.23v-11.63h12.1v11.63H181.13z"/>
		<path class="st0" d="M222.77,178.58h-16.13v15.66h16.13V178.58z M208.66,192.23v-11.63h12.1v11.63H208.66z"/>
		<path class="st0" d="M250.61,178.58h-16.13v15.66h16.13V178.58z M236.49,192.23v-11.63h12.1v11.63H236.49z"/>
		<path class="st0" d="M279.86,178.58h-16.13v15.66h16.13V178.58z M265.75,192.23v-11.63h12.1v11.63H265.75z"/>
		<path class="st0" d="M307.46,178.58h-16.13v15.66h16.13V178.58z M293.35,192.23v-11.63h12.1v11.63H293.35z"/>
		<path class="st0" d="M136.83,234.57H120.7v15.66h16.13V234.57z M122.71,248.21v-11.63h12.1v11.63H122.71z"/>
		<path class="st0" d="M167.88,234.57h-16.13v15.66h16.13V234.57z M153.77,248.21v-11.63h12.1v11.63H153.77z"/>
		<path class="st0" d="M195.56,234.57h-16.13v15.66h16.13V234.57z M181.45,248.21v-11.63h12.1v11.63H181.45z"/>
		<path class="st0" d="M223.09,234.57h-16.13v15.66h16.13V234.57z M208.97,248.21v-11.63h12.1v11.63H208.97z"/>
		<path class="st0" d="M250.92,234.57h-16.13v15.66h16.13V234.57z M236.81,248.21v-11.63h12.1v11.63H236.81z"/>
		<path class="st0" d="M307.78,234.57h-16.13v15.66h16.13V234.57z M293.66,248.21v-11.63h12.1v11.63H293.66z"/>
		<path class="st0" d="M137.15,261.86h-16.13v15.66h16.13V261.86z M123.03,275.5v-11.63h12.1v11.63H123.03z"/>
		<path class="st0" d="M152.07,277.52h16.13v-15.66h-16.13V277.52z M166.18,263.87v11.63h-12.1v-11.63H166.18z"/>
		<path class="st0" d="M179.75,277.52h16.13v-15.66h-16.13V277.52z M193.87,263.87v11.63h-12.1v-11.63H193.87z"/>
		<path class="st0" d="M207.27,277.52h16.13v-15.66h-16.13V277.52z M221.39,263.87v11.63h-12.1v-11.63H221.39z"/>
		<path class="st0" d="M235.11,277.52h16.13v-15.66h-16.13V277.52z M249.22,263.87v11.63h-12.1v-11.63H249.22z"/>
		<path class="st0" d="M264.36,277.52h16.13v-15.66h-16.13V277.52z M278.47,263.87v11.63h-12.1v-11.63H278.47z"/>
		<path class="st0" d="M291.96,277.52h16.13v-15.66h-16.13V277.52z M306.07,263.87v11.63h-12.1v-11.63H306.07z"/>
		<path class="st0" d="M121.33,304.18h16.13v-15.66h-16.13V304.18z M135.44,290.53v11.63h-12.1v-11.63H135.44z"/>
		<path class="st0" d="M151.99,304.18h16.13v-15.66h-16.13V304.18z M166.1,290.53v11.63H154v-11.63H166.1z"/>
		<path class="st0" d="M179.67,304.18h16.13v-15.66h-16.13V304.18z M193.78,290.53v11.63h-12.1v-11.63H193.78z"/>
		<path class="st0" d="M121.02,222.63h16.13v-15.66h-16.13V222.63z M135.13,208.98v11.63h-12.1v-11.63H135.13z"/>
		<path class="st0" d="M152.07,222.63h16.13v-15.66h-16.13V222.63z M166.18,208.98v11.63h-12.1v-11.63H166.18z"/>
		<path class="st0" d="M179.75,222.63h16.13v-15.66h-16.13V222.63z M193.87,208.98v11.63h-12.1v-11.63H193.87z"/>
		<path class="st0" d="M207.27,222.63h16.13v-15.66h-16.13V222.63z M221.39,208.98v11.63h-12.1v-11.63H221.39z"/>
		<path class="st0" d="M235.11,222.63h16.13v-15.66h-16.13V222.63z M249.22,208.98v11.63h-12.1v-11.63H249.22z"/>
		<path class="st0" d="M264.36,222.63h16.13v-15.66h-16.13V222.63z M278.47,208.98v11.63h-12.1v-11.63H278.47z"/>
		<path class="st0" d="M291.96,206.97v15.66h16.13v-15.66H291.96z M293.98,220.61v-11.63h12.1v11.63H293.98z"/>
	</g>
	<g>
		<path class="st0" d="M128.45,169.04c-3.66,0-6.63-2.98-6.63-6.63c0-3.66,2.97-6.63,6.63-6.63c3.66,0,6.63,2.97,6.63,6.63
			C135.09,166.07,132.11,169.04,128.45,169.04z M128.45,158.69c-2.05,0-3.72,1.67-3.72,3.72c0,2.05,1.67,3.72,3.72,3.72
			c2.05,0,3.72-1.67,3.72-3.72C132.17,160.36,130.5,158.69,128.45,158.69z"/>
	</g>
	<g>
		<path class="st0" d="M159.5,169.04c-3.66,0-6.63-2.98-6.63-6.63c0-3.66,2.97-6.63,6.63-6.63c3.66,0,6.64,2.97,6.64,6.63
			C166.14,166.07,163.16,169.04,159.5,169.04z M159.5,158.69c-2.05,0-3.72,1.67-3.72,3.72c0,2.05,1.67,3.72,3.72,3.72
			c2.05,0,3.72-1.67,3.72-3.72C163.22,160.36,161.55,158.69,159.5,158.69z"/>
	</g>
	<g>
		<path class="st0" d="M187.18,169.04c-3.66,0-6.63-2.98-6.63-6.63c0-3.66,2.97-6.63,6.63-6.63s6.63,2.97,6.63,6.63
			C193.82,166.07,190.84,169.04,187.18,169.04z M187.18,158.69c-2.05,0-3.72,1.67-3.72,3.72c0,2.05,1.67,3.72,3.72,3.72
			c2.05,0,3.72-1.67,3.72-3.72C190.9,160.36,189.23,158.69,187.18,158.69z"/>
	</g>
	<g>
		<path class="st0" d="M214.71,169.04c-3.66,0-6.63-2.98-6.63-6.63c0-3.66,2.98-6.63,6.63-6.63s6.63,2.97,6.63,6.63
			C221.34,166.07,218.37,169.04,214.71,169.04z M214.71,158.69c-2.05,0-3.72,1.67-3.72,3.72c0,2.05,1.67,3.72,3.72,3.72
			c2.05,0,3.72-1.67,3.72-3.72C218.43,160.36,216.76,158.69,214.71,158.69z"/>
	</g>
	<g>
		<path class="st0" d="M242.54,169.04c-3.66,0-6.63-2.98-6.63-6.63c0-3.66,2.97-6.63,6.63-6.63c3.66,0,6.64,2.97,6.64,6.63
			C249.18,166.07,246.2,169.04,242.54,169.04z M242.54,158.69c-2.05,0-3.72,1.67-3.72,3.72c0,2.05,1.67,3.72,3.72,3.72
			c2.05,0,3.72-1.67,3.72-3.72C246.26,160.36,244.59,158.69,242.54,158.69z"/>
	</g>
	<g>
		<path class="st0" d="M271.8,169.04c-3.66,0-6.63-2.98-6.63-6.63c0-3.66,2.97-6.63,6.63-6.63c3.66,0,6.63,2.97,6.63,6.63
			C278.43,166.07,275.45,169.04,271.8,169.04z M271.8,158.69c-2.05,0-3.72,1.67-3.72,3.72c0,2.05,1.67,3.72,3.72,3.72
			c2.05,0,3.72-1.67,3.72-3.72C275.52,160.36,273.85,158.69,271.8,158.69z"/>
	</g>
	<g>
		<path class="st0" d="M299.4,169.04c-3.66,0-6.63-2.98-6.63-6.63c0-3.66,2.98-6.63,6.63-6.63c3.66,0,6.63,2.97,6.63,6.63
			C306.03,166.07,303.05,169.04,299.4,169.04z M299.4,158.69c-2.05,0-3.72,1.67-3.72,3.72c0,2.05,1.67,3.72,3.72,3.72
			c2.05,0,3.72-1.67,3.72-3.72C303.12,160.36,301.45,158.69,299.4,158.69z"/>
	</g>
	<path class="st0" d="M316.69,106.06v-5.29h-2.91v5.29h-26.8v-5.29h-2.91v5.29h-25.01v-5.29h-2.91v5.29h-25.39v-5.29h-2.91v5.29
		h-28.21v-5.29h-2.91v5.29h-26.49v-5.29h-2.91v5.29h-24.22v-5.29h-2.91v5.29h-25.39v-5.29h-2.91v5.29H88.04v38.2v186.89H342V144.26
		v-38.2H316.69z M90.95,108.98h20.91v14.62c-2.96,0.67-5.17,3.3-5.17,6.46c0,3.66,2.97,6.63,6.63,6.63c3.66,0,6.64-2.98,6.64-6.63
		c0-3.16-2.22-5.79-5.18-6.46v-14.62h25.39v14.62c-2.96,0.67-5.18,3.3-5.18,6.46c0,3.66,2.97,6.63,6.63,6.63
		c3.66,0,6.64-2.98,6.64-6.63c0-3.15-2.22-5.79-5.18-6.46v-14.62h24.22v14.62c-2.96,0.67-5.17,3.3-5.17,6.46
		c0,3.66,2.97,6.63,6.63,6.63s6.63-2.98,6.63-6.63c0-3.16-2.22-5.79-5.18-6.46v-14.62h26.49v14.62c-2.96,0.67-5.18,3.3-5.18,6.46
		c0,3.66,2.97,6.63,6.63,6.63s6.63-2.98,6.63-6.63c0-3.16-2.22-5.79-5.18-6.46v-14.62h28.21v14.62c-2.96,0.67-5.18,3.3-5.18,6.46
		c0,3.66,2.97,6.63,6.63,6.63s6.63-2.98,6.63-6.63c0-3.16-2.22-5.79-5.18-6.46v-14.62h25.39v14.62c-2.96,0.67-5.18,3.3-5.18,6.46
		c0,3.66,2.97,6.63,6.63,6.63c3.66,0,6.63-2.98,6.63-6.63c0-3.16-2.22-5.79-5.17-6.46v-14.62h25.01v14.62
		c-2.95,0.67-5.17,3.3-5.17,6.46c0,3.66,2.98,6.63,6.63,6.63c3.66,0,6.63-2.98,6.63-6.63c0-3.16-2.22-5.79-5.18-6.46v-14.62h26.8
		v14.62c-2.96,0.67-5.17,3.3-5.17,6.46c0,3.66,2.97,6.63,6.63,6.63c3.66,0,6.63-2.98,6.63-6.63c0-3.16-2.22-5.79-5.18-6.46v-14.62
		h22.39v32.37H90.95V108.98z M114.78,126.64c1.33,0.57,2.26,1.88,2.26,3.42c0,2.05-1.67,3.72-3.72,3.72c-2.05,0-3.72-1.67-3.72-3.72
		c0-1.53,0.93-2.85,2.26-3.42v3.42h2.91V126.64z M143.08,126.64c1.33,0.57,2.26,1.89,2.26,3.42c0,2.05-1.67,3.72-3.72,3.72
		c-2.05,0-3.72-1.67-3.72-3.72c0-1.53,0.93-2.85,2.26-3.42v3.42h2.91V126.64z M170.22,126.64c1.33,0.57,2.26,1.89,2.26,3.42
		c0,2.05-1.67,3.72-3.72,3.72c-2.05,0-3.72-1.67-3.72-3.72c0-1.53,0.93-2.85,2.26-3.42v3.42h2.91V126.64z M199.62,126.64
		c1.33,0.57,2.26,1.89,2.26,3.42c0,2.05-1.67,3.72-3.72,3.72c-2.05,0-3.72-1.67-3.72-3.72c0-1.53,0.93-2.85,2.26-3.42v3.42h2.91
		V126.64z M230.75,126.64c1.33,0.57,2.26,1.89,2.26,3.42c0,2.05-1.67,3.72-3.72,3.72c-2.05,0-3.72-1.67-3.72-3.72
		c0-1.53,0.93-2.85,2.26-3.42v3.42h2.91V126.64z M259.05,126.64c1.33,0.57,2.26,1.89,2.26,3.42c0,2.05-1.67,3.72-3.72,3.72
		c-2.05,0-3.72-1.67-3.72-3.72c0-1.53,0.93-2.85,2.26-3.42v3.42h2.91V126.64z M286.97,126.64c1.33,0.57,2.26,1.89,2.26,3.42
		c0,2.05-1.67,3.72-3.72,3.72c-2.05,0-3.72-1.67-3.72-3.72c0-1.53,0.93-2.85,2.26-3.42v3.42h2.91V126.64z M316.69,126.64
		c1.33,0.57,2.26,1.88,2.26,3.42c0,2.05-1.67,3.72-3.72,3.72c-2.05,0-3.72-1.67-3.72-3.72c0-1.53,0.93-2.85,2.26-3.42v3.42h2.91
		V126.64z M339.09,328.24H90.95V144.26h248.13V328.24z"/>
</g>
</svg>
