<?xml version="1.0" encoding="utf-8"?>
<!-- Generator: Adobe Illustrator 24.2.1, SVG Export Plug-In . SVG Version: 6.00 Build 0)  -->
<svg version="1.1" id="Layer_1" xmlns="http://www.w3.org/2000/svg" xmlns:xlink="http://www.w3.org/1999/xlink" x="0px" y="0px"
	 viewBox="0 0 430.47 430.47" style="enable-background:new 0 0 430.47 430.47;" xml:space="preserve">
<style type="text/css">
	.st0{fill:#343466;}
</style>
<g>
	<g>
		<path class="st0" d="M215.23,409.02c-106.85,0-193.79-86.93-193.79-193.79c0-106.86,86.93-193.79,193.79-193.79
			c106.86,0,193.79,86.93,193.79,193.79C409.02,322.09,322.09,409.02,215.23,409.02z M215.23,25.74
			c-104.49,0-189.49,85-189.49,189.49c0,104.48,85.01,189.49,189.49,189.49c104.49,0,189.49-85.01,189.49-189.49
			C404.73,110.75,319.72,25.74,215.23,25.74z"/>
	</g>
	<g>
		<g>
			<path class="st0" d="M116.07,241.61c-1.83,0-3.1-1.59-3.79-2.79c-0.71,1.07-1.94,2.44-3.55,2.44c-0.84,0-1.67-0.37-2.45-1.1
				c-0.99-0.93-1.44-1.95-1.32-3.05c0.13-1.26,1-2.32,1.77-3.02c-0.96-0.36-2.17-1-2.82-2.09c-0.53-0.88-0.62-1.89-0.25-3
				c0.48-1.43,1.53-2.23,2.97-2.23c1.09,0,2.23,0.45,3.03,0.86c0.08-1.12,0.37-2.71,1.3-3.71c0.66-0.71,1.51-1.03,2.57-0.94
				c0.98,0.08,1.77,0.51,2.3,1.25c0.82,1.13,0.85,2.8,0.75,3.95c0.65-0.22,1.48-0.42,2.31-0.42c1.82,0,3.02,0.99,3.38,2.79
				c0.24,1.19,0.02,2.19-0.63,2.98c-0.86,1.05-2.29,1.46-3.37,1.61c0.65,1,1.4,2.51,1.14,3.9c-0.16,0.9-0.73,1.64-1.65,2.12
				C117.19,241.46,116.63,241.61,116.07,241.61z M112.38,235.4l0.62,1.64c0.33,0.88,1.52,3.15,3.07,3.15c0.32,0,0.66-0.1,1.01-0.28
				c0.53-0.28,0.82-0.65,0.91-1.12c0.24-1.31-1.1-3.19-1.63-3.8l-1.08-1.23l1.64,0.04c0,0,0,0,0.01,0c0.35,0,2.66-0.04,3.6-1.18
				c0.37-0.45,0.48-1.04,0.33-1.8c-0.22-1.13-0.83-1.64-1.97-1.64c-1.36,0-2.86,0.76-2.88,0.77l-1.38,0.71l0.36-1.51
				c0.18-0.76,0.48-2.99-0.31-4.08c-0.29-0.39-0.7-0.61-1.26-0.66c-0.58-0.05-1.04,0.11-1.4,0.49c-0.92,0.98-0.99,3.16-0.94,3.92
				l0.1,1.47l-1.22-0.84c-0.02-0.01-1.83-1.24-3.33-1.24c-0.83,0-1.33,0.38-1.61,1.24c-0.23,0.7-0.19,1.29,0.12,1.81
				c0.69,1.15,2.6,1.71,3.28,1.82l1.89,0.32l-1.63,1c-0.59,0.36-2.15,1.57-2.28,2.86c-0.06,0.63,0.22,1.24,0.88,1.85
				c0.51,0.48,1.01,0.72,1.48,0.72c1.38,0,2.59-2.04,2.94-2.83L112.38,235.4z"/>
		</g>
		<g>
			<path class="st0" d="M112.68,234.92c-0.09,0-0.17,0-0.26-0.01c-0.57-0.07-1.08-0.35-1.43-0.8c-0.35-0.45-0.51-1.01-0.44-1.58
				c0.14-1.16,1.19-2.02,2.38-1.87c0.57,0.06,1.07,0.35,1.43,0.8c0.35,0.45,0.51,1.01,0.44,1.58
				C114.68,234.11,113.76,234.92,112.68,234.92z M112.75,232.07c-0.44,0-0.74,0.27-0.78,0.62c-0.02,0.19,0.03,0.37,0.15,0.52
				c0.12,0.15,0.29,0.24,0.48,0.27l0.09,0c0.36,0,0.66-0.27,0.7-0.62c0.02-0.19-0.03-0.38-0.15-0.53c-0.12-0.15-0.28-0.24-0.47-0.27
				C112.76,232.07,112.76,232.07,112.75,232.07z"/>
		</g>
	</g>
	<g>
		<g>
			<path class="st0" d="M159.25,242.55c-1.83,0-3.1-1.59-3.79-2.79c-0.71,1.07-1.94,2.44-3.55,2.44c-0.84,0-1.67-0.37-2.45-1.1
				c-0.99-0.93-1.44-1.95-1.32-3.05c0.13-1.26,1-2.32,1.77-3.01c-0.97-0.36-2.18-1.01-2.83-2.09c-0.53-0.88-0.62-1.89-0.25-3
				c0.47-1.43,1.53-2.23,2.97-2.23c1.09,0,2.23,0.45,3.03,0.86c0.08-1.12,0.37-2.71,1.3-3.71c0.66-0.71,1.5-1.03,2.57-0.94
				c0.98,0.08,1.77,0.51,2.3,1.24c0.82,1.14,0.85,2.8,0.75,3.95c0.65-0.22,1.48-0.42,2.31-0.42c1.82,0,3.02,0.99,3.38,2.79
				c0.23,1.19,0.02,2.19-0.63,2.99c-0.86,1.05-2.29,1.46-3.37,1.61c0.65,1,1.4,2.5,1.14,3.9c-0.16,0.9-0.73,1.64-1.65,2.12
				C160.37,242.4,159.8,242.55,159.25,242.55z M155.56,236.33l0.62,1.65c0.33,0.88,1.52,3.14,3.07,3.14c0.32,0,0.66-0.1,1.01-0.28
				c0.53-0.28,0.83-0.65,0.91-1.12c0.24-1.31-1.1-3.19-1.63-3.8l-1.08-1.23l1.64,0.04c0,0,0,0,0.01,0c0.35,0,2.66-0.04,3.6-1.18
				c0.37-0.45,0.48-1.04,0.33-1.8c-0.23-1.13-0.83-1.63-1.97-1.63c-1.14,0-2.47,0.55-2.88,0.77l-1.39,0.72l0.36-1.52
				c0.18-0.76,0.48-2.99-0.31-4.08c-0.29-0.39-0.7-0.61-1.26-0.65c-0.6-0.05-1.05,0.11-1.4,0.49c-0.92,0.98-0.99,3.16-0.94,3.92
				l0.1,1.48l-1.22-0.84c-0.02-0.01-1.83-1.24-3.33-1.24c-0.83,0-1.33,0.38-1.61,1.24c-0.23,0.7-0.19,1.29,0.12,1.81
				c0.69,1.15,2.6,1.71,3.28,1.82l1.88,0.33l-1.63,0.99c-0.59,0.36-2.15,1.57-2.28,2.85c-0.06,0.63,0.22,1.24,0.88,1.85
				c0.51,0.48,1.01,0.72,1.48,0.72c1.38,0,2.62-2.09,2.94-2.83L155.56,236.33z"/>
		</g>
		<g>
			<path class="st0" d="M155.85,235.86c-0.08,0-0.17-0.01-0.25-0.02c-1.17-0.14-2.01-1.21-1.87-2.38c0.14-1.16,1.2-2.02,2.38-1.87
				c1.17,0.14,2.01,1.21,1.87,2.38C157.85,235.05,156.94,235.86,155.85,235.86z M155.93,233.01c-0.44,0-0.74,0.27-0.78,0.62
				c-0.05,0.39,0.23,0.74,0.63,0.79l0.08,0.01c0.36,0,0.66-0.27,0.71-0.63c0.05-0.39-0.23-0.74-0.62-0.79
				C155.93,233.01,155.93,233.01,155.93,233.01z"/>
		</g>
	</g>
	<g>
		<g>
			<path class="st0" d="M202.29,241.61c-1.83,0-3.1-1.59-3.79-2.79c-0.71,1.07-1.94,2.44-3.55,2.44c-0.84,0-1.67-0.37-2.45-1.1
				c-0.99-0.93-1.44-1.95-1.32-3.05c0.13-1.26,1-2.32,1.77-3.01c-0.97-0.36-2.18-1.01-2.83-2.09c-0.53-0.88-0.62-1.89-0.25-3
				c0.47-1.43,1.53-2.23,2.97-2.23c1.09,0,2.23,0.45,3.03,0.86c0.08-1.12,0.37-2.71,1.3-3.71c0.66-0.71,1.5-1.03,2.57-0.94
				c0.98,0.08,1.77,0.51,2.3,1.24c0.82,1.14,0.85,2.8,0.75,3.95c0.65-0.22,1.48-0.42,2.31-0.42c1.82,0,3.02,0.99,3.38,2.79
				c0.23,1.19,0.02,2.19-0.63,2.99c-0.86,1.05-2.29,1.46-3.37,1.61c0.65,1,1.4,2.5,1.14,3.9c-0.16,0.9-0.73,1.64-1.65,2.12
				C203.42,241.46,202.85,241.61,202.29,241.61z M198.61,235.39l0.62,1.65c0.33,0.88,1.52,3.14,3.07,3.14c0.32,0,0.66-0.1,1.01-0.28
				c0.53-0.28,0.83-0.65,0.91-1.12c0.24-1.31-1.1-3.19-1.63-3.8l-1.08-1.23l1.64,0.04c0.37,0.06,2.67-0.03,3.61-1.18
				c0.37-0.45,0.48-1.04,0.33-1.8c-0.23-1.13-0.83-1.63-1.97-1.63c-1.14,0-2.47,0.55-2.88,0.77l-1.39,0.72l0.36-1.52
				c0.18-0.76,0.48-2.99-0.31-4.08c-0.29-0.39-0.7-0.61-1.26-0.65c-0.6-0.05-1.05,0.11-1.4,0.49c-0.92,0.98-0.99,3.16-0.94,3.92
				l0.1,1.48l-1.22-0.84c-0.02-0.01-1.83-1.24-3.33-1.24c-0.83,0-1.33,0.38-1.61,1.24c-0.23,0.7-0.19,1.29,0.12,1.81
				c0.69,1.15,2.6,1.71,3.28,1.82l1.88,0.33l-1.63,0.99c-0.59,0.36-2.15,1.57-2.28,2.85c-0.06,0.63,0.22,1.24,0.88,1.85
				c0.51,0.48,1.01,0.72,1.48,0.72c1.38,0,2.62-2.09,2.94-2.83L198.61,235.39z"/>
		</g>
		<g>
			<path class="st0" d="M198.9,234.92c-0.08,0-0.17-0.01-0.25-0.02c-1.17-0.14-2.01-1.21-1.87-2.38c0.14-1.16,1.2-2.02,2.38-1.87
				c1.17,0.14,2.01,1.21,1.87,2.38C200.9,234.11,199.99,234.92,198.9,234.92z M198.97,232.07c-0.44,0-0.74,0.27-0.78,0.62
				c-0.05,0.39,0.23,0.74,0.63,0.79l0.08,0.01c0.36,0,0.66-0.27,0.71-0.63c0.05-0.39-0.23-0.74-0.62-0.79
				C198.98,232.07,198.98,232.07,198.97,232.07z"/>
		</g>
	</g>
	<g>
		<path class="st0" d="M121.01,218.37H105v-60.81l2.1,1.11c0.02,0.01,2.51,1.29,5.97,1.29c1.97,0,3.88-0.41,5.69-1.21l0.23-0.24
			l1.2,0l0.43,0.43c0.55,0.55,0.88,0.89,0.4,58.02L121.01,218.37z M107.86,215.51h10.31c0.16-19.24,0.29-46.31,0.12-53.52
			c-1.69,0.55-3.44,0.83-5.23,0.83c-2.12,0-3.92-0.39-5.21-0.79V215.51z"/>
	</g>
	<g>
		<path class="st0" d="M114.91,150.56c-0.74,0-1.48-0.08-2.2-0.23c-3.68-0.77-14.87-3.13-14.87-13.85c0-8.7,11.96-22.68,12.47-23.27
			l1.25-1.45l1.04,1.6c0.06,0.09,5.93,9.15,13.04,21.25c1.79,3.04,1.79,6.56,0.01,9.68C123.51,148.04,119.19,150.56,114.91,150.56z
			 M111.26,116.58c-3.02,3.76-10.55,13.77-10.55,19.91c0,5.73,4,9.24,12.6,11.05c3.6,0.76,7.96-1.34,9.86-4.66
			c1.28-2.23,1.28-4.64,0.01-6.8C117.86,127.04,113.25,119.71,111.26,116.58z"/>
	</g>
	<g>
		<path class="st0" d="M112.71,131.54c0,0-0.14,0.45-0.32,1.26c-0.17,0.81-0.39,1.97-0.47,3.36c-0.05,0.69-0.04,1.45,0.03,2.22
			c0.07,0.78,0.21,1.59,0.5,2.34c0.12,0.39,0.32,0.74,0.51,1.1c0.08,0.18,0.23,0.32,0.34,0.49l0.18,0.24l0.24,0.35l0.4,0.58
			c0.12,0.24,0.24,0.51,0.36,0.76c0.27,0.55,0.36,1.01,0.53,1.51c0.53,1.97,0.69,3.94,0.78,5.77c0.08,1.83,0.06,3.52,0.01,4.97
			c-0.06,1.43-0.12,2.62-0.16,3.46c-0.02,0.42-0.03,0.7-0.03,0.86c-0.01,0.22,0.03-0.22-0.02-0.3c-0.03-0.14-0.07-0.2-0.07-0.2
			l-4.07,1.37c0,0-0.03-0.12-0.07-0.37c-0.04-0.19-0.03-0.81-0.01-0.81c0.04-0.28,0.1-0.64,0.18-1.04c0.15-0.8,0.37-1.95,0.63-3.33
			c0.24-1.37,0.49-2.96,0.66-4.67c0.16-1.7,0.27-3.54,0.05-5.26c-0.07-0.41-0.11-0.89-0.22-1.21l-0.14-0.55l-0.31-0.63
			c-0.03-0.07-0.15-0.27-0.11-0.25l-0.19-0.35c-0.12-0.23-0.27-0.45-0.35-0.69c-0.18-0.48-0.35-0.95-0.43-1.42
			c-0.21-0.94-0.23-1.85-0.19-2.69c0.04-0.84,0.16-1.62,0.3-2.33c0.29-1.42,0.67-2.54,0.96-3.32
			C112.51,131.97,112.71,131.54,112.71,131.54z"/>
	</g>
	<g>
		<path class="st0" d="M164.19,218.37h-16.02v-60.81l2.1,1.11c0.02,0.01,2.51,1.29,5.97,1.29c1.97,0,3.88-0.41,5.69-1.21l0.23-0.24
			l1.2,0l0.43,0.43c0.55,0.55,0.88,0.89,0.4,58.02L164.19,218.37z M151.03,215.51h10.31c0.16-19.24,0.29-46.31,0.12-53.52
			c-1.69,0.55-3.44,0.83-5.23,0.83c-2.12,0-3.92-0.39-5.21-0.79V215.51z"/>
	</g>
	<g>
		<path class="st0" d="M158.08,150.56c-0.74,0-1.48-0.08-2.2-0.23c-3.68-0.77-14.87-3.13-14.87-13.85c0-8.7,11.96-22.68,12.47-23.27
			l1.25-1.45l1.04,1.6c0.06,0.09,5.93,9.15,13.05,21.25c1.78,3.04,1.79,6.56,0.01,9.68C166.68,148.04,162.36,150.56,158.08,150.56z
			 M154.43,116.58c-3.02,3.76-10.55,13.77-10.55,19.91c0,5.73,4,9.24,12.6,11.05c3.59,0.75,7.96-1.34,9.86-4.66
			c1.28-2.23,1.28-4.65,0.01-6.8C161.04,127.03,156.43,119.71,154.43,116.58z"/>
	</g>
	<g>
		<path class="st0" d="M155.88,131.54c0,0-0.14,0.45-0.32,1.26c-0.17,0.81-0.39,1.97-0.47,3.36c-0.04,0.69-0.04,1.45,0.03,2.22
			c0.07,0.77,0.21,1.59,0.5,2.34c0.12,0.39,0.32,0.74,0.51,1.1c0.08,0.18,0.23,0.32,0.34,0.49l0.18,0.24l0.24,0.35l0.4,0.58
			c0.12,0.24,0.24,0.51,0.36,0.76c0.27,0.55,0.36,1.01,0.52,1.51c0.53,1.97,0.69,3.94,0.78,5.77c0.08,1.83,0.06,3.52,0.01,4.97
			c-0.06,1.43-0.12,2.62-0.16,3.46c-0.02,0.42-0.03,0.7-0.03,0.86c-0.01,0.22,0.03-0.22-0.02-0.3c-0.03-0.14-0.07-0.2-0.07-0.2
			l-4.07,1.36c0,0-0.03-0.12-0.07-0.37c-0.04-0.19-0.03-0.81-0.01-0.81c0.04-0.28,0.1-0.64,0.18-1.04c0.15-0.8,0.37-1.95,0.63-3.33
			c0.24-1.37,0.49-2.96,0.66-4.67c0.16-1.7,0.26-3.54,0.05-5.26c-0.07-0.41-0.11-0.89-0.23-1.21l-0.14-0.55l-0.31-0.63
			c-0.03-0.08-0.14-0.27-0.11-0.25l-0.19-0.35c-0.12-0.23-0.27-0.45-0.35-0.69c-0.18-0.48-0.35-0.95-0.43-1.42
			c-0.21-0.94-0.23-1.85-0.19-2.69c0.04-0.84,0.16-1.62,0.3-2.33c0.29-1.42,0.67-2.54,0.96-3.32
			C155.68,131.97,155.88,131.54,155.88,131.54z"/>
	</g>
	<g>
		<path class="st0" d="M205.92,218.37H189.9l-0.01-1.42c-0.48-57.13-0.14-57.47,0.4-58.02l0.42-0.42l1.2,0l0.24,0.24
			c1.81,0.81,3.72,1.21,5.69,1.21c3.46,0,5.95-1.28,5.98-1.29l2.09-1.09l0,2.36V218.37z M192.74,215.51h10.31v-53.48
			c-1.29,0.4-3.09,0.79-5.21,0.79c-1.79,0-3.54-0.28-5.23-0.83C192.45,169.21,192.59,196.27,192.74,215.51z"/>
	</g>
	<g>
		<path class="st0" d="M196.01,150.56C196.01,150.56,196.01,150.56,196.01,150.56c-4.28,0-8.6-2.52-10.74-6.27
			c-1.78-3.11-1.78-6.64,0.01-9.68c7.12-12.1,12.99-21.15,13.05-21.25l1.04-1.6l1.25,1.45c0.51,0.59,12.47,14.57,12.47,23.27
			c0,10.72-11.19,13.08-14.87,13.85C197.49,150.49,196.75,150.56,196.01,150.56z M199.67,116.57c-2,3.13-6.61,10.46-11.93,19.5
			c-1.27,2.16-1.27,4.58,0.01,6.8c1.63,2.84,5.02,4.83,8.26,4.83c0,0,0,0,0,0c0.55,0,1.09-0.06,1.61-0.16
			c8.59-1.81,12.6-5.32,12.6-11.05C210.21,130.83,203.45,121.27,199.67,116.57z"/>
	</g>
	<g>
		<path class="st0" d="M198.21,131.54c0,0,0.2,0.43,0.5,1.21c0.29,0.78,0.67,1.9,0.96,3.32c0.15,0.71,0.26,1.49,0.3,2.33
			c0.04,0.84,0.02,1.75-0.19,2.69c-0.08,0.48-0.24,0.95-0.43,1.42c-0.08,0.24-0.23,0.46-0.35,0.69l-0.19,0.35
			c0.03-0.03-0.08,0.17-0.11,0.25l-0.31,0.63l-0.14,0.55c-0.11,0.32-0.16,0.8-0.23,1.21c-0.21,1.73-0.11,3.56,0.05,5.26
			c0.17,1.71,0.42,3.3,0.66,4.67c0.26,1.38,0.48,2.53,0.63,3.33c0.08,0.4,0.14,0.76,0.18,1.04c0.03,0,0.04,0.61-0.01,0.81
			c-0.03,0.25-0.07,0.37-0.07,0.37l-4.07-1.36c0,0-0.03,0.06-0.07,0.2c-0.05,0.08-0.01,0.52-0.02,0.3c0-0.16,0-0.44-0.03-0.86
			c-0.04-0.83-0.09-2.02-0.16-3.46c-0.04-1.45-0.07-3.14,0.01-4.97c0.09-1.83,0.25-3.79,0.78-5.77c0.16-0.5,0.26-0.96,0.52-1.51
			c0.12-0.26,0.23-0.53,0.36-0.76l0.4-0.58l0.24-0.35l0.18-0.24c0.11-0.16,0.26-0.3,0.34-0.49c0.19-0.35,0.39-0.71,0.51-1.1
			c0.29-0.76,0.43-1.57,0.5-2.34c0.07-0.78,0.07-1.53,0.03-2.22c-0.08-1.39-0.29-2.55-0.47-3.36
			C198.35,132,198.21,131.54,198.21,131.54z"/>
	</g>
	<g>
		<path class="st0" d="M287.36,167.37L287.36,167.37c-6.24,0-12.52-3.68-15.65-9.14c-2.6-4.55-2.6-9.5,0.01-13.93
			c10.78-18.34,19.68-32.05,19.77-32.18l1.04-1.6l1.25,1.44c0.76,0.89,18.73,21.88,18.73,34.81c0,15.66-16.53,19.14-21.96,20.28
			C289.5,167.26,288.43,167.37,287.36,167.37z M292.83,115.31c-2.66,4.16-10.05,15.82-18.64,30.44c-2.06,3.51-2.06,7.44,0.01,11.06
			c2.59,4.53,8.01,7.7,13.16,7.7h0c0.88,0,1.75-0.09,2.59-0.27c13.43-2.82,19.69-8.38,19.69-17.48
			C309.63,136.74,296.9,120.3,292.83,115.31z"/>
	</g>
	<path class="st0" d="M213.64,258.22v-10.75h-0.02v-31.96h-29.05v41.84h-13.85v-10.1v-31.74h-29.05v31.74v10.1h-14.12v-41.84H98.48
		v31.85h-0.15v11.32c-1.48,2.72-6.65,13.61,0.52,21.58c2.48,2.76,6.24,4.16,11.17,4.16c7.25,0,14.81-3.02,16.38-3.69h15.26v20.83
		c0,1.49-0.84,2.86-2.17,3.53l-20.36,10.3c-1.97,1-1.28,3.97,0.93,4l66.98,0.75c2.59,0.03,3.56-3.38,1.35-4.72l-16.07-9.74
		c-1.33-0.8-2.14-2.24-2.14-3.8v-21.15h15.41c1.56,0.95,7.63,4.33,14.75,4.33h0c4.86,0,9.16-1.57,12.78-4.68
		c3.59-3.08,5.46-6.59,5.56-10.44C218.81,264.28,215,259.68,213.64,258.22z M210.75,257.35h-23.31v-7.02h23.31V257.35z
		 M210.75,218.37v29.09h-23.33v-29.09H210.75z M144.52,218.37h23.33v28.88h-23.33V218.37z M167.85,250.12v7.24h-23.33v-7.24H167.85z
		 M101.35,218.37h23.33v28.99h-23.33V218.37z M101.35,250.23h23.17v7.24h-23.17V250.23z M211.25,278.22
		c-3.09,2.65-6.76,3.99-10.92,3.99h0c-7.22,0-13.49-4.06-13.55-4.1l-0.36-0.23h-19.12v25.63c0,1.55,0.81,2.99,2.14,3.8l14.83,8.99
		c0.45,0.27,0.25,0.96-0.27,0.96l-58.95-0.66c-0.49-0.01-0.64-0.66-0.2-0.88l17.5-8.85c1.33-0.67,2.17-2.04,2.17-3.53v-25.45H125.8
		l-0.28,0.12c-0.08,0.03-8.15,3.56-15.51,3.56c-4.08,0-7.12-1.08-9.04-3.21c-5.64-6.27-1.65-15.34-0.27-18.02h26.67v-0.11h14.28
		h2.86h23.33h2.86h13.87h2.84h24.15c1.12,1.2,4.35,5.08,4.23,9.67C215.74,272.89,214.2,275.69,211.25,278.22z"/>
	<g>
		<path class="st0" d="M293.73,249.79c-2.68-0.32-5.03,1.6-5.35,4.21c-0.31,2.63,1.58,5.03,4.2,5.34c0.19,0.02,0.39,0.03,0.58,0.03
			c2.43,0,4.48-1.82,4.77-4.24c0.15-1.28-0.2-2.53-0.99-3.54C296.14,250.59,295,249.95,293.73,249.79z M292.92,256.5
			c-1.06-0.13-1.83-1.1-1.7-2.16c0.12-0.98,0.95-1.72,1.94-1.72c0.08,0,0.16,0.01,0.23,0.01c0.51,0.06,0.97,0.32,1.29,0.73
			c0.32,0.41,0.46,0.92,0.4,1.43C294.96,255.86,293.99,256.63,292.92,256.5z"/>
		<path class="st0" d="M319.11,262.78c3.58-1.14,5.84-2.54,10.51-6.72l-0.01-1.75c-5.5,4.92-9.23,6.91-13.13,7.61
			c-2.06-0.48-4.16-0.55-6.23-0.22c-1.54-0.41-2.91-1.05-4.13-1.79c2.55-0.34,5.98-1.26,8.02-3.75c1.49-1.81,1.98-4.12,1.43-6.85
			c-0.82-4.12-3.56-6.39-7.73-6.39c-2.09,0-4.2,0.57-5.76,1.12c0.29-2.68,0.31-6.81-1.68-9.56c-1.22-1.69-2.99-2.65-5.26-2.84
			c-2.42-0.21-4.36,0.53-5.87,2.14c-1.16,1.24-1.88,2.87-2.34,4.53l-0.04-0.1c-6.71,3.02-14.64,0.01-17.66-6.71
			c-2.35-5.23-0.01-11.39,5.22-13.74c4.04-1.81,8.8-0.01,10.62,4.03c0.67,1.5,0.72,3.16,0.14,4.7c-0.58,1.53-1.73,2.75-3.22,3.42
			c-1.13,0.51-2.38,0.54-3.54,0.11c-1.15-0.44-2.07-1.3-2.57-2.43c-0.35-0.78-0.4-1.65-0.13-2.46c-0.13,0.66-0.06,1.37,0.24,2.03
			c0.43,0.95,1.2,1.68,2.18,2.05c0.98,0.37,2.04,0.34,3-0.09c2.28-1.03,3.3-3.71,2.27-5.99c-1.2-2.67-4.35-3.87-7.02-2.67
			c-1.53,0.69-2.7,1.93-3.29,3.5c-0.6,1.57-0.54,3.28,0.14,4.8c0.82,1.82,2.3,3.22,4.17,3.93c1.87,0.71,3.9,0.65,5.73-0.17
			c4.53-2.03,6.56-7.37,4.52-11.9c-2.46-5.48-8.93-7.93-14.4-5.47c-6.67,3-9.66,10.86-6.66,17.53c1.86,4.13,5.23,7.1,9.17,8.56
			c-1.75,0.77-3.04,2.27-3.77,4.48c-0.84,2.54-0.65,4.86,0.57,6.87c0.88,1.47,2.21,2.58,3.61,3.42
			c-16.69-1.17-29.63-6.71-31.02-13.53c-0.08-0.4-1.07,1.52-0.17,2.92c4.22,6.57,17.71,11.67,34.49,12.22
			c-1.84,1.62-4.06,4.16-4.38,7.22c-0.26,2.51,0.76,4.86,3.05,7c1.8,1.68,3.7,2.53,5.62,2.53c0,0,0,0,0,0
			c3.88,0,6.81-3.48,8.42-6.01c1.56,2.81,4.55,6.84,8.95,6.84c1.28,0,2.57-0.35,3.86-1.03c2.12-1.13,3.38-2.75,3.76-4.84
			c0.25-1.39,0.05-2.84-0.37-4.24c2.96-1.04,6.17-1.01,9.14,0.12c3.34,1.27,5.98,3.76,7.44,7.01c1.14,2.53,1.22,5.36,0.24,7.95
			c-0.99,2.6-2.92,4.65-5.46,5.79c-4.04,1.81-8.8,0.01-10.62-4.03c-0.67-1.49-0.72-3.16-0.14-4.7c0.58-1.53,1.73-2.75,3.22-3.42
			c2.33-1.05,5.07,0,6.11,2.32c0.35,0.78,0.4,1.64,0.14,2.44c0.13-0.67,0.04-1.37-0.24-2.01c-0.43-0.95-1.2-1.68-2.18-2.05
			c-0.98-0.37-2.04-0.34-2.99,0.09c-1.1,0.5-1.95,1.39-2.38,2.52c-0.43,1.13-0.39,2.37,0.1,3.47c1.2,2.67,4.35,3.86,7.02,2.67
			c1.53-0.69,2.7-1.93,3.29-3.5c0.6-1.57,0.54-3.28-0.14-4.8c-1.69-3.76-6.13-5.45-9.9-3.76c-2.19,0.99-3.87,2.77-4.73,5.01
			c-0.85,2.25-0.78,4.7,0.2,6.89c1.81,4.03,5.79,6.43,9.95,6.43c1.49,0,3.01-0.31,4.45-0.96c3.23-1.45,5.7-4.07,6.96-7.39
			c1.26-3.31,1.15-6.91-0.3-10.14C325.92,267.29,322.91,264.37,319.11,262.78z M286.35,241.49c-0.05,0.47-0.09,0.92-0.11,1.33
			c-0.53-0.28-1.15-0.57-1.8-0.85C285.07,241.85,285.71,241.7,286.35,241.49z M305.98,268.83c-0.22,1.19-0.97,2.11-2.29,2.82
			c-0.86,0.46-1.71,0.69-2.51,0.69c-3.83,0-6.72-5.49-7.51-7.61l-1.23-3.29l-1.42,3.22c-0.84,1.91-3.78,6.86-7.2,6.86
			c-1.18,0-2.42-0.59-3.67-1.76c-1.62-1.51-2.32-3.01-2.16-4.6c0.39-3.79,5.47-6.92,5.52-6.96l3.26-1.98l-3.76-0.65
			c-0.06-0.01-5.93-1.06-7.95-4.44c-0.77-1.29-0.87-2.76-0.3-4.49c0.71-2.13,2-3.13,4.07-3.13c3.62,0,7.98,2.96,8.02,2.99l2.44,1.68
			l-0.2-2.95c-0.12-1.82,0.04-7.07,2.28-9.47c0.9-0.96,2.05-1.37,3.53-1.24c1.41,0.12,2.45,0.66,3.17,1.66
			c1.94,2.67,1.22,8.03,0.78,9.88l-0.72,3.02l2.77-1.42c0.04-0.02,3.64-1.85,6.94-1.85c2.8,0,4.37,1.3,4.92,4.08
			c0.37,1.87,0.1,3.33-0.84,4.47c-2.31,2.81-7.96,2.89-8.6,2.89l-3.41-0.08l2.15,2.46C303.35,261.1,306.57,265.63,305.98,268.83z"/>
	</g>
	<g>
		<path class="st0" d="M279.59,286.39c-3.19,0-5.78-2.47-5.78-5.51c0-3.04,2.59-5.51,5.78-5.51c3.19,0,5.78,2.47,5.78,5.51
			C285.37,283.92,282.78,286.39,279.59,286.39z M279.59,278.23c-1.61,0-2.92,1.19-2.92,2.65c0,1.46,1.31,2.65,2.92,2.65
			s2.92-1.19,2.92-2.65C282.51,279.42,281.2,278.23,279.59,278.23z"/>
	</g>
	<g>
		<path class="st0" d="M263.55,271.89c-3.19,0-5.78-2.47-5.78-5.51c0-3.04,2.59-5.51,5.78-5.51c3.19,0,5.78,2.47,5.78,5.51
			C269.34,269.42,266.74,271.89,263.55,271.89z M263.55,263.73c-1.61,0-2.92,1.19-2.92,2.65c0,1.46,1.31,2.65,2.92,2.65
			c1.61,0,2.92-1.19,2.92-2.65C266.47,264.92,265.16,263.73,263.55,263.73z"/>
	</g>
	<g>
		<path class="st0" d="M261.07,246.78c-3.19,0-5.78-2.47-5.78-5.51c0-3.04,2.59-5.51,5.78-5.51c3.19,0,5.78,2.47,5.78,5.51
			C266.85,244.31,264.25,246.78,261.07,246.78z M261.07,238.62c-1.61,0-2.92,1.19-2.92,2.65c0,1.46,1.31,2.65,2.92,2.65
			s2.92-1.19,2.92-2.65C263.99,239.81,262.68,238.62,261.07,238.62z"/>
	</g>
	<path class="st0" d="M332.78,306.16l-0.74-125.08h0c-0.01-9.34-19.58-16.65-44.56-16.65c-24.97,0-44.53,7.31-44.56,16.64h0
		l-1.47,124.36l0.01,0.14c0.96,10.83,27.61,13.5,35.75,14.06c3.26,0.22,6.86,0.35,10.62,0.35c19.26,0,42.58-3.31,44.92-13.49
		L332.78,306.16z M250.99,181.84c8.36-9.19,52.93-14.43,78.1,0.03c-1.25,6.42-17.65,13.01-41.61,13.01
		c-17.68,0-31.23-3.59-37.63-8.04C249.85,186.84,249.6,183.38,250.99,181.84z M287.48,167.29c21.17,0,36.44,5.14,40.57,10.77
		c-26.95-13.65-70.38-7.81-79.18,1.86c-1.25,1.38-1.86,2.84-1.88,4.31c-0.79-1.04-1.21-2.1-1.21-3.15
		C245.79,174.42,262.54,167.29,287.48,167.29z M277.4,316.78c-19.27-1.33-32.55-5.92-33.09-11.43l1.4-118.35
		c6.25,6.34,22.38,10.75,41.77,10.75c19.35,0,35.45-4.39,41.73-10.71l0.7,118.93C327.73,314.45,301.09,318.41,277.4,316.78z"/>
	<path class="st0" d="M289.53,179.66c-0.31-4.55-0.69-10.55-0.05-16.38c0.18-1.5,0.45-2.98,0.92-4.31c0.11-0.35,0.25-0.64,0.37-0.92
		c0.13-0.28,0.39-0.67,0.54-0.93c0.46-0.69,0.79-1.42,1.06-2.16c0.53-1.47,0.7-2.96,0.74-4.33c0.03-1.38-0.09-2.67-0.27-3.84
		c-0.36-2.34-0.94-4.22-1.38-5.51c-0.44-1.29-0.76-2-0.76-2s0.25,0.74,0.57,2.06c0.31,1.32,0.71,3.23,0.85,5.53
		c0.07,1.15,0.06,2.4-0.08,3.69c-0.16,1.29-0.45,2.62-1.03,3.85c-0.29,0.61-0.63,1.21-1.06,1.73c-0.26,0.36-0.45,0.59-0.68,0.98
		c-0.23,0.39-0.44,0.78-0.59,1.15c-0.68,1.51-1.09,3.08-1.41,4.66c-0.64,3.15-0.91,6.3-1.1,9.26c-0.16,2.73-0.22,5.27-0.24,7.5
		c-6.45,0.11-19.43,0.84-19.43,4.84c0,4.51,16.49,4.86,21.54,4.86c5.05,0,21.54-0.35,21.54-4.86
		C309.55,180.38,295.74,179.74,289.53,179.66z M285.9,182.53c0,1.33,0.01,2.48,0.01,3.37c0,0.22,0,0.4,0,0.59
		c-8.52-0.15-13.95-1.19-15.93-1.98C271.96,183.72,277.38,182.69,285.9,182.53z M290.09,186.49c-0.02-0.24-0.04-0.49-0.06-0.78
		c-0.07-0.84-0.16-1.93-0.27-3.18c8.73,0.13,14.27,1.19,16.29,1.99C304.06,185.3,298.63,186.34,290.09,186.49z"/>
</g>
</svg>
