<?xml version="1.0" encoding="utf-8"?>
<!-- Generator: Adobe Illustrator 24.2.1, SVG Export Plug-In . SVG Version: 6.00 Build 0)  -->
<svg version="1.1" id="Layer_1" xmlns="http://www.w3.org/2000/svg" xmlns:xlink="http://www.w3.org/1999/xlink" x="0px" y="0px"
	 viewBox="0 0 430.47 430.47" style="enable-background:new 0 0 430.47 430.47;" xml:space="preserve">
<style type="text/css">
	.st0{fill:#343466;}
</style>
<g>
	<g>
		<path class="st0" d="M215.23,415.91c-110.66,0-200.68-90.02-200.68-200.68c0-110.66,90.03-200.68,200.68-200.68
			c110.66,0,200.68,90.02,200.68,200.68C415.91,325.89,325.89,415.91,215.23,415.91z M215.23,19C107.03,19,19,107.03,19,215.23
			c0,108.2,88.03,196.23,196.23,196.23c108.2,0,196.23-88.03,196.23-196.23C411.47,107.03,323.44,19,215.23,19z"/>
	</g>
	<g>
		<path class="st0" d="M160.12,257.83c0.24,0.03,0.48,0.04,0.71,0.04c3,0,5.52-2.25,5.88-5.23c0.39-3.25-1.94-6.2-5.18-6.59
			c-3.3-0.4-6.21,1.97-6.6,5.18c-0.19,1.57,0.25,3.12,1.23,4.37C157.14,256.85,158.55,257.64,160.12,257.83z M160.82,249.86
			c0.08,0,0.17,0.01,0.26,0.02c1.13,0.13,1.94,1.17,1.81,2.31c-0.13,1.13-1.11,1.97-2.31,1.81c-0.55-0.06-1.04-0.34-1.38-0.78
			c-0.34-0.44-0.5-0.98-0.43-1.52C158.89,250.65,159.77,249.86,160.82,249.86z"/>
		<path class="st0" d="M327.36,136.45c-7.51-14.1-19.05-21.42-19.53-21.73l-1.48-0.92l-1.16,1.31c-0.62,0.7-62.02,70.07-77.85,90.13
			c-3.92,4.97-22.79,24.66-41.36,36.43c-1.65-2.42-4.28-3.74-7.74-3.74c-2.36,0-4.74,0.6-6.57,1.22c0.31-3.22,0.25-7.93-2.07-11.14
			c-1.47-2.04-3.68-3.23-6.39-3.46c-2.95-0.26-5.31,0.64-7.14,2.61c-2.64,2.83-3.43,7.36-3.64,10.49c-2.26-1.15-5.49-2.45-8.58-2.45
			c-4.01,0-6.94,2.2-8.27,6.19c-1.02,3.08-0.78,5.88,0.69,8.34c1.84,3.06,5.29,4.87,8.01,5.87c-0.99,0.9-2.05,2.02-2.95,3.31
			c-4.38,0.91-10.84,2.06-13.89,2.67c-6.19,1.25-11.1,2.24-14.36,3.4c-18.83,3.42-23.33,19.81-24.27,30.14h-0.25v10.42h2.2
			c1.02,0.03,36.72,1.18,77,1.18c23.86,0,44.65-0.4,61.76-1.18h2.03v-1.86c6.8-37.55,34.61-71.05,34.93-71.44l11.33-14.34
			c11.92,10.7,5.76,87.65,5.76,87.65h16.17c0,0,0.63-19.4,0.64-27.32c0.02-25.61,0.03-45.84,20.89-79.13
			C338.89,170.96,334.31,149.5,327.36,136.45z M149.5,256.43l4.4-2.68l-5.08-0.86c-1.91-0.33-7.3-1.88-9.26-5.14
			c-0.88-1.47-1-3.15-0.34-5.14c0.81-2.45,2.23-3.55,4.61-3.55c4.22,0,9.33,3.47,9.38,3.51l3.27,2.25l-0.26-3.96
			c-0.14-2.14,0.06-8.29,2.65-11.06c1.02-1.09,2.32-1.54,4-1.4c1.6,0.13,2.78,0.75,3.59,1.87c2.24,3.1,1.41,9.36,0.89,11.52
			l-0.97,4.08l3.73-1.92c0.04-0.02,4.24-2.16,8.12-2.16c3.24,0,4.97,1.43,5.61,4.65c0.43,2.15,0.12,3.82-0.95,5.11
			c-2.66,3.23-9.19,3.35-10.17,3.35c-0.01,0-0.01,0-0.02,0l-4.4-0.11l2.9,3.31c1.51,1.72,5.28,7,4.6,10.71
			c-0.24,1.34-1.09,2.39-2.6,3.18c-0.99,0.53-1.96,0.8-2.87,0.8c-4.41,0-7.77-6.4-8.69-8.87l-1.65-4.41l-1.91,4.31
			c-0.99,2.22-4.41,8-8.33,8c-1.34,0-2.75-0.68-4.2-2.03c-1.86-1.73-2.67-3.45-2.49-5.26C143.44,260.87,147.83,257.45,149.5,256.43z
			 M227.42,301.41H92.7c-0.01-0.13-0.01-0.27-0.02-0.41v-1.75h134.74V301.41z M295.62,301.41h-6.79v-2.16h6.79V301.41z
			 M317.77,196.89c-21.48,34.29-21.5,56.08-21.52,81.32c0,5.43-0.01,11-0.22,16.91l-8.02-0.09c2.31-20.64,1.63-74.87-9.5-81.75
			l-1.57-0.97l-13.67,17.32c-1.1,1.3-25.16,30.27-34.09,65.49H92.84c0.81-9.19,4.78-23.23,21.13-26.11l0.35-0.09
			c2.98-1.08,7.81-2.06,13.94-3.29c3.08-0.62,6.53-1.32,10.24-2.13c0.02-0.01,0.43,0.02,0.84,0.05c-0.03,0.19-0.08,0.37-0.1,0.56
			c-0.31,3.05,0.93,5.91,3.69,8.48c2.18,2.03,4.48,3.07,6.83,3.07c4.54,0,7.99-3.91,9.96-6.91c1.92,3.35,5.47,7.89,10.62,7.89
			c1.55,0,3.13-0.42,4.68-1.25c2.54-1.35,4.12-3.39,4.58-5.89c0.72-3.95-1.44-8.22-3.27-10.99c3.05-0.42,7.11-1.55,9.54-4.51
			c1.75-2.13,2.35-4.81,1.8-7.97c18.97-11.85,37.92-31.92,42.9-38.23c14.54-18.41,67.8-78.74,76.5-88.59
			C314.56,124.57,346.43,151.15,317.77,196.89z"/>
	</g>
</g>
</svg>
