<?xml version="1.0" encoding="utf-8"?>
<!-- Generator: Adobe Illustrator 24.2.1, SVG Export Plug-In . SVG Version: 6.00 Build 0)  -->
<svg version="1.1" id="Layer_1" xmlns="http://www.w3.org/2000/svg" xmlns:xlink="http://www.w3.org/1999/xlink" x="0px" y="0px"
	 viewBox="0 0 430.47 430.47" style="enable-background:new 0 0 430.47 430.47;" xml:space="preserve">
<style type="text/css">
	.st0{fill:#343466;}
</style>
<g>
	<g>
		<g>
			<path class="st0" d="M215.23,420.89c-113.4,0-205.66-92.26-205.66-205.66c0-113.4,92.26-205.66,205.66-205.66
				c113.4,0,205.66,92.26,205.66,205.66C420.89,328.64,328.63,420.89,215.23,420.89z M215.23,14.13
				c-110.89,0-201.1,90.21-201.1,201.1c0,110.89,90.21,201.1,201.1,201.1c110.89,0,201.1-90.21,201.1-201.1
				C416.33,104.35,326.12,14.13,215.23,14.13z"/>
		</g>
	</g>
	<g>
		<g>
			<path class="st0" d="M305.05,132.29c-4.79,0-8.06-4.48-9.74-7.57c-1.74,2.79-4.92,6.66-9.16,6.66l0,0c-2.09,0-4.15-0.94-6.1-2.79
				c-2.48-2.35-3.58-4.93-3.29-7.68c0.36-3.43,2.87-6.27,4.88-8.04c-2.49-0.87-5.85-2.53-7.61-5.46c-1.34-2.23-1.56-4.78-0.64-7.59
				c1.5-4.62,4.83-5.59,7.35-5.59c2.94,0,6.04,1.33,8.09,2.42c0.15-2.89,0.82-7.35,3.34-10.04c1.63-1.74,3.7-2.53,6.32-2.3
				c2.43,0.21,4.33,1.24,5.65,3.06c2.21,3.06,2.17,7.69,1.84,10.66c1.7-0.62,4.02-1.26,6.32-1.26c4.51,0,7.49,2.49,8.37,7.01
				c0.59,3.02,0.05,5.56-1.6,7.56c-2.31,2.8-6.21,3.78-8.99,4.12c1.69,2.53,3.9,6.7,3.22,10.43c-0.42,2.27-1.78,4.04-4.06,5.28
				C307.85,131.91,306.44,132.29,305.05,132.29z M295.54,117.26l1.31,3.55c0.87,2.35,4.02,8.44,8.21,8.44c0.88,0,1.8-0.26,2.74-0.77
				c1.45-0.78,2.27-1.81,2.52-3.15c0.66-3.57-2.87-8.61-4.28-10.25l-2.24-2.6l3.59,0.09c0.69,0,6.8-0.09,9.35-3.18
				c1.06-1.28,1.37-2.93,0.96-5.04c-0.61-3.1-2.32-4.55-5.39-4.55c-3.61,0-7.51,2.02-7.55,2.04l-2.94,1.54l0.76-3.24
				c0.48-2.06,1.26-8.04-0.89-11.01c-0.79-1.09-1.92-1.68-3.45-1.82c-1.63-0.14-2.85,0.3-3.83,1.35c-2.47,2.64-2.67,8.51-2.53,10.55
				l0.2,3.15l-2.59-1.81c-0.05-0.03-4.79-3.31-8.74-3.31c-2.27,0-3.69,1.11-4.46,3.49c-0.64,1.96-0.52,3.62,0.36,5.08
				c1.87,3.1,6.87,4.57,8.64,4.88l3.95,0.68l-3.41,2.11c-0.05,0.03-5.59,3.5-6.02,7.72c-0.18,1.79,0.59,3.47,2.36,5.15
				c1.37,1.3,2.72,1.96,4.01,1.96c3.72,0,6.94-5.49,7.86-7.61L295.54,117.26z"/>
		</g>
		<g>
			<path class="st0" d="M296.33,114.8c-0.2,0-0.41-0.01-0.62-0.04c-2.84-0.35-4.87-2.97-4.54-5.84c0.34-2.85,2.89-4.94,5.78-4.59
				c2.84,0.34,4.87,2.96,4.53,5.83C301.17,112.81,298.96,114.8,296.33,114.8z M296.32,107.34c-1.09,0-2.01,0.84-2.14,1.95
				c-0.14,1.21,0.71,2.31,1.89,2.46c1.15,0.13,2.25-0.73,2.39-1.93c0.14-1.22-0.7-2.32-1.88-2.46
				C296.49,107.35,296.41,107.34,296.32,107.34z"/>
		</g>
	</g>
	<g>
		<path class="st0" d="M148.68,224.44l-0.83-0.51c-1.01-0.61-24.59-15.15-24.15-28.76c0.36-11.12,7.4-12.78,11.56-12.78
			c5.15,0,10.5,2.3,12.49,3.25c2-1.2,7.59-4.23,12.98-4.23c4.59,0,10.32,2.18,11.56,12.59c1.58,13.26-21.8,29.22-22.8,29.89
			L148.68,224.44z M135.26,185.43c-5.52,0-8.31,3.22-8.52,9.84c-0.34,10.56,17.75,22.88,21.87,25.54
			c6.82-4.79,21.75-17.34,20.66-26.45c-0.8-6.67-3.59-9.91-8.54-9.91c-5.67,0-11.99,4.16-12.06,4.2l-0.75,0.5l-0.8-0.42
			C147.05,188.69,140.84,185.43,135.26,185.43z"/>
	</g>
	<g>
		<path class="st0" d="M202.4,236.8H95.55v-75.12H202.4V236.8z M98.59,233.76h100.78v-69.04H98.59V233.76z"/>
	</g>
	<g>
		<path class="st0" d="M204,326.54H95.55v-62.26H204V326.54z M98.59,323.5h102.37v-56.18H98.59V323.5z"/>
	</g>
	<g>
		<path class="st0" d="M110.02,288.03c-4.45,0-8.07-3.62-8.07-8.07c0-4.45,3.62-8.07,8.07-8.07c4.45,0,8.07,3.62,8.07,8.07
			C118.09,284.41,114.47,288.03,110.02,288.03z M110.02,274.81c-2.84,0-5.15,2.31-5.15,5.15c0,2.84,2.31,5.15,5.15,5.15
			c2.84,0,5.15-2.31,5.15-5.15C115.18,277.12,112.86,274.81,110.02,274.81z"/>
	</g>
	<g>
		<path class="st0" d="M127.79,287.59c-4.45,0-8.07-3.62-8.07-8.07c0-4.45,3.62-8.07,8.07-8.07c4.45,0,8.06,3.62,8.06,8.07
			C135.86,283.97,132.24,287.59,127.79,287.59z M127.79,274.37c-2.84,0-5.15,2.31-5.15,5.15c0,2.84,2.31,5.15,5.15,5.15
			c2.84,0,5.15-2.31,5.15-5.15C132.94,276.68,130.63,274.37,127.79,274.37z"/>
	</g>
	<g>
		<path class="st0" d="M145.52,287.1c-4.45,0-8.07-3.62-8.07-8.07c0-4.45,3.62-8.07,8.07-8.07c4.45,0,8.07,3.62,8.07,8.07
			C153.58,283.48,149.97,287.1,145.52,287.1z M145.52,273.88c-2.84,0-5.15,2.31-5.15,5.15c0,2.84,2.31,5.15,5.15,5.15
			c2.84,0,5.15-2.31,5.15-5.15C150.67,276.19,148.36,273.88,145.52,273.88z"/>
	</g>
	<g>
		<path class="st0" d="M162.96,287.1c-4.45,0-8.07-3.62-8.07-8.07c0-4.45,3.62-8.07,8.07-8.07c4.45,0,8.07,3.62,8.07,8.07
			C171.03,283.48,167.41,287.1,162.96,287.1z M162.96,273.88c-2.84,0-5.15,2.31-5.15,5.15c0,2.84,2.31,5.15,5.15,5.15
			c2.84,0,5.15-2.31,5.15-5.15C168.11,276.19,165.8,273.88,162.96,273.88z"/>
	</g>
	<g>
		<path class="st0" d="M109.8,303.8c-4.45,0-8.07-3.62-8.07-8.07c0-4.45,3.62-8.07,8.07-8.07c4.45,0,8.07,3.62,8.07,8.07
			C117.87,300.18,114.25,303.8,109.8,303.8z M109.8,290.58c-2.84,0-5.15,2.31-5.15,5.15c0,2.84,2.31,5.15,5.15,5.15
			c2.84,0,5.15-2.31,5.15-5.15C114.95,292.89,112.64,290.58,109.8,290.58z"/>
	</g>
	<g>
		<path class="st0" d="M127.57,303.36c-4.45,0-8.07-3.62-8.07-8.07c0-4.45,3.62-8.07,8.07-8.07c4.45,0,8.06,3.62,8.06,8.07
			C135.63,299.74,132.01,303.36,127.57,303.36z M127.57,290.14c-2.84,0-5.16,2.31-5.16,5.15c0,2.84,2.31,5.15,5.16,5.15
			c2.84,0,5.15-2.31,5.15-5.15C132.72,292.45,130.41,290.14,127.57,290.14z"/>
	</g>
	<g>
		<path class="st0" d="M145.29,302.87c-4.45,0-8.07-3.62-8.07-8.06c0-4.45,3.62-8.07,8.07-8.07c4.45,0,8.07,3.62,8.07,8.07
			C153.36,299.25,149.74,302.87,145.29,302.87z M145.29,289.65c-2.84,0-5.15,2.31-5.15,5.15c0,2.84,2.31,5.15,5.15,5.15
			c2.84,0,5.15-2.31,5.15-5.15C150.45,291.96,148.13,289.65,145.29,289.65z"/>
	</g>
	<g>
		<path class="st0" d="M162.74,302.87c-4.45,0-8.07-3.62-8.07-8.06c0-4.45,3.62-8.07,8.07-8.07c4.45,0,8.07,3.62,8.07,8.07
			C170.8,299.25,167.19,302.87,162.74,302.87z M162.74,289.65c-2.84,0-5.15,2.31-5.15,5.15c0,2.84,2.31,5.15,5.15,5.15
			c2.84,0,5.15-2.31,5.15-5.15C167.89,291.96,165.58,289.65,162.74,289.65z"/>
	</g>
	<g>
		<path class="st0" d="M109.8,319.85c-4.45,0-8.07-3.62-8.07-8.06c0-4.45,3.62-8.07,8.07-8.07c4.45,0,8.07,3.62,8.07,8.07
			C117.87,316.23,114.25,319.85,109.8,319.85z M109.8,306.63c-2.84,0-5.15,2.31-5.15,5.15c0,2.84,2.31,5.15,5.15,5.15
			c2.84,0,5.15-2.31,5.15-5.15C114.95,308.94,112.64,306.63,109.8,306.63z"/>
	</g>
	<g>
		<path class="st0" d="M127.57,319.41c-4.45,0-8.07-3.62-8.07-8.07c0-4.45,3.62-8.07,8.07-8.07c4.45,0,8.06,3.62,8.06,8.07
			C135.63,315.79,132.01,319.41,127.57,319.41z M127.57,306.19c-2.84,0-5.16,2.31-5.16,5.15c0,2.84,2.31,5.15,5.16,5.15
			c2.84,0,5.15-2.31,5.15-5.15C132.72,308.5,130.41,306.19,127.57,306.19z"/>
	</g>
	<g>
		<path class="st0" d="M145.29,318.92c-4.45,0-8.07-3.62-8.07-8.07c0-4.45,3.62-8.07,8.07-8.07c4.45,0,8.07,3.62,8.07,8.07
			C153.36,315.3,149.74,318.92,145.29,318.92z M145.29,305.7c-2.84,0-5.15,2.31-5.15,5.15c0,2.84,2.31,5.15,5.15,5.15
			c2.84,0,5.15-2.31,5.15-5.15C150.45,308.01,148.13,305.7,145.29,305.7z"/>
	</g>
	<g>
		<path class="st0" d="M162.74,318.92c-4.45,0-8.07-3.62-8.07-8.07c0-4.45,3.62-8.07,8.07-8.07c4.45,0,8.07,3.62,8.07,8.07
			C170.8,315.3,167.19,318.92,162.74,318.92z M162.74,305.7c-2.84,0-5.15,2.31-5.15,5.15c0,2.84,2.31,5.15,5.15,5.15
			c2.84,0,5.15-2.31,5.15-5.15C167.89,308.01,165.58,305.7,162.74,305.7z"/>
	</g>
	<g>
		<path class="st0" d="M188.61,294.14h-14.69v-24.07h14.69V294.14z M176.4,291.23h9.73v-18.25h-9.73V291.23z"/>
	</g>
	<g>
		<path class="st0" d="M188.61,321.04h-14.69v-24.12h14.69V321.04z M176.4,318.13h9.73v-18.29h-9.73V318.13z"/>
	</g>
	<path class="st0" d="M212.83,229.58V168.9c0-9.2-7.49-16.69-16.69-16.69H103.4c-9.2,0-16.69,7.49-16.69,16.69v60.67
		c0,7.78,5.36,14.31,12.58,16.15v3.19c-7.22,1.84-12.58,8.37-12.58,16.15v60.67c0,9.2,7.49,16.69,16.69,16.69h92.74
		c9.2,0,16.69-7.49,16.69-16.69v-60.67c0-8.61-6.55-15.71-14.93-16.59v-2.31C206.27,245.29,212.83,238.18,212.83,229.58z
		 M89.76,229.58V168.9c0-7.52,6.12-13.65,13.65-13.65h92.74c7.53,0,13.65,6.12,13.65,13.65v60.67c0,7.52-6.12,13.65-13.65,13.65
		h-5.61h-83.87h-3.26C95.88,243.22,89.76,237.1,89.76,229.58z M106.66,248.38v-2.12h83.87v2.12H106.66z M194.86,247.77h-1.29v-1.51
		h1.29V247.77z M103.62,246.26v1.51h-1.29v-1.51h1.07H103.62z M209.79,265.07v60.67c0,7.52-6.12,13.65-13.65,13.65H103.4
		c-7.52,0-13.65-6.12-13.65-13.65v-60.67c0-7.52,6.12-13.65,13.65-13.65h92.74C203.67,251.42,209.79,257.55,209.79,265.07z"/>
	<g>
		<path class="st0" d="M194.96,290.53c-2.51,0-4.55-2.34-4.55-5.23c0-2.8,2.74-6.15,4.53-6.22c0,0,0,0,0,0
			c1.84,0,4.58,3.34,4.58,6.22C199.52,288.19,197.47,290.53,194.96,290.53z M195,280.22c-1.04,0.04-3.45,2.73-3.45,5.09
			c0,2.25,1.53,4.09,3.41,4.09c1.88,0,3.42-1.83,3.42-4.09C198.38,282.93,195.98,280.22,195,280.22z"/>
	</g>
	<g>
		<path class="st0" d="M194.98,315.72c-0.38,0-1.09-0.19-1.59-1.42c-0.69-1.72-0.15-20.59-0.04-24.35l0.02-0.55h3.2l0.01,0.56
			c0.05,3.85,0.3,23.13-0.02,24.28C196.3,315.14,195.68,315.72,194.98,315.72z M194.47,290.53c-0.26,8.66-0.48,22.2-0.03,23.34
			c0.24,0.58,0.47,0.71,0.53,0.71c0.12,0,0.35-0.23,0.47-0.65c0.21-0.94,0.11-14.29-0.02-23.4H194.47z"/>
	</g>
	<path class="st0" d="M244.2,255.71v-60.77h-3.99c0.01-3.2,0.02-11.09-0.02-19.84c0.93-0.04,1.83-0.14,2.54-0.26
		c0.89-0.16,1.49-0.35,1.49-0.35v-0.24c0,0-0.6-0.19-1.49-0.35c-0.71-0.12-1.61-0.22-2.54-0.26c0-0.19,0-0.38,0-0.58
		c0.99-0.04,1.96-0.14,2.71-0.27c0.89-0.16,1.49-0.35,1.49-0.35v-0.23c0,0-0.6-0.19-1.49-0.35c-0.75-0.13-1.72-0.23-2.72-0.27
		c0-0.19,0-0.38,0-0.57c1-0.04,1.96-0.14,2.72-0.27c0.89-0.16,1.49-0.35,1.49-0.35v-0.23c0,0-0.6-0.19-1.49-0.35
		c-0.76-0.13-1.73-0.23-2.73-0.27c0-0.08,0-0.15,0-0.23c0-0.04,0-0.09,0-0.13c0.94-0.04,1.85-0.14,2.57-0.27
		c0.89-0.16,1.49-0.35,1.49-0.35v-0.23c0,0-0.6-0.19-1.49-0.35c-0.72-0.12-1.63-0.23-2.58-0.27c0-0.23,0-0.45,0-0.68
		c1.03-0.03,2.04-0.14,2.82-0.27c0.89-0.17,1.49-0.35,1.49-0.35v-0.24c0,0-0.6-0.19-1.49-0.35c-0.78-0.14-1.79-0.24-2.83-0.27
		c0-0.3,0-0.6,0-0.89c1.01-0.03,1.99-0.14,2.75-0.27c0.89-0.17,1.49-0.35,1.49-0.35v-0.23c0,0-0.6-0.19-1.49-0.35
		c-0.76-0.13-1.75-0.24-2.76-0.27c0-0.15,0-0.3,0-0.46c1.04-0.03,2.06-0.14,2.84-0.27c0.89-0.16,1.49-0.35,1.49-0.35v-0.23
		c0,0-0.6-0.19-1.49-0.35c-0.79-0.14-1.8-0.24-2.85-0.27c0-0.12,0-0.23,0-0.35c1.01-0.03,2-0.14,2.77-0.27
		c0.89-0.17,1.49-0.35,1.49-0.35v-0.24c0,0-0.6-0.19-1.49-0.35c-0.77-0.13-1.76-0.24-2.78-0.27c0-0.19,0-0.38,0-0.56
		c1.08-0.03,2.13-0.13,2.94-0.28c0.89-0.16,1.49-0.35,1.49-0.35v-0.23c0,0-0.6-0.19-1.49-0.35c-0.81-0.14-1.87-0.25-2.95-0.28
		c0-0.3,0-0.59-0.01-0.88c1.08-0.03,2.14-0.14,2.96-0.28c0.89-0.17,1.49-0.35,1.49-0.35v-0.23c0,0-0.6-0.19-1.49-0.35
		c-0.82-0.14-1.88-0.25-2.96-0.28c0-0.19,0-0.37,0-0.56c1.08-0.03,2.15-0.14,2.97-0.28c0.89-0.16,1.49-0.35,1.49-0.35v-0.23
		c0,0-0.6-0.19-1.49-0.35c-0.82-0.14-1.88-0.25-2.97-0.28c0-0.07,0-0.16,0-0.23c1.09-0.03,2.15-0.14,2.97-0.28
		c0.89-0.16,1.49-0.35,1.49-0.35v-0.23c0,0-0.6-0.19-1.49-0.35c-0.82-0.14-1.89-0.25-2.98-0.28c0-0.19,0-0.39,0-0.57
		c0-0.03,0-0.06,0-0.09c0.96-0.03,1.9-0.14,2.62-0.27c0.82-0.16,1.36-0.35,1.36-0.35v-0.23c0,0-0.55-0.19-1.36-0.35
		c-0.72-0.14-1.67-0.24-2.63-0.27c0-0.15,0-0.29,0-0.43c0.88-0.03,1.72-0.14,2.38-0.27c0.77-0.17,1.29-0.35,1.29-0.35v-0.24
		c0,0-0.51-0.19-1.29-0.35c-0.66-0.13-1.51-0.24-2.39-0.27c0-0.2,0-0.38,0-0.57c0.56-0.04,1.09-0.12,1.51-0.24
		c0.57-0.16,0.96-0.35,0.96-0.35v-0.24c0,0-0.38-0.19-0.96-0.35c-0.42-0.11-0.96-0.19-1.52-0.24c0-0.23,0-0.47,0-0.67
		c-0.01-0.74,0.02-1.33-0.04-1.72c-0.07-0.4-0.21-0.61-0.21-0.61h-0.02c0,0-0.14,0.21-0.22,0.61c-0.07,0.4-0.04,0.98-0.07,1.72
		c0,0.19-0.01,0.42-0.01,0.63c-0.76-0.01-1.53,0.08-2.1,0.23c-0.57,0.16-0.95,0.35-0.95,0.35v0.35c0,0,0.38,0.19,0.95,0.35
		c0.56,0.15,1.32,0.24,2.07,0.23c0,0.18-0.01,0.33-0.01,0.51c-0.97,0-1.93,0.08-2.66,0.23c-0.77,0.16-1.29,0.35-1.29,0.35v0.35
		c0,0,0.51,0.19,1.29,0.35c0.72,0.14,1.67,0.23,2.63,0.23c0,0.14-0.01,0.27-0.01,0.41c-0.99,0-1.96,0.09-2.71,0.23
		c-0.82,0.16-1.37,0.35-1.37,0.35v0.35c0,0,0.55,0.19,1.37,0.35c0.74,0.14,1.7,0.22,2.69,0.23c0,0.03,0,0.05,0,0.08
		c0,0.18-0.01,0.38-0.01,0.57c-1.05,0.01-2.08,0.09-2.87,0.22c-0.89,0.16-1.49,0.35-1.49,0.35v0.35c0,0,0.6,0.19,1.49,0.35
		c0.79,0.13,1.8,0.22,2.85,0.22c0,0.07,0,0.15-0.01,0.22c-1.04,0.01-2.06,0.09-2.84,0.22c-0.89,0.16-1.49,0.35-1.49,0.35v0.35
		c0,0,0.6,0.19,1.49,0.35c0.78,0.13,1.78,0.21,2.82,0.22c0,0.18-0.01,0.37-0.01,0.55c-1.03,0.01-2.03,0.09-2.81,0.22
		c-0.89,0.16-1.49,0.35-1.49,0.35v0.35c0,0,0.6,0.19,1.49,0.35c0.77,0.13,1.76,0.21,2.78,0.22c0,0.29-0.01,0.57-0.01,0.87
		c-1.02,0.01-2,0.09-2.77,0.22c-0.89,0.16-1.49,0.35-1.49,0.35v0.35c0,0,0.6,0.19,1.49,0.35c0.76,0.13,1.74,0.21,2.74,0.22
		c0,0.18-0.01,0.36-0.01,0.55c-1.06,0.01-2.1,0.09-2.9,0.22c-0.89,0.16-1.49,0.35-1.49,0.35v0.35c0,0,0.6,0.19,1.49,0.35
		c0.79,0.14,1.82,0.22,2.87,0.23c0,0.11-0.01,0.22-0.01,0.33c-1.02,0.01-2.02,0.09-2.78,0.22c-0.89,0.16-1.49,0.35-1.49,0.35v0.35
		c0,0,0.6,0.19,1.49,0.35c0.76,0.13,1.75,0.21,2.76,0.22c0,0.15,0,0.29-0.01,0.44c-1.04,0.01-2.05,0.09-2.83,0.22
		c-0.89,0.16-1.49,0.35-1.49,0.35v0.35c0,0,0.6,0.19,1.49,0.35c0.78,0.13,1.78,0.21,2.81,0.22c0,0.29-0.01,0.58-0.01,0.87
		c-1,0.01-1.96,0.1-2.71,0.22c-0.89,0.16-1.49,0.35-1.49,0.35v0.35c0,0,0.6,0.19,1.49,0.35c0.74,0.13,1.7,0.21,2.69,0.22
		c0,0.22-0.01,0.44-0.01,0.65c-1.07,0.01-2.11,0.09-2.92,0.23c-0.89,0.16-1.49,0.35-1.49,0.35v0.35c0,0,0.6,0.19,1.49,0.35
		c0.8,0.14,1.83,0.22,2.89,0.22c0,0.04,0,0.07,0,0.11c0,0.07,0,0.15,0,0.23c-1,0.01-1.97,0.09-2.73,0.22
		c-0.89,0.16-1.49,0.35-1.49,0.35v0.35c0,0,0.6,0.2,1.49,0.35c0.75,0.13,1.71,0.21,2.7,0.22c-0.01,0.18-0.01,0.36-0.01,0.55
		c-0.99,0.01-1.94,0.1-2.69,0.22c-0.89,0.16-1.49,0.35-1.49,0.35v0.35c0,0,0.6,0.19,1.49,0.35c0.74,0.12,1.69,0.2,2.66,0.22
		c0,0.18-0.01,0.37-0.01,0.55c-1.03,0.01-2.04,0.09-2.81,0.22c-0.89,0.16-1.49,0.35-1.49,0.35v0.35c0,0,0.6,0.19,1.49,0.35
		c0.77,0.13,1.77,0.21,2.79,0.22c-0.15,8.74-0.23,16.63-0.26,19.82h-4.01v60.77h-8.4v85.14h26.96v-85.14H244.2z M237.73,197.98h3.43
		v57.73h-3.43V197.98z M250.21,337.81h-20.88v-79.06h5.36h9.5h6.01V337.81z"/>
	<path class="st0" d="M312.74,163.54c-0.84-1.07-1.95-1.63-3.21-1.63c-0.84,0-1.59,0.25-2.17,0.46c-1.18-1.69-3.57-3.86-4.89-4.1
		c-1.36-0.24-2.77,0.35-3.95,0.86c-0.33,0.15-0.8,0.35-1.07,0.43c-0.3-0.22-0.68-0.51-1.08-0.82c-0.95-0.74-2.03-1.57-2.86-1.99
		c-1.1-0.57-2.71,0.05-4.43,0.84c-0.64,0.29-1.67,0.76-2.11,0.83c-0.18-0.11-0.39-0.32-0.63-0.54c-0.88-0.85-2.23-2.2-5.24-1.78
		c-1.63,0.22-2.58,1.39-3.27,2.24c-0.6,0.74-0.91,1.07-1.27,1.07c-0.53,0-1.14-0.32-1.8-0.66c-0.86-0.45-1.83-0.96-3.01-0.96
		c-0.35,0-0.71,0.05-1.05,0.14c-1.82,0.5-2.32,2.03-2.65,3.05c-0.21,0.63-0.35,1.02-0.58,1.14c-0.82,0.41-1.66,0.32-2.62,0.13
		c-1.23-0.24-2.68-0.31-3.84,0.36c-1.65,0.96-2.99,2.51-3.98,4.62l-0.12,0.37c-3.22,17.27,11.53,39.04,12.16,39.96l0.53,0.76
		c0.13,7.7,4.38,43.59,4.58,45.32l0.72,8.35h-0.03v70.72l0.02,0.24c1.03,6.51,5.77,8.82,9.51,8.82c4.46,0,9.22-3.07,9.69-8.93
		c0.73-9.19,0.03-66.89,0-69.34l-0.01-0.78l0.62-7.71h0.04l0.14-1.37c0.16-1.57,3.82-37.63,3.45-45.36l0.23-0.27
		C299.62,206.77,323.84,177.65,312.74,163.54z M259.88,168.34c0.71-1.44,1.6-2.49,2.67-3.1c0.44-0.25,0.96-0.16,1.75-0.01
		c0.56,0.11,1.2,0.23,1.91,0.23c0.93,0,1.79-0.2,2.64-0.63c1.38-0.69,1.8-1.97,2.11-2.9c0.29-0.87,0.39-1.01,0.58-1.07
		c0.5-0.14,1.12,0.21,1.83,0.58c0.86,0.45,1.93,1.01,3.23,1.01c1.84-0.01,2.86-1.27,3.61-2.2c0.54-0.67,0.9-1.09,1.32-1.14
		c1.44-0.2,1.97,0.24,2.73,0.97c0.46,0.44,0.97,0.93,1.72,1.23c1.13,0.45,2.72-0.2,4.38-0.95c0.58-0.27,1.53-0.7,1.97-0.79
		c0.59,0.35,1.48,1.03,2.2,1.59c0.59,0.46,1.13,0.87,1.52,1.12c0.37,0.24,0.8,0.36,1.27,0.36c0.8,0,1.6-0.35,2.45-0.72
		c0.71-0.31,1.51-0.66,2.08-0.68c0.67,0.26,2.9,2.33,3.28,3.27c0.29,0.69,0.95,1.13,1.72,1.13c0.49,0,0.94-0.17,1.41-0.34
		c0.42-0.16,0.91-0.34,1.29-0.34c0.22,0,0.48,0.04,0.82,0.47c8.56,10.88-9.23,34.51-13.3,39.63c-0.01-0.01-0.04-0.02-0.05-0.03
		c-2.43-2.53-7.85-3.71-13.17-3.73c-0.11,0-0.22-0.01-0.33-0.01c-0.26,0-0.52,0.02-0.77,0.03c-0.2,0.01-0.39,0.01-0.59,0.02
		c-0.05,0-0.1,0-0.15,0.01c-0.01,0-0.03,0-0.04,0c-3.1,0.16-6.22,0.75-8.57,1.95c-1.09,0.45-1.97,0.9-2.61,1.28
		C267.74,199.75,257.44,182.1,259.88,168.34z M291.09,332.58c-0.32,4.03-3.59,6.14-6.66,6.14c-2.65,0-5.73-1.61-6.49-6.14v-67.56
		h13.17C291.21,274.36,291.75,324.34,291.09,332.58z M291.24,260.47h-13.4l-0.47-5.48h14.32L291.24,260.47z M292.1,251.16h-15.13
		c-0.95-8.11-4.26-36.89-4.32-43.06c0.19-0.74,0.85-1.41,1.86-1.97c1.8-0.74,4.34-1.5,7.69-1.76c0.04,0,0.08,0,0.12-0.01
		c0.17-0.01,0.34-0.01,0.5-0.02c0.28-0.01,0.55-0.01,0.83-0.01c0.13,0,0.26,0.01,0.39,0.01c4.62,0.14,8.87,1.99,11.03,3.12
		c0.11,0.18,0.19,0.36,0.2,0.53C295.73,212.54,293.51,237.07,292.1,251.16z"/>
	<path class="st0" d="M343.89,283.71v-41.11l-1.91,0.5c-0.02,0.01-0.86,0.22-2.29,0.48v-34.03c0-3.85-8.14-14.38-14.36-14.38
		c-1.46,0-2.77,0.55-3.81,1.6c-2.12,2.15-3.1,6.34-2.99,12.75c-0.37,17.81-0.14,29.84-0.04,33.79c-0.31-0.07-0.63-0.13-0.93-0.21
		l-1.91-0.5v41.11h-3.09v58.72h34.41v-58.72H343.89z M321.58,209.54c-0.12-7.25,1.27-9.77,2.11-10.63c0.47-0.47,0.99-0.69,1.64-0.69
		c4.5,0,11.32,9.28,11.32,11.34V244c-0.05,0.03-0.14,0.06-0.21,0.09c-2.01,0.25-4.45,0.45-7.13,0.45c-2.7,0-5.29-0.22-7.76-0.61
		C321.47,240.91,321.19,228.53,321.58,209.54z M318.7,246.5c0.75,0.16,1.51,0.3,2.28,0.42c2.26,0.79,5.71,1.01,8.76,1.01
		c3.7,0,5.97-0.38,7.39-0.86c1.5-0.19,2.78-0.41,3.72-0.6v37.24H318.7V246.5z M343.95,339.39h-28.33v-52.64h0.05h28.23h0.05V339.39z
		"/>
	<path class="st0" d="M249.17,117.63c-3.32-0.81-18.38-1.21-46.06-1.21c-11.66,0-24.53,0.07-37.26,0.18l-0.84-38.03h-1.26
		l-0.84,38.06c-0.58,0-1.17,0.01-1.75,0.01l-0.84-38.07h-1.26l-0.84,38.1c-0.63,0.01-1.26,0.01-1.88,0.02l-0.84-38.12h-1.26
		l-0.84,38.15c-0.66,0.01-1.31,0.01-1.97,0.02l-0.84-38.17h-1.26l-0.84,38.2c-0.67,0.01-1.34,0.01-2.01,0.02l-0.84-38.23h-1.26
		l-0.84,38.26c-0.58,0.01-1.16,0.01-1.74,0.02l-0.84-38.28h-1.26l-0.84,38.31c-0.63,0.01-1.25,0.01-1.87,0.02l-0.84-38.34h-1.26
		l-0.84,38.37c-0.66,0.01-1.31,0.02-1.96,0.03l-0.85-38.4H130L129.15,117c-0.63,0.01-1.26,0.02-1.88,0.03l-0.84-37.97h-1.26
		l-0.84,38.01c-0.59,0.01-1.17,0.02-1.75,0.02l-0.84-38.04h-1.26l-0.84,38.08c-0.64,0.01-1.26,0.02-1.88,0.03l-0.84-38.1h-1.26
		l-0.84,38.15c-0.66,0.01-1.32,0.02-1.97,0.03l-0.84-38.17h-1.26l-0.84,38.22c-0.68,0.01-1.36,0.02-2.01,0.03l-0.84-38.25h-1.26
		l-0.84,38.29c-0.6,0.01-1.18,0.02-1.74,0.03l-0.84-38.32h-1.26l-0.84,38.37c-0.65,0.01-1.28,0.02-1.87,0.03l-0.85-38.4h-1.26
		l-0.85,38.44c-0.74,0.01-1.39,0.02-1.96,0.03l-0.85-38.48h-1.26l-0.85,38.53l-0.39,0.01l-0.44,0.47c-0.26,0.28-6.3,6.81-5.16,12.94
		c0.52,2.82,2.41,5.04,5.61,6.59l0.43,0.21l0.47-0.08c20.6-3.36,41.2-4.99,62.96-4.99c25.12,0,46.85,2.27,62.72,3.93
		c10.25,1.07,18.34,1.92,24.39,1.92c3.44,0,6.06-0.28,8-0.87c6.86-1.21,9.44-5.56,9.57-9.24
		C258.91,123.51,254.98,119.05,249.17,117.63z M248.55,134.72l-0.2,0.05c-1.65,0.52-4,0.77-7.19,0.77c-5.89,0-13.91-0.84-24.07-1.9
		c-15.93-1.67-37.75-3.94-63.03-3.94c-21.76,0-42.36,1.62-62.96,4.95c-2.05-1.09-3.21-2.47-3.53-4.19
		c-0.72-3.84,2.77-8.39,3.99-9.85c7.07-0.12,67.83-1.15,111.56-1.15c33.69,0,43.25,0.61,45.33,1.12c5.13,1.26,7.35,4.92,7.25,7.78
		C255.59,131.6,252.91,133.98,248.55,134.72z"/>
	<g>
		<path class="st0" d="M247.3,132.4c-2.8,0-5.08-2.2-5.08-4.91c0-2.71,2.28-4.91,5.08-4.91c2.8,0,5.08,2.2,5.08,4.91
			C252.39,130.2,250.11,132.4,247.3,132.4z M247.3,125.63c-1.13,0-2.05,0.84-2.05,1.87c0,1.03,0.92,1.87,2.05,1.87
			c1.13,0,2.05-0.84,2.05-1.87C249.35,126.46,248.43,125.63,247.3,125.63z"/>
	</g>
</g>
</svg>
