<?xml version="1.0" encoding="utf-8"?>
<!-- Generator: Adobe Illustrator 24.2.1, SVG Export Plug-In . SVG Version: 6.00 Build 0)  -->
<svg version="1.1" id="Layer_1" xmlns="http://www.w3.org/2000/svg" xmlns:xlink="http://www.w3.org/1999/xlink" x="0px" y="0px"
	 viewBox="0 0 430.47 430.47" style="enable-background:new 0 0 430.47 430.47;" xml:space="preserve">
<style type="text/css">
	.st0{fill:#343466;}
</style>
<g>
	<g>
		<path class="st0" d="M215.23,417.83c-111.71,0-202.6-90.88-202.6-202.6c0-111.71,90.88-202.6,202.6-202.6
			c111.71,0,202.6,90.89,202.6,202.6C417.83,326.95,326.95,417.83,215.23,417.83z M215.23,17.13C106,17.13,17.13,106,17.13,215.23
			c0,109.24,88.87,198.1,198.1,198.1c109.24,0,198.1-88.87,198.1-198.1C413.34,106,324.47,17.13,215.23,17.13z"/>
	</g>
	<g>
		<path class="st0" d="M125.88,229.18l-0.82-0.5c-0.92-0.56-22.48-13.85-22.07-26.33c0.33-10.23,6.82-11.76,10.65-11.76
			c4.67,0,9.52,2.07,11.38,2.95c1.87-1.12,6.94-3.84,11.84-3.84c4.23,0,9.51,2.01,10.65,11.58c1.45,12.16-19.92,26.74-20.83,27.36
			L125.88,229.18z M113.64,193.59c-4.96,0-7.47,2.9-7.66,8.86c-0.28,8.53,13.51,19.13,19.82,23.16
			c6.23-4.39,19.72-15.75,18.74-23.97c-0.72-6.02-3.23-8.94-7.68-8.94c-5.12,0-10.88,3.77-10.93,3.81l-0.74,0.49l-0.79-0.42
			C124.34,196.55,118.69,193.59,113.64,193.59z"/>
	</g>
	<path class="st0" d="M369.06,273.41c-0.11,0.08-11.48,8.5-24.82,8.5c-9.98,0-18.51-4.72-25.34-14.02
		c-3.88-5.28-8.97-8.19-14.32-8.19c-6.06,0-11.35,3.77-13.33,8.88c-1.87-5.28-7.27-9.22-13.46-9.22c-5.36,0-10.44,2.91-14.32,8.19
		c-6.83,9.3-15.36,14.01-25.34,14.01c-13.29,0-24.71-8.41-24.82-8.5l-6.34-4.74l2.9,7.36c0.36,0.91,9.12,22.25,39.27,22.25
		c6.64,0,13.89-1.07,21.56-3.18c11.61-3.19,18.24-11.26,20.43-17.74c2.07,6.53,8.74,14.82,20.55,18.07
		c7.67,2.11,14.92,3.18,21.56,3.18c30.15,0,38.91-21.35,39.27-22.26l2.91-7.38L369.06,273.41z M269.5,290.43
		c-7.28,2-14.13,3.02-20.36,3.02c-15.89,0-25.12-6.46-30.1-11.93c4.96,2.3,11.69,4.54,19.09,4.54c11.49,0,21.23-5.33,28.96-15.85
		c3.86-5.25,7.95-6.36,10.7-6.36c5.24,0,9.67,4,9.67,8.73C287.46,276.95,282.03,286.99,269.5,290.43z M333.23,293.79
		c-6.23,0-13.09-1.02-20.36-3.02c-12.53-3.45-17.96-13.49-17.96-17.85c0-4.73,4.43-8.73,9.67-8.73c2.75,0,6.84,1.1,10.7,6.36
		c7.73,10.52,17.47,15.85,28.96,15.85c7.39,0,14.13-2.24,19.09-4.54C358.35,287.33,349.12,293.79,333.23,293.79z"/>
	<path class="st0" d="M188.67,275.08l-1.41,0.25c-0.73,0.13-1.56,0.19-2.49,0.19c-7.62,0-20.21-4.29-29.92-10.19
		c-3.84-2.33-7.55-3.46-11.35-3.46c-5.36,0-9.73,2.31-13.24,4.17c-2.31,1.22-4.3,2.27-5.83,2.27c-2.52-0.01-5.21-1.51-8.07-3.08
		c-3.41-1.89-7.27-4.02-11.65-4.02c-2.77,0-5.42,0.83-8.1,2.53c-9.27,5.9-28.72,11.45-35.19,11.45c-0.16,0-0.31,0-0.45-0.01
		l-1.58-0.09v5.03l1.33,0.15c0.1,0.01,10.05,1.23,17.23,10.7c11.56,15.24,30.91,17.2,46.47,17.2c18.38,0,37.22-7.21,46.88-17.93
		c7.66-8.51,16.78-9.96,16.87-9.97l1.6-0.23L188.67,275.08z M98.23,266.26c2.18-1.39,4.3-2.06,6.49-2.06
		c3.61,0,6.96,1.85,10.21,3.65c3.2,1.77,6.22,3.44,9.53,3.46c2.25,0,4.55-1.21,7.21-2.62c3.39-1.79,7.22-3.82,11.84-3.82
		c3.24,0,6.44,0.99,9.79,3.03c9.5,5.77,21.72,10.06,29.89,10.57c-5.45,1.06-10.97,1.79-16.49,2.15c-6.83,0.39-13.77,0.26-20.27-1.41
		c-0.96-0.38-2.03-0.64-3.15-0.65c-1.15-0.03-2.3,0.27-3.3,0.68c-2,0.86-3.55,2.01-5.16,2.86c-1.6,0.87-3.24,1.52-4.95,1.88
		c-0.86,0.18-1.73,0.28-2.61,0.34c-0.82,0.04-1.8,0.05-2.68-0.02c-0.91-0.03-1.81-0.14-2.7-0.25c-0.89-0.15-1.77-0.3-2.64-0.53
		c-0.87-0.22-1.72-0.47-2.56-0.79c-0.84-0.3-1.67-0.65-2.5-1.04c-1.66-0.77-3.3-1.68-5.03-2.59c-0.87-0.46-1.77-0.9-2.69-1.32
		c-0.93-0.42-1.9-0.8-2.89-1.14h0l-0.52-0.15l-0.4,0.06l-5.17,0.82c-1.73,0.22-3.46,0.47-5.19,0.67c-1.73,0.17-3.47,0.39-5.21,0.51
		c-1.74,0.15-3.49,0.27-5.23,0.34c-0.87,0.05-1.75,0.08-2.62,0.1c-0.87,0.01-1.75,0.05-2.62,0.05c-1.75,0.01-3.5-0.03-5.25-0.1
		c-1.75-0.09-3.5-0.21-5.24-0.41c-0.12-0.01-0.24-0.03-0.36-0.05c-0.55-0.19-1.06-0.35-1.53-0.49
		C72.63,276.91,89.38,271.89,98.23,266.26z M169.08,288.22c-9.13,10.13-27.07,16.94-44.65,16.94c-14.87,0-33.32-1.82-44.09-16.01
		c-3.78-4.99-8.23-7.9-11.9-9.59c0.93,0.17,1.85,0.33,2.78,0.48c1.75,0.26,3.51,0.49,5.28,0.67c0.88,0.1,1.77,0.15,2.65,0.24
		c0.89,0.08,1.77,0.14,2.66,0.18c1.77,0.12,3.55,0.18,5.33,0.22c1.78,0.07,3.56,0.03,5.34,0.05c1.78-0.02,3.56-0.08,5.34-0.12
		l4.75-0.24c0.73,0.23,1.45,0.46,2.17,0.75c0.83,0.34,1.67,0.71,2.52,1.11c1.7,0.8,3.46,1.68,5.32,2.44
		c0.93,0.39,1.88,0.75,2.86,1.04c0.97,0.32,1.97,0.57,2.97,0.77c1,0.22,2.02,0.34,3.03,0.47c1.01,0.08,2.03,0.16,3.04,0.15
		l0.76,0.01c0.33,0,0.5-0.02,0.76-0.03c0.45-0.01,1.02-0.07,1.55-0.11c1.03-0.12,2.06-0.3,3.07-0.56c2.02-0.53,3.95-1.41,5.66-2.47
		c1.72-1.04,3.25-2.25,4.76-2.98c1.5-0.74,3.02-0.79,4.65-0.21l0.1,0.03l0.05,0.01c7.01,1.38,14.07,1.09,20.97,0.31
		c5.17-0.63,10.28-1.56,15.31-2.79C178.47,280.48,173.58,283.23,169.08,288.22z"/>
	<path class="st0" d="M336.41,213.37v-94.51l-0.5-0.62c-4.32-5.37-26.78-11.86-48.2-11.86c-11.93,0-28.62,2-40.44,11.52l-0.84,0.68
		v86.86v7.44c-16.06,2.15-40.67,7.08-40.67,17.18c0,13.02,42.23,19.84,83.94,19.84s83.94-6.81,83.94-19.84
		C373.64,220.91,353.85,215.96,336.41,213.37z M287.71,110.87c20.49,0,39.99,6.03,44.21,9.68v86.47
		c-4.92,2.02-19.89,4.48-39.17,4.48c-11.14,0-27.26-0.85-41.83-4.79v-85.96C261.68,112.61,276.79,110.87,287.71,110.87z
		 M250.92,211.37c14.73,3.8,30.72,4.63,41.83,4.63c15.85,0,31.21-1.69,38.93-4.11c0.02,0.39,0.05,0.83,0.09,1.29
		c-4.78,1.79-20.54,7.04-40.97,7.04c-13.9,0-27.31-2.39-39.88-7.12V211.37z M289.7,245.41c-49.23,0-79.45-8.94-79.45-15.34
		c0-3.27,10.29-9.41,38.61-12.97c13.22,5.04,27.32,7.61,41.94,7.61c21.13,0,37.1-5.27,42.39-7.26l0.66,0.09
		c27.92,3.91,35.3,9.91,35.3,12.53C369.15,236.48,338.93,245.41,289.7,245.41z"/>
	<path class="st0" d="M176.86,129.9c-4.26,0-7.73,3.47-7.73,7.73c0,2.87,1.59,5.35,3.91,6.68l-25.17,20.9l-22.1-43.45
		c3.63-0.63,6.4-3.79,6.4-7.6c0-4.27-3.47-7.74-7.73-7.74c-4.27,0-7.74,3.47-7.74,7.74c0,3.81,2.78,6.97,6.42,7.6l-23.05,43.89
		l-25.2-22.24c1.62-1.42,2.66-3.47,2.66-5.79c0-4.26-3.47-7.73-7.73-7.73c-4.27,0-7.74,3.47-7.74,7.73c0,4.27,3.47,7.74,7.74,7.74
		c1.04,0,2.02-0.21,2.92-0.58l15.1,102.04h75.27l12.95-101.55c0.27,0.03,0.54,0.08,0.82,0.08c4.26,0,7.74-3.47,7.74-7.74
		C184.59,133.37,181.12,129.9,176.86,129.9z M69.79,140.88c-1.79,0-3.25-1.46-3.25-3.25c0-1.79,1.46-3.24,3.25-3.24
		c1.79,0,3.24,1.45,3.24,3.24C73.03,139.42,71.58,140.88,69.79,140.88z M121.18,114.17c0-1.79,1.46-3.25,3.25-3.25
		c1.79,0,3.24,1.46,3.24,3.25c0,1.79-1.45,3.24-3.24,3.24C122.64,117.41,121.18,115.96,121.18,114.17z M159.13,242.34H91.69
		L78.4,152.53l22.99,20.28l23.01-43.83l22.01,43.28l24.23-20.11L159.13,242.34z M176.86,140.88c-1.79,0-3.24-1.46-3.24-3.25
		c0-1.79,1.45-3.24,3.24-3.24c1.79,0,3.24,1.45,3.24,3.24C180.1,139.42,178.65,140.88,176.86,140.88z"/>
</g>
</svg>
