<?xml version="1.0" encoding="utf-8"?>
<!-- Generator: Adobe Illustrator 24.2.1, SVG Export Plug-In . SVG Version: 6.00 Build 0)  -->
<svg version="1.1" id="Layer_1" xmlns="http://www.w3.org/2000/svg" xmlns:xlink="http://www.w3.org/1999/xlink" x="0px" y="0px"
	 viewBox="0 0 430.47 430.47" style="enable-background:new 0 0 430.47 430.47;" xml:space="preserve">
<style type="text/css">
	.st0{fill:#343466;}
</style>
<g>
	<g>
		<path class="st0" d="M215.23,417.45c-111.5,0-202.21-90.71-202.21-202.21c0-111.5,90.71-202.21,202.21-202.21
			c111.5,0,202.21,90.71,202.21,202.21C417.45,326.74,326.74,417.45,215.23,417.45z M215.23,17.5
			C106.2,17.5,17.5,106.21,17.5,215.23c0,109.03,88.7,197.73,197.73,197.73c109.03,0,197.73-88.7,197.73-197.73
			C412.96,106.21,324.26,17.5,215.23,17.5z"/>
	</g>
	<g>
		<path class="st0" d="M174.2,335.31l-1.21-0.78c-1.17-0.75-28.68-18.59-27.8-34.81c0.73-13.17,9.03-15.13,13.92-15.13
			c6.09,0,12.45,2.82,15.01,4.1c2.53-1.42,8.84-4.57,14.97-4.57c4.7,0,12.78,2.02,14.08,15.51c1.53,15.88-26.56,34.13-27.75,34.9
			L174.2,335.31z M159.11,289.07c-3.8,0-8.9,1.13-9.44,10.9c-0.59,10.74,16.49,24.57,24.53,29.99c8.18-5.52,25.51-19.51,24.5-29.9
			c-0.74-7.71-3.89-11.46-9.61-11.46c-6.45,0-13.64,4.49-13.71,4.54l-1.13,0.71l-1.17-0.65
			C173.01,293.16,165.63,289.07,159.11,289.07z"/>
	</g>
	<g>
		<path class="st0" d="M245.99,292.86c-20.64,0-36.8-10.18-36.8-23.17c0-12.99,16.17-23.17,36.8-23.17
			c20.64,0,36.8,10.18,36.8,23.17C282.8,282.68,266.63,292.86,245.99,292.86z M245.99,251c-17.52,0-32.32,8.56-32.32,18.68
			c0,10.13,14.8,18.69,32.32,18.69s32.32-8.56,32.32-18.69C278.31,259.56,263.51,251,245.99,251z"/>
	</g>
	<g>
		<rect x="278.31" y="137.21" class="st0" width="4.48" height="132.47"/>
	</g>
	<g>
		<path class="st0" d="M298.58,334.17c-20.64,0-36.8-10.17-36.8-23.16c0-12.99,16.17-23.17,36.8-23.17
			c20.64,0,36.8,10.18,36.8,23.17C335.38,324,319.22,334.17,298.58,334.17z M298.58,292.32c-17.52,0-32.32,8.56-32.32,18.68
			c0,10.13,14.8,18.68,32.32,18.68c17.52,0,32.32-8.56,32.32-18.68C330.9,300.88,316.1,292.32,298.58,292.32z"/>
	</g>
	<g>
		<rect x="330.9" y="178.53" class="st0" width="4.48" height="132.48"/>
	</g>
	<g>
		<path class="st0" d="M174.19,257.21c-50.15,0-90.95-40.8-90.95-90.96c0-50.15,40.8-90.95,90.95-90.95
			c50.15,0,90.95,40.8,90.95,90.95C265.15,216.4,224.34,257.21,174.19,257.21z M174.19,79.78c-47.68,0-86.47,38.79-86.47,86.47
			c0,47.68,38.79,86.47,86.47,86.47c47.68,0,86.47-38.79,86.47-86.47C260.66,118.57,221.87,79.78,174.19,79.78z"/>
	</g>
	<g>
		<path class="st0" d="M174.19,195.29c-16.01,0-29.04-13.02-29.04-29.03c0-16.01,13.03-29.04,29.04-29.04
			c16.01,0,29.04,13.03,29.04,29.04C203.23,182.26,190.21,195.29,174.19,195.29z M174.19,141.7c-13.54,0-24.56,11.02-24.56,24.56
			c0,13.54,11.02,24.55,24.56,24.55c13.54,0,24.56-11.01,24.56-24.55C198.75,152.71,187.73,141.7,174.19,141.7z"/>
	</g>
	<g>
		<path class="st0" d="M174.19,205.12c-21.43,0-38.86-17.44-38.86-38.87c0-21.43,17.43-38.87,38.86-38.87
			c21.43,0,38.87,17.43,38.87,38.87C213.06,187.68,195.62,205.12,174.19,205.12z M174.19,131.87c-18.96,0-34.38,15.42-34.38,34.38
			c0,18.96,15.42,34.38,34.38,34.38c18.96,0,34.38-15.43,34.38-34.38C208.58,147.29,193.15,131.87,174.19,131.87z"/>
	</g>
</g>
</svg>
