<?xml version="1.0" encoding="utf-8"?>
<!-- Generator: Adobe Illustrator 24.2.1, SVG Export Plug-In . SVG Version: 6.00 Build 0)  -->
<svg version="1.1" id="Layer_1" xmlns="http://www.w3.org/2000/svg" xmlns:xlink="http://www.w3.org/1999/xlink" x="0px" y="0px"
	 viewBox="0 0 430.47 430.47" style="enable-background:new 0 0 430.47 430.47;" xml:space="preserve">
<style type="text/css">
	.st0{fill:#343466;}
</style>
<g>
	<g>
		<path class="st0" d="M215.23,422.42c-114.25,0-207.19-92.95-207.19-207.19S100.99,8.04,215.23,8.04s207.19,92.95,207.19,207.19
			S329.48,422.42,215.23,422.42z M215.23,12.64c-111.71,0-202.6,90.89-202.6,202.6s90.89,202.6,202.6,202.6s202.6-90.89,202.6-202.6
			S326.95,12.64,215.23,12.64z"/>
	</g>
	<g>
		<path class="st0" d="M137.93,173.88l-1.24-0.8c-1.03-0.66-25.24-16.36-24.45-30.74c0.65-11.79,8.11-13.55,12.5-13.55
			c5.27,0,10.75,2.38,13.12,3.54c2.33-1.29,7.79-3.95,13.1-3.95c4.22,0,11.48,1.8,12.64,13.86c1.34,13.85-21.78,29.13-24.42,30.83
			L137.93,173.88z M124.73,133.4c-3.18,0-7.46,0.95-7.92,9.21c-0.5,9.16,14.05,21.01,21.11,25.8c7.17-4.87,21.94-16.86,21.09-25.7
			c-0.84-8.71-5.01-9.71-8.07-9.71c-5.55,0-11.74,3.88-11.81,3.92l-1.15,0.73l-1.2-0.67C136.73,136.93,130.34,133.4,124.73,133.4z"
			/>
	</g>
	<g>
		<path class="st0" d="M292.02,278.65l-1.24-0.8c-1.03-0.66-25.24-16.36-24.46-30.73c0.65-11.79,8.11-13.55,12.5-13.55
			c5.27,0,10.75,2.38,13.11,3.54c2.33-1.29,7.78-3.95,13.09-3.95c4.22,0,11.48,1.8,12.64,13.86c1.34,13.85-21.78,29.13-24.42,30.83
			L292.02,278.65z M278.83,238.16c-3.18,0-7.46,0.96-7.92,9.21c-0.5,9.14,14.06,21,21.11,25.8c7.17-4.87,21.94-16.86,21.09-25.7
			c-0.84-8.71-5.01-9.71-8.07-9.71c-5.54,0-11.74,3.88-11.8,3.92l-1.16,0.73l-1.19-0.67C290.82,241.69,284.44,238.16,278.83,238.16z
			"/>
	</g>
	<g>
		<path class="st0" d="M244.11,235.93c-26.35,0-47.78-18.68-47.78-41.64c0-1.7,0.13-3.42,0.41-5.21
			c-9.57-1.33-18.87-12.22-21.43-15.43c-1.26-0.74-3.8-2.67-10.02-7.68l-2.65-2.14l12.81-7.14c1.93-2.22,12.85-14.22,23.19-14.22
			c10.47,0,19.71,6.07,23.38,15.05c0.74-0.33,1.53-0.66,2.36-0.99c-1.45-9-2.02-21.2,2.35-31.6c8.63-20.49,49.68-39.81,51.42-40.62
			l2.25-1.05l0.87,2.32c0.13,0.33,2.7,7.45-1.35,19.97c24.25-7.82,52.03-9.89,53.27-9.98l2.46-0.18v2.47
			c0,1.22-0.65,30.14-57.21,57.11c-3.04,1.45-5.94,2.87-8.76,4.31c9.11,5.05,16.08,12.66,19.61,21.5l75.75,3.06l-3.99,35.93
			l-70.72-14.88C284.86,223.01,265.82,235.93,244.11,235.93z M202.38,184.44l-0.64,2.9c-0.55,2.48-0.81,4.75-0.81,6.96
			c0,20.43,19.37,37.05,43.19,37.05c20.46,0,38.26-12.47,42.31-29.66l0.51-2.18l70.09,14.75l2.89-26L286,185.27l-0.52-1.47
			c-3.36-9.59-11.32-17.74-21.83-22.35l-4.38-1.92l4.23-2.22c4.15-2.17,8.38-4.29,12.94-6.46c44.03-21,52.56-43.06,54.21-50.43
			c-8.37,0.8-33.52,3.69-53.8,11.04l-4.91,1.78l2-4.82c3.73-8.97,3.84-15.35,3.49-18.65c-9.21,4.62-39.73,20.9-46.49,36.95
			c-4.25,10.1-3.29,22.37-1.74,30.88l0.35,1.9l-1.82,0.66c-2.38,0.87-4.29,1.7-6,2.6l-2.53,1.33l-0.75-2.76
			c-2.29-8.4-10.44-14.26-19.82-14.26c-7.47,0-16.94,9.32-19.95,12.91l-0.27,0.32l-7.57,4.23c2.77,2.2,5.38,4.22,6.45,4.96h0.6
			l0.72,0.92c4.1,5.28,12.94,14.22,20.03,14.22l0.17-0.02c0.2-0.03,0.41-0.05,0.62-0.06L202.38,184.44z"/>
	</g>
	<g>
		<path class="st0" d="M196.13,162.7c-3.02,0-5.48-2.29-5.48-5.11c0-2.81,2.46-5.1,5.48-5.1c3.02,0,5.48,2.29,5.48,5.1
			C201.61,160.41,199.15,162.7,196.13,162.7z M196.13,155.56c-1.34,0-2.42,0.91-2.42,2.04c0,1.13,1.09,2.05,2.42,2.05
			c1.33,0,2.42-0.92,2.42-2.05C198.55,156.47,197.46,155.56,196.13,155.56z"/>
	</g>
	<g>
		<path class="st0" d="M181.83,341.16c-21.71,0-40.74-12.92-46.2-31.03l-70.72,14.88l-3.99-35.93l75.75-3.06
			c3.53-8.84,10.5-16.46,19.61-21.5c-2.82-1.43-5.71-2.85-8.76-4.31c-56.57-26.97-57.21-55.89-57.21-57.11v-2.47l2.46,0.18
			c1.24,0.09,29.02,2.15,53.27,9.98c-4.05-12.52-1.48-19.65-1.35-19.98l0.87-2.32l2.25,1.05c1.74,0.81,42.79,20.13,51.42,40.62
			c4.37,10.39,3.79,22.6,2.35,31.6c0.84,0.33,1.62,0.66,2.36,0.99c3.67-8.98,12.9-15.05,23.38-15.05c10.34,0,21.26,12,23.19,14.22
			l12.8,7.14l-2.65,2.13c-6.22,5.01-8.76,6.94-10.02,7.68c-2.59,3.26-11.85,14.11-21.43,15.43c0.27,1.79,0.41,3.51,0.41,5.2
			C229.61,322.48,208.17,341.16,181.83,341.16z M139,304.73l0.51,2.18c4.06,17.18,21.85,29.66,42.31,29.66
			c23.81,0,43.19-16.62,43.19-37.05c0-2.2-0.26-4.47-0.81-6.95l-0.63-2.88l2.95,0.09c0.21,0.01,0.42,0.03,0.63,0.06l0.18,0.02
			c7.12,0,15.94-8.94,20.03-14.23l0.69-0.89l0.6-0.01c1.06-0.73,3.68-2.76,6.47-4.97l-7.57-4.23l-0.27-0.32
			c-3.02-3.59-12.48-12.91-19.95-12.91c-9.39,0-17.54,5.87-19.82,14.26l-0.75,2.76l-2.53-1.33c-1.69-0.89-3.6-1.71-6-2.6l-1.81-0.67
			l0.34-1.9c1.55-8.51,2.5-20.78-1.74-30.88c-6.76-16.06-37.28-32.33-46.49-36.95c-0.36,3.29-0.25,9.67,3.49,18.65l2,4.82
			l-4.91-1.78c-20.3-7.35-45.44-10.24-53.8-11.04c1.64,7.35,10.16,29.42,54.21,50.43c4.57,2.18,8.8,4.29,12.94,6.46l4.23,2.22
			l-4.37,1.92c-10.52,4.61-18.48,12.76-21.84,22.35l-0.52,1.47l-73.91,2.98l2.89,26L139,304.73z"/>
	</g>
	<g>
		<path class="st0" d="M229.81,267.43c-3.02,0-5.48-2.29-5.48-5.11c0-2.81,2.46-5.1,5.48-5.1c3.02,0,5.48,2.29,5.48,5.1
			C235.29,265.13,232.84,267.43,229.81,267.43z M229.81,260.28c-1.33,0-2.42,0.91-2.42,2.04c0,1.13,1.08,2.05,2.42,2.05
			c1.34,0,2.42-0.92,2.42-2.05C232.23,261.19,231.15,260.28,229.81,260.28z"/>
	</g>
</g>
</svg>
