<?xml version="1.0" encoding="utf-8"?>
<!-- Generator: Adobe Illustrator 24.2.1, SVG Export Plug-In . SVG Version: 6.00 Build 0)  -->
<svg version="1.1" id="Layer_1" xmlns="http://www.w3.org/2000/svg" xmlns:xlink="http://www.w3.org/1999/xlink" x="0px" y="0px"
	 viewBox="0 0 430.47 430.47" style="enable-background:new 0 0 430.47 430.47;" xml:space="preserve">
<style type="text/css">
	.st0{fill:#343466;}
</style>
<g>
	<g>
		<path class="st0" d="M215.23,413.43c-109.28,0-198.19-88.91-198.19-198.19S105.95,17.04,215.23,17.04
			c109.28,0,198.19,88.91,198.19,198.19S324.52,413.43,215.23,413.43z M215.23,21.44c-106.86,0-193.8,86.94-193.8,193.8
			s86.94,193.8,193.8,193.8c106.86,0,193.8-86.94,193.8-193.8S322.09,21.44,215.23,21.44z"/>
	</g>
	<g>
		<path class="st0" d="M219.05,168.57l-1.27-0.84c-1.03-0.68-25.23-16.81-24.78-32c0.38-12.66,7.93-14.55,12.39-14.55
			c5.08,0,10.32,2.3,12.64,3.46c2.34-1.47,7.85-4.53,13.22-4.53c4.93,0,11.09,2.48,12.39,14.31c1.63,14.82-22.34,32.51-23.37,33.25
			L219.05,168.57z M205.4,125.57c-3.3,0-7.73,1.07-8,10.29c-0.3,9.94,14.4,22.34,21.53,27.34c7.02-5.42,21.42-18.69,20.36-28.3
			c-1.14-10.4-6.32-10.4-8.02-10.4c-4.58,0-10.08,3.23-11.82,4.48l-1.15,0.83l-1.23-0.7C217.01,129.06,210.86,125.57,205.4,125.57z"
			/>
	</g>
	<g>
		<g>
			<path class="st0" d="M105.37,255.57c-3.64,0-6.16-3.35-7.56-5.91c-1.42,2.3-3.85,5.16-7.1,5.16l0,0c-1.72,0-3.39-0.81-4.97-2.4
				c-1.98-2-2.86-4.19-2.61-6.54c0.29-2.73,2.1-5.02,3.64-6.51c-1.89-0.75-4.27-2.07-5.63-4.3c-1.17-1.92-1.38-4.14-0.63-6.58
				c0.94-3.09,3.07-4.79,5.98-4.79c2.15,0,4.39,0.94,6.01,1.81c0.15-2.47,0.75-6.01,2.77-8.17c1.29-1.38,2.99-2.02,5.03-1.84
				c1.88,0.17,3.42,1.02,4.48,2.47c1.81,2.47,1.87,6.19,1.64,8.72c1.3-0.46,2.94-0.89,4.57-0.89c3.67,0,6.07,2.12,6.78,5.98
				c0.48,2.64,0,4.85-1.43,6.56c-1.76,2.12-4.55,2.94-6.66,3.26c1.32,2.15,2.92,5.54,2.36,8.57c-0.35,1.86-1.47,3.39-3.25,4.41
				C107.66,255.24,106.51,255.57,105.37,255.57z M98.01,242.16l1.27,3.67c0.65,1.89,3.03,6.81,6.09,6.81c0.62,0,1.28-0.2,1.96-0.59
				c1.04-0.6,1.64-1.39,1.83-2.41c0.54-2.9-2.18-7.04-3.28-8.39l-2.01-2.47l3.18,0.08c0.01,0,0.01,0,0.01,0
				c0.66,0,5.09-0.08,7.02-2.4c0.86-1.03,1.12-2.39,0.8-4.16c-0.45-2.47-1.66-3.58-3.9-3.58c-2.69,0-5.67,1.63-5.69,1.65l-2.84,1.57
				l0.7-3.17c0.38-1.73,0.99-6.73-0.74-9.08c-0.57-0.78-1.32-1.18-2.38-1.28c-1.11-0.1-1.93,0.19-2.62,0.93
				c-1.96,2.09-2.11,6.98-2,8.69l0.2,3.15l-2.53-1.88c-1-0.74-4.14-2.67-6.58-2.67c-1.1,0-2.45,0.31-3.18,2.71
				c-0.5,1.63-0.39,3,0.33,4.2c1.74,2.87,6.39,3.78,6.44,3.79l3.56,0.67l-3.02,1.99c-0.04,0.03-4.22,2.82-4.57,6.2
				c-0.15,1.44,0.43,2.8,1.78,4.16c1.01,1.01,1.98,1.53,2.89,1.53l0,0c2.71,0,5.18-4.54,5.83-6.13L98.01,242.16z"/>
		</g>
		<g>
			<path class="st0" d="M98.59,241.12c-0.17,0-0.35-0.01-0.52-0.03c-2.35-0.31-4.04-2.57-3.76-5.04c0.28-2.48,2.42-4.29,4.82-3.98
				c2.34,0.3,4.03,2.56,3.76,5.04C102.63,239.39,100.78,241.12,98.59,241.12z M98.59,234.95c-0.69,0-1.28,0.61-1.37,1.41
				c-0.1,0.9,0.45,1.71,1.23,1.81c0.68,0.08,1.43-0.54,1.52-1.4c0.1-0.88-0.46-1.71-1.22-1.81
				C98.7,234.96,98.64,234.95,98.59,234.95z"/>
		</g>
	</g>
	<g>
		<g>
			<path class="st0" d="M159.5,296.12c-2.96,0-5.05-2.33-6.33-4.43c-1.29,1.84-3.27,3.8-5.86,3.8l0,0c-1.58,0-3.09-0.72-4.51-2.15
				c-2.19-2.21-2.47-4.41-2.32-5.86c0.22-2.11,1.42-3.89,2.61-5.17c-1.49-0.69-3.16-1.78-4.2-3.49c-1.04-1.71-1.24-3.75-0.58-5.91
				c0.86-2.81,2.81-4.35,5.48-4.35c1.6,0,3.24,0.57,4.54,1.2c0.21-2.05,0.81-4.64,2.38-6.32c1.19-1.27,2.74-1.87,4.61-1.7
				c1.72,0.16,3.14,0.94,4.11,2.27c1.42,1.94,1.62,4.69,1.52,6.82c0.98-0.29,2.1-0.52,3.22-0.52c3.29,0,5.53,1.97,6.16,5.4
				c0.54,2.94-0.41,4.83-1.3,5.9c-1.36,1.63-3.38,2.4-5.1,2.76c1.04,1.85,2.08,4.43,1.63,6.84c-0.32,1.71-1.34,3.1-2.96,4.03
				C161.59,295.82,160.54,296.12,159.5,296.12z M153.42,282.94l1.52,4.38c0.6,1.73,2.51,5.31,4.57,5.31c0.42,0,0.88-0.14,1.36-0.42
				c0.96-0.55,1.19-1.2,1.27-1.64c0.41-2.19-1.81-5.55-2.62-6.55l-2.39-2.96l3.8,0.11c0,0,0,0,0,0c1.5,0,4.23-0.38,5.42-1.81
				c0.61-0.73,0.79-1.72,0.55-3.03c-0.41-2.23-1.55-2.54-2.72-2.54c-2.09,0-4.45,1.29-4.48,1.3l-3.39,1.89l0.83-3.79
				c0.28-1.28,0.79-5.34-0.52-7.13c-0.38-0.52-0.88-0.78-1.6-0.85c-0.75-0.06-1.28,0.11-1.74,0.6c-1.48,1.58-1.6,5.56-1.52,6.84
				l0.23,3.74l-3.01-2.23c-0.8-0.59-3.28-2.12-5.16-2.12c-0.81,0-1.64,0.23-2.14,1.88c-0.37,1.21-0.29,2.21,0.22,3.06
				c1.09,1.81,3.98,2.71,5.01,2.9l4.26,0.81l-3.62,2.37c-0.92,0.61-3.35,2.65-3.56,4.78c-0.11,1.03,0.33,2.02,1.32,3.03
				c0.74,0.74,1.42,1.12,2.03,1.12c1.8,0,3.75-3.27,4.36-4.77L153.42,282.94z"/>
		</g>
		<g>
			<path class="st0" d="M153.87,284.1c-0.17,0-0.34-0.01-0.51-0.03c-2.24-0.3-3.85-2.44-3.59-4.78c0.27-2.35,2.32-4.07,4.6-3.78
				c2.24,0.3,3.84,2.44,3.59,4.78C157.72,282.46,155.96,284.1,153.87,284.1z M153.92,278.97c-0.35,0-0.62,0.31-0.67,0.7
				c-0.05,0.45,0.21,0.88,0.57,0.92l0.05,0c0.26,0,0.56-0.26,0.61-0.71C154.54,279.41,154.23,279.01,153.92,278.97
				C153.92,278.97,153.92,278.97,153.92,278.97z"/>
		</g>
	</g>
	<g>
		<g>
			<path class="st0" d="M337.81,249.92c-3.64,0-6.16-3.35-7.56-5.91c-1.42,2.3-3.84,5.16-7.1,5.16l0,0c-1.72,0-3.39-0.81-4.97-2.4
				c-1.98-2-2.86-4.19-2.61-6.54c0.29-2.73,2.1-5.02,3.64-6.51c-1.89-0.75-4.27-2.07-5.63-4.3c-1.17-1.92-1.38-4.14-0.63-6.58
				c0.94-3.09,3.07-4.79,5.98-4.79c2.15,0,4.39,0.94,6.01,1.8c0.15-2.47,0.75-6.01,2.77-8.17c1.3-1.38,2.99-2.02,5.02-1.84
				c1.88,0.17,3.43,1.03,4.48,2.47c1.81,2.47,1.87,6.19,1.64,8.72c1.3-0.46,2.94-0.89,4.57-0.89c3.66,0,6.07,2.12,6.78,5.98
				c0.48,2.64,0,4.84-1.43,6.56c-1.76,2.12-4.55,2.94-6.66,3.26c1.32,2.15,2.92,5.54,2.36,8.57c-0.35,1.86-1.47,3.39-3.25,4.41
				C340.1,249.59,338.95,249.92,337.81,249.92z M330.45,236.52l1.27,3.66c0.66,1.9,3.03,6.81,6.09,6.81c0.62,0,1.28-0.2,1.96-0.59
				c1.04-0.6,1.64-1.39,1.83-2.41c0.54-2.91-2.18-7.04-3.28-8.39l-2.01-2.47l3.19,0.08c0,0,0.01,0,0.01,0c0.67,0,5.09-0.08,7.02-2.4
				c0.86-1.03,1.12-2.39,0.8-4.16c-0.45-2.47-1.66-3.58-3.9-3.58c-2.69,0-5.67,1.63-5.69,1.64l-2.83,1.57l0.69-3.17
				c0.38-1.73,0.99-6.72-0.74-9.08c-0.57-0.78-1.32-1.18-2.38-1.28c-1.1-0.1-1.93,0.19-2.62,0.93c-1.96,2.09-2.11,6.98-2,8.69
				l0.2,3.14l-2.53-1.88c-1-0.74-4.14-2.67-6.58-2.67c-1.1,0-2.45,0.31-3.18,2.71c-0.5,1.63-0.39,3,0.33,4.2
				c1.74,2.87,6.39,3.78,6.44,3.78l3.56,0.67l-3.02,1.99c-0.04,0.03-4.22,2.82-4.57,6.2c-0.15,1.44,0.43,2.8,1.78,4.16
				c1.01,1.01,1.98,1.53,2.89,1.53c2.7,0,5.18-4.54,5.83-6.13L330.45,236.52z"/>
		</g>
		<g>
			<path class="st0" d="M331.03,235.47c-0.17,0-0.35-0.01-0.53-0.03c-2.35-0.31-4.03-2.57-3.76-5.04c0.28-2.48,2.39-4.29,4.82-3.98
				c2.34,0.3,4.03,2.56,3.76,5.04C335.06,233.74,333.22,235.47,331.03,235.47z M331.03,229.31c-0.69,0-1.28,0.61-1.37,1.41
				c-0.1,0.9,0.45,1.71,1.23,1.81c0.68,0.08,1.43-0.54,1.52-1.4c0.1-0.88-0.46-1.71-1.22-1.81
				C331.13,229.31,331.08,229.31,331.03,229.31z"/>
		</g>
	</g>
	<g>
		<g>
			<path class="st0" d="M331.6,295.57c-3.64,0-6.16-3.35-7.56-5.91c-1.42,2.3-3.84,5.15-7.1,5.15c-1.72,0-3.39-0.81-4.97-2.4
				c-1.98-2-2.86-4.19-2.61-6.54c0.29-2.73,2.1-5.02,3.64-6.51c-1.89-0.75-4.27-2.07-5.63-4.3c-1.17-1.92-1.38-4.14-0.63-6.58
				c0.94-3.09,3.07-4.79,5.98-4.79c2.15,0,4.4,0.94,6.01,1.81c0.15-2.47,0.75-6.01,2.78-8.17c1.29-1.38,2.98-2.01,5.02-1.84
				c1.88,0.17,3.43,1.03,4.48,2.47c1.81,2.47,1.87,6.19,1.64,8.72c1.3-0.46,2.94-0.89,4.57-0.89c3.67,0,6.07,2.12,6.78,5.98
				c0.48,2.64,0,4.84-1.43,6.56c-1.77,2.12-4.55,2.94-6.66,3.26c1.32,2.15,2.92,5.54,2.36,8.57c-0.35,1.86-1.47,3.39-3.25,4.41
				C333.89,295.24,332.74,295.57,331.6,295.57z M324.24,282.18l1.27,3.66c0.65,1.89,3.03,6.81,6.09,6.81c0.62,0,1.28-0.2,1.96-0.59
				c1.04-0.6,1.64-1.39,1.83-2.41c0.54-2.91-2.18-7.04-3.27-8.39l-2.01-2.47l3.18,0.08c0.01,0,0.01,0,0.01,0
				c0.67,0,5.09-0.08,7.02-2.4c0.86-1.03,1.12-2.39,0.8-4.16c-0.45-2.47-1.66-3.58-3.9-3.58c-2.25,0-4.87,1.19-5.69,1.64l-2.84,1.58
				l0.7-3.18c0.38-1.73,0.99-6.72-0.74-9.08c-0.57-0.78-1.32-1.18-2.38-1.28c-1.09-0.1-1.93,0.19-2.62,0.92
				c-1.95,2.08-2.11,6.98-2.01,8.7l0.19,3.14l-2.53-1.87c-1-0.74-4.14-2.67-6.58-2.67c-1.1,0-2.45,0.31-3.18,2.71
				c-0.5,1.63-0.39,3.01,0.33,4.2c1.45,2.39,5.14,3.54,6.44,3.78l3.58,0.66l-3.04,2.01c-0.04,0.03-4.22,2.82-4.57,6.2
				c-0.15,1.44,0.43,2.8,1.78,4.16c1.01,1.02,1.98,1.53,2.89,1.53c2.7,0,5.18-4.54,5.83-6.13L324.24,282.18z"/>
		</g>
		<g>
			<path class="st0" d="M324.83,281.13c-0.18,0-0.35-0.01-0.53-0.04c-2.35-0.31-4.03-2.57-3.76-5.04c0.27-2.47,2.41-4.3,4.81-3.98
				c2.35,0.3,4.03,2.57,3.76,5.04C328.86,279.4,327.02,281.13,324.83,281.13z M324.83,274.96c-0.7,0-1.29,0.61-1.38,1.41
				c-0.1,0.9,0.45,1.71,1.22,1.81c0.73,0.08,1.43-0.54,1.52-1.4c0.1-0.88-0.46-1.72-1.22-1.81
				C324.93,274.96,324.88,274.96,324.83,274.96z"/>
		</g>
	</g>
	<g>
		<path class="st0" d="M173.85,169.68c-5.11,0-9.27-4.2-9.27-9.37c0-5.17,4.16-9.37,9.27-9.37c5.11,0,9.27,4.2,9.27,9.37
			C183.12,165.48,178.97,169.68,173.85,169.68z M173.85,155.34c-2.69,0-4.88,2.23-4.88,4.97c0,2.74,2.19,4.97,4.88,4.97
			c2.69,0,4.88-2.23,4.88-4.97C178.73,157.57,176.54,155.34,173.85,155.34z"/>
	</g>
	<g>
		<path class="st0" d="M262.48,169.68c-5.11,0-9.27-4.2-9.27-9.37c0-5.17,4.16-9.37,9.27-9.37c5.11,0,9.27,4.2,9.27,9.37
			C271.75,165.48,267.59,169.68,262.48,169.68z M262.48,155.34c-2.69,0-4.88,2.23-4.88,4.97c0,2.74,2.19,4.97,4.88,4.97
			c2.69,0,4.88-2.23,4.88-4.97C267.36,157.57,265.17,155.34,262.48,155.34z"/>
	</g>
	<path class="st0" d="M331.45,303.42L331.45,303.42l-29.17-0.57l3.07-200.64c0-9.44-9.67-17.12-21.55-17.12H118.37
		c-12.5,0-21.55,13.25-21.55,22.18v2.14l28.7,0.79l1.04,204.83c0,9.44,9.67,17.12,21.55,17.12h159.95
		c12.03,0,25.58-17.31,25.58-26.53v-2.15L331.45,303.42z M118,89.51c1.53,0.68,7.9,4.25,7.61,16.3l-24.19-0.67
		C102.7,98.37,109.62,89.76,118,89.51z M133.82,322.06c-1.81-2.02-2.87-4.44-2.87-7.04l-1.06-206.89c0.77-9.57-1.96-15.3-4.87-18.64
		h158.76c9.46,0,17.16,5.71,17.16,12.69l-3.07,201.36l-142.24,0.5l0.37,4.39c-0.72,3.64-3.05,8.73-7.22,11.8
		C144.75,323.19,139.72,323.79,133.82,322.06z M308.07,327.76H148.11c-1.78,0-3.5-0.2-5.11-0.58c3.61-0.54,6.39-1.95,8.38-3.41
		c5.73-4.21,8.4-10.89,9.09-15.36l168.48-0.59C327.04,315.44,316.51,327.76,308.07,327.76z"/>
	<g>
		<rect x="165.22" y="184.65" class="st0" width="104.34" height="4.39"/>
	</g>
	<g>
		<rect x="164.93" y="210.94" class="st0" width="104.34" height="4.39"/>
	</g>
	<g>
		<rect x="164.93" y="197.8" class="st0" width="104.34" height="4.39"/>
	</g>
	<g>
		<rect x="164.93" y="225.64" class="st0" width="104.34" height="4.39"/>
	</g>
	<g>
		<rect x="164.93" y="242.01" class="st0" width="104.34" height="4.39"/>
	</g>
	<g>
		<rect x="164.93" y="257.31" class="st0" width="104.34" height="4.39"/>
	</g>
</g>
</svg>
