<?xml version="1.0" encoding="utf-8"?>
<!-- Generator: Adobe Illustrator 24.2.1, SVG Export Plug-In . SVG Version: 6.00 Build 0)  -->
<svg version="1.1" id="Layer_1" xmlns="http://www.w3.org/2000/svg" xmlns:xlink="http://www.w3.org/1999/xlink" x="0px" y="0px"
	 viewBox="0 0 430.47 430.47" style="enable-background:new 0 0 430.47 430.47;" xml:space="preserve">
<style type="text/css">
	.st0{fill:#343466;}
</style>
<g>
	<g>
		<path class="st0" d="M173.13,175.21c-1.31,0-2.65-0.49-3.98-1.46c-2.44-1.78-2.97-3.78-2.99-5.15c-0.03-2.11,1.07-4,2.18-5.37
			c-1.69-0.46-3.71-1.34-4.97-2.97c-1.12-1.44-1.5-3.27-1.09-5.28c0.61-3.01,2.67-4.67,5.79-4.67c1.46,0,2.96,0.37,4.15,0.78
			c-0.06-2.01,0.2-4.71,1.69-6.57c1.02-1.27,2.49-1.98,4.25-2.05l0.25,0c1.69,0,3.14,0.63,4.2,1.82c1.54,1.73,1.99,4.31,2.08,6.28
			c1.28-0.57,2.92-1.11,4.53-1.11c2.74,0,4.74,1.53,5.65,4.31c0.85,2.6,0.18,4.44-0.54,5.52c-1.23,1.86-3.38,2.86-5.15,3.38
			c1.28,1.6,2.7,3.93,2.55,6.3c-0.1,1.66-0.96,3.1-2.49,4.16c-1.14,0.79-2.34,1.19-3.56,1.19c-2.79,0-4.99-2.03-6.37-3.78
			C178.17,172.64,176.16,175.21,173.13,175.21L173.13,175.21z M168.07,153.3c-1.68,0-2.54,0.68-2.86,2.28
			c-0.23,1.16-0.07,2.09,0.52,2.85c1.34,1.74,4.63,2.28,5.78,2.34l3.99,0.21l-3.15,2.46c-0.9,0.71-3.24,3.02-3.2,5.12
			c0.02,1.01,0.6,1.92,1.77,2.77c0.8,0.59,1.55,0.89,2.21,0.89c2.33,0,4.06-3.9,4.48-5.27l1.08-3.49l1.68,3.24
			c0.66,1.28,2.91,4.62,5.31,4.62c0.61,0,1.22-0.22,1.85-0.66c1.03-0.71,1.19-1.42,1.21-1.89c0.14-2.16-2.53-5.08-3.48-5.94
			l-2.53-2.28l3.39-0.32c1.18-0.11,4.51-0.8,5.7-2.61c0.52-0.78,0.58-1.75,0.19-2.94c-0.51-1.55-1.37-2.25-2.8-2.25
			c-2,0-4.47,1.37-5.25,1.89l-2.69,1.81l0.37-3.22c0.15-1.29,0.21-5.01-1.27-6.66c-0.49-0.56-1.12-0.82-1.96-0.82
			c-1.05,0.03-1.69,0.33-2.17,0.93c-1.39,1.74-1.05,5.56-0.82,6.77l0.58,3.04l-2.74-1.43C173.23,154.74,170.46,153.3,168.07,153.3z"
			/>
	</g>
	<g>
		<path class="st0" d="M178.72,162.83c-1.77,0-3.2-1.44-3.2-3.2c0-1.77,1.44-3.2,3.2-3.2c1.76,0,3.2,1.44,3.2,3.2
			C181.92,161.39,180.48,162.83,178.72,162.83z M178.72,157.92c-0.94,0-1.7,0.76-1.7,1.71c0,0.94,0.76,1.7,1.7,1.7
			c0.94,0,1.7-0.76,1.7-1.7C180.42,158.68,179.66,157.92,178.72,157.92z"/>
	</g>
	<g>
		<path class="st0" d="M204.72,335.63c-1.31,0-2.65-0.49-3.98-1.46c-2.44-1.78-2.97-3.78-2.99-5.15c-0.03-2.11,1.07-4,2.18-5.37
			c-1.69-0.46-3.7-1.34-4.97-2.97c-1.12-1.44-1.5-3.27-1.09-5.28c0.61-3.02,2.67-4.68,5.79-4.68c1.46,0,2.96,0.37,4.15,0.78
			c-0.06-2.01,0.2-4.71,1.69-6.57c1.02-1.28,2.49-1.98,4.25-2.04l0.25,0c1.69,0,3.14,0.63,4.2,1.82c1.54,1.73,1.99,4.31,2.08,6.28
			c1.28-0.57,2.92-1.11,4.53-1.11c2.74,0,4.75,1.53,5.65,4.31c0.85,2.6,0.18,4.44-0.54,5.52c-1.23,1.86-3.39,2.86-5.15,3.38
			c1.28,1.6,2.7,3.93,2.55,6.29c-0.1,1.66-0.96,3.1-2.49,4.16c-1.14,0.79-2.34,1.19-3.57,1.19c-2.79,0-4.99-2.03-6.37-3.79
			C209.77,333.06,207.75,335.63,204.72,335.63z M199.66,313.72c-1.68,0-2.54,0.68-2.86,2.28c-0.24,1.16-0.07,2.1,0.52,2.85
			c1.36,1.75,4.63,2.28,5.77,2.33l4.01,0.2l-3.17,2.47c-0.9,0.71-3.24,3.02-3.2,5.12c0.02,1.01,0.6,1.92,1.77,2.77
			c0.81,0.59,1.55,0.89,2.21,0.89c2.35,0,4.06-3.9,4.48-5.27l1.07-3.51l1.69,3.26c0.67,1.28,2.92,4.62,5.31,4.62
			c0.61,0,1.22-0.22,1.85-0.66c1.03-0.71,1.18-1.42,1.21-1.89c0.14-2.16-2.53-5.08-3.47-5.93l-2.53-2.28l3.39-0.32
			c1.18-0.11,4.51-0.8,5.7-2.61c0.51-0.79,0.58-1.75,0.19-2.94c-0.5-1.55-1.37-2.25-2.8-2.25c-2.01,0-4.47,1.37-5.25,1.89l-2.7,1.82
			l0.37-3.24c0.15-1.29,0.21-5-1.27-6.66c-0.5-0.56-1.12-0.81-1.96-0.81c-1.05,0.03-1.69,0.33-2.16,0.92
			c-1.39,1.73-1.07,5.48-0.82,6.77l0.57,3.03l-2.73-1.43C204.83,315.16,202.05,313.72,199.66,313.72z"/>
	</g>
	<g>
		<path class="st0" d="M210.31,323.25c-1.77,0-3.2-1.44-3.2-3.2s1.44-3.2,3.2-3.2c1.77,0,3.2,1.44,3.2,3.2
			S212.08,323.25,210.31,323.25z M210.31,318.34c-0.94,0-1.7,0.76-1.7,1.7c0,0.94,0.76,1.7,1.7,1.7c0.94,0,1.7-0.76,1.7-1.7
			C212.02,319.11,211.25,318.34,210.31,318.34z"/>
	</g>
	<g>
		<path class="st0" d="M193.53,291.17c-1.31,0-2.65-0.49-3.98-1.46c-2.44-1.78-2.97-3.78-2.99-5.15c-0.03-2.11,1.07-4,2.18-5.37
			c-1.69-0.46-3.71-1.34-4.98-2.97c-1.12-1.44-1.5-3.27-1.09-5.28c0.61-3.02,2.67-4.68,5.79-4.68c1.46,0,2.95,0.37,4.15,0.78
			c-0.06-2.01,0.2-4.71,1.69-6.57c1.02-1.27,2.49-1.98,4.25-2.04l0.25-0.01c1.69,0,3.14,0.63,4.2,1.82
			c1.54,1.73,1.99,4.31,2.08,6.28c1.28-0.57,2.92-1.11,4.53-1.11c2.74,0,4.74,1.53,5.65,4.31c0.85,2.6,0.17,4.44-0.54,5.52
			c-1.23,1.86-3.39,2.86-5.15,3.38c1.28,1.6,2.7,3.93,2.55,6.29c-0.1,1.66-0.96,3.1-2.49,4.16c-1.14,0.79-2.34,1.2-3.57,1.2
			c-2.79,0-4.99-2.03-6.37-3.79C198.57,288.59,196.56,291.17,193.53,291.17L193.53,291.17z M188.47,269.25
			c-1.68,0-2.54,0.68-2.86,2.28c-0.24,1.17-0.07,2.1,0.52,2.85c1.36,1.75,4.63,2.28,5.77,2.34l4.01,0.2l-3.17,2.47
			c-0.9,0.71-3.24,3.02-3.2,5.12c0.02,1.01,0.6,1.92,1.77,2.77c0.81,0.59,1.55,0.89,2.21,0.89c2.35,0,4.07-3.9,4.48-5.27l1.07-3.51
			l1.69,3.26c0.67,1.28,2.92,4.62,5.31,4.62c0.61,0,1.22-0.22,1.86-0.66c1.03-0.72,1.18-1.42,1.21-1.89
			c0.14-2.16-2.53-5.08-3.48-5.93l-2.53-2.28l3.39-0.32c1.18-0.11,4.51-0.8,5.7-2.61c0.52-0.79,0.58-1.75,0.19-2.94
			c-0.51-1.55-1.37-2.25-2.8-2.25c-2.01,0-4.47,1.37-5.25,1.89l-2.7,1.82l0.37-3.24c0.15-1.29,0.21-5.01-1.27-6.66
			c-0.49-0.56-1.12-0.82-1.96-0.82c-1.05,0.03-1.69,0.33-2.17,0.92c-1.39,1.74-1.05,5.56-0.82,6.77l0.58,3.04l-2.74-1.43
			C193.63,270.69,190.86,269.25,188.47,269.25z"/>
	</g>
	<g>
		<path class="st0" d="M199.12,278.78c-1.77,0-3.2-1.44-3.2-3.2s1.44-3.2,3.2-3.2c1.76,0,3.2,1.44,3.2,3.2
			S200.89,278.78,199.12,278.78z M199.12,273.87c-0.94,0-1.7,0.76-1.7,1.71c0,0.94,0.76,1.7,1.7,1.7c0.94,0,1.7-0.76,1.7-1.7
			C200.83,274.64,200.06,273.87,199.12,273.87z"/>
	</g>
	<g>
		<path class="st0" d="M127.88,256.83c-1.31,0-2.65-0.49-3.98-1.46c-2.44-1.78-2.97-3.78-2.99-5.15c-0.03-2.11,1.07-4,2.18-5.37
			c-1.69-0.46-3.7-1.34-4.97-2.97c-1.12-1.44-1.5-3.27-1.09-5.28c0.61-3.02,2.67-4.68,5.79-4.68c1.46,0,2.96,0.37,4.15,0.78
			c-0.06-2,0.2-4.71,1.69-6.57c1.02-1.28,2.49-1.98,4.25-2.04l0.25,0c1.69,0,3.14,0.63,4.2,1.82c1.54,1.73,1.98,4.31,2.08,6.28
			c1.28-0.57,2.92-1.11,4.53-1.11c2.74,0,4.75,1.53,5.65,4.31c0.85,2.6,0.18,4.44-0.54,5.52c-1.22,1.86-3.38,2.86-5.14,3.38
			c1.28,1.6,2.7,3.93,2.55,6.29c-0.1,1.66-0.96,3.1-2.49,4.16c-1.14,0.79-2.34,1.19-3.57,1.19c-2.79,0-4.99-2.03-6.37-3.78
			C132.92,254.26,130.91,256.83,127.88,256.83L127.88,256.83z M122.81,234.92c-1.68,0-2.54,0.68-2.86,2.28
			c-0.24,1.16-0.07,2.09,0.51,2.85c1.34,1.74,4.63,2.28,5.78,2.34l3.99,0.21l-3.14,2.46c-0.9,0.71-3.24,3.02-3.2,5.13
			c0.02,1.01,0.6,1.91,1.77,2.77c0.8,0.59,1.55,0.89,2.21,0.89c2.34,0,4.06-3.9,4.48-5.27l1.07-3.51l1.69,3.26
			c0.67,1.28,2.91,4.62,5.31,4.62c0.61,0,1.22-0.22,1.85-0.66c1.03-0.72,1.19-1.42,1.21-1.89c0.13-2.18-2.53-5.08-3.47-5.93
			l-2.54-2.28l3.4-0.32c1.18-0.11,4.51-0.8,5.7-2.61c0.52-0.79,0.58-1.75,0.19-2.94c-0.5-1.55-1.37-2.24-2.8-2.24
			c-2.01,0-4.47,1.37-5.25,1.89l-2.7,1.82l0.37-3.24c0.15-1.29,0.21-5-1.27-6.66c-0.5-0.56-1.12-0.81-1.96-0.81
			c-1.05,0.03-1.69,0.33-2.17,0.92c-1.39,1.73-1.06,5.48-0.82,6.77l0.57,3.03l-2.73-1.43C127.98,236.36,125.2,234.92,122.81,234.92z
			"/>
	</g>
	<g>
		<path class="st0" d="M133.47,244.45c-1.76,0-3.2-1.44-3.2-3.2c0-1.77,1.44-3.2,3.2-3.2c1.77,0,3.2,1.44,3.2,3.2
			C136.67,243.01,135.23,244.45,133.47,244.45z M133.47,239.54c-0.94,0-1.7,0.76-1.7,1.7c0,0.94,0.76,1.71,1.7,1.71
			c0.94,0,1.7-0.76,1.7-1.71C135.17,240.31,134.41,239.54,133.47,239.54z"/>
	</g>
	<g>
		<path class="st0" d="M238.98,136.27c-1.31,0-2.65-0.49-3.98-1.46c-2.44-1.78-2.97-3.78-2.99-5.15c-0.04-2.11,1.07-4,2.18-5.37
			c-1.69-0.46-3.7-1.34-4.97-2.97c-1.12-1.44-1.5-3.27-1.09-5.28c0.61-3.02,2.67-4.68,5.79-4.68c1.46,0,2.95,0.37,4.15,0.78
			c-0.06-2,0.2-4.71,1.69-6.57c1.02-1.28,2.49-1.98,4.25-2.04l0.25,0c1.69,0,3.14,0.63,4.21,1.82c1.54,1.73,1.98,4.31,2.08,6.28
			c1.28-0.57,2.92-1.11,4.53-1.11c2.74,0,4.75,1.53,5.65,4.31c0.85,2.6,0.18,4.44-0.54,5.52c-1.22,1.86-3.38,2.86-5.14,3.38
			c1.28,1.6,2.7,3.93,2.55,6.29c-0.1,1.66-0.96,3.1-2.49,4.16c-1.14,0.79-2.34,1.19-3.56,1.19c-2.79,0-4.99-2.03-6.37-3.78
			C244.02,133.69,242.01,136.27,238.98,136.27z M233.92,114.35c-1.68,0-2.54,0.68-2.86,2.28c-0.24,1.17-0.07,2.1,0.52,2.85
			c1.36,1.75,4.63,2.28,5.77,2.33l4.01,0.2l-3.17,2.48c-0.9,0.71-3.24,3.02-3.2,5.12c0.02,1.01,0.6,1.91,1.77,2.77
			c0.81,0.59,1.55,0.89,2.21,0.89c2.33,0,4.06-3.9,4.48-5.27l1.08-3.49l1.68,3.24c0.66,1.28,2.91,4.62,5.31,4.62
			c0.61,0,1.22-0.21,1.85-0.66c1.03-0.71,1.19-1.42,1.21-1.89c0.13-2.17-2.53-5.08-3.47-5.93l-2.54-2.28l3.4-0.32
			c1.18-0.11,4.52-0.8,5.7-2.61c0.51-0.79,0.58-1.75,0.19-2.94c-0.51-1.55-1.37-2.25-2.8-2.25c-2,0-4.47,1.37-5.25,1.89l-2.69,1.81
			l0.37-3.22c0.15-1.29,0.21-5-1.27-6.66c-0.5-0.56-1.12-0.81-1.97-0.81c-1.05,0.03-1.69,0.32-2.16,0.92
			c-1.39,1.73-1.07,5.48-0.82,6.77l0.56,3.03l-2.73-1.43C239.08,115.79,236.3,114.35,233.92,114.35z"/>
	</g>
	<g>
		<path class="st0" d="M244.57,123.88c-1.76,0-3.2-1.44-3.2-3.2c0-1.77,1.44-3.2,3.2-3.2c1.77,0,3.2,1.44,3.2,3.2
			C247.77,122.44,246.33,123.88,244.57,123.88z M244.57,118.97c-0.94,0-1.7,0.77-1.7,1.71c0,0.94,0.77,1.71,1.7,1.71
			c0.94,0,1.7-0.77,1.7-1.71C246.27,119.74,245.51,118.97,244.57,118.97z"/>
	</g>
	<g>
		<path class="st0" d="M175.61,106.51c-1.31,0-2.65-0.49-3.98-1.46c-2.44-1.78-2.97-3.78-2.99-5.15c-0.03-2.11,1.07-4,2.18-5.37
			c-1.69-0.46-3.71-1.34-4.97-2.97c-1.12-1.44-1.5-3.27-1.09-5.28c0.61-3.02,2.67-4.68,5.79-4.68c1.46,0,2.96,0.37,4.15,0.78
			c-0.06-2,0.2-4.71,1.69-6.57c1.02-1.28,2.49-1.98,4.25-2.05l0.25,0c1.69,0,3.14,0.63,4.2,1.82c1.54,1.73,1.98,4.31,2.08,6.28
			c1.28-0.57,2.92-1.11,4.53-1.11c2.74,0,4.74,1.53,5.65,4.31c0.85,2.6,0.17,4.44-0.54,5.52c-1.23,1.86-3.38,2.86-5.15,3.38
			c1.28,1.6,2.7,3.93,2.55,6.29c-0.1,1.66-0.96,3.1-2.49,4.16c-1.14,0.79-2.34,1.19-3.56,1.19c-2.79,0-4.99-2.03-6.37-3.78
			C180.65,103.94,178.64,106.51,175.61,106.51z M170.55,84.59c-1.68,0-2.53,0.68-2.86,2.28c-0.24,1.16-0.07,2.09,0.51,2.85
			c1.34,1.74,4.63,2.28,5.78,2.34l3.99,0.21l-3.15,2.46c-0.9,0.71-3.24,3.02-3.2,5.12c0.02,1.01,0.6,1.91,1.77,2.77
			c0.8,0.59,1.55,0.89,2.21,0.89c2.34,0,4.06-3.9,4.48-5.27l1.07-3.51l1.69,3.26c0.67,1.28,2.92,4.62,5.31,4.62
			c0.61,0,1.22-0.21,1.85-0.66c1.03-0.71,1.19-1.42,1.22-1.89c0.13-2.16-2.53-5.08-3.48-5.93l-2.53-2.28l3.39-0.32
			c1.18-0.11,4.51-0.8,5.7-2.61c0.52-0.79,0.58-1.75,0.19-2.94c-0.51-1.55-1.37-2.24-2.8-2.24c-2.01,0-4.48,1.37-5.25,1.89
			l-2.7,1.82l0.37-3.23c0.15-1.29,0.21-5.01-1.27-6.66c-0.5-0.56-1.12-0.81-1.96-0.81c-1.05,0.03-1.69,0.33-2.17,0.92
			c-1.39,1.74-1.05,5.56-0.82,6.77l0.58,3.04l-2.74-1.43C175.71,86.03,172.94,84.59,170.55,84.59z"/>
	</g>
	<g>
		<path class="st0" d="M181.2,94.12c-1.76,0-3.2-1.44-3.2-3.2c0-1.77,1.44-3.2,3.2-3.2c1.77,0,3.2,1.44,3.2,3.2
			C184.4,92.69,182.97,94.12,181.2,94.12z M181.2,89.21c-0.94,0-1.7,0.77-1.7,1.71s0.77,1.71,1.7,1.71c0.94,0,1.71-0.77,1.71-1.71
			S182.14,89.21,181.2,89.21z"/>
	</g>
	<g>
		<path class="st0" d="M230.63,122.17c-25.35,0-50.93-6.8-50.93-21.99h2.99c0,13.05,24.85,19,47.94,19V122.17z"/>
	</g>
	<g>
		<path class="st0" d="M229.92,220.4c-10.47,0-23.12-2.65-33.63-9.6c-9.35-6.19-20.27-18.14-19.15-39.98l2.99,0.15
			c-1.04,20.42,9.11,31.57,17.82,37.33c15.88,10.5,38.22,10.82,47.24,6.43l1.31,2.69C242.75,219.25,236.81,220.4,229.92,220.4z"/>
	</g>
	<g>
		<path class="st0" d="M203.64,302.02c-12,0-25.18-1.99-36.87-7.58c-17.93-8.57-29.52-23.74-34.44-45.09l2.92-0.67
			c4.7,20.42,15.74,34.91,32.81,43.06c25.13,12.01,57.3,6.84,68.17,1.56l1.31,2.69C231.31,299.02,218.36,302.02,203.64,302.02z"/>
	</g>
	<g>
		<path class="st0" d="M201.45,166.41c-4.72,0-9.24-0.88-13.3-2.39l1.05-2.8c16.04,5.98,39.79,1.08,53.96-32.4l2.76,1.17
			C234.45,157.08,216.83,166.41,201.45,166.41z"/>
	</g>
	<g>
		<path class="st0" d="M193.65,255.75c-22.89,0-44.39-7.26-51.25-9.82l1.05-2.8c12.77,4.76,77.77,26.33,103.91-16.51l2.55,1.56
			C236.82,249.64,214.65,255.75,193.65,255.75z"/>
	</g>
	<g>
		<path class="st0" d="M249.35,228.27c-1.31,0-2.65-0.49-3.98-1.46c-2.44-1.78-2.97-3.78-2.99-5.15c-0.03-2.11,1.07-4,2.18-5.37
			c-1.69-0.46-3.71-1.34-4.97-2.97c-1.12-1.44-1.5-3.27-1.09-5.28c0.61-3.01,2.67-4.68,5.79-4.68c1.46,0,2.95,0.37,4.15,0.78
			c-0.06-2,0.2-4.71,1.69-6.58c1.02-1.27,2.49-1.98,4.25-2.04l0.25,0c1.69,0,3.15,0.63,4.21,1.82c1.54,1.73,1.98,4.31,2.08,6.28
			c1.28-0.57,2.92-1.11,4.53-1.11c2.74,0,4.74,1.53,5.65,4.31c0.84,2.6,0.17,4.44-0.54,5.52c-1.23,1.86-3.39,2.86-5.15,3.38
			c1.28,1.6,2.7,3.93,2.55,6.29c-0.1,1.66-0.96,3.1-2.49,4.16c-1.14,0.79-2.34,1.19-3.57,1.19c-2.79,0-4.99-2.03-6.37-3.78
			C254.4,225.7,252.38,228.27,249.35,228.27z M244.29,206.36c-1.68,0-2.54,0.68-2.86,2.28c-0.24,1.16-0.07,2.1,0.52,2.85
			c1.36,1.75,4.63,2.28,5.77,2.33l4.01,0.2l-3.17,2.48c-0.9,0.71-3.24,3.02-3.2,5.12c0.02,1.01,0.6,1.91,1.77,2.77
			c0.81,0.59,1.55,0.89,2.21,0.89c2.33,0,4.06-3.9,4.48-5.27l1.08-3.49l1.68,3.24c0.67,1.28,2.92,4.62,5.31,4.62
			c0.61,0,1.22-0.21,1.86-0.66c1.03-0.72,1.18-1.42,1.21-1.89c0.14-2.16-2.53-5.08-3.48-5.93l-2.53-2.28l3.39-0.32
			c1.18-0.11,4.52-0.8,5.7-2.61c0.52-0.78,0.58-1.75,0.19-2.94c-0.51-1.55-1.37-2.25-2.8-2.25c-2.01,0-4.47,1.37-5.25,1.89
			l-2.7,1.82l0.37-3.24c0.15-1.29,0.21-5-1.27-6.66c-0.5-0.56-1.12-0.82-1.97-0.82c-1.05,0.03-1.69,0.33-2.17,0.93
			c-1.39,1.74-1.05,5.56-0.82,6.77l0.57,3.04l-2.74-1.43C249.45,207.8,246.68,206.36,244.29,206.36z"/>
	</g>
	<g>
		<path class="st0" d="M254.94,215.89c-1.77,0-3.2-1.44-3.2-3.2c0-1.77,1.44-3.2,3.2-3.2c1.77,0,3.2,1.44,3.2,3.2
			C258.14,214.45,256.71,215.89,254.94,215.89z M254.94,210.98c-0.94,0-1.7,0.77-1.7,1.71c0,0.94,0.76,1.7,1.7,1.7
			c0.94,0,1.7-0.76,1.7-1.7C256.65,211.75,255.88,210.98,254.94,210.98z"/>
	</g>
	<g>
		<path class="st0" d="M240.54,321.5c-2.61,0-5.29-0.99-7.98-2.96c-3.94-2.89-5.97-6.35-6.04-10.29c-0.08-4.83,2.94-9.22,5.49-12.07
			c-3.72-0.82-8.73-2.6-11.69-6.42c-2.26-2.91-2.99-6.46-2.15-10.56c1.21-5.98,5.29-9.27,11.49-9.27c3.6,0,7.32,1.1,9.97,2.11
			c-0.26-4.2-0.02-10.73,3.34-14.92c2.04-2.55,4.87-3.9,8.41-4.03c3.63-0.12,6.59,1.08,8.82,3.58c3.48,3.91,4.19,10.19,4.24,14.35
			c2.78-1.37,6.77-2.92,10.67-2.92c3.84,0,8.9,1.49,11.21,8.59c1.37,4.19,1.01,7.9-1.04,11.02c-2.8,4.25-8.17,6.29-11.99,7.25
			c2.83,3.29,6.58,8.7,6.25,14.01c-0.2,3.3-1.87,6.06-4.94,8.2c-2.28,1.59-4.67,2.39-7.1,2.39c-6.19,0-11.08-5.2-13.82-9
			C251.52,315.07,247.25,321.5,240.54,321.5z M229.67,274.43c-4.05,0-6.31,1.8-7.09,5.67c-0.57,2.79-0.14,5.05,1.29,6.9
			c3.76,4.85,13.03,5.39,13.13,5.39l6,0.31l-4.73,3.7c-0.07,0.06-7.35,5.85-7.25,11.79c0.04,2.49,1.41,4.69,4.19,6.73
			c1.9,1.39,3.69,2.09,5.33,2.09c6.7,0,10.52-11.88,10.55-12l1.61-5.27l2.53,4.9c1.5,2.9,6.63,10.44,12.27,10.44
			c1.52,0,3-0.52,4.54-1.58c1.92-1.34,2.91-2.9,3.02-4.79c0.31-5.08-5.51-11.48-7.78-13.52l-3.82-3.42l5.11-0.48
			c2.67-0.25,10.2-1.82,12.96-6.03c1.28-1.95,1.45-4.29,0.52-7.15c-1.22-3.75-3.43-5.49-6.94-5.49c-5.48,0-11.76,4.19-11.82,4.23
			l-4.04,2.72l0.56-4.84c0.33-2.89,0.45-11.23-2.96-15.05c-1.25-1.4-2.86-2.08-4.94-2.08l-0.35,0.01c-2.21,0.08-3.86,0.84-5.06,2.34
			c-3.23,4.03-2.51,12.43-1.96,15.32l0.86,4.56l-4.11-2.15C241.21,277.63,235.05,274.43,229.67,274.43z"/>
	</g>
	<g>
		<path class="st0" d="M252.55,295.75c-3.73,0-6.77-3.03-6.77-6.76c0-3.73,3.03-6.77,6.77-6.77c3.73,0,6.76,3.04,6.76,6.77
			C259.31,292.72,256.28,295.75,252.55,295.75z M252.55,285.21c-2.08,0-3.77,1.7-3.77,3.78c0,2.08,1.69,3.77,3.77,3.77
			c2.08,0,3.77-1.69,3.77-3.77C256.32,286.91,254.63,285.21,252.55,285.21z"/>
	</g>
	<g>
		
			<rect x="182.7" y="158.09" transform="matrix(2.531826e-03 -1 1 2.531826e-03 -33.6411 402.5182)" class="st0" width="4.49" height="120.07"/>
	</g>
	<path class="st0" d="M299.28,215.85v-67.74c0-11.29-11.62-20.47-25.89-20.47h-0.43V74.57c0-9.26-8.49-16.79-18.94-16.79h-88.11
		c-10.44,0-18.94,7.53-18.94,16.79v53.11c-13.54,0.65-24.3,9.57-24.3,20.43v67.74c-10.24,1.12-18.23,9.82-18.23,20.35v98.21
		c0,11.29,9.18,20.47,20.47,20.47h172.12c11.29,0,20.47-9.18,20.47-20.47v-98.21C317.5,225.68,309.54,217,299.28,215.85z
		 M313.01,334.4c0,8.81-7.17,15.98-15.98,15.98H124.91c-8.81,0-15.98-7.17-15.98-15.98v-98.21c0-8.81,7.17-15.98,16.05-15.98h2.42
		l-0.21-2.74c-0.01-0.17-0.03-0.34-0.03-0.52v-68.85c0-8.81,9.6-15.98,21.4-15.98h3l0-0.02l81.05-0.35l-0.02-4.49l-81.11,0.35
		l-0.02-53.05c0-6.78,6.48-12.3,14.45-12.3h88.11c7.97,0,14.45,5.52,14.45,12.3l0,53.1l-11.24-0.1l-0.04,4.49l13.57,0.12l0-0.06
		h2.63c11.8,0,21.4,7.17,21.4,15.98v67.64l-29.45,0.28l0.04,4.49l31.65-0.3c8.81,0,15.98,7.17,15.98,15.98V334.4z"/>
	<g>
		<path class="st0" d="M215.23,417.79c-111.69,0-202.55-90.86-202.55-202.55c0-111.69,90.87-202.55,202.55-202.55
			c111.69,0,202.55,90.87,202.55,202.55C417.79,326.92,326.92,417.79,215.23,417.79z M215.23,17.17
			c-109.21,0-198.06,88.85-198.06,198.06c0,109.21,88.85,198.06,198.06,198.06c109.21,0,198.06-88.85,198.06-198.06
			C413.3,106.02,324.45,17.17,215.23,17.17z"/>
	</g>
</g>
</svg>
