<?xml version="1.0" encoding="utf-8"?>
<!-- Generator: Adobe Illustrator 24.2.1, SVG Export Plug-In . SVG Version: 6.00 Build 0)  -->
<svg version="1.1" id="Layer_1" xmlns="http://www.w3.org/2000/svg" xmlns:xlink="http://www.w3.org/1999/xlink" x="0px" y="0px"
	 viewBox="0 0 430.47 430.47" style="enable-background:new 0 0 430.47 430.47;" xml:space="preserve">
<style type="text/css">
	.st0{fill:#343466;}
</style>
<g>
	<g>
		<g>
			<path class="st0" d="M215.23,420.51c-113.19,0-205.28-92.09-205.28-205.28S102.04,9.96,215.23,9.96
				c113.19,0,205.28,92.09,205.28,205.28S328.42,420.51,215.23,420.51z M215.23,14.51c-110.68,0-200.73,90.05-200.73,200.73
				s90.05,200.73,200.73,200.73c110.68,0,200.73-90.05,200.73-200.73S325.91,14.51,215.23,14.51z"/>
		</g>
	</g>
	<g>
		<path class="st0" d="M115.86,179.47l-0.2-0.25c-0.25-0.32-2.45-3.17-1.73-4.97c0.46-1.12,1.17-1.36,1.69-1.36
			c0.89,0,1.73,0.7,2.11,1.07c0.19-0.03,0.46-0.06,0.75-0.06c0.83,0,1.47,0.25,1.83,0.71c0.36,0.46,0.45,1.1,0.26,1.89
			c-0.44,1.86-4.01,2.79-4.41,2.89L115.86,179.47z M115.62,173.89c-0.11,0-0.47,0-0.77,0.74c-0.39,0.96,0.76,2.85,1.39,3.72
			c1.31-0.37,3.16-1.18,3.37-2.07c0.08-0.33,0.13-0.78-0.08-1.05c-0.23-0.29-0.76-0.34-1.05-0.34c-0.43,0-0.8,0.09-0.81,0.09
			l-0.29,0.07l-0.2-0.22C116.97,174.59,116.21,173.89,115.62,173.89z"/>
	</g>
	<g>
		<path class="st0" d="M72.76,179l-0.2-0.25c-0.25-0.32-2.45-3.17-1.73-4.97c0.46-1.12,1.17-1.36,1.69-1.36
			c0.89,0,1.73,0.7,2.11,1.07c0.19-0.03,0.46-0.06,0.75-0.06c0.83,0,1.47,0.25,1.83,0.71c0.36,0.46,0.45,1.1,0.26,1.89
			c-0.44,1.86-4.01,2.79-4.41,2.89L72.76,179z M72.52,173.42c-0.11,0-0.47,0-0.77,0.74c-0.39,0.96,0.76,2.85,1.39,3.72
			c1.31-0.37,3.16-1.18,3.37-2.07c0.08-0.33,0.13-0.79-0.08-1.05c-0.23-0.29-0.76-0.34-1.05-0.34c-0.43,0-0.8,0.09-0.81,0.09
			l-0.29,0.07l-0.2-0.22C73.87,174.12,73.1,173.42,72.52,173.42z"/>
	</g>
	<g>
		<path class="st0" d="M96.16,250.8c-1.84,0-3.35-1.39-3.51-3.22c-0.17-1.94,1.27-3.65,3.21-3.82c2.04-0.19,3.65,1.27,3.82,3.21
			c0.16,1.94-1.28,3.65-3.21,3.82C96.36,250.79,96.26,250.8,96.16,250.8z M96.16,245.73c-0.98,0.08-1.61,0.83-1.54,1.67
			c0.07,0.81,0.73,1.41,1.53,1.41l0.14-0.01c0.85-0.07,1.48-0.82,1.4-1.67C97.63,246.35,96.96,245.73,96.16,245.73z"/>
	</g>
	<path class="st0" d="M259.86,255.2c3.6-1.5,6.02-5.17,5.66-9.26c-0.25-2.88-1.87-5.34-4.16-6.85l71.87-0.35l0-0.99l-73.78,0.36
		c-1.22-0.45-2.54-0.67-3.91-0.55c-0.17,0.02-0.33,0.07-0.51,0.09l-0.74-4.62l1.82-0.16c1.82-0.16,3.18-1.77,3.02-3.6
		c-0.16-1.8-1.77-3.18-3.6-3.02l-4.4,0.38c-1.83,0.16-3.18,1.77-3.02,3.6c0.15,1.7,1.6,3.04,3.31,3.04c0.1,0,0.19-0.01,0.29-0.01
		l0.58-0.05l0.79,4.95c-3.76,1.42-6.3,5.17-5.94,9.37c0.41,4.72,4.43,8.42,9.17,8.42c0.27,0,0.54-0.01,0.81-0.03
		c0.28-0.02,0.53-0.11,0.81-0.15l1.58,4.37l-0.63,0.05c-1.82,0.16-3.18,1.77-3.03,3.6c0.15,1.7,1.6,3.04,3.31,3.04
		c0.09,0,0.19-0.01,0.29-0.01l4.48-0.39c1.83-0.16,3.18-1.77,3.02-3.6c-0.16-1.8-1.79-3.16-3.6-3.02l-1.81,0.15l-1.27-3.49
		l71.94-0.02v-0.99l-72.3,0.02L259.86,255.2z M251.57,231.28l-0.12,0.01c-0.68,0-1.27-0.54-1.33-1.22
		c-0.07-0.74,0.48-1.39,1.22-1.45l4.52-0.39c0.68,0,1.27,0.54,1.33,1.22c0.06,0.74-0.48,1.39-1.22,1.45L251.57,231.28z
		 M256.97,253.93c-4.03,0.33-7.49-2.66-7.82-6.57c-0.27-3.15,1.54-5.98,4.28-7.2l0.89,5.57l0.98-0.16l-0.93,0.34l2.89,7.97
		C257.16,253.89,257.07,253.92,256.97,253.93z M256.27,245.33l-0.91-5.72c0.12-0.02,0.24-0.06,0.36-0.07
		c0.21-0.02,0.43-0.03,0.63-0.03c3.71,0,6.87,2.9,7.19,6.6c0.27,3.18-1.58,6.03-4.36,7.23L256.27,245.33z M263.68,261.77
		c0.68,0,1.26,0.54,1.33,1.22c0.06,0.73-0.48,1.38-1.22,1.45l-4.48,0.39l-0.12,0.01c-0.69,0-1.27-0.54-1.33-1.22
		c-0.06-0.74,0.48-1.39,1.22-1.45L263.68,261.77z"/>
	<g>
		<path class="st0" d="M331.87,251.76c-1.77,0-3.34-1.05-3.99-2.68c-0.43-1.05-0.41-2.21,0.04-3.27c0.46-1.07,1.3-1.9,2.39-2.33
			c2.17-0.88,4.76,0.22,5.62,2.36c0.88,2.19-0.2,4.7-2.42,5.6C332.98,251.65,332.43,251.76,331.87,251.76z M331.94,245.15
			c-0.31,0-0.6,0.06-0.89,0.17c-0.59,0.24-1.05,0.69-1.3,1.27c-0.24,0.56-0.25,1.18-0.02,1.74c0.46,1.15,1.85,1.74,3.04,1.26
			c1.2-0.48,1.8-1.84,1.32-3.01C333.74,245.71,332.89,245.15,331.94,245.15z"/>
	</g>
	<g>
		<path class="st0" d="M392.27,237.27c-1.25-8.28-7.62-36.07-36.99-46.4c-16.58-5.83-36.45-3.7-51.85,5.58
			c-14.39,8.67-23.7,22.76-26.23,39.68l-1.96-0.29c2.61-17.52,12.26-32.11,27.17-41.09c15.89-9.58,36.4-11.78,53.53-5.75
			c30.41,10.7,37,39.43,38.29,47.98L392.27,237.27z"/>
	</g>
	<path class="st0" d="M135.32,197.65c-12.2-9.99-32.56-13.94-50.66-9.84c-9.75,2.21-18.32,6.58-25.26,12.75l-4.06-9.27l-0.56-0.07
		c-0.16-0.02-1.56-0.19-2.24-0.19c-2.02,0-3.66,1.69-3.66,3.75c0,0.68,0.26,1.87,0.28,2l0.1,0.48l9.04,4.33
		c-4.94,4.65-9.01,10.23-12.02,16.65l1.8,0.84c3.01-6.42,7.13-11.99,12.15-16.56l0.04,0.02l-0.02-0.04
		c6.78-6.18,15.21-10.56,24.85-12.75c17.54-3.98,37.22-0.18,48.97,9.44c20.92,17.13,25.86,40.36,23.73,55.05l1.97,0.28
		C161.97,239.32,156.89,215.31,135.32,197.65z M51.01,195.89c-0.07-0.4-0.14-0.87-0.14-1.11c0-0.97,0.75-1.76,1.68-1.76
		c0.32,0,0.94,0.06,1.43,0.11l2.32,5.3L51.01,195.89z"/>
	<g>
		<g>
			<path class="st0" d="M72.5,149.48l-0.07,0c-0.43-0.02-0.84-0.2-1.13-0.52c-0.29-0.32-0.45-0.74-0.43-1.17
				c0.03-0.87,0.75-1.56,1.62-1.56l0.07,0c0.43,0.02,0.84,0.2,1.13,0.52c0.3,0.32,0.45,0.74,0.43,1.17
				C74.09,148.8,73.38,149.48,72.5,149.48z M72.52,147.27c-0.34,0-0.59,0.25-0.6,0.56c-0.01,0.16,0.05,0.31,0.15,0.42
				c0.11,0.11,0.25,0.18,0.41,0.19l0.03,0.52v-0.52c0.31,0,0.57-0.25,0.58-0.56c0.01-0.16-0.05-0.31-0.15-0.42
				C72.83,147.35,72.68,147.28,72.52,147.27L72.52,147.27z"/>
		</g>
	</g>
	<g>
		<g>
			<path class="st0" d="M89.64,141.51l-0.08,0c-0.43-0.02-0.83-0.2-1.13-0.52c-0.29-0.32-0.44-0.74-0.42-1.17
				c0.04-0.87,0.75-1.55,1.63-1.55l0.07,0c0.44,0.02,0.84,0.21,1.13,0.53c0.29,0.32,0.44,0.74,0.42,1.17
				C91.23,140.82,90.51,141.51,89.64,141.51z M89.66,139.29c-0.34,0-0.59,0.25-0.61,0.56c-0.01,0.15,0.05,0.31,0.15,0.42
				c0.11,0.11,0.25,0.18,0.41,0.19l0.03,0.52v-0.52c0.31,0,0.57-0.24,0.58-0.56c0.01-0.15-0.05-0.3-0.15-0.42
				C89.97,139.37,89.82,139.3,89.66,139.29L89.66,139.29z"/>
		</g>
	</g>
	<g>
		<g>
			<path class="st0" d="M107.27,141.5c-0.13,0-0.26-0.01-0.38-0.05c-0.42-0.1-0.78-0.36-1.01-0.73c-0.23-0.37-0.3-0.81-0.19-1.23
				c0.17-0.74,0.83-1.25,1.58-1.25c0.13,0,0.26,0.02,0.38,0.05c0.42,0.1,0.78,0.36,1.01,0.73c0.22,0.37,0.3,0.81,0.19,1.23
				C108.68,140.99,108.03,141.5,107.27,141.5z M107.27,139.29c-0.27,0-0.5,0.18-0.57,0.45c-0.04,0.15-0.01,0.31,0.07,0.44
				c0.08,0.13,0.21,0.23,0.36,0.26c0.31,0.07,0.63-0.12,0.7-0.43c0.04-0.15,0.01-0.31-0.07-0.44c-0.08-0.13-0.21-0.23-0.36-0.26
				C107.36,139.3,107.32,139.29,107.27,139.29z"/>
		</g>
	</g>
	<g>
		<g>
			<path class="st0" d="M84.52,157.73c-0.06,0-0.13,0-0.2-0.01c-0.43-0.05-0.81-0.27-1.09-0.61c-0.27-0.34-0.39-0.76-0.33-1.2
				c0.1-0.88,0.91-1.53,1.81-1.42c0.43,0.05,0.82,0.27,1.09,0.61c0.27,0.34,0.39,0.77,0.33,1.2
				C86.03,157.12,85.33,157.73,84.52,157.73z M84.51,155.52c-0.3,0-0.54,0.22-0.58,0.52c-0.01,0.15,0.03,0.31,0.12,0.43
				c0.1,0.12,0.24,0.2,0.39,0.22c0.32,0.04,0.61-0.19,0.65-0.51c0.02-0.15-0.02-0.31-0.12-0.43c-0.1-0.12-0.24-0.2-0.39-0.22
				C84.56,155.52,84.54,155.52,84.51,155.52z"/>
		</g>
	</g>
	<g>
		<g>
			<path class="st0" d="M98.09,153.62c-0.06,0-0.13,0-0.19-0.01c-0.89-0.11-1.53-0.92-1.42-1.81c0.11-0.88,0.91-1.53,1.81-1.42
				c0.43,0.05,0.82,0.27,1.09,0.61c0.27,0.34,0.39,0.77,0.34,1.2C99.6,153.01,98.91,153.62,98.09,153.62z M98.09,151.41
				c-0.29,0-0.54,0.22-0.58,0.52c-0.04,0.32,0.19,0.61,0.51,0.65c0.33,0.04,0.61-0.19,0.65-0.51c0.02-0.15-0.02-0.31-0.12-0.43
				c-0.09-0.12-0.23-0.2-0.39-0.22C98.13,151.41,98.11,151.41,98.09,151.41z"/>
		</g>
	</g>
	<g>
		<path class="st0" d="M85.17,141.22c-0.56,0.58-1.19,1.46-1.22,2.45c-0.03,0.85,0.38,1.6,1.18,2.25c0.59,0.47,1.18,0.71,1.78,0.71
			c1.34,0,2.26-1.22,2.77-2.12c0.57,0.85,1.58,1.97,2.91,1.97c0.49,0,0.97-0.15,1.43-0.44c0.67-0.42,1.06-1.01,1.14-1.71
			c0.12-1.11-0.57-2.24-1.13-2.97c0.81-0.17,1.91-0.56,2.53-1.41c0.47-0.65,0.58-1.44,0.33-2.34c-0.35-1.25-1.22-1.95-2.47-1.95
			c-0.75,0-1.51,0.25-2.06,0.48c0.02-0.89-0.09-2.2-0.8-3.04c-0.45-0.54-1.06-0.81-1.85-0.82c-0.75,0-1.36,0.27-1.82,0.79
			c-0.72,0.84-0.85,2.16-0.85,3.05c-0.59-0.25-1.4-0.51-2.18-0.51c-1.23,0-2.08,0.66-2.39,1.87c-0.22,0.87-0.1,1.63,0.36,2.28
			C83.41,140.57,84.4,141,85.17,141.22z M83.49,137.74c0.19-0.75,0.61-1.09,1.37-1.09c1.14,0,2.48,0.78,2.5,0.78l0.93,0.54
			l-0.15-1.06c-0.08-0.6-0.15-2.35,0.54-3.15c0.25-0.29,0.59-0.43,1.05-0.43l0,0c0.45,0,0.79,0.15,1.03,0.44
			c0.69,0.81,0.58,2.56,0.48,3.17l-0.18,1.12l0.97-0.59c0.35-0.21,1.46-0.77,2.39-0.77c0.78,0,1.24,0.37,1.46,1.18
			c0.16,0.6,0.11,1.07-0.17,1.45c-0.61,0.84-2.18,1.09-2.74,1.12l-1.19,0.06l0.85,0.84c0.45,0.44,1.6,1.83,1.49,2.87
			c-0.04,0.38-0.26,0.69-0.66,0.94c-0.3,0.19-0.59,0.28-0.88,0.28c-1.18,0-2.2-1.64-2.49-2.28l-0.54-1.16l-0.43,1.2
			c-0.24,0.66-1.1,2.38-2.22,2.38c-0.35,0-0.72-0.16-1.12-0.48c-0.55-0.44-0.81-0.9-0.8-1.41c0.03-1.01,1.17-2.05,1.61-2.36
			l1.13-0.81l-1.38-0.14c-0.02,0-1.94-0.2-2.67-1.23C83.41,138.77,83.35,138.31,83.49,137.74z"/>
	</g>
	<g>
		<path class="st0" d="M102.63,140.35c-0.65,0.46-1.45,1.2-1.66,2.18c-0.18,0.82,0.07,1.65,0.74,2.44c0.6,0.71,1.28,1.07,2.02,1.07
			c1.14,0,2.11-0.89,2.7-1.6c0.44,1.05,1.35,2.53,2.94,2.53c0.34,0,0.69-0.07,1.04-0.21c0.73-0.29,1.23-0.79,1.44-1.46
			c0.33-1.06-0.13-2.31-0.55-3.13c0.93-0.02,2.13-0.22,2.87-1.03c0.5-0.54,0.71-1.25,0.64-2.12c-0.13-1.58-1.13-2.45-2.82-2.45
			c-0.49,0-0.96,0.07-1.35,0.16c0.19-0.87,0.33-2.17-0.21-3.13c-0.34-0.61-0.89-1-1.64-1.15c-0.19-0.04-0.38-0.06-0.55-0.06
			c-1.92,0-2.59,2.06-2.82,3.32c-0.66-0.44-1.66-0.98-2.62-0.98c-0.66,0-1.57,0.25-2.12,1.45c-0.38,0.81-0.41,1.58-0.08,2.3
			C101.02,139.39,101.92,139.99,102.63,140.35z M101.63,136.62c0.27-0.58,0.64-0.85,1.18-0.85c1,0,2.27,0.92,2.68,1.28l0.81,0.71
			l0.05-1.07c0-0.03,0.21-3.26,1.89-3.26c0.11,0,0.22,0.01,0.35,0.04c0.44,0.09,0.75,0.3,0.93,0.63c0.52,0.93,0.09,2.62-0.12,3.2
			l-0.39,1.06l1.06-0.4c0.01,0,0.96-0.36,1.92-0.36c1.49,0,1.73,0.85,1.78,1.49c0.05,0.57-0.07,1.01-0.37,1.33
			c-0.56,0.6-1.66,0.69-2.26,0.69c-0.41,0-0.71-0.04-0.71-0.04l-1.18-0.16l0.67,0.98c0.36,0.52,1.23,2.09,0.92,3.1
			c-0.11,0.36-0.38,0.63-0.82,0.8c-0.23,0.09-0.45,0.13-0.66,0.13c-1.55,0-2.26-2.7-2.27-2.73l-0.31-1.24l-0.65,1.1
			c-0.32,0.54-1.38,1.94-2.42,1.94c-0.42,0-0.82-0.23-1.22-0.7c-0.46-0.54-0.63-1.04-0.52-1.53c0.22-0.99,1.54-1.79,2.03-2.02
			l1.27-0.58l-1.34-0.39c-0.51-0.15-1.95-0.75-2.38-1.71C101.36,137.61,101.39,137.15,101.63,136.62z"/>
	</g>
	<g>
		<g>
			<path class="st0" d="M121.93,146.25c-0.13,0-0.26-0.01-0.38-0.04c-0.43-0.1-0.78-0.36-1.01-0.73c-0.23-0.37-0.3-0.81-0.19-1.23
				c0.17-0.73,0.83-1.25,1.58-1.25c0.13,0,0.26,0.02,0.38,0.05c0.42,0.1,0.78,0.36,1.01,0.73c0.23,0.37,0.3,0.81,0.2,1.23
				C123.33,145.74,122.69,146.25,121.93,146.25z M121.92,144.04c-0.27,0-0.5,0.18-0.57,0.45c-0.04,0.15-0.01,0.31,0.07,0.44
				c0.08,0.13,0.21,0.23,0.36,0.26c0.31,0.07,0.63-0.13,0.71-0.43c0.03-0.15,0.01-0.31-0.07-0.44c-0.08-0.13-0.21-0.23-0.36-0.26
				C122.02,144.05,121.97,144.04,121.92,144.04z"/>
		</g>
	</g>
	<g>
		<path class="st0" d="M117.29,145.1c-0.65,0.46-1.45,1.2-1.66,2.17c-0.18,0.82,0.06,1.65,0.74,2.44c0.6,0.71,1.28,1.07,2.02,1.07
			c1.14,0,2.11-0.89,2.7-1.6c0.44,1.05,1.35,2.53,2.94,2.53c0.34,0,0.68-0.07,1.04-0.21c0.74-0.29,1.24-0.79,1.44-1.46
			c0.33-1.06-0.14-2.31-0.55-3.13c0.93-0.02,2.13-0.22,2.87-1.03c0.5-0.54,0.71-1.25,0.64-2.12c-0.13-1.58-1.13-2.45-2.82-2.45
			c-0.49,0-0.96,0.07-1.35,0.15c0.19-0.87,0.33-2.17-0.21-3.13c-0.34-0.61-0.89-1-1.64-1.15c-0.19-0.04-0.37-0.06-0.56-0.06
			c-1.92,0-2.59,2.06-2.82,3.32c-0.66-0.44-1.66-0.97-2.62-0.97c-0.66,0-1.57,0.25-2.12,1.45c-0.38,0.81-0.4,1.58-0.08,2.3
			C115.67,144.13,116.57,144.74,117.29,145.1z M116.29,141.37c0.27-0.58,0.64-0.85,1.18-0.85c1,0,2.27,0.92,2.68,1.28l0.81,0.71
			l0.05-1.07c0-0.03,0.21-3.26,1.89-3.26c0.11,0,0.23,0.01,0.35,0.04c0.44,0.09,0.74,0.3,0.93,0.64c0.52,0.92,0.09,2.62-0.12,3.2
			l-0.39,1.06l1.06-0.4c0.01,0,0.96-0.36,1.92-0.36c1.49,0,1.73,0.85,1.78,1.49c0.05,0.57-0.07,1.01-0.37,1.32
			c-0.56,0.6-1.65,0.7-2.26,0.7c-0.41,0-0.71-0.04-0.71-0.04l-1.18-0.17l0.67,0.98c0.36,0.52,1.23,2.1,0.92,3.1
			c-0.11,0.36-0.38,0.63-0.82,0.8c-0.23,0.09-0.45,0.14-0.66,0.14c-1.56,0-2.26-2.7-2.27-2.73l-0.31-1.24l-0.65,1.1
			c-0.32,0.54-1.38,1.94-2.42,1.94c-0.42,0-0.82-0.23-1.23-0.7c-0.46-0.54-0.62-1.04-0.52-1.54c0.22-0.99,1.54-1.79,2.03-2.02
			l1.26-0.58l-1.34-0.39c-0.52-0.15-1.95-0.75-2.38-1.71C116.02,142.37,116.04,141.9,116.29,141.37z"/>
	</g>
	<g>
		<path class="st0" d="M89.33,152.24c-0.66,0-1.32,0.17-1.83,0.34c0.09-0.89,0.07-2.2-0.57-3.09c-0.41-0.57-1-0.89-1.76-0.95
			c-0.82-0.07-1.46,0.18-1.97,0.72c-0.73,0.78-0.95,2.05-1.01,2.91c-0.62-0.32-1.52-0.68-2.38-0.68c-0.74,0-1.35,0.28-1.78,0.8l0,0
			c0.11-1.11-0.58-2.24-1.15-2.97c0.81-0.18,1.91-0.57,2.52-1.42c0.47-0.65,0.57-1.44,0.32-2.35c-0.35-1.25-1.22-1.94-2.46-1.94
			c-0.75,0-1.51,0.26-2.08,0.5c0.02-0.89-0.1-2.2-0.81-3.04c-0.45-0.53-1.07-0.81-1.85-0.81c-0.75,0-1.37,0.27-1.82,0.8
			c-0.72,0.84-0.85,2.16-0.84,3.05c-0.58-0.24-1.39-0.51-2.17-0.51c-1.24,0-2.09,0.67-2.39,1.89c-0.21,0.87-0.09,1.63,0.37,2.27
			c0.58,0.81,1.58,1.23,2.34,1.45c-0.55,0.58-1.19,1.46-1.21,2.46c-0.02,0.85,0.38,1.6,1.19,2.25c0.59,0.47,1.18,0.71,1.77,0.7
			c1.35,0,2.27-1.22,2.77-2.13c0.57,0.85,1.58,1.97,2.91,1.97c0.49,0,0.97-0.15,1.44-0.45c0.21-0.13,0.38-0.28,0.54-0.44
			c-0.15,0.71-0.06,1.35,0.29,1.93c0.51,0.85,1.47,1.35,2.22,1.62c-0.6,0.54-1.3,1.36-1.4,2.35c-0.09,0.84,0.25,1.63,1.01,2.34
			c0.6,0.56,1.23,0.84,1.88,0.84c1.26,0,2.21-1.09,2.75-1.92c0.53,0.93,1.51,2.19,2.94,2.19c0.42,0,0.86-0.12,1.29-0.34
			c0.7-0.37,1.13-0.93,1.26-1.62c0.2-1.09-0.4-2.28-0.91-3.04c0.84-0.12,1.97-0.42,2.64-1.25c0.5-0.61,0.66-1.38,0.48-2.29
			C91.64,153,90.72,152.24,89.33,152.24z M76.35,153.12c-0.3,0.19-0.59,0.29-0.88,0.29c-1.18,0-2.2-1.64-2.5-2.27l-0.54-1.16
			l-0.42,1.2c-0.24,0.66-1.09,2.39-2.22,2.39c-0.35,0-0.72-0.16-1.12-0.47c-0.55-0.44-0.81-0.9-0.8-1.41
			c0.02-1.01,1.16-2.05,1.6-2.37l1.12-0.81l-1.38-0.13c-0.02,0-1.94-0.19-2.67-1.23c-0.28-0.39-0.34-0.85-0.21-1.42
			c0.19-0.75,0.61-1.09,1.38-1.09c1.14,0,2.48,0.76,2.49,0.78l0.93,0.54l-0.15-1.06c-0.09-0.61-0.16-2.36,0.53-3.16
			c0.25-0.29,0.59-0.43,1.04-0.43c0.45,0,0.79,0.15,1.04,0.44c0.69,0.81,0.59,2.56,0.5,3.16l-0.18,1.12l0.96-0.6
			c0.35-0.22,1.47-0.78,2.4-0.78c0.77,0,1.23,0.37,1.46,1.17c0.17,0.59,0.11,1.07-0.16,1.46c-0.6,0.84-2.18,1.1-2.73,1.13
			l-1.19,0.06l0.85,0.83c0.45,0.45,1.61,1.83,1.5,2.87C76.96,152.56,76.75,152.87,76.35,153.12z M90.62,156
			c-0.74,0.9-2.54,0.93-2.82,0.93h0l-1.19-0.03l0.78,0.89c0.42,0.48,1.46,1.95,1.27,2.97c-0.07,0.37-0.3,0.66-0.72,0.88
			c-0.28,0.15-0.55,0.22-0.8,0.22c-1.23,0-2.16-1.78-2.42-2.46l-0.45-1.19l-0.52,1.17c-0.27,0.62-1.22,2.22-2.31,2.22
			c-0.37,0-0.76-0.19-1.17-0.56c-0.52-0.48-0.74-0.96-0.69-1.46c0.1-1.01,1.32-1.96,1.78-2.24l1.19-0.72l-1.37-0.23
			c-0.53-0.09-2.02-0.52-2.57-1.43c-0.25-0.41-0.28-0.88-0.09-1.43c0.23-0.68,0.62-0.99,1.28-0.99c1.17,0,2.58,0.96,2.6,0.97
			l0.89,0.61l-0.07-1.07c-0.04-0.59,0.01-2.29,0.74-3.06c0.28-0.3,0.64-0.43,1.11-0.39c0.45,0.03,0.77,0.21,1,0.52
			c0.62,0.86,0.39,2.6,0.25,3.19l-0.26,1.1l1.01-0.52c0.01-0.01,1.17-0.6,2.25-0.6c0.9,0,1.38,0.4,1.56,1.29
			C91,155.18,90.92,155.64,90.62,156z"/>
	</g>
	<g>
		<path class="st0" d="M105,152.55c0.5-0.61,0.66-1.38,0.48-2.28c-0.27-1.38-1.19-2.14-2.58-2.14c-0.66,0-1.32,0.17-1.83,0.34
			c0.09-0.89,0.07-2.2-0.57-3.09c-0.41-0.57-1-0.89-1.76-0.95c-0.82-0.07-1.46,0.18-1.96,0.72c-0.73,0.78-0.95,2.05-1.01,2.91
			c-0.62-0.32-1.52-0.68-2.38-0.68c-1.1,0-1.91,0.6-2.27,1.7c-0.28,0.85-0.22,1.62,0.19,2.3c0.51,0.85,1.48,1.35,2.23,1.62
			c-0.6,0.54-1.3,1.36-1.4,2.35c-0.09,0.84,0.25,1.63,1.01,2.34c0.6,0.56,1.23,0.85,1.88,0.85c1.26,0,2.21-1.09,2.75-1.92
			c0.53,0.93,1.51,2.19,2.94,2.19c0.43,0,0.86-0.11,1.29-0.34c0.7-0.37,1.13-0.93,1.26-1.62c0.2-1.09-0.41-2.28-0.91-3.05
			C103.2,153.68,104.33,153.38,105,152.55z M102.24,156.66c-0.07,0.37-0.3,0.66-0.72,0.89c-0.28,0.15-0.54,0.22-0.8,0.22
			c-1.23,0-2.16-1.77-2.41-2.46l-0.45-1.19l-0.52,1.16c-0.27,0.62-1.22,2.22-2.31,2.22c-0.37,0-0.77-0.19-1.17-0.56
			c-0.52-0.48-0.74-0.96-0.69-1.46c0.1-1.01,1.32-1.96,1.78-2.24l1.19-0.72l-1.37-0.24c-0.02,0-1.92-0.34-2.57-1.43
			c-0.24-0.41-0.28-0.87-0.09-1.43c0.23-0.68,0.62-0.99,1.28-0.99c1.17,0,2.58,0.96,2.6,0.97l0.89,0.61l-0.07-1.08
			c-0.04-0.59,0.01-2.29,0.73-3.06c0.28-0.3,0.64-0.43,1.12-0.39c0.45,0.04,0.77,0.21,1,0.52c0.62,0.86,0.39,2.6,0.25,3.19
			l-0.26,1.1l1.01-0.52c0.01-0.01,1.17-0.6,2.25-0.6c0.9,0,1.38,0.4,1.56,1.3c0.12,0.6,0.03,1.06-0.26,1.42
			c-0.74,0.91-2.57,0.93-2.83,0.93l-1.19-0.03l0.79,0.9C101.39,154.16,102.43,155.62,102.24,156.66z"/>
	</g>
	<g>
		<path class="st0" d="M118.99,153.56c-0.25-1.23-1.07-1.92-2.32-1.92c-0.59,0-1.19,0.15-1.64,0.31c0.08-0.8,0.07-1.97-0.51-2.77
			c-0.37-0.51-0.9-0.8-1.58-0.86c-0.73-0.06-1.31,0.16-1.77,0.65c-0.66,0.7-0.85,1.83-0.9,2.61c-0.56-0.29-1.37-0.61-2.14-0.61
			c-0.99,0-1.72,0.54-2.05,1.53c-0.25,0.76-0.19,1.45,0.17,2.06c0.46,0.76,1.33,1.21,2,1.46c-0.54,0.48-1.17,1.23-1.26,2.11
			c-0.08,0.76,0.23,1.46,0.91,2.1c0.54,0.5,1.11,0.76,1.69,0.76c1.13,0,1.99-0.98,2.48-1.72c0.47,0.83,1.36,1.97,2.64,1.97
			c0.38,0,0.77-0.1,1.16-0.31c0.63-0.33,1.02-0.84,1.13-1.46c0.18-0.98-0.36-2.05-0.82-2.73c0.76-0.11,1.77-0.38,2.38-1.12
			C119,155.07,119.15,154.38,118.99,153.56z M117.83,155.02c-0.66,0.81-2.29,0.83-2.53,0.83h0l-1.07-0.03l0.71,0.8
			c0.37,0.43,1.31,1.74,1.14,2.67c-0.06,0.34-0.27,0.6-0.65,0.8c-0.25,0.13-0.49,0.2-0.72,0.2c-1.1,0-1.94-1.59-2.17-2.21l-0.4-1.07
			l-0.46,1.05c-0.25,0.56-1.1,1.99-2.08,1.99c-0.33,0-0.68-0.17-1.05-0.51c-0.46-0.43-0.66-0.86-0.62-1.32
			c0.09-0.91,1.18-1.76,1.6-2.01l1.06-0.65l-1.23-0.21c-0.02-0.01-1.72-0.31-2.31-1.28c-0.22-0.37-0.24-0.79-0.08-1.28
			c0.21-0.62,0.56-0.89,1.16-0.89c1.05,0,2.32,0.86,2.33,0.87l0.8,0.55l-0.07-0.97c-0.04-0.53,0.01-2.06,0.66-2.75
			c0.25-0.27,0.58-0.39,1-0.35c0.4,0.03,0.7,0.18,0.9,0.47c0.56,0.77,0.35,2.33,0.22,2.87l-0.23,0.99l0.91-0.46
			c0.01-0.01,1.05-0.54,2.02-0.54c0.81,0,1.24,0.36,1.4,1.16C118.18,154.28,118.1,154.7,117.83,155.02z"/>
	</g>
	<g>
		<g>
			<path class="st0" d="M112.49,157.12c-0.06,0-0.13-0.01-0.19-0.01c-0.43-0.05-0.82-0.27-1.09-0.61c-0.27-0.34-0.39-0.77-0.34-1.2
				c0.11-0.88,0.91-1.53,1.81-1.42c0.44,0.05,0.82,0.27,1.09,0.61c0.27,0.34,0.39,0.77,0.33,1.2
				C114.01,156.51,113.32,157.12,112.49,157.12z M112.49,154.91c-0.3,0-0.55,0.22-0.58,0.52c-0.02,0.15,0.02,0.31,0.12,0.43
				c0.1,0.12,0.23,0.2,0.39,0.22c0.33,0.04,0.61-0.19,0.65-0.51c0.02-0.15-0.02-0.31-0.12-0.43c-0.1-0.12-0.24-0.2-0.39-0.22
				C112.54,154.91,112.52,154.91,112.49,154.91z"/>
		</g>
	</g>
	<path class="st0" d="M125.9,173.2v-11.17h-6.67l2.5-13.41l-0.98-0.18l-2.53,13.59h-6.15l0.48-2.46l-0.91-0.51l-0.59,2.97h-6.69
		l2.9-18.43l-0.98-0.15l-2.92,18.58H98.3l-0.03-5.42l-0.99,0l0.03,5.41h-4.05l-3.13-18.14l-0.98,0.17l3.11,17.97h-7.31l-0.18-2.48
		l-0.99,0.07l0.18,2.4h-9.47l-1.43-9.62l-0.98,0.15l1.41,9.47h-7.06v25.01h59.49v-8.31l3.76,9.75l1.85-0.71L125.9,173.2z
		 M123.92,185.06H68.4v-21.04h55.51V185.06z"/>
	<path class="st0" d="M290.37,168.42l0.8-1.59c1.23,0.09,2.42,0.17,3.6,0.17c2.46,0,4.64-0.3,7.11-0.99
		c2.35-0.78,3.86-2.07,4.26-3.63c0.35-1.4-0.17-2.86-1.56-4.35l-0.39-0.42l-0.56,0.13c-5.65,1.35-11.64,2.03-17.8,2.03
		c-6,0-10.68-0.63-13.48-1.01c-1.15-0.15-1.91-0.26-2.36-0.26c-0.87,0-1.14,0.49-1.23,0.77c-0.23,0.76,0.31,1.86,0.88,2.65
		c1.18,1.6,4.23,4.28,11.41,4.31c2.2,0.01,4.08,0.11,5.78,0.24l-70.9,0.12l0.2-0.46c1.25,0.1,2.46,0.18,3.66,0.18
		c2.46,0,4.64-0.3,7.11-0.98c2.35-0.79,3.86-2.08,4.25-3.63c0.35-1.4-0.17-2.86-1.56-4.34l-0.39-0.42l-0.56,0.13
		c-5.64,1.35-11.63,2.03-17.79,2.03c-6,0-10.68-0.63-13.49-1.01c-1.15-0.15-1.91-0.26-2.36-0.26c-0.86,0-1.14,0.48-1.23,0.77
		c-0.23,0.76,0.31,1.86,0.89,2.65c1.18,1.6,4.23,4.28,11.41,4.31c3.19,0.01,5.73,0.22,7.98,0.41l-0.27,0.63l-68.52,0.11l1.22-2.05
		l1.08-1.82l-11.88-5.23c0-0.09,0.01-0.18,0-0.27l3.96-0.79c0.45,0.72,1.24,1.21,2.14,1.21c0.11,0,0.22-0.01,0.33-0.02l9.81-1.3
		c0.67-0.09,1.27-0.44,1.69-0.98c0.41-0.54,0.59-1.21,0.5-1.88c-0.18-1.38-1.46-2.37-2.86-2.2l-9.81,1.3
		c-0.68,0.09-1.28,0.44-1.69,0.97c-0.21,0.28-0.36,0.59-0.44,0.92l-4.19,0.83c-0.2-0.39-0.46-0.73-0.76-1.05l1.63-1.14
		c0.34,0.16,0.7,0.26,1.08,0.26c0.46,0,0.91-0.12,1.3-0.36l8.51-5.05c0.58-0.35,1-0.9,1.17-1.56c0.17-0.66,0.07-1.35-0.28-1.93
		c-0.69-1.16-2.32-1.58-3.49-0.89l-8.5,5.05c-0.59,0.34-1,0.9-1.17,1.56c-0.12,0.47-0.06,0.95,0.09,1.4l-2.03,1.42l0.01,0.01
		c-0.75-0.34-1.58-0.51-2.46-0.43c-1.34,0.12-2.56,0.75-3.42,1.78c-0.87,1.03-1.28,2.34-1.16,3.68c0.23,2.58,2.43,4.61,5.01,4.61
		c0.15,0,0.29-0.01,0.44-0.02c1.34-0.12,2.56-0.75,3.42-1.78c0.35-0.41,0.6-0.87,0.79-1.36l7.96,3.58l-47.14,78.37l3.4,2.05
		l31.14-52.38l44.18,50.56c-1.46,1.78-2.27,4.08-2.06,6.55c0.41,4.72,4.44,8.42,9.17,8.42c0.27,0,0.53-0.01,0.8-0.03
		c0.42-0.03,0.81-0.13,1.21-0.22l1.92,4.88l-0.18,0.02c-0.94,0.08-1.79,0.52-2.39,1.24c-0.61,0.72-0.9,1.64-0.82,2.57
		c0.16,1.81,1.7,3.22,3.51,3.22c0.1,0,0.21-0.01,0.31-0.01l4.49-0.39c0.94-0.08,1.79-0.52,2.4-1.24c0.6-0.72,0.89-1.63,0.81-2.57
		c-0.16-1.91-1.87-3.4-3.81-3.21l-2.24,0.19l-2-5.08l72.71,0.31l0-0.99l-71.57-0.3c0.7-0.47,1.37-0.99,1.93-1.66
		c1.21-1.44,1.93-3.19,2.11-5.03l140.62,1.01l0.39,0l2.04,0.01l1.13-1.81L290.37,168.42z M141.32,154.89
		c0.09-0.12,0.22-0.19,0.37-0.21l9.88-1.3c0.28,0,0.52,0.21,0.55,0.49c0.02,0.15-0.02,0.3-0.11,0.41c-0.09,0.12-0.22,0.19-0.37,0.21
		l-9.81,1.3l-0.07,0.01c-0.28,0-0.52-0.21-0.55-0.49C141.19,155.16,141.23,155.01,141.32,154.89z M136.78,150.47l8.5-5.05
		c0.09-0.05,0.18-0.08,0.28-0.08c0.2,0,0.38,0.1,0.49,0.27c0.08,0.13,0.1,0.28,0.06,0.42c-0.04,0.14-0.13,0.27-0.25,0.34l-8.51,5.05
		c-0.26,0.15-0.62,0.06-0.77-0.19c-0.07-0.13-0.1-0.28-0.06-0.43C136.56,150.67,136.65,150.55,136.78,150.47z M132.98,159.72
		c-0.52,0.62-1.26,1.01-2.07,1.08c-1.69,0.13-3.16-1.13-3.31-2.78c-0.07-0.81,0.18-1.6,0.71-2.23c0.52-0.62,1.26-1.01,2.07-1.08
		c0.09-0.01,0.18-0.01,0.27-0.01c1.57,0,2.9,1.23,3.04,2.79C133.75,158.3,133.51,159.09,132.98,159.72z M281.06,164.26
		c-6.27-0.03-8.97-2.26-9.93-3.64c0.28,0.03,0.6,0.08,0.95,0.12c2.66,0.36,7.62,1.03,13.75,1.03c6.11,0,12.05-0.66,17.67-1.95
		c0.63,0.79,0.87,1.48,0.72,2.07c-0.21,0.85-1.32,1.69-2.91,2.22c-3.86,1.07-7.18,0.99-11.7,0.6
		C287.22,164.51,284.52,164.28,281.06,164.26z M289.03,166.66l-0.03,0.05v-0.05C289.01,166.66,289.03,166.66,289.03,166.66z
		 M285.99,170.46l-29.23,67.89l-4.14-0.02l-35.54-67.76L285.99,170.46z M256.33,239.34l-1.44,3.33l-1.75-3.35L256.33,239.34z
		 M196.14,159.94c0.28,0.03,0.6,0.08,0.95,0.13c2.66,0.36,7.62,1.03,13.75,1.03c6.11,0,12.05-0.66,17.67-1.95
		c0.63,0.79,0.87,1.48,0.72,2.07c-0.21,0.85-1.32,1.69-2.91,2.22c-3.86,1.07-7.18,0.98-11.7,0.6c-2.38-0.2-5.08-0.43-8.55-0.45
		C199.8,163.56,197.1,161.33,196.14,159.94z M214.1,173.26l36,65.06l-63.46-0.27L214.1,173.26z M132.79,187.65l10.08-16.96
		l68.09-0.11l-27.41,67.45l-1.63-0.01l-0.62-5.82l1.64-0.14c1.82-0.16,3.18-1.77,3.03-3.6c-0.16-1.8-1.79-3.16-3.6-3.02l-4.64,0.4
		c-0.88,0.07-1.69,0.49-2.26,1.17c-0.57,0.68-0.85,1.54-0.77,2.43c0.15,1.7,1.6,3.04,3.31,3.04c0.09,0,0.19-0.01,0.29-0.01
		l1.02-0.09l0.67,6.25c-1,0.22-1.92,0.61-2.76,1.12L132.79,187.65z M185.29,241.24c2.01,1.07,3.48,3.04,3.8,5.4l-6.02-0.04
		l-0.03-0.04L185.29,241.24z M182.58,240.43l-0.32,0.79l-0.09-0.84C182.32,240.39,182.45,240.42,182.58,240.43z M178.13,230.49
		l-0.12,0.01c-0.68,0-1.27-0.54-1.33-1.22c-0.03-0.36,0.08-0.7,0.31-0.98c0.23-0.27,0.55-0.44,0.91-0.47l4.76-0.41
		c0.69,0,1.27,0.54,1.33,1.22c0.06,0.74-0.48,1.38-1.22,1.45L178.13,230.49z M180.4,243.47l-1.87-2.19
		c0.53-0.28,1.08-0.53,1.67-0.68L180.4,243.47z M182.57,254.78c-4,0.33-7.48-2.66-7.82-6.58c-0.16-1.82,0.38-3.52,1.39-4.88
		l4.74,5.42l2.33,5.91C183,254.7,182.79,254.76,182.57,254.78z M190.48,263.02c0.79,0,1.46,0.62,1.53,1.41
		c0.03,0.41-0.09,0.81-0.35,1.12c-0.26,0.31-0.64,0.51-1.05,0.54l-4.49,0.39l-0.14,0.01c-0.79,0-1.46-0.62-1.53-1.4
		c-0.03-0.41,0.09-0.81,0.36-1.12c0.27-0.31,0.64-0.51,1.05-0.54L190.48,263.02z M187.48,252.23c-0.66,0.79-1.47,1.4-2.37,1.83
		l-2.22-5.64l6.22,0.04C188.94,249.85,188.39,251.15,187.48,252.23z M191.1,246.66c-0.33-3.19-2.31-5.86-5.04-7.23l0.16-0.39
		l64.43,0.27l3.85,6.96l1.58-0.95l0.2,0.09l32.52-71.69l41.88,73.93L191.1,246.66z"/>
	<g>
		<path class="st0" d="M386.97,224.51c-8.62-21.44-29.13-35.3-52.24-35.3c-7.19,0-14.25,1.37-20.98,4.07
			c-13.95,5.61-24.87,16.31-30.78,30.14c-4.86,11.4-5.81,23.79-2.86,35.6l-0.13,0.03l0.48,1.93l0.16-0.04
			c0.54,1.87,1.17,3.72,1.9,5.54c8.62,21.45,29.13,35.3,52.24,35.3c7.19,0,14.25-1.37,20.98-4.08
			C384.54,286.15,398.54,253.3,386.97,224.51z M387.05,246.46L341.66,246c0-0.05,0-0.09,0-0.14c-0.02-0.26-0.1-0.51-0.15-0.77
			l44.39-10.43C386.74,238.59,387.12,242.55,387.05,246.46z M332.17,254.96c-4.52,0.39-8.55-3.05-8.94-7.52
			c-0.39-4.54,2.98-8.54,7.51-8.94c0.24-0.02,0.48-0.03,0.72-0.03c4.24,0,7.85,3.32,8.21,7.55c0.19,2.2-0.48,4.34-1.91,6.03
			C336.36,253.74,334.37,254.77,332.17,254.96z M383.28,226c0.89,2.22,1.61,4.47,2.17,6.72L341,243.17
			c-0.07-0.18-0.14-0.36-0.22-0.53l39.51-22.81C381.4,221.8,382.42,223.85,383.28,226z M379.29,218.11l-39.49,22.8
			c-0.03-0.03-0.05-0.07-0.07-0.11l33.62-30.62C375.56,212.61,377.55,215.26,379.29,218.11z M371.97,208.74l-33.41,30.43
			l22.47-38.95C365.04,202.55,368.71,205.43,371.97,208.74z M359.27,199.29l-22.4,38.84c-0.07-0.05-0.14-0.1-0.21-0.15l12.74-42.7
			C352.84,196.28,356.14,197.63,359.27,199.29z M334.73,193.19c4.38,0,8.64,0.56,12.75,1.58l-12.63,42.35
			c-0.18-0.07-0.36-0.12-0.55-0.17l0.25-43.75C334.61,193.19,334.67,193.19,334.73,193.19z M332.56,193.24l-0.24,43.33
			c-0.37-0.03-0.75-0.03-1.13-0.02l-10.13-41.51C324.82,194.01,328.67,193.4,332.56,193.24z M315.24,196.98
			c1.29-0.52,2.6-0.97,3.91-1.39l10.05,41.2c-0.27,0.06-0.54,0.1-0.8,0.18l-20.84-36.1C310,199.4,312.54,198.06,315.24,196.98z
			 M305.86,201.89l21.1,35.67c-0.32,0.16-0.62,0.34-0.91,0.53l-28.13-29.75C300.34,205.94,303,203.78,305.86,201.89z M296.57,209.8
			l27.9,29.51c-0.32,0.31-0.65,0.61-0.93,0.96l-34.61-19.99C291.03,216.44,293.63,212.96,296.57,209.8z M286.64,224.98
			c0.43-1,0.93-1.94,1.41-2.91l34.39,19.85c-0.19,0.36-0.34,0.74-0.49,1.12l-37.69-11.18C284.89,229.55,285.68,227.24,286.64,224.98
			z M283.77,233.81l37.64,11.16c-0.05,0.26-0.11,0.51-0.13,0.77l-38.86-0.4C282.44,241.47,282.89,237.61,283.77,233.81z
			 M282.45,247.32l38.82,0.4c0.04,0.35,0.12,0.69,0.19,1.03l-37.48,9.33C283.09,254.53,282.58,250.93,282.45,247.32z M286.22,265.01
			c-0.67-1.66-1.24-3.33-1.73-5.02l37.54-9.34c0.06,0.14,0.1,0.29,0.16,0.43l-33.42,19.29
			C287.84,268.64,286.97,266.87,286.22,265.01z M289.71,272.12l33.47-19.33c0.28,0.39,0.6,0.74,0.94,1.07l-28.22,26.68
			C293.6,277.97,291.5,275.17,289.71,272.12z M297.26,282l28.39-26.84c0.33,0.23,0.68,0.42,1.03,0.61L307,289.87
			C303.46,287.65,300.19,285.02,297.26,282z M308.69,290.92l19.86-34.39c0.17,0.05,0.34,0.11,0.52,0.15l-11.46,38.26
			C314.5,293.86,311.51,292.54,308.69,290.92z M319.49,295.56l11.56-38.62c0.13,0.01,0.26,0.04,0.39,0.04
			c0.14,0,0.28-0.01,0.42-0.02l-0.43,40.74C327.32,297.44,323.32,296.72,319.49,295.56z M334.77,297.82c-0.46,0-0.9-0.04-1.35-0.05
			l0.43-41.11c0.2-0.05,0.42-0.08,0.62-0.14l9.98,40.4C341.27,297.52,338.03,297.82,334.77,297.82z M354.26,294.04
			c-2.58,1.04-5.21,1.85-7.88,2.46l-10.07-40.76c0.05-0.03,0.09-0.06,0.14-0.09l21.58,36.68
			C356.81,292.93,355.56,293.51,354.26,294.04z M359.81,291.41l-21.72-36.9c0.1-0.09,0.19-0.19,0.29-0.28l29.89,31.43
			C365.68,287.82,362.86,289.74,359.81,291.41z M369.78,284.35l-30.07-31.62c0.14-0.19,0.28-0.39,0.41-0.59l38.3,22.11
			C375.99,277.94,373.1,281.35,369.78,284.35z M379.48,272.57L341,250.36c0.05-0.15,0.13-0.28,0.18-0.43l43.03,12.48
			C383,265.95,381.42,269.36,379.48,272.57z M384.82,260.51l-43.19-12.53l45.33,0.46C386.72,252.56,386,256.61,384.82,260.51z"/>
	</g>
	<g>
		
			<rect x="87.02" y="219.89" transform="matrix(0.5038 -0.8638 0.8638 0.5038 -135.2339 206.35)" class="st0" width="49.96" height="1.99"/>
	</g>
	<g>
		<path class="st0" d="M150.93,224.82c-8.62-21.44-29.12-35.3-52.23-35.3c-7.19,0-14.25,1.37-20.98,4.08
			c-26.33,10.58-40.28,38.95-33.63,65.74l-0.13,0.03l0.49,1.92l0.15-0.04c0.53,1.86,1.16,3.71,1.9,5.55
			c8.62,21.44,29.13,35.3,52.24,35.3c7.19,0,14.25-1.37,20.97-4.08c13.95-5.6,24.88-16.31,30.77-30.14
			C156.38,254.06,156.54,238.76,150.93,224.82z M151.04,246.76l-47.84-0.23l46.69-11.56C150.72,238.86,151.11,242.82,151.04,246.76z
			 M147.25,226.3c0.89,2.21,1.61,4.46,2.19,6.73l-46.6,11.54l41.43-24.44C145.37,222.11,146.39,224.15,147.25,226.3z M99.18,253.37
			l-0.16,0.04c0.05-0.02,0.1-0.04,0.15-0.06L99.18,253.37z M97.39,253.97l-0.23,0c0.07-0.01,0.15-0.03,0.22-0.04L97.39,253.97z
			 M102.4,244.67c0-0.01,0-0.01-0.01-0.02L102.4,244.67L102.4,244.67z M96.58,252.07c-2.65,0.22-4.98-1.77-5.21-4.38
			c-0.11-1.28,0.28-2.53,1.11-3.51c0.83-0.98,1.99-1.59,3.27-1.7c0.14-0.01,0.28-0.02,0.42-0.02c2.47,0,4.57,1.93,4.79,4.4
			C101.19,249.5,99.22,251.83,96.58,252.07z M143.26,218.41l-41.46,24.46l35.51-32.39C139.53,212.91,141.52,215.56,143.26,218.41z
			 M135.95,209.05l-35.85,32.7l0.09,0.1c-0.14-0.1-0.29-0.2-0.43-0.3l0.17,0.09l13.44-46.04
			C121.96,198.07,129.72,202.72,135.95,209.05z M98.7,193.49c4.38,0,8.64,0.56,12.74,1.58L98.23,240.8l0.01,0
			c-0.14-0.05-0.28-0.06-0.42-0.09l0.69-47.22C98.58,193.49,98.64,193.49,98.7,193.49z M96.52,193.54l-0.64,46.96
			c-0.08,0-0.16-0.01-0.24,0l-15.75-43.48C85.26,194.95,90.84,193.78,96.52,193.54z M78.06,197.78l15.64,43.17l-31.76-32.32
			C66.46,204.14,71.88,200.43,78.06,197.78z M60.56,210.06l31.35,31.91c-0.01,0.01-0.01,0.01-0.02,0.02l-38.95-21.43
			C55.03,216.77,57.58,213.25,60.56,210.06z M52.03,222.31l38.51,21.19c-0.05,0.07-0.1,0.14-0.14,0.21l-42.14-11.58
			C49.18,228.74,50.45,225.45,52.03,222.31z M47.78,234.07l41.82,11.5c-0.05,0.19-0.09,0.38-0.12,0.57l0-0.19l-43.06-0.32
			C46.44,241.71,46.91,237.83,47.78,234.07z M46.44,247.61l42.89,0.31l-41.38,10.44C47.06,254.79,46.56,251.19,46.44,247.61z
			 M50.19,265.32c-0.67-1.67-1.25-3.35-1.73-5.04l40.83-10.3L52.75,270.7C51.82,268.96,50.94,267.18,50.19,265.32z M53.7,272.45
			l35.57-20.18l-29.41,28.55C57.56,278.26,55.48,275.48,53.7,272.45z M61.2,282.28l30.66-29.76c0.07,0.06,0.14,0.11,0.21,0.16
			l-21.13,37.47C67.41,287.94,64.13,285.3,61.2,282.28z M72.64,291.2l21.01-37.26l-12.09,41.28
			C78.46,294.15,75.46,292.83,72.64,291.2z M95.38,298c-4.11-0.26-8.11-0.98-11.94-2.14l12.16-41.52L95.38,298z M98.74,298.13
			c-0.46,0-0.91-0.04-1.37-0.05l0.22-43.35l10.81,42.49C105.22,297.82,101.99,298.13,98.74,298.13z M118.23,294.34
			c-2.58,1.04-5.22,1.85-7.89,2.47l-10.97-43.1l22.64,38.9C120.77,293.21,119.53,293.81,118.23,294.34z M123.78,291.68l-21.45-36.86
			l29.9,31.12C129.63,288.12,126.8,290.04,123.78,291.68z M133.72,284.63l-31.6-32.89l40.26,22.82
			C139.93,278.3,137.01,281.67,133.72,284.63z M146.83,266.33c-0.97,2.29-2.15,4.45-3.41,6.54l-38.14-21.62l42.92,11.47
			C147.78,263.93,147.34,265.14,146.83,266.33z M148.82,260.83l-46-12.29c0.01-0.03,0.01-0.06,0.02-0.1v0.07l48.13,0.23
			C150.73,252.82,150.01,256.87,148.82,260.83z"/>
	</g>
	<g>
		<path class="st0" d="M80.45,180.64v-11.78h0.66v11.1h3.32v0.68H80.45z"/>
		<path class="st0" d="M94.13,179.1c-1.13,1.13-2.59,1.7-4.37,1.7c-1.78,0-3.23-0.56-4.35-1.68c-1.13-1.13-1.7-2.59-1.7-4.37
			c0-1.78,0.56-3.23,1.68-4.35c1.13-1.13,2.59-1.7,4.37-1.7c1.77,0,3.23,0.56,4.37,1.68c1.13,1.13,1.7,2.59,1.7,4.37
			C95.83,176.53,95.26,177.98,94.13,179.1z M93.65,170.87c-1.01-1.01-2.31-1.52-3.89-1.52c-1.56,0-2.85,0.51-3.86,1.52
			c-1.01,1.01-1.52,2.3-1.52,3.88s0.5,2.86,1.5,3.86c1.01,1.01,2.3,1.52,3.88,1.52c1.58,0,2.88-0.49,3.89-1.48c1-1,1.5-2.3,1.5-3.89
			C95.15,173.16,94.65,171.87,93.65,170.87z"/>
		<path class="st0" d="M100.07,180.83l-3.78-11.98h0.69l3.09,9.73l3.1-9.73h0.71L100.07,180.83z"/>
		<path class="st0" d="M105.52,180.64v-11.78h5.66v0.68h-4.98v4.29h4.98v0.73h-4.98v5.41h4.98v0.68H105.52z"/>
	</g>
</g>
</svg>
