<?xml version="1.0" encoding="utf-8"?>
<!-- Generator: Adobe Illustrator 24.2.1, SVG Export Plug-In . SVG Version: 6.00 Build 0)  -->
<svg version="1.1" id="Layer_1" xmlns="http://www.w3.org/2000/svg" xmlns:xlink="http://www.w3.org/1999/xlink" x="0px" y="0px"
	 viewBox="0 0 430.47 430.47" style="enable-background:new 0 0 430.47 430.47;" xml:space="preserve">
<style type="text/css">
	.st0{fill:#343466;}
</style>
<g>
	<g>
		<path class="st0" d="M215.23,423.96c-115.09,0-208.72-93.63-208.72-208.72S100.14,6.51,215.23,6.51
			c115.09,0,208.73,93.63,208.73,208.72S330.32,423.96,215.23,423.96z M215.23,11.14c-112.54,0-204.1,91.56-204.1,204.1
			s91.56,204.1,204.1,204.1c112.54,0,204.1-91.56,204.1-204.1S327.77,11.14,215.23,11.14z"/>
	</g>
	<g>
		<path class="st0" d="M163.93,174.54l-0.42-0.26c-0.55-0.33-13.39-8.25-13.15-15.65c0.2-6.02,4-6.92,6.25-6.92
			c2.82,0,5.76,1.28,6.82,1.78c1.06-0.64,4.13-2.32,7.08-2.32c2.48,0,5.58,1.18,6.25,6.82c0.86,7.2-11.87,15.89-12.41,16.26
			L163.93,174.54z M156.61,153.26c-3.05,0-4.59,1.78-4.71,5.43c-0.19,5.81,9.79,12.59,11.99,14.01c2.15-1.53,12.01-8.89,11.34-14.51
			c-0.44-3.68-1.98-5.46-4.72-5.46c-3.1,0-6.58,2.28-6.61,2.3l-0.38,0.25l-0.41-0.22C163.07,155.05,159.67,153.26,156.61,153.26z"/>
	</g>
	<g>
		<path class="st0" d="M172.53,353.82l-0.42-0.26c-0.55-0.33-13.39-8.25-13.15-15.65c0.2-6.02,4-6.92,6.25-6.92
			c2.82,0,5.76,1.28,6.82,1.78c1.06-0.64,4.13-2.32,7.08-2.32c2.48,0,5.58,1.18,6.25,6.82c0.86,7.2-11.87,15.89-12.41,16.26
			L172.53,353.82z M165.2,332.54c-3.05,0-4.59,1.78-4.71,5.43c-0.19,5.81,9.79,12.59,11.99,14.01c2.15-1.53,12.01-8.89,11.34-14.51
			c-0.44-3.68-1.98-5.46-4.72-5.46c-3.1,0-6.58,2.28-6.61,2.3l-0.38,0.25l-0.41-0.22C171.67,334.32,168.26,332.54,165.2,332.54z"/>
	</g>
	<g>
		<path class="st0" d="M249.81,353.82l-0.42-0.26c-0.55-0.33-13.4-8.25-13.15-15.65c0.2-6.02,4-6.92,6.25-6.92
			c2.82,0,5.76,1.28,6.82,1.78c1.06-0.64,4.13-2.32,7.08-2.32c2.48,0,5.58,1.18,6.25,6.82c0.86,7.21-11.87,15.89-12.41,16.26
			L249.81,353.82z M242.48,332.54c-3.05,0-4.59,1.77-4.71,5.43c-0.19,5.81,9.8,12.59,11.99,14.01c2.15-1.53,12.01-8.89,11.34-14.51
			c-0.44-3.68-1.98-5.46-4.72-5.46c-3.11,0-6.58,2.28-6.61,2.3l-0.38,0.25l-0.41-0.22C248.95,334.32,245.55,332.54,242.48,332.54z"
			/>
	</g>
	<g>
		<rect x="205.05" y="227.04" class="st0" width="1.54" height="29.54"/>
	</g>
	<g>
		<g>
			<path class="st0" d="M206.59,256.47c0-3.05-3.89-5.44-8.87-5.44c-4.97,0-8.87,2.39-8.87,5.44c0,3.05,3.89,5.44,8.87,5.44
				C202.7,261.9,206.59,259.51,206.59,256.47z M197.72,260.36c-3.97,0-7.33-1.78-7.33-3.89c0-2.11,3.36-3.9,7.33-3.9
				c3.97,0,7.32,1.78,7.32,3.9C205.05,258.58,201.69,260.36,197.72,260.36z"/>
		</g>
		<g>
			<path class="st0" d="M206.52,227.38c0.46,0.31,1.06,0.85,1.68,1.57c0.62,0.72,1.29,1.61,1.74,2.64c0.46,1.01,0.66,2.17,0.22,3.09
				c-0.18,0.37-0.68,1.08-0.91,1.78c-0.25,0.69-0.36,1.46-0.26,2.18c0.17,1.46,1.03,2.53,1.79,3.22c0.78,0.7,1.53,1.1,2.07,1.34
				c0.54,0.24,0.86,0.32,0.86,0.32s-0.26-0.21-0.69-0.59c-0.42-0.39-1-0.95-1.56-1.69c-0.55-0.74-1.05-1.69-1.08-2.71
				c-0.02-0.51,0.08-1.02,0.28-1.54c0.19-0.53,0.5-0.88,0.88-1.68c0.32-0.73,0.42-1.57,0.29-2.31c-0.13-0.75-0.4-1.41-0.73-1.99
				c-0.68-1.16-1.54-2.01-2.34-2.64c-0.8-0.63-1.56-1.03-2.14-1.21c-0.28-0.09-0.54-0.12-0.7-0.08c-0.18,0.05-0.18,0.16-0.19,0.15
				c0,0.01,0.06-0.09,0.2-0.07C206.1,227.13,206.29,227.23,206.52,227.38z"/>
		</g>
		<g>
			<path class="st0" d="M225.36,252.12c-0.42-0.39-1-0.95-1.56-1.69c-0.55-0.74-1.05-1.69-1.08-2.71c-0.01-0.51,0.08-1.02,0.28-1.54
				c0.19-0.53,0.5-0.88,0.88-1.68c0.32-0.74,0.41-1.57,0.29-2.31c-0.13-0.75-0.4-1.41-0.73-1.99c-0.68-1.16-1.54-2.01-2.34-2.64
				c-0.81-0.63-1.57-1.03-2.14-1.21c-0.02-0.01-0.04-0.01-0.06-0.01v-0.07h-0.31c-0.08-0.01-0.14,0-0.2,0h-1.04v26.44
				c-1.58-1.42-4.24-2.34-7.32-2.34c-4.97,0-8.87,2.39-8.87,5.44c0,3.05,3.89,5.44,8.87,5.44c4.97,0,8.87-2.39,8.87-5.44v-29.15
				c0.45,0.31,1.02,0.83,1.62,1.52c0.62,0.72,1.29,1.61,1.75,2.64c0.46,1.01,0.66,2.17,0.22,3.09c-0.18,0.37-0.68,1.08-0.91,1.78
				c-0.25,0.69-0.36,1.46-0.26,2.18c0.17,1.46,1.03,2.53,1.79,3.22c0.78,0.7,1.53,1.1,2.07,1.34c0.54,0.24,0.86,0.32,0.86,0.32
				S225.78,252.51,225.36,252.12z M210.04,269.69c-3.97,0-7.32-1.78-7.32-3.9c0-2.11,3.36-3.89,7.32-3.89
				c3.97,0,7.32,1.78,7.32,3.89C217.36,267.91,214.01,269.69,210.04,269.69z"/>
		</g>
	</g>
	<g>
		<g>
			<path class="st0" d="M251.4,258.21c-1.79,0-3.04-1.53-3.75-2.73c-0.71,1.08-1.91,2.38-3.51,2.38c-0.85,0-1.69-0.38-2.47-1.12
				c-1-0.94-1.44-1.99-1.33-3.11c0.13-1.25,0.96-2.3,1.71-3c-0.95-0.37-2.1-1.01-2.74-2.07c-0.55-0.9-0.63-1.94-0.26-3.07
				c0.48-1.47,1.55-2.28,3.01-2.28c1.05,0,2.14,0.42,2.94,0.82c0.09-1.13,0.39-2.69,1.32-3.69c0.66-0.7,1.51-1.05,2.58-0.94
				c0.98,0.08,1.77,0.52,2.31,1.25c0.83,1.14,0.88,2.77,0.78,3.93c0.64-0.21,1.43-0.4,2.21-0.4c1.84,0,3.05,1.01,3.4,2.85
				c0.23,1.22,0.02,2.25-0.65,3.06c-0.84,1.02-2.21,1.44-3.28,1.61c0.64,1.01,1.35,2.51,1.1,3.9c-0.17,0.92-0.74,1.66-1.66,2.16
				C252.53,258.05,251.96,258.21,251.4,258.21z M247.75,251.75l0.67,1.79c0.32,0.87,1.48,3.12,2.98,3.12c0.3,0,0.63-0.09,0.96-0.27
				c0.51-0.28,0.79-0.62,0.87-1.08c0.24-1.3-1.08-3.17-1.61-3.78l-1.13-1.32l1.74,0.04c0,0,0,0,0.01,0c0.33,0,2.58-0.04,3.5-1.15
				c0.37-0.45,0.48-1.03,0.33-1.78c-0.22-1.11-0.8-1.6-1.89-1.6c-1.33,0-2.8,0.76-2.82,0.76l-1.49,0.77l0.38-1.63
				c0.18-0.77,0.47-3-0.31-4.08c-0.27-0.38-0.65-0.58-1.19-0.62c-0.58-0.05-0.98,0.1-1.32,0.46c-0.9,0.96-0.98,3.15-0.92,3.91
				l0.1,1.6l-1.31-0.91c-0.49-0.34-2.04-1.24-3.25-1.24c-0.79,0-1.26,0.37-1.54,1.21c-0.23,0.7-0.19,1.28,0.12,1.8
				c0.68,1.13,2.54,1.67,3.19,1.79l2,0.35l-1.73,1.07c-0.58,0.36-2.1,1.56-2.23,2.83c-0.06,0.62,0.21,1.22,0.85,1.82
				c0.49,0.47,0.97,0.7,1.41,0.7c1.33,0,2.51-2.03,2.85-2.81L247.75,251.75z"/>
		</g>
		<g>
			<path class="st0" d="M248.04,251.48c-0.09,0-0.17-0.01-0.26-0.02c-1.19-0.15-2.05-1.24-1.91-2.45c0.15-1.2,1.23-2.08,2.43-1.93
				c1.2,0.14,2.05,1.24,1.91,2.45C250.08,250.65,249.15,251.48,248.04,251.48z M248.11,248.62c-0.39,0-0.66,0.25-0.7,0.58
				c-0.04,0.36,0.21,0.69,0.56,0.74l0.08,0c0.32,0,0.6-0.25,0.63-0.58c0.04-0.37-0.21-0.7-0.56-0.74
				C248.11,248.62,248.11,248.62,248.11,248.62z"/>
		</g>
	</g>
	<g>
		<g>
			<path class="st0" d="M217.88,189.44c-1.79,0-3.04-1.53-3.75-2.73c-0.72,1.07-1.92,2.38-3.52,2.38c-0.85,0-1.69-0.38-2.47-1.12
				c-1-0.94-1.44-1.99-1.33-3.11c0.13-1.25,0.96-2.3,1.71-3c-0.94-0.37-2.1-1.01-2.74-2.07c-0.55-0.91-0.64-1.94-0.27-3.07
				c0.48-1.47,1.55-2.28,3-2.28c1.05,0,2.14,0.42,2.94,0.82c0.09-1.13,0.39-2.69,1.32-3.69c0.66-0.7,1.53-1.05,2.58-0.94
				c0.98,0.08,1.78,0.52,2.31,1.26c0.82,1.14,0.88,2.77,0.78,3.93c0.63-0.21,1.42-0.4,2.21-0.4c1.83,0,3.04,1.01,3.4,2.85
				c0.24,1.22,0.02,2.25-0.65,3.06c-0.84,1.02-2.21,1.44-3.28,1.61c0.64,1.01,1.35,2.51,1.1,3.9c-0.17,0.92-0.74,1.66-1.66,2.16
				C219.02,189.28,218.45,189.44,217.88,189.44z M214.24,182.97l0.67,1.8c0.32,0.87,1.48,3.12,2.98,3.12c0.31,0,0.63-0.09,0.97-0.27
				c0.51-0.28,0.79-0.62,0.87-1.08c0.24-1.3-1.11-3.21-1.6-3.78l-1.14-1.32l1.74,0.04c0.26-0.02,2.58-0.03,3.5-1.15
				c0.37-0.45,0.48-1.03,0.33-1.78c-0.21-1.11-0.8-1.6-1.89-1.6c-1.33,0-2.8,0.76-2.82,0.76l-1.49,0.77l0.38-1.63
				c0.18-0.77,0.47-3-0.31-4.08c-0.27-0.38-0.65-0.58-1.19-0.62c-0.55-0.05-0.98,0.1-1.32,0.46c-0.91,0.97-0.98,3.15-0.92,3.91
				l0.11,1.6l-1.32-0.92c-0.49-0.34-2.04-1.24-3.25-1.24c-0.79,0-1.27,0.37-1.54,1.21c-0.23,0.7-0.19,1.28,0.12,1.79
				c0.67,1.12,2.54,1.67,3.2,1.79l1.99,0.35l-1.72,1.06c-0.58,0.36-2.1,1.56-2.23,2.83c-0.06,0.63,0.21,1.22,0.85,1.83
				c0.49,0.46,0.97,0.7,1.41,0.7c1.33,0,2.54-2.08,2.85-2.81L214.24,182.97z"/>
		</g>
		<g>
			<path class="st0" d="M214.53,182.71c-0.08,0-0.17-0.01-0.26-0.02c-1.2-0.15-2.05-1.25-1.91-2.45c0.14-1.2,1.22-2.08,2.43-1.93
				c1.19,0.15,2.05,1.25,1.9,2.45C216.57,181.88,215.63,182.71,214.53,182.71z M214.59,179.85c-0.39,0-0.66,0.25-0.7,0.58
				c-0.04,0.36,0.21,0.7,0.57,0.74l0.07,0c0.33,0,0.6-0.25,0.64-0.58C215.21,180.22,214.96,179.89,214.59,179.85
				C214.6,179.85,214.6,179.85,214.59,179.85z"/>
		</g>
	</g>
	<g>
		<g>
			<path class="st0" d="M174.08,258.21c-1.79,0-3.04-1.53-3.75-2.73c-0.72,1.08-1.91,2.38-3.51,2.38c-0.85,0-1.69-0.38-2.47-1.12
				c-1-0.94-1.44-1.99-1.33-3.11c0.13-1.25,0.96-2.3,1.71-3c-0.95-0.37-2.1-1.01-2.74-2.07c-0.54-0.9-0.63-1.94-0.26-3.07
				c0.48-1.47,1.55-2.28,3-2.28c1.05,0,2.14,0.42,2.94,0.82c0.09-1.13,0.38-2.69,1.32-3.69c0.66-0.7,1.51-1.05,2.58-0.94
				c0.98,0.08,1.77,0.52,2.31,1.25c0.83,1.14,0.88,2.77,0.78,3.93c0.64-0.21,1.42-0.4,2.21-0.4c1.84,0,3.05,1.01,3.4,2.85
				c0.24,1.22,0.02,2.25-0.65,3.06c-0.85,1.02-2.21,1.44-3.28,1.61c0.64,1.01,1.35,2.51,1.1,3.9c-0.17,0.92-0.74,1.66-1.66,2.16
				C175.21,258.05,174.64,258.21,174.08,258.21z M170.43,251.74l0.67,1.8c0.32,0.87,1.48,3.12,2.98,3.12c0.3,0,0.63-0.09,0.96-0.27
				c0.51-0.28,0.79-0.62,0.87-1.08c0.24-1.3-1.08-3.17-1.61-3.78l-1.13-1.32l1.74,0.04c0,0,0,0,0.01,0c0.33,0,2.58-0.04,3.5-1.15
				c0.37-0.45,0.48-1.03,0.33-1.78c-0.21-1.11-0.8-1.6-1.89-1.6c-1.33,0-2.8,0.76-2.82,0.76l-1.49,0.77l0.38-1.63
				c0.18-0.77,0.47-3-0.31-4.08c-0.27-0.38-0.65-0.58-1.19-0.62c-0.58-0.05-0.98,0.1-1.32,0.46c-0.91,0.97-0.97,3.15-0.92,3.91
				l0.11,1.6l-1.32-0.92c-0.5-0.34-2.04-1.24-3.25-1.24c-0.79,0-1.26,0.37-1.54,1.21c-0.23,0.7-0.19,1.28,0.12,1.79
				c0.67,1.12,2.54,1.67,3.2,1.79l1.99,0.35l-1.72,1.06c-0.58,0.36-2.1,1.56-2.23,2.83c-0.06,0.62,0.21,1.22,0.85,1.82
				c0.49,0.47,0.97,0.7,1.41,0.7c1.33,0,2.53-2.08,2.85-2.81L170.43,251.74z"/>
		</g>
		<g>
			<path class="st0" d="M170.72,251.48c-0.09,0-0.17-0.01-0.26-0.02c-1.19-0.15-2.05-1.24-1.91-2.45c0.14-1.2,1.22-2.08,2.43-1.93
				c1.19,0.14,2.05,1.24,1.91,2.45C172.76,250.65,171.83,251.48,170.72,251.48z M170.79,248.62c-0.39,0-0.66,0.25-0.7,0.58
				c-0.04,0.36,0.21,0.69,0.56,0.74l0.08,0c0.32,0,0.6-0.25,0.63-0.58c0.04-0.37-0.21-0.7-0.56-0.74
				C170.79,248.62,170.79,248.62,170.79,248.62z"/>
		</g>
	</g>
	<g>
		<path class="st0" d="M210.96,326.2l-0.33-0.17c-0.27-0.14-6.49-3.44-6.61-6.96c-0.04-1.2,0.24-2.12,0.84-2.74
			c0.55-0.57,1.34-0.86,2.34-0.86c1.15,0,2.3,0.39,2.84,0.59c0.59-0.4,2.02-1.25,3.42-1.25c1.13,0,2.58,0.54,3.06,3.12
			c0.62,3.35-4.67,7.56-5.27,8.03L210.96,326.2z M207.21,316.63c-0.67,0-1.18,0.17-1.51,0.5c-0.37,0.38-0.55,1.02-0.52,1.89
			c0.07,2.22,3.84,4.78,5.65,5.79c1.64-1.34,4.95-4.55,4.55-6.67c-0.4-2.18-1.55-2.18-1.92-2.18c-1.39,0-2.98,1.2-3,1.21l-0.27,0.21
			l-0.32-0.14C209.87,317.25,208.49,316.63,207.21,316.63z"/>
	</g>
	<g>
		<path class="st0" d="M198.3,358.74l-8.35-22.8c-0.18-0.29-0.3-0.62-0.36-0.97l-0.36-0.96l0.37-0.02c0.26-1.23,1.38-2.15,2.7-2.15
			c0.78,0,1.49,0.32,1.99,0.83c1.01-1.03,2.98-1.03,3.99,0c1.01-1.03,2.98-1.03,3.99,0c1.01-1.03,2.99-1.03,4,0.01
			c1.01-1.06,2.99-1.03,3.99,0c1.01-1.06,2.99-1.03,3.99,0c1.01-1.06,2.98-1.03,3.98,0c1.01-1.05,2.99-1.03,3.99,0
			c1.01-1.04,2.98-1.03,3.99,0c0.5-0.52,1.21-0.84,1.99-0.84c1.26,0,2.33,0.83,2.66,1.96h0.4l-0.24,1.02l-7.95,23.85L198.3,358.74z
			 M191.1,334.63l0.01,0.05c0.02,0.18,0.08,0.35,0.17,0.48l0.08,0.16l8.01,21.87l22.58-0.07l7.48-22.44l-0.02-0.23l0,0
			c-0.05-0.6-0.58-1.07-1.22-1.07c-0.67,0-1.23,0.52-1.23,1.17v0.77l-1.64,0.04l0.1-0.87c0-0.59-0.55-1.11-1.23-1.11
			c-0.67,0-1.22,0.52-1.22,1.17v0.77l-1.6,0.05l0.06-0.83c0-0.63-0.55-1.16-1.22-1.16c-0.67,0-1.22,0.52-1.22,1.17v0.77l-1.54,0.07
			l-0.01-0.77c0.01-0.71-0.54-1.23-1.22-1.23c-0.67,0-1.22,0.52-1.22,1.17v0.77l-0.77,0.08h-0.81l0.03-0.81
			c0.01-0.69-0.54-1.21-1.21-1.21c-0.67,0-1.23,0.52-1.23,1.17l0.04,0.81l-1.57,0.06l-0.02-0.83l0.01-0.1
			c0-0.58-0.55-1.11-1.23-1.11c-0.67,0-1.22,0.52-1.22,1.17l0.03,0.8l-0.79,0.08h-0.8l0.01-0.8c0.01-0.72-0.54-1.25-1.21-1.25
			c-0.67,0-1.22,0.52-1.22,1.17l0.06,0.82l-1.61,0.07l0-0.8c0.01-0.74-0.54-1.27-1.21-1.27c-0.67,0-1.22,0.52-1.22,1.17l0.05,0.82
			l-0.81,0.09h-0.82l0.02-0.82c0.01-0.74-0.54-1.26-1.21-1.26c-0.67,0-1.23,0.52-1.23,1.17l0.05,0.81l-0.8,0.11h-0.82l0.02-0.81
			c0.01-0.75-0.54-1.28-1.21-1.28c-0.67,0-1.22,0.52-1.22,1.17L191.1,334.63z"/>
	</g>
	<g>
		<path class="st0" d="M190.72,334.39h-1.16c0-9.03,12.5-12.5,16.34-13.35l0.25,1.13C198.69,323.82,190.72,327.9,190.72,334.39z"/>
	</g>
	<g>
		<path class="st0" d="M231.13,334.09h-1.16c0-6.41-10.28-10.57-15.72-11.88l0.27-1.12C215.2,321.26,231.13,325.18,231.13,334.09z"
			/>
	</g>
	<g>
		<path class="st0" d="M201.84,327.67c-0.88,0-1.6-0.68-1.6-1.52c0-0.84,0.72-1.52,1.6-1.52c0.88,0,1.6,0.68,1.6,1.52
			C203.44,326.98,202.72,327.67,201.84,327.67z M201.84,325.78c-0.24,0-0.44,0.16-0.44,0.37c0,0.4,0.88,0.4,0.88,0
			C202.28,325.94,202.09,325.78,201.84,325.78z"/>
	</g>
	<g>
		<path class="st0" d="M205.62,326.72c-0.88,0-1.6-0.68-1.6-1.52c0-0.84,0.72-1.52,1.6-1.52c0.88,0,1.59,0.68,1.59,1.52
			C207.22,326.04,206.5,326.72,205.62,326.72z M205.62,324.83c-0.24,0-0.44,0.16-0.44,0.37c0,0.4,0.88,0.41,0.88,0
			C206.06,324.99,205.86,324.83,205.62,324.83z"/>
	</g>
	<g>
		<path class="st0" d="M207.66,329.52c-0.88,0-1.6-0.68-1.6-1.52c0-0.84,0.72-1.52,1.6-1.52c0.88,0,1.6,0.68,1.6,1.52
			C209.25,328.84,208.54,329.52,207.66,329.52z M207.66,327.63c-0.24,0-0.44,0.17-0.44,0.37c0,0.41,0.88,0.4,0.88,0
			C208.1,327.8,207.9,327.63,207.66,327.63z"/>
	</g>
	<g>
		<path class="st0" d="M216.28,326.72c-0.88,0-1.6-0.68-1.6-1.52c0-0.84,0.72-1.52,1.6-1.52c0.88,0,1.59,0.68,1.59,1.52
			C217.88,326.04,217.16,326.72,216.28,326.72z M216.28,324.83c-0.24,0-0.44,0.16-0.44,0.37c0,0.4,0.88,0.4,0.88,0
			C216.72,325,216.52,324.83,216.28,324.83z"/>
	</g>
	<g>
		<path class="st0" d="M222.47,329.4c-0.88,0-1.6-0.68-1.6-1.52c0-0.84,0.72-1.52,1.6-1.52c0.88,0,1.59,0.68,1.59,1.52
			C224.06,328.71,223.35,329.4,222.47,329.4z M222.47,327.51c-0.24,0-0.44,0.16-0.44,0.37c0,0.4,0.88,0.4,0.88,0
			C222.9,327.67,222.71,327.51,222.47,327.51z"/>
	</g>
	<g>
		<path class="st0" d="M214.25,329.52c-0.88,0-1.6-0.68-1.6-1.52c0-0.84,0.72-1.52,1.6-1.52s1.6,0.68,1.6,1.52
			C215.84,328.84,215.13,329.52,214.25,329.52z M214.25,327.63c-0.24,0-0.44,0.16-0.44,0.37c0,0.41,0.88,0.4,0.88,0
			C214.69,327.8,214.49,327.63,214.25,327.63z"/>
	</g>
	<g>
		<path class="st0" d="M196.76,329.52c-0.88,0-1.6-0.68-1.6-1.52c0-0.84,0.72-1.52,1.6-1.52c0.88,0,1.6,0.68,1.6,1.52
			C198.36,328.84,197.64,329.52,196.76,329.52z M196.76,327.63c-0.24,0-0.44,0.16-0.44,0.37c0,0.4,0.88,0.4,0.88,0
			C197.2,327.8,197,327.63,196.76,327.63z"/>
	</g>
	<g>
		<polygon class="st0" points="199.28,342.07 205.29,357.72 203.83,358.21 		"/>
	</g>
	<g>
		<polygon class="st0" points="222.45,342.08 218.03,358.2 216.57,357.73 222.39,342.06 		"/>
	</g>
	<path class="st0" d="M213.39,145.63c-1.27-3.05-15.12-9-18.64-9c-0.96,0-1.32,0.43-1.42,0.73l-8.1,18.34
		c-0.83,2.47-0.28,5.31,1.5,7.78c0.89,1.24,2.04,2.3,3.32,3.14l-5.96,13.47c-2.35-0.84-4.63-1.33-6.46-1.33
		c-2.65,0-3.63,0.96-3.98,1.76l-0.31,0.71l21.03,9.31l0.31-0.7c1.08-2.44-2.4-5.73-6.7-8.03l5.96-13.46
		c0.92,0.23,1.86,0.36,2.79,0.36c3.19,0,6.11-1.38,8.46-3.99l8.33-18.77L213.39,145.63z M193.23,188.34l-17.51-7.75
		c0.45-0.19,1.11-0.29,1.9-0.29c2.13,0,4.99,0.72,7.82,1.97C190.04,184.31,192.7,186.82,193.23,188.34z M186.6,181.1l-1.06-0.47
		l5.72-12.92l1.06,0.47L186.6,181.1z M203.96,163.76c-2.03,2.22-4.53,3.39-7.24,3.39c-3.3,0-6.73-1.8-8.74-4.59
		c-1.51-2.09-1.96-4.36-1.32-6.32l1.47-3.33l17.24,7.63L203.96,163.76z M206,159.14l-17.24-7.63l5.89-13.34c0.03,0,0.06,0,0.1,0
		c3.01,0,15.35,5.39,17.07,7.79L206,159.14z"/>
	<path class="st0" d="M253.4,180.52c-0.36-0.8-1.33-1.76-3.98-1.76c-1.83,0-4.11,0.48-6.46,1.33l-5.96-13.47
		c1.29-0.84,2.43-1.9,3.32-3.14c1.78-2.47,2.33-5.3,1.48-7.85l-8.05-18.21c-0.13-0.36-0.48-0.78-1.44-0.78
		c-3.52,0-17.38,5.95-18.65,9l-0.13,0.3l8.21,18.57l0.13,0.2c2.35,2.61,5.27,3.99,8.46,3.99c0,0,0,0,0,0c0.93,0,1.87-0.13,2.79-0.36
		l5.96,13.46c-4.3,2.3-7.78,5.59-6.7,8.03l0.31,0.7l21.03-9.31L253.4,180.52z M232.29,138.17c0.04,0,0.07,0,0.1,0l5.89,13.33
		l-17.24,7.63l-5.83-13.18C216.94,143.56,229.29,138.17,232.29,138.17z M230.32,167.15c-2.7,0-5.2-1.17-7.24-3.39l-1.42-3.21
		l17.24-7.63l1.44,3.26c0.67,2.03,0.22,4.3-1.29,6.39C237.05,165.35,233.63,167.15,230.32,167.15L230.32,167.15z M235.79,167.71
		l5.72,12.92l-1.06,0.47l-5.72-12.92L235.79,167.71z M233.82,188.34c0.53-1.52,3.19-4.03,7.79-6.07c2.83-1.25,5.68-1.97,7.82-1.97
		c0.79,0,1.45,0.1,1.9,0.29L233.82,188.34z"/>
	<path class="st0" d="M314.14,302.01h-98.98v-17.6h51.66l45.87-34.67l-45.87-34.67h-51.68v-17.6h99.02l-38.52-34.55l38.5-34.8H215.2
		V97.13c8.62-6.11,28.66-21.89,26.87-35.53c-1.73-13.23-9.35-16.01-15.44-16.01c-7.42,0-15.09,4.05-17.48,5.43
		c-2.42-1.14-10.02-4.41-17.25-4.41c-6.62,0-14.6,2.78-14.98,16.03c-0.39,13.68,19.35,28.31,28.45,34.31v31.17h-56.67l-45.87,34.67
		l45.87,34.67h56.63v17.6H101.36l38.5,34.8l-38.52,34.55h103.98v17.6h-56.64l-45.87,34.67l45.87,34.67h56.63v20.68h9.84v-20.68
		h99.02l-38.52-34.55L314.14,302.01z M212.11,99.45v28.66h-3.67V99.45l2.17,0.76L212.11,99.45z M180,62.72
		c0.25-8.77,4.14-13.04,11.9-13.04c7.8,0,16.54,4.41,16.62,4.45l0.78,0.4l0.74-0.46c0.09-0.05,8.74-5.4,16.59-5.4
		c7.16,0,11.21,4.36,12.38,13.33c1.79,13.67-23.61,31.34-28.47,34.58C205.57,93.53,179.59,76.87,180,62.72z M149.72,194.38
		l-41.79-31.59l41.79-31.59h55.64h9.84h90.94l-35.09,31.72l35.07,31.45h-90.96h-9.84H149.72z M212.06,197.46v17.6h-3.67v-17.6
		H212.06z M109.4,281.32l35.07-31.45l-35.09-31.72h95.94h9.84h50.64l41.79,31.59l-41.79,31.59h-50.63h-9.84H109.4z M212.08,284.41
		v17.6h-3.67v-17.6H212.08z M212.06,388.95h-3.67v-17.6h3.67V388.95z M306.11,368.27h-90.96h-9.84h-55.59l-41.79-31.59l41.79-31.59
		h55.6h9.84h90.97l-35.09,31.72L306.11,368.27z"/>
</g>
</svg>
