<?xml version="1.0" encoding="utf-8"?>
<!-- Generator: Adobe Illustrator 24.2.1, SVG Export Plug-In . SVG Version: 6.00 Build 0)  -->
<svg version="1.1" id="Layer_1" xmlns="http://www.w3.org/2000/svg" xmlns:xlink="http://www.w3.org/1999/xlink" x="0px" y="0px"
	 viewBox="0 0 430.47 430.47" style="enable-background:new 0 0 430.47 430.47;" xml:space="preserve">
<style type="text/css">
	.st0{fill:#343466;}
</style>
<g>
	<g>
		<path class="st0" d="M215.23,412.09c-108.54,0-196.85-88.31-196.85-196.85c0-108.54,88.31-196.85,196.85-196.85
			c108.54,0,196.85,88.31,196.85,196.85C412.09,323.78,323.78,412.09,215.23,412.09z M215.23,22.75
			c-106.14,0-192.49,86.35-192.49,192.49c0,106.14,86.35,192.49,192.49,192.49c106.14,0,192.49-86.35,192.49-192.49
			C407.72,109.1,321.37,22.75,215.23,22.75z"/>
	</g>
	<g>
		<path class="st0" d="M177.07,175.68l-0.87-1.1c-1.62-2.04-15.7-20.26-11.16-31.47c2.76-6.81,7-8.24,10.07-8.24
			c5.7,0,11.31,4.97,13.43,7.07c1.2-0.2,3.13-0.46,5.28-0.46c5.11,0,8.98,1.48,11.19,4.27c2.17,2.75,2.68,6.61,1.53,11.46
			c-2.75,11.57-25.51,17.49-28.1,18.13L177.07,175.68z M175.1,139.24c-0.94,0-3.79,0-6.02,5.51c-2.84,7.02,5.35,20.21,9.68,26
			c7.08-1.96,21.83-7.42,23.53-14.54c0.83-3.49,0.59-6.1-0.71-7.75c-1.7-2.16-5.16-2.61-7.76-2.61c-2.97,0-5.5,0.59-5.53,0.6
			l-1.26,0.3l-0.87-0.96C184.53,143.96,179.36,139.24,175.1,139.24z"/>
	</g>
	<g>
		<path class="st0" d="M102.28,196.38l-0.87-1.1c-1.62-2.04-15.7-20.26-11.16-31.47c2.76-6.81,7-8.24,10.07-8.24
			c5.7,0,11.31,4.97,13.43,7.07c1.2-0.2,3.13-0.46,5.28-0.46c5.11,0,8.98,1.48,11.19,4.27c2.17,2.75,2.68,6.61,1.53,11.46
			c-2.75,11.57-25.51,17.49-28.1,18.13L102.28,196.38z M100.31,159.94c-0.94,0-3.79,0-6.02,5.51c-2.84,7.02,5.35,20.21,9.68,26
			c7.08-1.96,21.83-7.42,23.53-14.54c0.83-3.49,0.59-6.1-0.71-7.75c-1.7-2.16-5.16-2.61-7.76-2.61c-2.97,0-5.5,0.59-5.53,0.6
			l-1.26,0.3l-0.87-0.96C109.74,164.66,104.57,159.94,100.31,159.94z"/>
	</g>
	<g>
		<path class="st0" d="M116.56,135.54l-0.87-1.1c-1.62-2.04-15.7-20.26-11.16-31.47c2.76-6.81,7-8.24,10.07-8.24
			c5.7,0,11.31,4.97,13.43,7.07c1.2-0.2,3.13-0.46,5.28-0.46c5.11,0,8.98,1.48,11.19,4.27c2.17,2.75,2.68,6.61,1.53,11.46
			c-2.75,11.57-25.51,17.49-28.1,18.13L116.56,135.54z M114.6,99.1c-0.94,0-3.79,0-6.02,5.51c-2.84,7.02,5.35,20.21,9.68,26
			c7.08-1.96,21.83-7.42,23.53-14.54c0.83-3.49,0.59-6.1-0.71-7.75c-1.7-2.16-5.16-2.61-7.76-2.61c-2.97,0-5.5,0.59-5.53,0.6
			l-1.26,0.3l-0.87-0.96C124.02,103.82,118.85,99.1,114.6,99.1z"/>
	</g>
	<g>
		<path class="st0" d="M294.22,284.26H193.86v-42.02h100.36V284.26z M198.23,279.9h91.63v-33.3h-91.63V279.9z"/>
	</g>
	<g>
		<path class="st0" d="M207.12,221.12c-7.31,0-13.26-5.95-13.26-13.26s5.95-13.26,13.26-13.26c7.31,0,13.26,5.95,13.26,13.26
			S214.43,221.12,207.12,221.12z M207.12,198.97c-4.91,0-8.9,3.99-8.9,8.9s3.99,8.9,8.9,8.9c4.9,0,8.89-3.99,8.89-8.9
			S212.02,198.97,207.12,198.97z"/>
	</g>
	<g>
		<path class="st0" d="M150.42,276.65h-30.09v-53.34h30.09V276.65z M124.7,272.29h21.36v-44.62H124.7V272.29z"/>
	</g>
	<g>
		<path class="st0" d="M334.56,305.52h-188.5v-92.48l41.4-31.03h147.1V305.52z M150.42,301.16h179.77V186.38H188.91l-38.49,28.85
			V301.16z"/>
	</g>
	<g>
		<path class="st0" d="M250.58,186.38h-29.37v-38.39l0.1-0.31c3.79-12.31,56.71-41.75,63.42-43.17l0.47-0.1l0.47,0.11
			c2.4,0.56,11.3,9.83,12.56,14.34c0.6,2.15-0.24,3.38-0.8,3.93c-2.45,2.4-38.84,27.67-46.33,32.87L250.58,186.38z M225.57,182.01
			h20.72l0.49-28.67l0.92-0.64c17.05-11.82,42.67-29.75,46.34-32.74c-0.59-2.4-6.77-9.17-9.16-10.97
			c-8.82,2.99-55.65,30.28-59.3,39.69V182.01z"/>
	</g>
	<g>
		<path class="st0" d="M110.33,293.03h-6.09c-7.92,0-14.37-6.44-14.37-14.37v-58.61c0-7.92,6.45-14.37,14.37-14.37h6.09
			c7.92,0,14.37,6.44,14.37,14.37v58.61C124.7,286.58,118.25,293.03,110.33,293.03z M104.24,210.05c-5.51,0-10,4.49-10,10v58.61
			c0,5.52,4.49,10,10,10h6.09c5.52,0,10-4.49,10-10v-58.61c0-5.52-4.49-10-10-10H104.24z"/>
	</g>
</g>
</svg>
