<?xml version="1.0" encoding="utf-8"?>
<!-- Generator: Adobe Illustrator 24.2.1, SVG Export Plug-In . SVG Version: 6.00 Build 0)  -->
<svg version="1.1" id="Layer_1" xmlns="http://www.w3.org/2000/svg" xmlns:xlink="http://www.w3.org/1999/xlink" x="0px" y="0px"
	 viewBox="0 0 430.47 430.47" style="enable-background:new 0 0 430.47 430.47;" xml:space="preserve">
<style type="text/css">
	.st0{fill:#343466;}
</style>
<g>
	<g>
		<path class="st0" d="M215.23,420.43c-113.14,0-205.19-92.05-205.19-205.19S102.09,10.04,215.23,10.04s205.19,92.05,205.19,205.19
			S328.38,420.43,215.23,420.43z M215.23,14.59c-110.64,0-200.65,90.01-200.65,200.65s90.01,200.65,200.65,200.65
			s200.65-90.01,200.65-200.65S325.87,14.59,215.23,14.59z"/>
	</g>
	<g>
		<path class="st0" d="M130.55,124.94l-0.2,0c-1.26-0.05-2.43-0.6-3.29-1.52c-0.86-0.93-1.3-2.14-1.24-3.4
			c0.1-2.54,2.18-4.54,4.72-4.54l0.2,0.01c1.26,0.05,2.43,0.59,3.29,1.52c0.86,0.93,1.3,2.14,1.24,3.4
			C135.17,122.95,133.1,124.94,130.55,124.94z M130.62,118.51c-0.99,0-1.73,0.71-1.77,1.63c-0.02,0.46,0.14,0.89,0.45,1.22
			c0.3,0.33,0.73,0.53,1.18,0.55l0.07,1.52v-1.52c0.91,0,1.65-0.72,1.69-1.63c0.02-0.46-0.14-0.89-0.45-1.22
			C131.49,118.72,131.07,118.53,130.62,118.51L130.62,118.51z"/>
	</g>
	<g>
		<path class="st0" d="M180.39,101.75l-0.22-0.01c-1.26-0.06-2.43-0.6-3.28-1.54c-0.85-0.93-1.29-2.14-1.23-3.41
			c0.12-2.53,2.19-4.52,4.72-4.52l0.22,0.01c1.26,0.06,2.43,0.6,3.28,1.54c0.85,0.93,1.29,2.14,1.23,3.41
			C185,99.76,182.92,101.75,180.39,101.75z M180.46,95.31c-0.99,0-1.73,0.71-1.77,1.62c-0.02,0.45,0.14,0.89,0.44,1.22
			c0.3,0.34,0.72,0.53,1.18,0.55l0.08,1.52v-1.52c0.91,0,1.66-0.72,1.7-1.63c0.02-0.45-0.14-0.88-0.44-1.22
			C181.34,95.53,180.92,95.33,180.46,95.31L180.46,95.31z"/>
	</g>
	<g>
		<path class="st0" d="M231.67,101.74c-0.37,0-0.74-0.04-1.1-0.13c-1.23-0.29-2.27-1.05-2.93-2.13c-0.66-1.08-0.86-2.35-0.56-3.58
			c0.51-2.13,2.4-3.63,4.6-3.63c0.37,0,0.74,0.04,1.1,0.13c1.23,0.3,2.27,1.05,2.93,2.13c0.66,1.08,0.86,2.35,0.56,3.57
			C235.76,100.24,233.87,101.74,231.67,101.74z M231.66,95.3c-0.79,0-1.47,0.53-1.65,1.3c-0.11,0.45-0.04,0.9,0.2,1.29
			c0.24,0.39,0.61,0.66,1.05,0.76c0.91,0.22,1.83-0.36,2.05-1.25c0.11-0.45,0.04-0.9-0.2-1.29c-0.24-0.39-0.61-0.66-1.06-0.77
			C231.93,95.32,231.79,95.3,231.66,95.3z"/>
	</g>
	<g>
		<path class="st0" d="M165.48,148.93c-0.19,0-0.38-0.01-0.57-0.03c-1.25-0.15-2.38-0.78-3.16-1.77c-0.78-0.99-1.13-2.23-0.98-3.49
			c0.31-2.56,2.65-4.45,5.27-4.14c1.26,0.15,2.38,0.78,3.16,1.78c0.78,0.99,1.13,2.23,0.97,3.49
			C169.89,147.14,167.87,148.93,165.48,148.93z M165.48,142.5c-0.86,0-1.58,0.64-1.69,1.5c-0.05,0.45,0.07,0.89,0.35,1.25
			c0.28,0.36,0.68,0.58,1.13,0.64c0.94,0.12,1.78-0.57,1.89-1.49c0.05-0.45-0.07-0.89-0.35-1.25c-0.28-0.36-0.68-0.58-1.13-0.64
			C165.62,142.5,165.55,142.5,165.48,142.5z"/>
	</g>
	<g>
		<path class="st0" d="M204.96,136.98c-0.19,0-0.38-0.01-0.57-0.03c-2.59-0.31-4.45-2.67-4.14-5.26c0.31-2.57,2.65-4.45,5.27-4.14
			c1.25,0.15,2.38,0.78,3.16,1.77c0.78,0.99,1.13,2.23,0.98,3.49C209.37,135.19,207.36,136.98,204.96,136.98z M204.95,130.55
			c-0.86,0-1.58,0.65-1.69,1.5c-0.11,0.93,0.56,1.78,1.49,1.89c0.94,0.11,1.78-0.56,1.89-1.49c0.05-0.45-0.07-0.9-0.35-1.26
			c-0.28-0.36-0.68-0.58-1.13-0.64C205.09,130.55,205.02,130.55,204.95,130.55z"/>
	</g>
	<g>
		<path class="st0" d="M167.4,100.91c-1.62,1.69-3.47,4.24-3.56,7.13c-0.07,2.46,1.09,4.66,3.45,6.56c1.7,1.37,3.44,2.07,5.16,2.07
			c3.9,0,6.59-3.54,8.04-6.17c1.66,2.46,4.59,5.74,8.48,5.74c1.41,0,2.81-0.44,4.17-1.29c1.95-1.23,3.09-2.95,3.31-4.97
			c0.35-3.22-1.66-6.53-3.3-8.64c2.36-0.51,5.57-1.63,7.35-4.09c1.37-1.88,1.69-4.18,0.97-6.82c-1.01-3.65-3.55-5.67-7.17-5.67
			c-2.17,0-4.38,0.72-6.01,1.42c0.06-2.59-0.25-6.4-2.31-8.84c-1.31-1.56-3.09-2.36-5.4-2.38c-2.18,0-3.96,0.77-5.28,2.3
			c-2.11,2.43-2.48,6.27-2.46,8.85c-1.71-0.72-4.07-1.5-6.35-1.5c-3.59,0-6.05,1.94-6.93,5.45c-0.63,2.52-0.28,4.74,1.04,6.62
			C162.27,99.03,165.16,100.27,167.4,100.91z M162.5,90.79c0.55-2.18,1.78-3.16,3.99-3.16c3.32,0,7.23,2.25,7.26,2.28l2.7,1.58
			l-0.44-3.1c-0.25-1.76-0.45-6.84,1.58-9.16c0.73-0.84,1.71-1.25,3.05-1.25l0,0c1.3,0.01,2.29,0.44,3.01,1.3
			c1.99,2.36,1.69,7.44,1.4,9.21l-0.53,3.26l2.82-1.72c1.02-0.62,4.24-2.24,6.94-2.24c2.25,0,3.6,1.09,4.25,3.44
			c0.48,1.73,0.32,3.11-0.49,4.23c-1.77,2.44-6.34,3.18-7.96,3.26l-3.46,0.17l2.47,2.43c1.31,1.29,4.65,5.31,4.33,8.34
			c-0.12,1.1-0.74,2-1.91,2.73c-0.86,0.54-1.72,0.82-2.55,0.82c-3.44,0-6.39-4.79-7.24-6.63l-1.55-3.37l-1.25,3.49
			c-0.69,1.93-3.2,6.94-6.47,6.94c-1.01,0-2.11-0.47-3.26-1.4c-1.6-1.29-2.36-2.63-2.32-4.1c0.08-2.95,3.41-5.96,4.69-6.87
			l3.28-2.35l-4.01-0.39c-0.06-0.01-5.64-0.59-7.75-3.6C162.27,93.79,162.08,92.44,162.5,90.79z"/>
		<path class="st0" d="M218.17,98.38c-1.91,1.35-4.21,3.51-4.84,6.33c-0.53,2.4,0.19,4.78,2.15,7.09c1.76,2.07,3.73,3.11,5.88,3.11
			c3.32,0,6.14-2.59,7.86-4.66c1.29,3.04,3.94,7.36,8.56,7.36c0.98,0,2-0.2,3.02-0.6c2.14-0.84,3.59-2.31,4.18-4.26
			c0.95-3.09-0.4-6.73-1.61-9.11c2.7-0.05,6.18-0.65,8.35-3c1.44-1.56,2.07-3.63,1.87-6.15c-0.37-4.59-3.28-7.12-8.21-7.12
			c-1.41,0-2.8,0.21-3.93,0.46c0.55-2.53,0.95-6.33-0.6-9.11c-1-1.78-2.6-2.9-4.77-3.34c-0.55-0.11-1.09-0.17-1.61-0.17
			c-5.58,0-7.52,6-8.19,9.65c-1.92-1.28-4.82-2.83-7.61-2.83c-1.93,0-4.56,0.73-6.17,4.21c-1.1,2.36-1.17,4.61-0.23,6.7
			C213.48,95.58,216.09,97.34,218.17,98.38z M215.27,87.53c0.78-1.68,1.87-2.46,3.42-2.46c2.9,0,6.61,2.68,7.79,3.72l2.35,2.05
			l0.16-3.12c0.01-0.09,0.61-9.46,5.5-9.46c0.32,0,0.66,0.04,1.01,0.11c1.28,0.26,2.16,0.86,2.72,1.84c1.51,2.69,0.25,7.63-0.36,9.3
			l-1.12,3.09l3.08-1.15c0.03-0.01,2.8-1.04,5.58-1.04c4.34,0,5.04,2.47,5.19,4.32c0.13,1.67-0.22,2.93-1.07,3.85
			c-1.63,1.76-4.81,2.03-6.56,2.03c-1.2,0-2.06-0.12-2.07-0.12l-3.43-0.49l1.96,2.85c1.05,1.52,3.57,6.09,2.67,9.01
			c-0.32,1.06-1.1,1.82-2.39,2.32c-0.67,0.26-1.31,0.4-1.92,0.4c-4.52,0-6.58-7.86-6.6-7.94l-0.89-3.6l-1.89,3.19
			c-0.93,1.57-4,5.65-7.04,5.65c-1.23,0-2.4-0.67-3.57-2.04c-1.33-1.56-1.82-3.02-1.5-4.46c0.64-2.88,4.47-5.21,5.9-5.87l3.68-1.7
			l-3.89-1.14c-1.5-0.44-5.67-2.19-6.93-4.98C214.48,90.43,214.55,89.07,215.27,87.53z"/>
		<path class="st0" d="M179.47,132.97c-1.91,0-3.84,0.49-5.32,1c0.25-2.58,0.22-6.4-1.65-8.98c-1.19-1.65-2.92-2.58-5.12-2.77
			c-2.38-0.2-4.25,0.52-5.72,2.09c-2.13,2.28-2.76,5.95-2.92,8.46c-1.82-0.93-4.43-1.98-6.93-1.98c-2.16,0-3.92,0.82-5.17,2.32v0
			c0.33-3.22-1.69-6.52-3.33-8.63c2.36-0.52,5.56-1.65,7.34-4.12c1.36-1.89,1.68-4.19,0.94-6.82c-1.02-3.64-3.56-5.64-7.15-5.64
			c-2.18,0-4.41,0.73-6.04,1.44c0.05-2.59-0.28-6.4-2.34-8.83c-1.32-1.55-3.11-2.35-5.37-2.36c-2.19,0-3.97,0.78-5.3,2.31
			c-2.1,2.44-2.47,6.29-2.43,8.88c-1.7-0.71-4.05-1.47-6.32-1.47c-3.61,0-6.08,1.95-6.95,5.48c-0.62,2.52-0.26,4.75,1.07,6.61
			c1.68,2.35,4.58,3.58,6.82,4.21c-1.61,1.69-3.46,4.25-3.53,7.14c-0.06,2.45,1.11,4.66,3.47,6.54c1.7,1.36,3.43,2.04,5.14,2.04
			c3.92,0,6.6-3.56,8.05-6.21c1.66,2.45,4.6,5.71,8.47,5.71c1.42,0,2.83-0.44,4.19-1.3c0.6-0.38,1.12-0.82,1.56-1.29
			c-0.45,2.05-0.17,3.94,0.84,5.62c1.49,2.47,4.29,3.92,6.47,4.72c-1.74,1.56-3.78,3.97-4.07,6.85c-0.25,2.44,0.74,4.73,2.96,6.79
			c1.75,1.63,3.58,2.45,5.46,2.45c3.66,0,6.43-3.17,8.01-5.58c1.53,2.69,4.39,6.37,8.54,6.37c1.24,0,2.5-0.33,3.75-1
			c2.03-1.08,3.3-2.71,3.66-4.71c0.58-3.18-1.17-6.63-2.65-8.85c2.45-0.33,5.73-1.24,7.7-3.62c1.45-1.77,1.92-4.01,1.4-6.65
			C186.19,135.17,183.52,132.97,179.47,132.97z M141.74,135.53c-0.88,0.56-1.72,0.83-2.56,0.83c-3.43,0-6.4-4.76-7.25-6.6
			l-1.57-3.36l-1.24,3.5c-0.68,1.94-3.18,6.96-6.46,6.96c-1.01,0-2.1-0.47-3.25-1.38c-1.6-1.28-2.37-2.61-2.33-4.09
			c0.07-2.95,3.39-5.97,4.66-6.89l3.27-2.36l-4.02-0.38c-0.06,0-5.64-0.56-7.77-3.56c-0.8-1.13-1-2.48-0.59-4.12
			c0.54-2.2,1.78-3.17,4.01-3.17c3.31,0,7.21,2.23,7.24,2.25l2.71,1.56l-0.45-3.09c-0.25-1.76-0.47-6.85,1.55-9.18
			c0.73-0.85,1.71-1.26,3.04-1.26c1.3,0.01,2.29,0.43,3.02,1.29c2,2.35,1.71,7.44,1.44,9.2l-0.51,3.26l2.81-1.74
			c1.02-0.63,4.26-2.27,6.97-2.27c2.23,0,3.58,1.09,4.23,3.42c0.49,1.73,0.33,3.11-0.47,4.23c-1.76,2.45-6.33,3.2-7.95,3.29
			l-3.45,0.18l2.47,2.42c1.32,1.29,4.68,5.31,4.36,8.33C143.52,133.89,142.9,134.79,141.74,135.53z M183.24,143.9
			c-2.14,2.61-7.4,2.7-8.19,2.7c0,0-0.01,0-0.01,0l-3.45-0.08l2.27,2.6c1.21,1.39,4.25,5.65,3.7,8.64c-0.2,1.09-0.89,1.93-2.1,2.58
			c-0.8,0.43-1.58,0.64-2.32,0.64c-3.56,0-6.28-5.16-7.02-7.15l-1.3-3.47l-1.5,3.39c-0.8,1.79-3.56,6.45-6.72,6.45
			c-1.08,0-2.22-0.55-3.39-1.64c-1.5-1.4-2.16-2.79-2.01-4.26c0.3-2.93,3.84-5.69,5.18-6.51l3.46-2.11l-4-0.68
			c-1.54-0.26-5.88-1.52-7.46-4.15c-0.71-1.19-0.81-2.55-0.27-4.16c0.66-1.99,1.81-2.87,3.73-2.87c3.4,0,7.52,2.79,7.56,2.82
			l2.59,1.77l-0.21-3.13c-0.12-1.71,0.04-6.66,2.13-8.9c0.82-0.88,1.86-1.26,3.25-1.14c1.3,0.11,2.25,0.61,2.91,1.52
			c1.81,2.5,1.13,7.55,0.72,9.28l-0.76,3.21l2.93-1.51c0.03-0.02,3.41-1.74,6.54-1.74c2.62,0,4.02,1.16,4.54,3.76
			C184.35,141.5,184.1,142.85,183.24,143.9z"/>
		<path class="st0" d="M225.06,133.87c1.45-1.77,1.92-4.01,1.4-6.65c-0.79-4-3.46-6.21-7.51-6.21c-1.91,0-3.84,0.49-5.32,1
			c0.25-2.58,0.21-6.4-1.65-8.98c-1.19-1.65-2.92-2.58-5.12-2.77c-2.37-0.19-4.24,0.52-5.71,2.09c-2.13,2.28-2.76,5.95-2.92,8.46
			c-1.82-0.93-4.43-1.99-6.93-1.99c-3.21,0-5.56,1.76-6.61,4.95c-0.81,2.47-0.63,4.71,0.55,6.68c1.49,2.47,4.29,3.92,6.47,4.72
			c-1.74,1.57-3.78,3.97-4.07,6.85c-0.25,2.44,0.74,4.73,2.96,6.79c1.75,1.63,3.59,2.45,5.46,2.45c3.66,0,6.43-3.17,8.01-5.58
			c1.53,2.69,4.39,6.37,8.54,6.37c1.24,0,2.5-0.34,3.75-1c2.03-1.08,3.3-2.71,3.66-4.72c0.58-3.18-1.17-6.63-2.65-8.85
			C219.82,137.16,223.1,136.26,225.06,133.87z M217.03,145.8c-0.2,1.09-0.89,1.94-2.1,2.58c-0.8,0.43-1.58,0.64-2.32,0.64
			c-3.56,0-6.27-5.16-7.02-7.15l-1.3-3.47l-1.5,3.39c-0.8,1.79-3.56,6.45-6.73,6.45c-1.08,0-2.23-0.55-3.4-1.64
			c-1.5-1.4-2.16-2.79-2.01-4.26c0.3-2.93,3.84-5.7,5.18-6.51l3.45-2.1l-3.98-0.69c-0.05-0.01-5.58-1-7.47-4.15
			c-0.71-1.19-0.8-2.55-0.27-4.16c0.66-1.99,1.81-2.87,3.73-2.87c3.4,0,7.52,2.8,7.56,2.83l2.58,1.77l-0.21-3.13
			c-0.12-1.72,0.04-6.66,2.14-8.91c0.82-0.88,1.86-1.25,3.24-1.14c1.3,0.11,2.25,0.61,2.91,1.52c1.81,2.5,1.14,7.55,0.72,9.28
			l-0.76,3.21l2.93-1.51c0.03-0.02,3.41-1.74,6.54-1.74c2.62,0,4.02,1.16,4.54,3.76c0.34,1.74,0.09,3.09-0.77,4.14
			c-2.16,2.63-7.47,2.7-8.21,2.7l-3.46-0.09l2.28,2.6C214.54,138.55,217.58,142.8,217.03,145.8z"/>
		<path class="st0" d="M266.23,139.18c-0.79-4-3.46-6.21-7.51-6.21c-1.91,0-3.84,0.49-5.32,1c0.25-2.58,0.22-6.4-1.65-8.98
			c-1.19-1.65-2.91-2.58-5.12-2.77c-2.38-0.2-4.25,0.52-5.72,2.09c-2.13,2.28-2.76,5.95-2.92,8.46c-1.82-0.93-4.43-1.99-6.93-1.99
			c-3.21,0-5.56,1.76-6.61,4.96c-0.81,2.46-0.63,4.71,0.55,6.68c1.49,2.47,4.28,3.92,6.47,4.72c-1.74,1.56-3.78,3.97-4.07,6.85
			c-0.25,2.44,0.74,4.73,2.96,6.79c1.75,1.63,3.58,2.46,5.46,2.46c3.66,0,6.43-3.17,8.01-5.58c1.53,2.69,4.39,6.37,8.54,6.37
			c1.24,0,2.5-0.33,3.75-1c2.03-1.08,3.3-2.71,3.66-4.71c0.58-3.18-1.17-6.63-2.65-8.85c2.45-0.33,5.74-1.23,7.7-3.62
			C266.29,144.06,266.76,141.82,266.23,139.18z M262.49,143.9c-2.14,2.61-7.4,2.7-8.19,2.7c-0.01,0-0.01,0-0.02,0l-3.46-0.09
			l2.28,2.6c1.21,1.38,4.25,5.64,3.7,8.64c-0.2,1.09-0.89,1.94-2.1,2.58c-0.8,0.43-1.58,0.64-2.32,0.64c-3.56,0-6.28-5.16-7.02-7.15
			l-1.3-3.47l-1.5,3.39c-0.8,1.79-3.56,6.45-6.72,6.45c-1.08,0-2.22-0.55-3.39-1.64c-1.5-1.4-2.16-2.79-2.01-4.26
			c0.3-2.93,3.84-5.69,5.18-6.51l3.44-2.1l-3.97-0.69c-0.06-0.01-5.57-1-7.47-4.15c-0.71-1.19-0.8-2.55-0.27-4.16
			c0.66-1.99,1.81-2.87,3.73-2.87c3.4,0,7.52,2.8,7.56,2.82l2.59,1.77l-0.21-3.13c-0.12-1.72,0.04-6.66,2.13-8.91
			c0.82-0.88,1.86-1.26,3.25-1.14c1.3,0.11,2.25,0.61,2.91,1.52c1.81,2.5,1.13,7.55,0.72,9.28l-0.76,3.21l2.93-1.51
			c0.03-0.02,3.41-1.74,6.54-1.74c2.62,0,4.02,1.16,4.54,3.76C263.6,141.5,263.35,142.85,262.49,143.9z"/>
	</g>
	<g>
		<path class="st0" d="M244.73,148.93c-0.19,0-0.38-0.01-0.57-0.03c-1.25-0.15-2.38-0.78-3.16-1.77c-0.78-0.99-1.13-2.23-0.98-3.49
			c0.31-2.56,2.64-4.45,5.27-4.14c1.26,0.15,2.38,0.78,3.16,1.78c0.78,0.99,1.13,2.23,0.97,3.49
			C249.14,147.14,247.12,148.93,244.73,148.93z M244.73,142.5c-0.86,0-1.58,0.64-1.69,1.5c-0.05,0.45,0.07,0.89,0.35,1.25
			c0.28,0.36,0.68,0.58,1.13,0.64c0.95,0.12,1.78-0.57,1.89-1.49c0.05-0.45-0.07-0.9-0.35-1.25c-0.28-0.36-0.68-0.58-1.13-0.64
			C244.86,142.5,244.8,142.5,244.73,142.5z"/>
	</g>
	<g>
		<path class="st0" d="M275.6,121.12c-0.19,0-0.38-0.01-0.57-0.03c-1.26-0.15-2.38-0.78-3.16-1.77c-0.78-1-1.13-2.23-0.98-3.49
			c0.31-2.56,2.64-4.45,5.26-4.13c2.59,0.31,4.45,2.67,4.14,5.26C280.01,119.33,277.99,121.12,275.6,121.12z M275.59,114.69
			c-0.86,0-1.58,0.65-1.68,1.5c-0.06,0.45,0.07,0.9,0.35,1.25c0.28,0.36,0.68,0.58,1.13,0.64c0.95,0.12,1.78-0.56,1.89-1.49
			c0.11-0.93-0.56-1.78-1.49-1.89C275.73,114.7,275.66,114.69,275.59,114.69z"/>
	</g>
	<path class="st0" d="M305.53,167.24h-42.8l11.92-37.19c1.61,2.59,4.32,5.68,8.12,5.68c1.24,0,2.5-0.34,3.75-1
		c2.03-1.08,3.3-2.71,3.66-4.71c0.58-3.18-1.17-6.63-2.65-8.85c2.45-0.33,5.74-1.23,7.7-3.62c1.45-1.77,1.93-4.01,1.4-6.65
		c-0.79-4-3.46-6.21-7.51-6.21c-1.91,0-3.84,0.49-5.32,1c0.25-2.58,0.22-6.4-1.65-8.98c-1.19-1.65-2.91-2.58-5.11-2.77
		c-2.38-0.2-4.25,0.52-5.72,2.09c-2.13,2.28-2.76,5.95-2.92,8.46c-1.82-0.93-4.43-1.99-6.93-1.99c-3.21,0-5.56,1.76-6.61,4.95
		c-0.81,2.47-0.63,4.71,0.55,6.68c1.49,2.47,4.28,3.92,6.47,4.72c-1.74,1.56-3.78,3.97-4.07,6.85c-0.25,2.44,0.74,4.73,2.96,6.79
		c1.75,1.63,3.59,2.46,5.46,2.46c0,0,0,0,0,0c1.55,0,2.92-0.58,4.13-1.42l-10.81,33.73h-15.57l0.68-10.91l-3.03-0.19l-0.69,11.1
		h-20.7l9.91-58.44l-2.99-0.51l-10,58.95h-10.31l-1.16-24.9l-3.03,0.14l1.15,24.76h-9.85l-12.12-60.34l-2.97,0.6l12,59.74h-23.98
		l-0.68-12.96l-3.03,0.16l0.67,12.8h-14.44l-17.48-37.55l-2.75,1.28l16.89,36.27h-40.72l86.77,150.3l-28.49,49.34h83.61
		l-28.48-49.34L305.53,167.24z M266.22,131.9c-1.08,0-2.22-0.55-3.39-1.64c-1.5-1.4-2.16-2.79-2.01-4.26
		c0.3-2.93,3.84-5.69,5.18-6.51l3.44-2.1l-3.97-0.69c-0.06-0.01-5.57-1-7.47-4.15c-0.71-1.19-0.8-2.55-0.27-4.16
		c0.66-1.99,1.81-2.87,3.73-2.87c3.4,0,7.52,2.8,7.56,2.83l2.58,1.77l-0.2-3.12c-0.12-1.72,0.05-6.68,2.14-8.91
		c0.83-0.88,1.87-1.25,3.24-1.13c1.3,0.11,2.25,0.6,2.91,1.52c1.81,2.5,1.13,7.55,0.72,9.28l-0.76,3.21l2.93-1.51
		c0.03-0.02,3.41-1.74,6.54-1.74c2.62,0,4.02,1.16,4.54,3.76c0.35,1.74,0.09,3.09-0.77,4.14c-2.15,2.61-7.41,2.71-8.19,2.71
		c-0.01,0-0.01,0-0.02,0l-3.46-0.09l2.28,2.6c1.22,1.39,4.25,5.64,3.7,8.64c-0.2,1.09-0.89,1.93-2.1,2.58
		c-0.8,0.43-1.58,0.64-2.32,0.64c-3.56,0-6.28-5.16-7.02-7.15l-1.31-3.48l-1.5,3.4C272.15,127.25,269.4,131.9,266.22,131.9z
		 M239.36,362.33h-67.85l25.86-44.79l-84.15-145.75h184.43L213.5,317.54L239.36,362.33z"/>
</g>
</svg>
