<?xml version="1.0" encoding="utf-8"?>
<!-- Generator: Adobe Illustrator 24.2.1, SVG Export Plug-In . SVG Version: 6.00 Build 0)  -->
<svg version="1.1" id="Layer_1" xmlns="http://www.w3.org/2000/svg" xmlns:xlink="http://www.w3.org/1999/xlink" x="0px" y="0px"
	 viewBox="0 0 430.47 430.47" style="enable-background:new 0 0 430.47 430.47;" xml:space="preserve">
<style type="text/css">
	.st0{fill:#343466;}
</style>
<g>
	<g>
		<g>
			<path class="st0" d="M215.23,410.32c-107.57,0-195.09-87.52-195.09-195.09S107.66,20.15,215.23,20.15s195.09,87.52,195.09,195.09
				S322.8,410.32,215.23,410.32z M215.23,24.47c-105.19,0-190.76,85.58-190.76,190.76S110.05,406,215.23,406S406,320.42,406,215.23
				S320.42,24.47,215.23,24.47z"/>
		</g>
	</g>
	<g>
		<path class="st0" d="M286.27,168.68l-1.19-0.72c-1-0.61-24.5-15.1-24.06-28.86c0.37-11.49,7.7-13.21,12.03-13.21
			c4.93,0,10.02,2.08,12.24,3.11c2.24-1.31,7.59-4.07,12.79-4.07c3.91,0,10.68,1.69,12.02,12.97c1.57,13.21-20.2,28.32-22.69,30
			L286.27,168.68z M273.06,130.22c-3.18,0-7.45,0.93-7.71,9.02c-0.28,8.79,13.95,19.85,20.8,24.28
			c6.75-4.81,20.67-16.64,19.66-25.11c-0.98-8.21-4.88-9.15-7.73-9.15c-5.35,0-11.42,3.98-11.48,4.01l-1.07,0.71l-1.14-0.6
			C284.34,133.35,278.37,130.22,273.06,130.22z"/>
	</g>
	<g>
		<g>
			<path class="st0" d="M224.36,275.45c-3.83,0-6.47-3.43-7.87-5.91c-1.44,2.22-4,5.18-7.38,5.18c-1.72,0-3.4-0.76-5.01-2.25
				c-2.03-1.9-2.94-3.99-2.71-6.23c0.28-2.67,2.18-4.89,3.79-6.33c-2.02-0.73-4.62-2.06-6-4.36c-1.08-1.8-1.25-3.86-0.51-6.12
				c0.97-2.93,3.12-4.54,6.05-4.54c2.32,0,4.75,0.99,6.42,1.85c0.14-2.31,0.71-5.72,2.68-7.83c1.35-1.44,3.07-2.1,5.23-1.91
				c2.02,0.17,3.6,1.02,4.69,2.53c1.73,2.39,1.75,5.94,1.51,8.31c1.36-0.47,3.16-0.94,4.94-0.94c3.71,0,6.16,2.02,6.88,5.69
				c0.48,2.43,0.05,4.48-1.28,6.09c-1.82,2.21-4.87,3.03-7.13,3.33c1.36,2.04,3.01,5.24,2.47,8.18c-0.34,1.83-1.5,3.33-3.35,4.31
				C226.65,275.14,225.5,275.45,224.36,275.45z M216.69,263l1.17,3.12c0.69,1.84,3.2,6.62,6.51,6.62c0.69,0,1.41-0.2,2.16-0.6
				c1.13-0.6,1.77-1.39,1.96-2.4c0.51-2.77-2.3-6.71-3.42-8l-2.04-2.33l3.09,0.08c0.01,0,0.01,0,0.01,0c0.73,0,5.6-0.09,7.59-2.5
				c0.8-0.98,1.03-2.23,0.72-3.85c-0.47-2.39-1.82-3.5-4.22-3.5c-2.87,0-6.01,1.59-6.04,1.61l-2.62,1.34l0.68-2.87
				c0.38-1.6,1-6.27-0.67-8.59c-0.62-0.85-1.5-1.31-2.71-1.42c-1.27-0.1-2.25,0.24-3.02,1.06c-1.94,2.08-2.08,6.65-1.98,8.24
				l0.19,2.8l-2.31-1.59c-0.04-0.03-3.84-2.61-6.99-2.61c-1.77,0-2.87,0.85-3.48,2.67c-0.49,1.49-0.41,2.76,0.25,3.86
				c1.75,2.92,6.86,3.84,6.91,3.85l3.56,0.62l-3.09,1.88c-1.24,0.76-4.51,3.31-4.79,6.03c-0.14,1.36,0.47,2.66,1.86,3.96
				c1.08,1.01,2.15,1.52,3.16,1.52c2.95,0,5.5-4.3,6.23-5.96L216.69,263z"/>
		</g>
		<g>
			<path class="st0" d="M217.31,261.55c-0.17,0-0.34-0.01-0.52-0.03c-2.37-0.29-4.06-2.44-3.78-4.81c0.29-2.34,2.42-4.05,4.81-3.78
				c2.36,0.28,4.06,2.44,3.78,4.8C221.34,259.91,219.5,261.55,217.31,261.55z M217.31,255.62c-0.81,0-1.5,0.61-1.6,1.42
				c-0.1,0.88,0.53,1.68,1.41,1.79c0.82,0.09,1.68-0.54,1.79-1.41c0.1-0.88-0.52-1.68-1.4-1.79
				C217.44,255.62,217.38,255.62,217.31,255.62z"/>
		</g>
	</g>
	<path class="st0" d="M273.95,254.88c0-33.59-25.21-60.92-56.2-60.92s-56.2,27.33-56.2,60.92c0,30.09,20.05,55.38,47.11,60.12
		l-6.49,11.24h12.3c-2.93,2.71-6.96,7.34-6.91,12.2c0.03,3.12,1.68,5.81,4.91,8.01c5.73,3.92,6.82,6.14,6.72,7.31
		c-0.15,1.84-3.52,3.59-6.97,5.22c-1.27,0.6-2.04,1.46-2.28,2.56c-0.49,2.27,1.5,4.63,3.61,7.14c1.53,1.82,3.44,4.09,3.28,5.35
		c-0.03,0.19-0.12,0.5-0.63,0.85c-4.04,2.86-6.26,5.82-6.6,8.8c-0.31,2.75,1.09,4.42,1.26,4.6l2.03-1.8
		c-0.01-0.01-0.76-0.94-0.59-2.49c0.17-1.5,1.26-3.91,5.47-6.9c1.02-0.72,1.61-1.64,1.75-2.73c0.31-2.44-1.83-4.99-3.9-7.45
		c-1.37-1.62-3.24-3.85-3.03-4.81c0.06-0.28,0.46-0.53,0.79-0.68c4.66-2.21,8.25-4.16,8.51-7.46c0.23-2.86-2.21-5.87-7.9-9.76
		c-2.48-1.7-3.7-3.59-3.72-5.8c-0.06-5.38,6.81-10.96,8.39-12.17h14.66L226.84,315C253.91,310.25,273.95,284.97,273.95,254.88z
		 M223.34,311.4l-3.08,0.36l6.02,10.41h-17.05l6.02-10.41l-3.08-0.36c-26.53-3.09-46.54-27.38-46.54-56.52
		c0-31.35,23.39-56.85,52.13-56.85c28.74,0,52.13,25.5,52.13,56.85C269.88,284.01,249.87,308.31,223.34,311.4z"/>
	<path class="st0" d="M343.23,126.66c-2.91-25.22-16.13-30.52-26.71-30.52c-13.48,0-27.53,8.35-31.54,10.93
		c-4.03-2.07-17.6-8.5-30.58-8.5c-11.71,0-25.82,5.34-26.59,30.79c-0.83,27.8,38.51,57.93,53.18,68.17l-7.9,13.69h11.62
		c-3.16,3.06-7.07,7.87-7.02,12.9c0.04,3.44,1.86,6.42,5.43,8.85c6.39,4.37,7.61,6.86,7.5,8.18c-0.16,2.09-3.78,3.96-7.78,5.86
		c-1.39,0.66-2.23,1.6-2.49,2.8c-0.54,2.49,1.66,5.11,4,7.88c1.71,2.04,3.85,4.57,3.67,6c-0.03,0.23-0.14,0.58-0.72,1
		c-4.48,3.17-6.93,6.44-7.31,9.74c-0.35,3.02,1.2,4.86,1.38,5.06l2.17-1.9c-0.04-0.05-0.91-1.11-0.68-2.91
		c0.22-1.67,1.45-4.34,6.11-7.64c1.12-0.79,1.76-1.8,1.92-2.98c0.34-2.69-2.03-5.5-4.32-8.23c-1.53-1.82-3.62-4.31-3.39-5.41
		c0.07-0.34,0.54-0.63,0.91-0.8c5.16-2.45,9.14-4.6,9.42-8.24c0.25-3.15-2.45-6.48-8.75-10.79c-2.78-1.9-4.14-4.03-4.17-6.5
		c-0.06-5.27,5.83-10.7,8.47-12.88h12.34l-8.08-14C307.66,186.21,346.35,153.77,343.23,126.66z M289.17,194.93l-1.53,1.15
		l6.25,10.82h-13.31l6.16-10.67l-1.65-1.13c-12.62-8.63-53.75-38.88-52.95-65.61c0.54-17.89,7.83-26.59,22.27-26.59
		c14,0,29.5,8.49,29.65,8.58l1.17,0.65l1.1-0.76c0.16-0.11,15.95-10.89,30.19-10.89c12.83,0,20.37,8.98,22.41,26.69
		C341.91,153.01,301.6,185.57,289.17,194.93z"/>
	<g>
		<path class="st0" d="M141.08,168.68l-1.19-0.72c-1-0.61-24.5-15.1-24.06-28.86c0.37-11.49,7.7-13.21,12.03-13.21
			c4.93,0,10.02,2.08,12.24,3.11c2.24-1.31,7.59-4.07,12.79-4.07c3.91,0,10.68,1.69,12.02,12.97c1.57,13.21-20.2,28.32-22.69,30
			L141.08,168.68z M127.87,130.22c-3.18,0-7.45,0.93-7.71,9.02c-0.28,8.79,13.95,19.85,20.8,24.28
			c6.75-4.81,20.67-16.64,19.66-25.11c-0.98-8.21-4.88-9.15-7.73-9.15c-5.35,0-11.42,3.98-11.48,4.01l-1.07,0.71l-1.14-0.6
			C139.15,133.35,133.18,130.22,127.87,130.22z"/>
	</g>
	<path class="st0" d="M198.04,126.66c-2.91-25.22-16.13-30.52-26.71-30.52c-13.48,0-27.53,8.35-31.54,10.93
		c-4.03-2.07-17.6-8.5-30.58-8.5c-11.71,0-25.82,5.34-26.59,30.79c-0.83,27.8,38.51,57.93,53.18,68.17l-7.9,13.69h11.62
		c-3.16,3.06-7.07,7.87-7.02,12.9c0.04,3.44,1.86,6.42,5.43,8.85c6.39,4.37,7.61,6.86,7.5,8.18c-0.16,2.09-3.78,3.96-7.78,5.86
		c-1.4,0.66-2.23,1.6-2.49,2.8c-0.54,2.49,1.66,5.11,4,7.88c1.71,2.04,3.85,4.57,3.67,6c-0.03,0.23-0.14,0.58-0.72,1
		c-4.48,3.17-6.93,6.44-7.31,9.74c-0.35,3.02,1.2,4.86,1.38,5.06l2.17-1.9c-0.04-0.05-0.91-1.11-0.68-2.91
		c0.22-1.67,1.45-4.34,6.11-7.64c1.12-0.79,1.76-1.8,1.92-2.98c0.34-2.69-2.03-5.5-4.32-8.23c-1.53-1.82-3.63-4.31-3.39-5.41
		c0.07-0.34,0.54-0.63,0.91-0.8c5.16-2.45,9.14-4.6,9.42-8.24c0.25-3.15-2.45-6.48-8.75-10.79c-2.78-1.9-4.14-4.03-4.17-6.5
		c-0.06-5.27,5.83-10.7,8.46-12.88h12.34l-8.08-14C162.47,186.21,201.16,153.77,198.04,126.66z M143.99,194.93l-1.53,1.15
		l6.25,10.82h-13.31l6.16-10.67l-1.65-1.13c-12.62-8.63-53.75-38.88-52.95-65.61c0.54-17.89,7.83-26.59,22.27-26.59
		c14,0,29.5,8.49,29.65,8.58l1.17,0.65l1.1-0.76c0.16-0.11,15.95-10.89,30.19-10.89c12.83,0,20.37,8.98,22.41,26.69
		C196.72,153.01,156.41,185.57,143.99,194.93z"/>
</g>
</svg>
