<?xml version="1.0" encoding="utf-8"?>
<!-- Generator: Adobe Illustrator 24.2.1, SVG Export Plug-In . SVG Version: 6.00 Build 0)  -->
<svg version="1.1" id="Layer_1" xmlns="http://www.w3.org/2000/svg" xmlns:xlink="http://www.w3.org/1999/xlink" x="0px" y="0px"
	 viewBox="0 0 430.47 430.47" style="enable-background:new 0 0 430.47 430.47;" xml:space="preserve">
<style type="text/css">
	.st0{fill:#343466;}
</style>
<g>
	<g>
		<g>
			<path class="st0" d="M215.23,411.32c-108.12,0-196.08-87.96-196.08-196.09c0-108.12,87.96-196.08,196.08-196.08
				c108.12,0,196.09,87.96,196.09,196.08C411.32,323.36,323.35,411.32,215.23,411.32z M215.23,23.5
				C109.51,23.5,23.5,109.51,23.5,215.23c0,105.72,86.01,191.74,191.74,191.74c105.72,0,191.74-86.01,191.74-191.74
				C406.97,109.51,320.96,23.5,215.23,23.5z"/>
		</g>
	</g>
	<g>
		<g>
			<path class="st0" d="M314.12,280.32c-3.76,0-6.36-3.29-7.77-5.74c-1.46,2.2-3.97,5.02-7.29,5.02c-1.73,0-3.42-0.76-5.02-2.25
				c-2.03-1.89-2.94-3.99-2.71-6.24c0.27-2.59,2.08-4.77,3.65-6.2c-1.98-0.74-4.48-2.06-5.82-4.29c-1.09-1.81-1.26-3.87-0.51-6.14
				c0.97-2.94,3.13-4.56,6.08-4.56c2.24,0,4.58,0.93,6.24,1.77c0.16-2.29,0.75-5.58,2.67-7.64c1.35-1.45,3.09-2.1,5.26-1.92
				c2,0.17,3.63,1.05,4.71,2.55c1.69,2.33,1.75,5.76,1.53,8.12c1.34-0.45,3.06-0.88,4.76-0.88c3.72,0,6.18,2.03,6.9,5.71
				c0.48,2.43,0.05,4.48-1.28,6.11c-1.77,2.16-4.71,2.99-6.95,3.31c1.34,2.04,2.89,5.14,2.36,8.02c-0.34,1.85-1.5,3.35-3.37,4.34
				C316.42,280.01,315.26,280.32,314.12,280.32z M306.55,267.62l1.25,3.33c0.67,1.8,3.12,6.46,6.32,6.46c0.66,0,1.36-0.2,2.08-0.58
				c1.08-0.58,1.7-1.33,1.88-2.3c0.49-2.69-2.26-6.55-3.36-7.81l-2.17-2.48l3.3,0.08h0.01c0.71,0,5.47-0.08,7.41-2.44
				c0.77-0.94,0.99-2.15,0.68-3.71c-0.46-2.33-1.72-3.37-4.06-3.37c-2.8,0-5.89,1.56-5.92,1.58l-2.8,1.43l0.72-3.06
				c0.37-1.57,0.98-6.14-0.65-8.4c-0.59-0.81-1.44-1.25-2.6-1.35c-1.22-0.1-2.16,0.23-2.9,1.01c-1.89,2.02-2.03,6.5-1.92,8.06
				l0.2,2.99l-2.47-1.7c-0.04-0.03-3.77-2.56-6.84-2.56c-1.72,0-2.74,0.79-3.33,2.57c-0.48,1.44-0.4,2.66,0.24,3.73
				c1.42,2.36,5.35,3.51,6.75,3.75l3.8,0.66l-3.29,2.01c-1.21,0.74-4.41,3.23-4.68,5.87c-0.14,1.31,0.46,2.56,1.81,3.82
				c1.05,0.98,2.07,1.47,3.04,1.47c2.84,0,5.39-4.31,6.06-5.82L306.55,267.62z"/>
		</g>
		<g>
			<path class="st0" d="M307.6,266.59c-0.18,0-0.35-0.01-0.53-0.03c-2.39-0.29-4.11-2.47-3.83-4.87c0.29-2.37,2.45-4.1,4.87-3.83
				c2.39,0.29,4.11,2.47,3.82,4.87C311.68,264.93,309.81,266.59,307.6,266.59z M307.59,260.73c-0.75,0-1.38,0.56-1.47,1.3
				c-0.1,0.81,0.49,1.55,1.3,1.64c0.78,0.1,1.55-0.49,1.64-1.29c0.1-0.81-0.48-1.55-1.29-1.65
				C307.71,260.74,307.65,260.73,307.59,260.73z"/>
		</g>
	</g>
	<g>
		<path class="st0" d="M209.72,269.15l-1.14-0.67c-1.31-0.76-32.01-18.91-31.53-35.81c0.29-10.25,5.59-15.89,14.91-15.89
			c6.68,0,13.67,2.88,16.32,4.1c2.63-1.47,9.71-5.05,16.61-5.05c6.06,0,13.64,2.74,15.35,15.8c2.17,16.54-28.11,36-29.4,36.82
			L209.72,269.15z M191.96,221.13c-6.98,0-10.34,3.71-10.57,11.67c-0.33,11.39,19.28,25.78,28.23,31.25
			c8.77-5.82,27.74-20.9,26.3-31.86c-1.06-8.09-4.67-12.02-11.04-12.02c-7.26,0-15.27,4.96-15.35,5.01l-1.04,0.65l-1.1-0.56
			C207.32,225.23,199.18,221.13,191.96,221.13z"/>
	</g>
	<g>
		<path class="st0" d="M112.86,283.32l-0.76-0.45c-0.82-0.48-20.01-11.82-19.7-22.41c0.18-6.45,3.52-10,9.39-10
			c4.15,0,8.48,1.77,10.17,2.54c1.68-0.94,6.08-3.14,10.36-3.14c3.81,0,8.59,1.72,9.66,9.93c1.36,10.37-17.57,22.54-18.37,23.05
			L112.86,283.32z M101.79,253.36c-4.29,0-6.36,2.28-6.49,7.19c-0.2,7.03,11.91,15.95,17.5,19.37c5.47-3.64,17.2-12.98,16.31-19.74
			c-0.65-4.99-2.87-7.41-6.79-7.41c-4.5,0-9.47,3.08-9.52,3.11l-0.69,0.44l-0.73-0.37C111.32,255.9,106.26,253.36,101.79,253.36z"/>
	</g>
	<path class="st0" d="M277.26,278.5c-3.18-3.82-4.73-8.73-4.37-13.69c0.97-13.08,1.52-24.12,1.52-36.83
		c0-36.99-19.42-65.43-48.07-73.42c26.46-6.64,49.31-23.44,53.1-40.53c1.71-7.74,0.5-18.89-14.98-28.08
		c-7.27-4.32-14.13-6.5-20.37-6.5c-23.71,0-32.29,30.11-35.4,51.66c-3.1-21.55-11.68-51.66-35.4-51.66c-6.24,0-13.1,2.19-20.37,6.5
		c-15.48,9.19-16.69,20.34-14.98,28.08c3.86,17.43,27.55,34.55,54.67,40.91c-27.67,8.92-46.96,39.61-46.96,78.29
		c0,2.61-0.01,4.93-0.03,7.07c-0.05,8.35-0.08,14.03,0.7,24.49c0.35,4.6-1.22,9.15-4.31,12.58l-12.84,14.27
		c0,0,1.72,22.52,25.25,22.52h16.39c1.5,14.87,14.81,23.01,37.87,23.01s36.36-8.14,37.86-23.01h16.45
		c23.41,0,25.18-22.53,25.18-22.53L277.26,278.5z M244.1,83.8c5.45,0,11.56,1.98,18.15,5.9c10.48,6.22,14.96,14.32,12.95,23.4
		c-3.98,17.96-31.66,35.64-61.14,39.38c-0.92-0.06-1.85-0.11-2.78-0.13C211.31,149.34,212.27,83.8,244.1,83.8z M142.2,113.1
		c-2.01-9.09,2.47-17.18,12.95-23.4c6.59-3.91,12.7-5.9,18.15-5.9c32.08,0,32.8,66.59,32.81,68.6c-0.65,0.04-1.29,0.11-1.93,0.17
		C174.39,149.06,146.21,131.22,142.2,113.1z M208.7,332.83c-14.49,0-31.58-3.34-33.48-18.66h66.97
		C240.28,329.49,223.19,332.83,208.7,332.83z M263.01,308.37H154.45c-10.05,0-18.12-6.24-19.27-14.7l13.01-14.47
		c3.03-3.37,4.59-7.81,4.32-12.34c-0.46-7.73-1.11-19.93-1.07-26.54c0.01-2.15,0.03-4.48,0.03-7.1c0-42.84,24.95-75.14,58.05-75.14
		c34.8,0,59.11,28.74,59.11,69.89c0,10.55-1.09,28.63-1.77,38.84c-0.32,4.9,1.24,9.72,4.38,13.49l11.12,13.37
		C281.71,301.87,273.28,308.37,263.01,308.37z"/>
</g>
</svg>
