<?xml version="1.0" encoding="utf-8"?>
<!-- Generator: Adobe Illustrator 24.2.1, SVG Export Plug-In . SVG Version: 6.00 Build 0)  -->
<svg version="1.1" id="Layer_1" xmlns="http://www.w3.org/2000/svg" xmlns:xlink="http://www.w3.org/1999/xlink" x="0px" y="0px"
	 viewBox="0 0 430.47 430.47" style="enable-background:new 0 0 430.47 430.47;" xml:space="preserve">
<style type="text/css">
	.st0{fill:#343466;}
</style>
<g>
	<g>
		<path class="st0" d="M215.23,416.68c-111.08,0-201.45-90.37-201.45-201.45S104.16,13.79,215.23,13.79s201.45,90.37,201.45,201.45
			S326.31,416.68,215.23,416.68z M215.23,18.25c-108.62,0-196.98,88.37-196.98,196.98s88.37,196.98,196.98,196.98
			s196.98-88.37,196.98-196.98S323.85,18.25,215.23,18.25z"/>
	</g>
	<g>
		<path class="st0" d="M256.39,129.45l-7.98-0.01c-0.87,0-21.4-0.23-29.51-17.8c-3.22-6.96-2.79-12.34,1.26-16
			c1.63-1.48,3.78-2.25,6.2-2.25c3.28,0,6.71,1.44,8.96,3.77c1.62,1.68,2.48,3.71,2.41,5.73c-0.46,13.17,11.98,21.94,12.1,22.03
			L256.39,129.45z M226.36,98.36c-0.82,0-1.97,0.17-2.87,0.97c-1.46,1.31-3.05,3.8-0.08,10.22c3.92,8.48,11.57,12.14,17.38,13.72
			c-3.98-4.56-8.35-11.63-8.04-20.56c0.03-0.88-0.62-1.69-1.02-2.1C230.43,99.26,228.27,98.36,226.36,98.36z"/>
	</g>
	<g>
		<path class="st0" d="M249.5,124.48l0.15-7.98c0-0.27,0.06-15.43-10.79-22.7c-2.76-1.85-3.98-5.58-3.18-9.75
			c0.86-4.5,3.83-7.93,7.57-8.74c5.27-1.13,9.98,1.69,13.72,8.33c9.51,16.85-2.31,33.64-2.82,34.35L249.5,124.48z M245.49,80.04
			c-0.38,0-0.78,0.05-1.19,0.13c-2.03,0.44-3.34,2.73-3.73,4.81c-0.4,2.07,0.04,3.99,1.06,4.68c7.41,4.96,10.6,12.62,11.97,18.51
			c2.11-5.65,3.6-13.99-0.96-22.08C250.34,82.02,248,80.04,245.49,80.04z"/>
	</g>
	<g>
		<path class="st0" d="M233.93,93.17l-3.71-7.06c-0.1-0.19-4.64-8.45-12.64-9.15c-2.51-0.22-4.67-2.21-5.64-5.18
			c-1.03-3.18-0.3-6.44,1.85-8.3c2.94-2.55,6.84-2.52,11.5,0.37c11.21,6.94,9.67,20.81,9.6,21.39L233.93,93.17z M218.73,66.6
			c-0.65,0-1.17,0.19-1.68,0.63c-0.72,0.63-0.7,2-0.37,3.01c0.36,1.1,1.01,1.73,1.34,1.76c4.76,0.41,8.51,2.67,11.23,5.1
			c-0.9-3.17-2.76-6.66-6.57-9.02C221.08,67.09,219.76,66.6,218.73,66.6z"/>
	</g>
	<path class="st0" d="M321.26,301.22c-1.06-4.65-7.22-7.31-16.89-7.31c-3.23,0-6.73,0.32-10.32,0.9l-13.97-61.29
		c4.12-1.97,7.62-5.04,10.1-8.99c3.46-5.51,4.58-12.04,3.13-18.39l-17.26-75.7l-47.52,10.83l17.26,75.7
		c2.4,10.55,11.25,18.08,21.87,18.88l14.12,61.97c-11.48,3.86-20.68,10.16-19.18,16.77c0.75,3.27,5.3,3.27,7.24,3.27
		c12.5,0,45.96-7.71,50.59-13.52C321.47,303.04,321.4,301.83,321.26,301.22z M288.95,294.84l-2.61,0.6l-13.61-59.74
		c0.75-0.1,1.5-0.21,2.24-0.38c0.13-0.03,0.26-0.08,0.4-0.11L288.95,294.84z M234.49,145.01l37.82-8.62l7.99,35.03l-37.82,8.62
		L234.49,145.01z M250.65,215.86l-7.06-30.97l37.81-8.62l7.06,30.98c1.15,5.05,0.27,10.24-2.49,14.63c-2.27,3.6-5.59,6.29-9.5,7.77
		l-5.31,1.21c-0.54,0.05-1.09,0.09-1.63,0.09C260.44,230.95,252.67,224.75,250.65,215.86z M269.85,312.88
		c-1.18,0-1.92-0.08-2.37-0.16c0.74-3.18,9.24-9.05,22.79-12.13c4.91-1.12,9.78-1.71,14.1-1.71c7.07,0,10.63,1.51,11.7,2.81
		C311.33,305.31,282.28,312.88,269.85,312.88z"/>
	<g>
		<path class="st0" d="M161.71,128.78l6.56-4.54c0.14-0.1,12.56-8.93,12.11-22.03c-0.07-2.02,0.79-4.05,2.41-5.73
			c2.25-2.32,5.68-3.76,8.96-3.76c2.42,0,4.56,0.78,6.2,2.25c4.06,3.66,4.48,9.04,1.26,16c-8.11,17.57-28.64,17.8-29.51,17.8
			L161.71,128.78z M191.74,97.69c-1.92,0-4.08,0.9-5.38,2.25c-0.39,0.41-1.05,1.22-1.02,2.1c0.31,8.91-4.04,15.98-8.01,20.54
			c5.82-1.59,13.46-5.26,17.35-13.69c2.97-6.42,1.37-8.91-0.08-10.22C193.71,97.86,192.55,97.69,191.74,97.69z"/>
	</g>
	<g>
		<path class="st0" d="M168.6,123.8l-4.66-6.48c-0.51-0.71-12.32-17.5-2.82-34.35c3.74-6.64,8.46-9.46,13.72-8.33
			c3.74,0.81,6.71,4.24,7.57,8.74c0.8,4.16-0.42,7.9-3.18,9.75c-10.95,7.33-10.8,22.54-10.8,22.7L168.6,123.8z M172.61,79.37
			c-2.52,0-4.86,1.98-7.15,6.04c-4.59,8.14-3.08,16.48-0.97,22.12c1.36-5.89,4.56-13.57,11.98-18.54c1.02-0.68,1.46-2.61,1.06-4.68
			c-0.4-2.08-1.71-4.37-3.74-4.81C173.39,79.42,172.99,79.37,172.61,79.37z"/>
	</g>
	<g>
		<path class="st0" d="M184.16,92.41l-0.96-7.84c-0.07-0.59-1.61-14.45,9.6-21.4c4.66-2.89,8.56-2.92,11.5-0.37
			c2.15,1.86,2.88,5.12,1.85,8.3c-0.96,2.97-3.12,4.96-5.64,5.18c-8.06,0.7-12.6,9.07-12.64,9.15L184.16,92.41z M199.37,65.92
			c-1.03,0-2.36,0.5-3.94,1.48c-3.81,2.36-5.68,5.85-6.57,9.02c2.72-2.43,6.47-4.69,11.23-5.1c0.33-0.03,0.98-0.65,1.34-1.76
			c0.33-1.01,0.35-2.38-0.37-3.01C200.54,66.12,200.02,65.92,199.37,65.92z"/>
	</g>
	<path class="st0" d="M142.04,129.76l-17.26,75.71c-1.45,6.34-0.34,12.88,3.13,18.39c2.49,3.96,5.99,7.03,10.1,8.99l-13.97,61.29
		c-3.58-0.58-7.09-0.9-10.32-0.9c-9.67,0-15.83,2.67-16.89,7.31c-0.14,0.61-0.22,1.83,0.81,3.12c4.63,5.81,38.1,13.52,50.59,13.52
		c1.94,0,6.5,0,7.24-3.27c1.51-6.61-7.7-12.91-19.18-16.77l14.13-61.97c10.61-0.8,19.46-8.33,21.87-18.88l17.26-75.7L142.04,129.76z
		 M150.62,312.05c-0.45,0.08-1.2,0.16-2.37,0.16c-12.43,0-41.48-7.57-46.22-11.19c1.07-1.3,4.63-2.81,11.7-2.81
		c4.32,0,9.2,0.59,14.1,1.71C141.38,303.01,149.88,308.87,150.62,312.05z M131.75,294.76l-2.61-0.59l13.59-59.64
		c0.13,0.03,0.26,0.08,0.4,0.11c0.74,0.17,1.49,0.28,2.24,0.38L131.75,294.76z M167.45,215.19c-2.02,8.88-9.79,15.09-18.89,15.08
		c-0.54,0-1.09-0.05-1.63-0.09l-5.31-1.21c-3.91-1.49-7.23-4.17-9.5-7.77c-2.76-4.39-3.64-9.58-2.49-14.63l7.06-30.97l37.82,8.62
		L167.45,215.19z M137.8,170.75l7.99-35.03l37.82,8.62l-7.99,35.03L137.8,170.75z"/>
</g>
</svg>
