<?xml version="1.0" encoding="utf-8"?>
<!-- Generator: Adobe Illustrator 24.2.1, SVG Export Plug-In . SVG Version: 6.00 Build 0)  -->
<svg version="1.1" id="Layer_1" xmlns="http://www.w3.org/2000/svg" xmlns:xlink="http://www.w3.org/1999/xlink" x="0px" y="0px"
	 viewBox="0 0 430.47 430.47" style="enable-background:new 0 0 430.47 430.47;" xml:space="preserve">
<style type="text/css">
	.st0{fill:#343466;}
</style>
<g>
	<g>
		<path class="st0" d="M215.23,424.34c-115.3,0-209.11-93.8-209.11-209.11C6.13,99.93,99.93,6.13,215.23,6.13
			s209.11,93.81,209.11,209.11C424.34,330.54,330.54,424.34,215.23,424.34z M215.23,10.76c-112.75,0-204.47,91.73-204.47,204.47
			c0,112.75,91.73,204.47,204.47,204.47S419.7,327.98,419.7,215.23C419.7,102.49,327.98,10.76,215.23,10.76z"/>
	</g>
	<g>
		<path class="st0" d="M69.71,231.05l-1.14-0.7c-2-1.22-19.56-12.25-19.2-23.16c0.3-9.4,6.32-10.81,9.88-10.81
			c3.84,0,7.8,1.57,9.66,2.41c1.89-1.09,6.07-3.18,10.14-3.18c3.22,0,8.78,1.37,9.88,10.58c1.27,10.67-16.13,22.75-18.11,24.09
			L69.71,231.05z M59.25,200.55c-2.56,0-5.53,0.77-5.73,6.78c-0.22,6.7,10.63,15.2,16.07,18.75c5.36-3.85,15.97-12.93,15.2-19.38
			c-0.74-6.2-3.63-6.91-5.75-6.91c-4.11,0-8.83,3.08-8.88,3.11l-1.03,0.68l-1.1-0.58C68,202.99,63.35,200.55,59.25,200.55z"/>
	</g>
	<g>
		<path class="st0" d="M235.58,86.65l-1.14-0.7c-2-1.22-19.56-12.25-19.2-23.16c0.3-9.4,6.32-10.81,9.88-10.81
			c3.84,0,7.8,1.57,9.66,2.41c1.89-1.09,6.07-3.18,10.14-3.18c3.22,0,8.78,1.37,9.88,10.58c1.27,10.67-16.13,22.75-18.11,24.09
			L235.58,86.65z M225.12,56.15c-2.56,0-5.53,0.77-5.73,6.78c-0.22,6.7,10.63,15.2,16.07,18.75c5.36-3.85,15.97-12.93,15.2-19.38
			c-0.74-6.2-3.63-6.91-5.75-6.91c-4.11,0-8.83,3.08-8.88,3.11l-1.03,0.68l-1.1-0.58C233.88,58.58,229.23,56.15,225.12,56.15z"/>
	</g>
	<g>
		<path class="st0" d="M314.57,331.06l-1.14-0.7c-2-1.22-19.56-12.25-19.2-23.16c0.3-9.4,6.32-10.81,9.88-10.81
			c3.84,0,7.8,1.57,9.66,2.41c1.89-1.09,6.07-3.18,10.14-3.18c3.22,0,8.78,1.37,9.88,10.58c1.27,10.67-16.13,22.75-18.11,24.09
			L314.57,331.06z M304.11,300.56c-2.56,0-5.53,0.77-5.73,6.78c-0.22,6.7,10.63,15.2,16.07,18.75c5.36-3.85,15.97-12.93,15.2-19.38
			c-0.74-6.2-3.63-6.91-5.75-6.91c-4.11,0-8.83,3.08-8.88,3.11L314,303.6l-1.1-0.58C312.86,302.99,308.21,300.56,304.11,300.56z"/>
	</g>
	<g>
		<path class="st0" d="M216.05,284.44l-1.53-1.07c-2.64-1.85-64.77-45.81-63.47-85.69c0.99-30.13,16.45-36.45,29.26-36.45
			c14.23,0,29.13,7.7,33.82,10.33c4.63-3.15,19.8-12.67,34.43-12.67c11.82,0,26.54,6.35,29.6,36.61
			c3.93,38.83-57.98,85.84-60.62,87.82L216.05,284.44z M180.3,166.38c-15.32,0-23.43,10.59-24.11,31.47
			c-1.1,33.82,50.16,73.14,59.75,80.19c9.46-7.45,60.42-49.24,57.09-82.03c-2.15-21.22-10.38-31.97-24.48-31.97
			c-15.45,0-32.6,12.52-32.77,12.65l-1.39,1.03l-1.48-0.9C212.74,176.71,195.64,166.38,180.3,166.38z"/>
	</g>
	<polygon class="st0" points="182.2,254.41 179.03,251.03 132.24,294.77 127.97,276.15 107.14,321.4 153.7,303.67 135.4,298.16 	"/>
	<g>
		<polygon class="st0" points="319.92,148.94 294.22,147.91 294.82,143.32 		"/>
	</g>
	<g>
		<path class="st0" d="M352.98,102.74c-0.75-3.83-3.27-5.94-7.1-5.94c-1.7,0-3.41,0.42-4.76,0.87c0.22-2.45,0.14-5.95-1.61-8.37
			c-1.11-1.54-2.78-2.44-4.82-2.62c-2.2-0.2-4.01,0.5-5.38,1.97c-1.99,2.13-2.61,5.48-2.77,7.86c-1.69-0.85-4.03-1.78-6.28-1.78
			c-3.04,0-5.27,1.69-6.26,4.75c-0.77,2.37-0.59,4.53,0.55,6.42c1.36,2.26,3.86,3.62,5.86,4.38c-1.6,1.48-3.41,3.72-3.68,6.38
			c-0.16,1.54,0.2,3.01,1.05,4.4l-12.68,11.86l-1.88-21.08L301,136.75l-3.27,3.06l-1.8-23.42l-2.07,27.04l-74.47,69.61l3.17,3.39
			l74.67-69.8h1.02l-0.02-0.27l28.61,1.5l-25.24-5.32l19.45-18.19c1.17,0.75,2.38,1.15,3.61,1.15c0,0,0,0,0,0
			c3.4,0,5.93-2.82,7.42-5.1c1.47,2.53,4.11,5.84,7.91,5.84c1.18,0,2.37-0.32,3.55-0.96c1.91-1.03,3.1-2.59,3.45-4.5
			c0.54-2.96-1.01-6.17-2.37-8.28c2.26-0.33,5.2-1.2,6.99-3.38C353.02,107.43,353.48,105.28,352.98,102.74z M349.24,107.16
			c-1.96,2.38-6.74,2.47-7.46,2.47c0,0-0.01,0-0.01,0l-3.49-0.09l2.28,2.64c1.12,1.29,3.91,5.27,3.4,8.05
			c-0.18,0.98-0.8,1.75-1.88,2.34c-0.72,0.39-1.42,0.59-2.08,0.59c-3.22,0-5.69-4.8-6.37-6.65l-1.33-3.61l-1.53,3.53
			c-0.67,1.55-3.24,5.98-6.1,5.98c-0.96,0-1.99-0.5-3.04-1.5c-1.37-1.29-1.96-2.58-1.82-3.93c0.28-2.71,3.52-5.28,4.75-6.03
			l3.44-2.13l-3.99-0.71c-1.4-0.25-5.36-1.42-6.81-3.82c-0.66-1.1-0.74-2.36-0.26-3.86c0.59-1.81,1.61-2.62,3.32-2.62
			c3.1,0,6.88,2.6,6.91,2.63l2.64,1.84l-0.22-3.21c-0.11-1.61,0.03-6.26,1.97-8.32c0.74-0.79,1.64-1.1,2.86-1
			c1.16,0.1,1.98,0.53,2.57,1.35c1.68,2.31,1.05,7.05,0.67,8.68l-0.77,3.29l2.99-1.57c0.86-0.45,3.62-1.62,5.98-1.62
			c2.35,0,3.6,1.06,4.07,3.44C350.26,104.95,350.03,106.2,349.24,107.16z"/>
		<path class="st0" d="M333.46,102.94c-2.5-0.29-4.74,1.52-5.04,4c-0.29,2.5,1.48,4.77,3.96,5.08c0.18,0.02,0.36,0.03,0.54,0.03
			c2.29,0,4.22-1.73,4.49-4.03C337.7,105.52,335.93,103.25,333.46,102.94z M332.75,108.96c-0.79-0.1-1.36-0.84-1.27-1.65
			c0.09-0.75,0.71-1.31,1.43-1.31c0.06,0,0.11,0,0.17,0.01c0.79,0.1,1.35,0.84,1.26,1.65C334.24,108.46,333.48,109.05,332.75,108.96
			z"/>
	</g>
</g>
</svg>
