<?xml version="1.0" encoding="utf-8"?>
<!-- Generator: Adobe Illustrator 24.2.1, SVG Export Plug-In . SVG Version: 6.00 Build 0)  -->
<svg version="1.1" id="Layer_1" xmlns="http://www.w3.org/2000/svg" xmlns:xlink="http://www.w3.org/1999/xlink" x="0px" y="0px"
	 viewBox="0 0 430.47 430.47" style="enable-background:new 0 0 430.47 430.47;" xml:space="preserve">
<style type="text/css">
	.st0{fill:#343466;}
</style>
<g>
	<g>
		<path class="st0" d="M215.23,411.62c-108.29,0-196.39-88.1-196.39-196.39s88.1-196.39,196.39-196.39
			c108.29,0,196.39,88.1,196.39,196.39S323.52,411.62,215.23,411.62z M215.23,23.2C109.35,23.2,23.2,109.35,23.2,215.23
			s86.15,192.03,192.03,192.03c105.89,0,192.03-86.15,192.03-192.03S321.12,23.2,215.23,23.2z"/>
	</g>
	<g>
		<path class="st0" d="M114.85,241.35l-0.79-0.48c-1.43-0.87-34.93-21.52-34.31-40.63c0.47-14.57,8.89-17.63,15.86-17.63
			c7.58,0,15.5,3.56,17.96,4.77c2.46-1.51,10.69-6.17,18.59-6.17c6.29,0,14.14,3.02,15.86,17.43c2.22,18.6-30.98,41.24-32.39,42.2
			L114.85,241.35z M95.62,185.51c-8.4,0-12.64,4.85-12.96,14.82c-0.52,15.91,27.04,34.31,32.12,37.55
			c4.98-3.52,32.2-23.52,30.36-38.91c-1.19-10-5.44-14.87-12.98-14.87c-8.34,0-17.61,6.08-17.7,6.14l-0.72,0.48l-0.77-0.4
			C112.88,190.28,103.81,185.51,95.62,185.51z"/>
	</g>
	<g>
		<path class="st0" d="M286.72,236.79l-0.79-0.48c-0.79-0.48-19.45-11.99-19.1-22.83c0.29-8.95,5.98-10.29,9.34-10.29
			c3.99,0,8.13,1.74,9.8,2.52c1.68-1,6.02-3.29,10.21-3.29c3.71,0,8.34,1.76,9.33,10.12c1.26,10.57-17.23,23.19-18.02,23.73
			L286.72,236.79z M276.16,206.09c-4.23,0-6.27,2.38-6.44,7.48c-0.24,7.23,11.45,16.26,16.91,19.76
			c5.38-3.81,16.82-13.47,15.99-20.44c-0.6-5.09-2.72-7.56-6.45-7.56c-4.38,0-9.28,3.22-9.33,3.25l-0.72,0.48l-0.76-0.4
			C285.31,208.63,280.48,206.09,276.16,206.09z"/>
	</g>
	<g>
		<path class="st0" d="M277.35,180.47l-0.79-0.48c-1.36-0.83-13.24-8.29-13-15.69c0.15-4.67,2.6-7.34,6.73-7.34
			c2.59,0,5.25,1.05,6.53,1.63c1.29-0.74,4.1-2.14,6.85-2.14c2.19,0,5.97,0.93,6.72,7.19c0.86,7.23-10.91,15.41-12.26,16.32
			L277.35,180.47z M270.28,159.85c-1.71,0-3.69,0.52-3.82,4.54c-0.15,4.5,7.14,10.21,10.81,12.61c3.62-2.61,10.74-8.71,10.23-13.03
			c-0.49-4.15-2.43-4.63-3.84-4.63c-2.76,0-5.94,2.08-5.97,2.1l-0.72,0.47l-0.77-0.4C276.17,161.49,273.04,159.85,270.28,159.85z"/>
	</g>
	<g>
		<path class="st0" d="M307.4,322.85H222.6c-13.13,0-23.81-10.68-23.81-23.81V123.25c0-13.13,10.68-23.81,23.81-23.81h84.79
			c13.13,0,23.81,10.68,23.81,23.81v175.79C331.21,312.17,320.53,322.85,307.4,322.85z M222.6,103.79
			c-10.73,0-19.46,8.73-19.46,19.46v175.79c0,10.73,8.73,19.46,19.46,19.46h84.79c10.73,0,19.46-8.73,19.46-19.46V123.25
			c0-10.73-8.73-19.46-19.46-19.46H222.6z"/>
	</g>
	<g>
		<path class="st0" d="M295.13,286.09h-60.26c-13.13,0-23.81-12.71-23.81-28.32V144.89c0-15.62,10.68-28.32,23.81-28.32h60.26
			c13.13,0,23.81,12.71,23.81,28.32v112.88C318.94,273.38,308.26,286.09,295.13,286.09z M234.87,120.91
			c-10.73,0-19.46,10.75-19.46,23.97v112.88c0,13.22,8.73,23.97,19.46,23.97h60.26c10.73,0,19.46-10.75,19.46-23.97V144.89
			c0-13.22-8.73-23.97-19.46-23.97H234.87z"/>
	</g>
	<g>
		<path class="st0" d="M277.19,192.57c-12.01,0-22.93-6.54-27.41-16.33c-0.27-0.03-0.71-0.05-1.41-0.05
			c-5.14,0-16.82,1.27-16.94,1.29l-9.42,1.03l8.68-3.8c7.2-3.16,15.48-7.24,16.96-8.62c0.24-14.2,13.4-25.69,29.54-25.69
			c16.29,0,29.54,11.7,29.54,26.08C306.73,180.87,293.47,192.57,277.19,192.57z M248.37,173.29c2,0,3.34,0.09,3.82,1.22
			c3.85,9.07,13.89,15.16,25,15.16c14.69,0,26.64-10.4,26.64-23.18c0-12.78-11.95-23.18-26.64-23.18
			c-14.69,0-26.64,10.4-26.64,23.18c0,0.78,0,2.12-10.79,7.28C242.87,173.5,246.15,173.29,248.37,173.29z"/>
	</g>
	<g>
		<path class="st0" d="M265,315.33c-6.31,0-11.44-5.13-11.44-11.44c0-6.31,5.13-11.44,11.44-11.44c6.31,0,11.44,5.13,11.44,11.44
			C276.44,310.2,271.31,315.33,265,315.33z M265,295.36c-4.71,0-8.54,3.83-8.54,8.53c0,4.71,3.83,8.54,8.54,8.54
			s8.53-3.83,8.53-8.54C273.54,299.19,269.71,295.36,265,295.36z"/>
	</g>
	<g>
		<path class="st0" d="M116.14,264.23c-33.68,0-61.08-27.4-61.08-61.07c0-33.68,27.4-61.08,61.08-61.08
			c33.68,0,61.07,27.4,61.07,61.08C177.21,236.83,149.82,264.23,116.14,264.23z M116.14,146.43c-31.28,0-56.72,25.45-56.72,56.72
			c0,31.28,25.44,56.72,56.72,56.72c31.28,0,56.72-25.45,56.72-56.72C172.86,171.88,147.42,146.43,116.14,146.43z"/>
	</g>
	<g>
		<path class="st0" d="M257.6,253.11c-3.08,0-5.84-1.83-7.04-4.67c-1.64-3.88,0.19-8.37,4.06-10.01c0.95-0.4,1.95-0.6,2.97-0.6
			c3.08,0,5.84,1.83,7.04,4.67c1.64,3.88-0.18,8.37-4.06,10.01C259.63,252.91,258.63,253.11,257.6,253.11z M257.6,240.73
			c-0.63,0-1.25,0.13-1.84,0.38c-2.41,1.02-3.54,3.8-2.52,6.21c0.74,1.76,2.46,2.9,4.36,2.9c0.63,0,1.25-0.13,1.84-0.37
			c2.41-1.02,3.54-3.8,2.52-6.21C261.22,241.87,259.51,240.73,257.6,240.73z"/>
	</g>
	<g>
		<path class="st0" d="M229.85,266.05c-4.86,0-9.21-2.89-11.11-7.37c-2.58-6.12,0.29-13.21,6.41-15.8c1.5-0.63,3.08-0.95,4.69-0.95
			c4.86,0,9.22,2.89,11.11,7.37c1.25,2.97,1.28,6.24,0.07,9.23c-1.21,2.98-3.51,5.32-6.48,6.57
			C233.04,265.72,231.46,266.05,229.85,266.05z M229.84,244.83c-1.22,0-2.42,0.24-3.56,0.72c-4.65,1.97-6.83,7.35-4.87,11.99
			c1.44,3.4,4.74,5.6,8.43,5.6c1.22,0,2.42-0.24,3.56-0.73c2.25-0.95,4-2.72,4.92-4.99c0.92-2.26,0.9-4.75-0.05-7
			C236.84,247.03,233.53,244.83,229.84,244.83z"/>
	</g>
</g>
</svg>
