<?xml version="1.0" encoding="utf-8"?>
<!-- Generator: Adobe Illustrator 24.2.1, SVG Export Plug-In . SVG Version: 6.00 Build 0)  -->
<svg version="1.1" id="Layer_1" xmlns="http://www.w3.org/2000/svg" xmlns:xlink="http://www.w3.org/1999/xlink" x="0px" y="0px"
	 viewBox="0 0 430.47 430.47" style="enable-background:new 0 0 430.47 430.47;" xml:space="preserve">
<style type="text/css">
	.st0{fill:#343466;}
</style>
<g>
	<g>
		<path class="st0" d="M215.24,424.15c-115.2,0-208.92-93.72-208.92-208.91c0-115.2,93.72-208.91,208.92-208.91
			s208.91,93.72,208.91,208.91C424.15,330.43,330.43,424.15,215.24,424.15z M215.24,10.95c-112.64,0-204.29,91.64-204.29,204.28
			c0,112.64,91.64,204.28,204.29,204.28s204.28-91.64,204.28-204.28C419.52,102.59,327.88,10.95,215.24,10.95z"/>
	</g>
	<path class="st0" d="M302.16,340.41v-13.72h-2.32h-16.15c0.42-2.06,0.63-4.16,0.63-6.27v-140.6c0-17.36-14.12-31.48-31.48-31.48
		h-76.13c-17.36,0-31.48,14.12-31.48,31.48v140.6c0,2.11,0.21,4.21,0.63,6.27h-11.33h-2.32v13.72h-10.29v18.35h190.52v-18.35H302.16
		z M149.86,320.42v-140.6c0-14.8,12.05-26.85,26.85-26.85h76.13c14.81,0,26.85,12.05,26.85,26.85v140.6c0,2.12-0.26,4.22-0.75,6.27
		H150.61C150.12,324.64,149.86,322.54,149.86,320.42z M307.81,354.13H126.55v-9.09h10.29v-13.72h15.13h125.61h19.94v13.72h10.29
		V354.13z"/>
	<g>
		<path class="st0" d="M240.94,297.43c-8.79,0-15.95-7.21-15.95-16.08c0-8.86,7.15-16.08,15.95-16.08s15.95,7.21,15.95,16.08
			C256.89,290.22,249.73,297.43,240.94,297.43z M240.94,268.36c-7.09,0-12.86,5.83-12.86,12.99c0,7.16,5.77,12.99,12.86,12.99
			c7.09,0,12.86-5.83,12.86-12.99C253.8,274.19,248.03,268.36,240.94,268.36z"/>
	</g>
	<g>
		<path class="st0" d="M233.45,328.07c-8.79,0-15.95-7.21-15.95-16.08c0-8.87,7.15-16.08,15.95-16.08c8.79,0,15.95,7.21,15.95,16.08
			C249.4,320.85,242.24,328.07,233.45,328.07z M233.45,299c-7.09,0-12.86,5.83-12.86,12.99c0,7.16,5.77,12.99,12.86,12.99
			c7.09,0,12.86-5.83,12.86-12.99C246.31,304.83,240.54,299,233.45,299z"/>
	</g>
	<g>
		<path class="st0" d="M201.41,328.07c-8.8,0-15.95-7.21-15.95-16.08c0-8.87,7.15-16.08,15.95-16.08c8.79,0,15.95,7.21,15.95,16.08
			C217.36,320.85,210.2,328.07,201.41,328.07z M201.41,299c-7.09,0-12.86,5.83-12.86,12.99c0,7.16,5.77,12.99,12.86,12.99
			c7.09,0,12.86-5.83,12.86-12.99C214.27,304.83,208.5,299,201.41,299z"/>
	</g>
	<g>
		<path class="st0" d="M180.43,303.75c-8.79,0-15.95-7.21-15.95-16.08c0-8.87,7.15-16.08,15.95-16.08c8.79,0,15.95,7.21,15.95,16.08
			C196.38,296.54,189.23,303.75,180.43,303.75z M180.43,274.68c-7.09,0-12.86,5.83-12.86,12.99c0,7.16,5.77,12.99,12.86,12.99
			c7.09,0,12.86-5.83,12.86-12.99C193.29,280.51,187.53,274.68,180.43,274.68z"/>
	</g>
	<g>
		<path class="st0" d="M175.69,328.06c-7.88,0-13.12-1.63-15.57-4.85c-2.12-2.79-2.73-5.41-1.81-7.81c1.56-4.1,7.09-5.88,9.32-6.44
			c0.89-2.3,3.71-8.37,8.82-8.37c2.12,0,4.3,1.07,6.46,3.17c5.84,5.67,1.37,21.09,0.84,22.83l-0.29,0.95l-0.98,0.13
			C182.38,327.68,179.45,328.06,175.69,328.06z M176.46,303.67c-3.87,0-6.16,6.99-6.18,7.06l-0.27,0.88l-0.9,0.18
			c-1.84,0.36-6.85,1.92-7.91,4.72c-0.51,1.33-0.04,2.96,1.39,4.84c1.78,2.34,6.44,3.63,13.11,3.63c2.29,0,4.27-0.16,5.4-0.27
			c1.31-4.84,3.23-15.3-0.32-18.74C179.21,304.44,177.76,303.67,176.46,303.67z"/>
	</g>
	<g>
		<path class="st0" d="M228.72,222.35c-7.88,0-13.12-1.63-15.57-4.85c-2.12-2.79-2.73-5.41-1.82-7.81c1.56-4.1,7.09-5.88,9.32-6.44
			c0.88-2.3,3.71-8.38,8.83-8.38c2.12,0,4.3,1.07,6.46,3.17c5.84,5.67,1.37,21.09,0.84,22.83l-0.29,0.95l-0.98,0.13
			C235.4,221.96,232.47,222.35,228.72,222.35z M229.48,197.96c-3.87,0-6.16,7-6.19,7.06l-0.27,0.88l-0.9,0.18
			c-1.84,0.36-6.85,1.92-7.91,4.72c-0.51,1.33-0.04,2.96,1.39,4.84c1.78,2.34,6.44,3.63,13.11,3.63c2.28,0,4.27-0.15,5.4-0.27
			c1.32-4.84,3.23-15.3-0.32-18.74C232.23,198.73,230.78,197.96,229.48,197.96z"/>
	</g>
	<g>
		<path class="st0" d="M255,327.49L255,327.49c-0.86,0-1.68-0.12-2.43-0.36c-3.6-1.16-5.75-3.07-6.39-5.68
			c-1.03-4.19,2.33-8.58,3.81-10.27c-0.53-2.15-1.49-7.5,0.99-10.85c0.9-1.21,2.65-2.65,5.89-2.65c0.68,0,1.41,0.06,2.18,0.19
			c8.16,1.33,13.81,16,14.43,17.67l0.35,0.93l-0.7,0.7C272.7,317.57,262.66,327.49,255,327.49z M256.87,300.76
			c-1.59,0-2.71,0.46-3.41,1.4c-1.75,2.35-0.8,7.28-0.28,8.98l0.27,0.88l-0.64,0.66c-1.25,1.27-4.32,5.18-3.62,8.03
			c0.37,1.5,1.83,2.67,4.34,3.47c0.44,0.14,0.94,0.22,1.48,0.22c4.89,0,12.06-5.78,15.22-8.74c-1.85-4.57-6.62-13.94-11.67-14.76
			C257.95,300.81,257.38,300.76,256.87,300.76z"/>
	</g>
	<g>
		<path class="st0" d="M215.87,301.94l-0.94-0.32c-1.72-0.6-16.82-6.05-17.97-14.1c-0.46-3.25,0.07-5.78,1.58-7.52
			c1.44-1.66,3.65-2.5,6.57-2.5c2.05,0,3.99,0.43,5.06,0.71c1.5-1.24,5.25-3.99,8.91-3.99c2.34,0,5.46,1.09,7.03,6.29
			c2.39,7.92-8.33,19.43-9.56,20.71L215.87,301.94z M205.11,280.59c-1.99,0-3.41,0.48-4.24,1.44c-0.9,1.03-1.18,2.73-0.85,5.06
			c0.7,4.9,10.3,9.5,14.98,11.28c3.3-3.67,9.63-12.06,8.15-16.95c-1.23-4.09-3.37-4.09-4.07-4.09c-2.84,0-6.37,2.7-7.49,3.74
			l-0.67,0.63l-0.87-0.29C210.03,281.38,207.62,280.59,205.11,280.59z"/>
	</g>
	<g>
		<path class="st0" d="M259.78,272.75c-8.79,0-15.95-7.21-15.95-16.08c0-8.86,7.15-16.08,15.95-16.08s15.95,7.21,15.95,16.08
			C275.73,265.54,268.58,272.75,259.78,272.75z M259.78,243.68c-7.09,0-12.86,5.83-12.86,12.99s5.77,12.99,12.86,12.99
			s12.86-5.83,12.86-12.99S266.87,243.68,259.78,243.68z"/>
	</g>
	<g>
		<path class="st0" d="M180.43,249.41c-8.79,0-15.95-7.21-15.95-16.08c0-8.86,7.15-16.08,15.95-16.08c8.79,0,15.95,7.21,15.95,16.08
			C196.38,242.2,189.23,249.41,180.43,249.41z M180.43,220.35c-7.09,0-12.86,5.83-12.86,12.99c0,7.16,5.77,12.99,12.86,12.99
			c7.09,0,12.86-5.83,12.86-12.99C193.29,226.17,187.53,220.35,180.43,220.35z"/>
	</g>
	<g>
		<path class="st0" d="M213.23,249.41c-8.79,0-15.95-7.21-15.95-16.08c0-8.86,7.15-16.08,15.95-16.08s15.95,7.21,15.95,16.08
			C229.18,242.2,222.02,249.41,213.23,249.41z M213.23,220.35c-7.09,0-12.86,5.83-12.86,12.99c0,7.16,5.77,12.99,12.86,12.99
			c7.09,0,12.86-5.83,12.86-12.99C226.09,226.17,220.32,220.35,213.23,220.35z"/>
	</g>
	<g>
		<path class="st0" d="M247.53,246.1c-8.79,0-15.95-7.21-15.95-16.08c0-8.87,7.15-16.08,15.95-16.08c8.8,0,15.95,7.21,15.95,16.08
			C263.48,238.89,256.33,246.1,247.53,246.1z M247.53,217.04c-7.09,0-12.86,5.83-12.86,12.99c0,7.16,5.77,12.99,12.86,12.99
			c7.09,0,12.86-5.83,12.86-12.99C260.4,222.86,254.63,217.04,247.53,217.04z"/>
	</g>
	<g>
		<path class="st0" d="M196.62,224.69c-8.79,0-15.95-7.21-15.95-16.08c0-8.87,7.15-16.08,15.95-16.08c8.79,0,15.95,7.21,15.95,16.08
			C212.56,217.48,205.41,224.69,196.62,224.69z M196.62,195.62c-7.09,0-12.86,5.83-12.86,12.99c0,7.16,5.77,12.99,12.86,12.99
			c7.09,0,12.86-5.83,12.86-12.99C209.48,201.45,203.71,195.62,196.62,195.62z"/>
	</g>
	<g>
		<path class="st0" d="M196.62,277.31c-8.79,0-15.95-7.21-15.95-16.08c0-8.86,7.15-16.08,15.95-16.08c8.79,0,15.95,7.21,15.95,16.08
			C212.56,270.1,205.41,277.31,196.62,277.31z M196.62,248.25c-7.09,0-12.86,5.83-12.86,12.99c0,7.16,5.77,12.99,12.86,12.99
			c7.09,0,12.86-5.83,12.86-12.99C209.48,254.07,203.71,248.25,196.62,248.25z"/>
	</g>
	<g>
		<path class="st0" d="M164.58,277.31c-8.79,0-15.95-7.21-15.95-16.08c0-8.86,7.15-16.08,15.95-16.08c8.8,0,15.95,7.21,15.95,16.08
			C180.53,270.1,173.37,277.31,164.58,277.31z M164.58,248.25c-7.09,0-12.86,5.83-12.86,12.99c0,7.16,5.77,12.99,12.86,12.99
			c7.09,0,12.86-5.83,12.86-12.99C177.44,254.07,171.67,248.25,164.58,248.25z"/>
	</g>
	<g>
		<path class="st0" d="M271.59,301.94l-0.94-0.32c-1.49-0.52-14.62-5.26-15.63-12.33c-0.41-2.86,0.06-5.1,1.41-6.65
			c1.28-1.48,3.24-2.23,5.83-2.23c1.72,0,3.35,0.34,4.31,0.59c1.38-1.13,4.55-3.41,7.74-3.41c2.09,0,4.87,0.97,6.26,5.57
			c2.09,6.94-7.22,16.95-8.29,18.07L271.59,301.94z M262.25,283.49c-1.65,0-2.83,0.39-3.5,1.17c-0.73,0.84-0.96,2.25-0.68,4.19
			c0.58,4.05,8.74,7.99,12.65,9.5c2.84-3.19,8.12-10.22,6.89-14.31c-0.91-3.03-2.32-3.38-3.31-3.38c-2.38,0-5.36,2.29-6.31,3.17
			l-0.67,0.62l-0.87-0.29C266.42,284.17,264.38,283.49,262.25,283.49z"/>
	</g>
	<g>
		<path class="st0" d="M231.76,270.78l-0.94-0.32c-1.81-0.63-17.76-6.39-18.96-14.86c-0.49-3.41,0.07-6.06,1.65-7.89
			c1.5-1.74,3.82-2.62,6.89-2.62c2.19,0,4.26,0.46,5.38,0.76c1.56-1.29,5.54-4.23,9.41-4.23c2.45,0,5.71,1.14,7.35,6.59
			c2.51,8.34-8.8,20.49-10.09,21.84L231.76,270.78z M220.39,248.18c-2.13,0-3.66,0.52-4.56,1.55c-0.97,1.12-1.28,2.94-0.92,5.43
			c0.75,5.26,11.02,10.17,15.98,12.04c3.49-3.87,10.27-12.84,8.69-18.08c-1.32-4.4-3.64-4.4-4.4-4.4c-3.04,0-6.8,2.88-7.99,3.99
			l-0.67,0.63l-0.87-0.29C225.63,249.03,223.06,248.18,220.39,248.18z"/>
	</g>
	<g>
		<path class="st0" d="M189.7,83.42c-1.75,0-3.17-1.34-3.17-3s1.42-3,3.17-3c1.75,0,3.17,1.35,3.17,3S191.45,83.42,189.7,83.42z
			 M189.7,78.97c-0.9,0-1.63,0.65-1.63,1.46s0.73,1.46,1.63,1.46c0.9,0,1.63-0.65,1.63-1.46S190.6,78.97,189.7,78.97z"/>
	</g>
	<g>
		<path class="st0" d="M198.33,77.11c-1.75,0-3.17-1.35-3.17-3c0-1.66,1.42-3,3.17-3c1.75,0,3.17,1.35,3.17,3
			C201.51,75.76,200.08,77.11,198.33,77.11z M198.33,72.65c-0.9,0-1.63,0.65-1.63,1.46c0,0.8,0.73,1.46,1.63,1.46
			c0.9,0,1.63-0.65,1.63-1.46C199.96,73.3,199.23,72.65,198.33,72.65z"/>
	</g>
	<g>
		<path class="st0" d="M205.53,85.66c-1.75,0-3.17-1.34-3.17-3c0-1.66,1.42-3,3.17-3c1.75,0,3.17,1.35,3.17,3
			C208.71,84.31,207.28,85.66,205.53,85.66z M205.53,81.2c-0.9,0-1.63,0.65-1.63,1.46c0,0.8,0.73,1.46,1.63,1.46
			c0.9,0,1.63-0.65,1.63-1.46C207.16,81.85,206.43,81.2,205.53,81.2z"/>
	</g>
	<g>
		<path class="st0" d="M223.49,77.11c-1.75,0-3.17-1.34-3.17-3c0-1.66,1.42-3,3.17-3c1.75,0,3.17,1.35,3.17,3
			C226.66,75.76,225.24,77.11,223.49,77.11z M223.49,72.65c-0.9,0-1.63,0.65-1.63,1.46c0,0.8,0.73,1.46,1.63,1.46
			c0.9,0,1.63-0.65,1.63-1.46C225.12,73.3,224.39,72.65,223.49,72.65z"/>
	</g>
	<g>
		<path class="st0" d="M222.4,85.66c-1.75,0-3.17-1.35-3.17-3c0-1.66,1.42-3,3.17-3c1.75,0,3.17,1.35,3.17,3
			C225.57,84.31,224.15,85.66,222.4,85.66z M222.4,81.2c-0.9,0-1.63,0.65-1.63,1.46c0,0.8,0.73,1.46,1.63,1.46
			c0.9,0,1.63-0.65,1.63-1.46C224.03,81.85,223.3,81.2,222.4,81.2z"/>
	</g>
	<g>
		<path class="st0" d="M234.07,82.89c-1.75,0-3.17-1.35-3.17-3c0-1.66,1.42-3,3.17-3c1.75,0,3.17,1.34,3.17,3
			C237.24,81.55,235.82,82.89,234.07,82.89z M234.07,78.43c-0.9,0-1.63,0.65-1.63,1.46c0,0.81,0.73,1.46,1.63,1.46
			c0.9,0,1.63-0.65,1.63-1.46C235.7,79.09,234.97,78.43,234.07,78.43z"/>
	</g>
	<g>
		<path class="st0" d="M241.9,87.35c-1.75,0-3.17-1.35-3.17-3c0-1.66,1.42-3,3.17-3c1.75,0,3.17,1.34,3.17,3
			C245.08,86.01,243.65,87.35,241.9,87.35z M241.9,82.89c-0.9,0-1.63,0.65-1.63,1.46c0,0.8,0.73,1.46,1.63,1.46
			c0.9,0,1.63-0.65,1.63-1.46C243.53,83.55,242.8,82.89,241.9,82.89z"/>
	</g>
	<g>
		<path class="st0" d="M212.79,79.34c-1.75,0-3.17-1.34-3.17-3s1.42-3,3.17-3c1.75,0,3.17,1.35,3.17,3S214.54,79.34,212.79,79.34z
			 M212.79,74.88c-0.9,0-1.63,0.65-1.63,1.46c0,0.8,0.73,1.46,1.63,1.46c0.9,0,1.63-0.65,1.63-1.46
			C214.42,75.53,213.69,74.88,212.79,74.88z"/>
	</g>
	<g>
		<path class="st0" d="M177.43,83.72c-1.75,0-3.17-1.35-3.17-3c0-1.66,1.42-3,3.17-3c1.75,0,3.17,1.35,3.17,3
			C180.6,82.38,179.18,83.72,177.43,83.72z M177.43,79.26c-0.9,0-1.63,0.65-1.63,1.46c0,0.81,0.73,1.46,1.63,1.46
			c0.9,0,1.63-0.65,1.63-1.46C179.06,79.92,178.33,79.26,177.43,79.26z"/>
	</g>
	<path class="st0" d="M263.39,94.69l0.01-0.03h-0.01c-0.48-19.34-32.45-28.63-38.39-30.19c0.8-1.63,1.26-3.46,1.26-5.4
		c0-6.76-5.45-12.25-12.16-12.25c-6.71,0-12.16,5.5-12.16,12.25c0,1.85,0.42,3.6,1.15,5.18c-9.56,2.19-37.35,10.34-38.07,30.75
		l-0.03,0.76c0,0.02,0,0.03,0,0.04H165l20.95,57.16l58.07-0.18l19.23-57.7C263.25,95.1,263.39,94.83,263.39,94.69z M214.09,49.91
		c5,0,9.07,4.11,9.07,9.17s-4.07,9.17-9.07,9.17c-5,0-9.07-4.11-9.07-9.17S209.09,49.91,214.09,49.91z M259.48,96.64l-17.69,53.07
		l-9.21,0.03l7.81-39.33l-10.86,39.34l-28.13,0.09l-13.11-39.46l-0.23,0.07l10.3,39.4l-10.26,0.03L169.14,98.1l-0.17-0.33
		c-0.24-0.36-0.39-0.78-0.45-1.26l-0.05-0.36c0-1.67,1.42-3.03,3.16-3.03c1.74,0,3.16,1.36,3.16,3.03l-0.09,1.91h3.36l-0.14-1.68
		l-0.03-0.23c0-1.67,1.42-3.03,3.16-3.03c1.74,0,3.16,1.36,3.16,3.01l-0.07,1.89h3.3l-0.11-1.65l-0.03-0.23
		c0-1.67,1.42-3.03,3.16-3.03c1.74,0,3.16,1.36,3.16,2.98l-0.06,1.89h3.3l-0.13-1.66l-0.03-0.18c0-1.67,1.42-3.03,3.16-3.03
		c1.72,0,3.13,1.33,3.16,2.9c0,0.02,0,0.04,0,0.06l-0.08,1.87h3.28l-0.08-1.62c0-0.08-0.01-0.16-0.02-0.18
		c0-1.67,1.42-3.03,3.16-3.03c1.71,0,3.11,1.31,3.16,2.84c0,0.04,0,0.08,0,0.12l-0.04,1.84h3.21l-0.06-1.6
		c0-0.1-0.02-0.17-0.02-0.17c0-1.67,1.42-3.03,3.16-3.03c1.71,0,3.1,1.3,3.17,2.81c0,0.05,0,0.1,0,0.15l-0.02,0.23l0,1.58h3.2
		l-0.07-1.61c0-0.08-0.01-0.15-0.02-0.13c0-1.67,1.42-3.03,3.16-3.03c1.7,0,3.09,1.29,3.17,2.77c0,0.06,0,0.11-0.01,0.17l-0.03,1.79
		h3.17l-0.04-1.59c0-0.09-0.01-0.16-0.02-0.12c0-1.67,1.42-3.03,3.16-3.03c1.72,0,3.12,1.32,3.16,2.95l-0.04,1.75l3.19-0.07
		l-0.06-1.6c0-1.67,1.42-3.03,3.16-3.03c1.71,0,3.11,1.31,3.16,2.94l-0.07,1.73h3.17v-1.54l-0.01-0.18
		c0.05-1.63,1.45-2.94,3.16-2.94c1.7,0,3.1,1.3,3.16,2.91L259.48,96.64z M256.33,90.04c-1.87,0-3.56,0.81-4.7,2.1
		c-1.15-1.28-2.83-2.1-4.7-2.1s-3.56,0.81-4.7,2.1c-1.15-1.28-2.83-2.1-4.71-2.1c-1.87,0-3.56,0.81-4.7,2.09
		c-1.15-1.28-2.83-2.09-4.7-2.09c-1.88,0-3.56,0.81-4.71,2.1c-1.15-1.28-2.83-2.1-4.7-2.1c-1.87,0-3.56,0.81-4.7,2.09
		c-1.15-1.28-2.83-2.09-4.7-2.09c-1.87,0-3.56,0.81-4.7,2.1c-1.15-1.28-2.83-2.1-4.71-2.1c-1.88,0-3.56,0.81-4.71,2.1
		c-1.15-1.28-2.83-2.1-4.7-2.1c-1.88,0-3.56,0.81-4.71,2.09c-1.15-1.28-2.83-2.09-4.7-2.09c-1.88,0-3.56,0.81-4.71,2.1
		c-1.15-1.28-2.83-2.1-4.7-2.1c-1.02,0-1.97,0.26-2.83,0.68c3.62-12.27,20.04-20.15,35.53-23.58l0.45-0.18
		c2.2,3.19,5.16,4.38,9.3,4.38c3.76,0,6.84-1.45,9.07-4.15l0.2,0.07c11.59,2.78,32.55,11.07,36.36,23.79
		C258.74,90.41,257.58,90.04,256.33,90.04z"/>
</g>
</svg>
