<?xml version="1.0" encoding="utf-8"?>
<!-- Generator: Adobe Illustrator 24.2.1, SVG Export Plug-In . SVG Version: 6.00 Build 0)  -->
<svg version="1.1" id="Layer_1" xmlns="http://www.w3.org/2000/svg" xmlns:xlink="http://www.w3.org/1999/xlink" x="0px" y="0px"
	 viewBox="0 0 430.47 430.47" style="enable-background:new 0 0 430.47 430.47;" xml:space="preserve">
<style type="text/css">
	.st0{fill:#343466;}
</style>
<g>
	<g>
		<path class="st0" d="M215.23,426.26c-116.36,0-211.02-94.66-211.02-211.02S98.88,4.21,215.23,4.21
			c116.36,0,211.02,94.66,211.02,211.02S331.59,426.26,215.23,426.26z M215.23,8.89C101.46,8.89,8.89,101.46,8.89,215.23
			s92.57,206.34,206.34,206.34c113.78,0,206.34-92.57,206.34-206.34S329.01,8.89,215.23,8.89z"/>
	</g>
	<g>
		<path class="st0" d="M125.75,325.74c-53.07,0-96.25-43.17-96.25-96.24c0-53.07,43.18-96.24,96.25-96.24
			c53.07,0,96.24,43.17,96.24,96.24C221.99,282.57,178.82,325.74,125.75,325.74z M125.75,137.94c-50.49,0-91.57,41.07-91.57,91.56
			c0,50.49,41.08,91.57,91.57,91.57c50.49,0,91.56-41.08,91.56-91.57C217.31,179.01,176.24,137.94,125.75,137.94z"/>
	</g>
	<g>
		<path class="st0" d="M125.74,317.71c-49.1,0-89.04-39.57-89.04-88.21c0-48.64,39.94-88.2,89.04-88.2
			c49.1,0,89.05,39.57,89.05,88.2C214.8,278.14,174.85,317.71,125.74,317.71z M125.74,145.97c-46.52,0-84.36,37.47-84.36,83.53
			c0,46.06,37.84,83.53,84.36,83.53c46.52,0,84.37-37.47,84.37-83.53C210.12,183.44,172.27,145.97,125.74,145.97z"/>
	</g>
	<g>
		<path class="st0" d="M307.12,324.98c-1.04,0-2.08-0.02-3.13-0.06c-20.81-0.83-40.05-9.7-54.18-25
			c-14.13-15.3-21.46-35.18-20.63-55.98c1.7-43.03,37.57-76.52,80.98-74.81c20.8,0.82,40.05,9.7,54.17,24.99
			c14.13,15.29,21.46,35.17,20.64,55.98C383.3,292.09,349.1,324.98,307.12,324.98z M307.01,173.75c-39.46,0-71.6,30.91-73.16,70.38
			c-0.78,19.55,6.11,38.24,19.39,52.62c13.28,14.38,31.37,22.72,50.93,23.5c0.99,0.04,1.97,0.06,2.95,0.06
			c39.46,0,71.6-30.92,73.17-70.38c0.77-19.55-6.12-38.24-19.4-52.62c-13.28-14.38-31.37-22.72-50.92-23.49
			C308.98,173.77,307.99,173.75,307.01,173.75z"/>
	</g>
	<g>
		<path class="st0" d="M307.12,317.28c-0.94,0-1.88-0.02-2.83-0.06c-38.7-1.53-68.95-34.27-67.42-72.98
			c1.53-38.77,33.89-68.92,72.99-67.42c18.75,0.74,36.09,8.74,48.82,22.53c12.73,13.78,19.34,31.7,18.59,50.45
			C375.77,287.64,344.96,317.28,307.12,317.28z M307.04,181.44c-35.33,0-64.1,27.67-65.49,62.98c-1.43,36.13,26.8,66.69,62.93,68.12
			c36.5,1.42,66.69-26.73,68.12-62.93c0.69-17.5-5.47-34.23-17.35-47.1c-11.89-12.87-28.07-20.33-45.57-21.02
			C308.79,181.46,307.91,181.44,307.04,181.44z"/>
	</g>
	<g>
		<path class="st0" d="M293.47,174.22l-0.93-1.71l-13.31-24.77l15.1-24.62l28.88,0.77l13.78,25.39l-15.22,24.82l-1.55-0.25
			c-5.24-0.84-10.14-1.27-14.58-1.27c-6.9,0-10.29,1.06-10.32,1.07L293.47,174.22z M305.64,167.89c4.24,0,8.87,0.37,13.77,1.09
			l12.18-19.85l-11.21-20.64l-23.48-0.62l-12.28,20.03l11.18,20.81C297.69,168.34,300.96,167.89,305.64,167.89z"/>
	</g>
	<g>
		<path class="st0" d="M278.29,178.71c-0.16,0-0.31,0-0.47-0.01c-3.03-0.12-5.84-1.41-7.9-3.65c-2.06-2.23-3.13-5.13-3.01-8.17
			c0.25-6.13,5.24-10.93,11.37-10.93c0.15,0,0.3,0,0.45,0.01c3.03,0.12,5.84,1.41,7.91,3.65c2.06,2.23,3.13,5.13,3.01,8.17
			C289.39,173.91,284.41,178.71,278.29,178.71z M278.28,160.63c-3.61,0-6.55,2.83-6.7,6.44c-0.07,1.78,0.56,3.49,1.78,4.81
			c1.22,1.32,2.87,2.08,4.65,2.15l0.28,0.01c3.6,0,6.54-2.83,6.68-6.44c0.07-1.78-0.56-3.49-1.78-4.8
			c-1.22-1.32-2.87-2.08-4.65-2.15L278.28,160.63z"/>
	</g>
	<g>
		<path class="st0" d="M336.88,179.02c-0.16,0-0.32,0-0.48-0.01c-3.03-0.12-5.84-1.41-7.9-3.64c-2.06-2.23-3.13-5.14-3.01-8.17
			c0.25-6.28,5.45-11.19,11.81-10.92c3.03,0.12,5.84,1.41,7.91,3.65c2.07,2.23,3.14,5.13,3.02,8.17
			C347.99,174.22,343.01,179.02,336.88,179.02z M336.86,160.95c-3.61,0-6.55,2.83-6.69,6.44c-0.07,1.79,0.56,3.5,1.77,4.81
			c1.21,1.31,2.87,2.07,4.65,2.14l0.29,0.01c3.6,0,6.53-2.82,6.67-6.43c0.07-1.79-0.56-3.49-1.77-4.81
			c-1.22-1.31-2.87-2.08-4.66-2.15L336.86,160.95z"/>
	</g>
	<g>
		<path class="st0" d="M229.06,169.18l-1.26-0.81c-1.22-0.78-29.93-19.4-29.01-36.33c0.76-13.74,9.42-15.79,14.52-15.79
			c6.36,0,12.99,2.94,15.66,4.28c2.64-1.48,9.22-4.77,15.62-4.77c4.9,0,13.33,2.1,14.69,16.19c1.6,16.57-27.71,35.62-28.96,36.42
			L229.06,169.18z M213.31,120.93c-3.96,0-9.29,1.18-9.85,11.37c-0.61,11.21,17.21,25.64,25.6,31.3
			c8.53-5.76,26.62-20.36,25.57-31.2c-0.77-8.05-4.06-11.96-10.03-11.96c-6.73,0-14.23,4.69-14.3,4.74l-1.18,0.74l-1.22-0.68
			C227.82,125.19,220.11,120.93,213.31,120.93z"/>
	</g>
</g>
</svg>
