<?xml version="1.0" encoding="utf-8"?>
<!-- Generator: Adobe Illustrator 24.2.1, SVG Export Plug-In . SVG Version: 6.00 Build 0)  -->
<svg version="1.1" id="Layer_1" xmlns="http://www.w3.org/2000/svg" xmlns:xlink="http://www.w3.org/1999/xlink" x="0px" y="0px"
	 viewBox="0 0 430.47 430.47" style="enable-background:new 0 0 430.47 430.47;" xml:space="preserve">
<style type="text/css">
	.st0{fill:#343466;}
</style>
<g>
	<g>
		<path class="st0" d="M215.23,410.55c-107.7,0-195.32-87.62-195.32-195.32c0-107.7,87.62-195.32,195.32-195.32
			c107.7,0,195.32,87.62,195.32,195.32C410.55,322.93,322.93,410.55,215.23,410.55z M215.23,24.24
			c-105.31,0-190.99,85.68-190.99,190.99c0,105.31,85.68,190.99,190.99,190.99c105.31,0,190.99-85.68,190.99-190.99
			C406.22,109.92,320.55,24.24,215.23,24.24z"/>
	</g>
	<path class="st0" d="M228.44,240.31c-0.72-2.46-17.78-59.56-48.25-74.59l8.69-35.33l-3.3-17.72h-48.43l-3.06,17.66l8.47,35.32
		c-24.09,12.95-34.47,48.99-43.67,80.93l-17.95,74.07l4.35-3.32c0.04-0.03,4.2-3.17,9.37-3.17c3.2,0,6.13,1.24,8.69,3.68
		c3.28,3.13,7.73,6.72,13.05,6.72c4.27,0,8.36-2.38,12.15-7.07c6.16-7.62,13.6-7.37,21.86,0.51c4.15,3.96,7.97,7.24,12.62,7.24
		c3.99,0,7.96-2.48,12.16-7.58c2.61-3.17,5.68-4.78,9.12-4.78c5.45,0,10.18,3.82,11.5,5c4.61,4.09,8.48,6,12.18,6
		c3.77,0,7.19-2.05,10.47-6.26c2.25-2.89,5.76-4.35,10.45-4.35c7.11,0,14.34,3.37,14.41,3.4l3.64,1.71L228.44,240.31z
		 M166.64,116.55c-1.38,0.81-3.58,1.26-5.74,1.26c-2.16,0-4.36-0.45-5.74-1.26H166.64z M140.41,116.55h11.21
		c0.54,1.05,1.52,1.94,2.91,2.6c1.7,0.8,3.96,1.25,6.36,1.25c3.98,0,7.98-1.21,9.29-3.85h12.16l2.21,11.85h-46.21L140.41,116.55z
		 M138.54,132.27h45.89l-6.45,26.21l-33.13,0.07L138.54,132.27z M160.36,181.43c-0.2,0.13-0.83,0.54-2.42-0.38
		c-2.18-1.25-4.73-3.18-4.53-5.26c0.26-2.76,4.94-5.36,7.93-6.66l0.97,0C162.66,173.91,162.3,180.17,160.36,181.43z M165.81,169.15
		l0.97,0c4.27,1.59,9.25,4.23,9.65,6.43c0.05,0.26,0.19,1.04-1.31,2.21c-1.96,1.52-4.66,3.14-6.44,2.19
		C166.3,178.7,165.67,173.06,165.81,169.15z M146.58,165.2l-0.65-2.77l30.8-0.06l-0.73,2.95L146.58,165.2z M228.9,309.39
		c-5.95,0-10.49,1.97-13.51,5.85c-2.53,3.25-4.89,4.77-7.41,4.77c-2.65,0-5.8-1.64-9.6-5.02c-1.58-1.4-7.26-5.97-14.08-5.97
		c-4.66,0-8.73,2.08-12.11,6.19c-3.41,4.15-6.41,6.16-9.16,6.16c-3.22,0-6.28-2.67-9.95-6.17c-4.98-4.76-9.92-7.17-14.69-7.17
		c-4.77,0-9.09,2.36-12.86,7.03c-3.06,3.79-6.05,5.63-9.13,5.63c-3.94,0-7.61-3.02-10.37-5.65c-3.31-3.15-7.13-4.75-11.36-4.75
		c-2.94,0-5.59,0.79-7.62,1.66l15.6-64.37c8.97-31.13,19.12-66.32,41.78-78.5l11.43,0.04c-2.46,1.6-4.75,3.78-5,6.43
		c-0.26,2.77,1.69,5.38,5.81,7.75c1.18,0.68,2.18,0.92,3.01,0.92c0.9,0,1.6-0.29,2.11-0.62c1.44-0.94,2.26-2.86,2.72-5.08
		c0.64,1.61,1.57,2.99,2.96,3.74c0.74,0.4,1.54,0.6,2.41,0.6c1.96,0,4.25-1.01,6.84-3.02c2.26-1.76,2.48-3.53,2.26-4.71
		c-0.43-2.37-3.02-4.4-5.83-5.94l5.34,0.02c28.94,14.29,46.07,71.61,46.21,72.1l16.7,70.44
		C238.32,310.67,233.65,309.39,228.9,309.39z"/>
	<path class="st0" d="M297.82,326.52h-22.54l-1.02-42.14l-1.02,42.14H250.7l-3.75-145.81h54.62L297.82,326.52z M279.07,322.64h14.97
		l3.55-138.06h-46.66l3.55,138.06h14.98l2.87-118.21l3.88,0L279.07,322.64z"/>
	<polygon class="st0" points="278.1,113.25 278.09,110.87 278.07,108.49 276.02,109.69 274.35,110.68 272.67,109.69 270.62,108.49 
		270.6,110.87 270.59,113.25 272.66,112.07 274.35,111.11 276.04,112.07 	"/>
	<path class="st0" d="M339.21,175.69l15.17-8.88l-52.13-67.24l-10.63-0.23l-3.41-4.18c-11.9-4.95-27.14-0.9-28.41-0.06l-0.32,0.2
		l-2.55,3.68l-10.69,0.62l-50.99,66.97l15.16,8.87l36.53-41.79l1.26,21.83l-3.12,29.1h58.41l-3.81-29.11l1.51-23.04L339.21,175.69z
		 M288.47,99.5l-4.24,3.47l-1.9,5.34l-5.61-6.57l10.67-3.59L288.47,99.5z M284.19,96.51l-9.7,3.27l-10.72-3.19
		C268,95.64,276.54,94.42,284.19,96.51z M260.53,98.31l11.65,3.47l-5.86,6.53l-2.31-5.41l-4.45-3.2L260.53,98.31z M272.32,180.7
		h-22.93l2.67-24.97l0.02-0.16l-1.83-31.62l-40.66,46.52l-8.61-5.04l47.26-62.07l7.72-0.45l4.1,3.84l12.26,27.12V180.7z
		 M266.62,111.86l7.87-8.76l7.13,8.36l-7.4,17.21L266.62,111.86z M299.07,180.7H276.2v-46.84l11.58-26.92l4.09-3.72l8.45,0.19
		l48.29,62.29l-8.6,5.03l-42.07-47.87l-2.15,32.74L299.07,180.7z"/>
	<path class="st0" d="M280.67,137.47c0,0.94-0.76,1.7-1.7,1.7c-0.94,0-1.7-0.76-1.7-1.7c0-0.94,0.76-1.7,1.7-1.7
		C279.9,135.76,280.67,136.53,280.67,137.47z"/>
	<path class="st0" d="M299.66,152.45c0,0.94-0.76,1.7-1.7,1.7c-0.94,0-1.7-0.76-1.7-1.7c0-0.94,0.76-1.7,1.7-1.7
		C298.9,150.75,299.66,151.51,299.66,152.45z"/>
	<path class="st0" d="M280.67,151.23c0,0.94-0.76,1.7-1.7,1.7c-0.94,0-1.7-0.76-1.7-1.7c0-0.94,0.76-1.7,1.7-1.7
		C279.9,149.53,280.67,150.29,280.67,151.23z"/>
	<path class="st0" d="M280.67,158.21c0,0.94-0.76,1.7-1.7,1.7c-0.94,0-1.7-0.76-1.7-1.7c0-0.94,0.76-1.7,1.7-1.7
		C279.9,156.51,280.67,157.27,280.67,158.21z"/>
	<path class="st0" d="M280.67,164.22c0,0.94-0.76,1.7-1.7,1.7c-0.94,0-1.7-0.76-1.7-1.7c0-0.94,0.76-1.7,1.7-1.7
		C279.9,162.51,280.67,163.28,280.67,164.22z"/>
	<g>
		<path class="st0" d="M287.1,133.52c-0.5,0-1-0.19-1.51-0.56c-0.74-0.54-1.13-1.2-1.14-1.95c-0.01-0.86,0.49-1.64,0.95-2.18
			c-0.68-0.17-1.55-0.5-2.07-1.18c-0.43-0.55-0.57-1.23-0.41-2c0.23-1.14,1.01-1.76,2.18-1.76c0.63,0,1.27,0.18,1.76,0.35
			c-0.04-0.78,0.03-1.93,0.63-2.68c0.38-0.48,0.94-0.74,1.6-0.77c0,0,0.01,0,0.01,0c0.73,0,1.27,0.24,1.67,0.68
			c0.62,0.7,0.77,1.8,0.8,2.57c0.51-0.24,1.21-0.5,1.89-0.5c1.03,0,1.79,0.58,2.13,1.63c0.26,0.79,0.19,1.49-0.2,2.09
			c-0.5,0.76-1.43,1.14-2.13,1.33c0.52,0.62,1.15,1.58,1.09,2.54c-0.04,0.62-0.36,1.16-0.94,1.56c-0.43,0.3-0.88,0.45-1.35,0.45
			c-1.12,0-2-0.89-2.53-1.59C289.11,132.41,288.32,133.52,287.1,133.52z M285.1,124.86c-0.72,0-1.1,0.3-1.23,0.98
			c-0.1,0.49-0.03,0.89,0.22,1.21c0.56,0.72,1.89,0.94,2.36,0.96l1.29,0.07l-1.01,0.8c-0.37,0.29-1.32,1.23-1.3,2.11
			c0.01,0.43,0.25,0.82,0.74,1.18c0.34,0.25,0.65,0.37,0.94,0.37c1.18,0,1.87-2.14,1.87-2.16l0.35-1.14l0.55,1.06
			c0.27,0.52,1.19,1.88,2.19,1.88c0.26,0,0.52-0.09,0.79-0.28c0.33-0.23,0.51-0.5,0.53-0.83c0.06-0.91-1-2.06-1.41-2.43l-0.82-0.74
			l1.1-0.1c0.48-0.05,1.84-0.33,2.33-1.08c0.22-0.34,0.25-0.75,0.09-1.25c-0.21-0.66-0.6-0.96-1.21-0.96
			c-0.82,0-1.82,0.55-2.14,0.77l-0.87,0.59l0.12-1.05c0.06-0.52,0.08-2.03-0.53-2.71c-0.21-0.24-0.49-0.36-0.85-0.36
			c-0.45,0.01-0.73,0.15-0.94,0.41c-0.58,0.72-0.45,2.24-0.35,2.76l0.19,0.98l-0.89-0.46C287.19,125.44,286.07,124.86,285.1,124.86z
			"/>
	</g>
	<g>
		<path class="st0" d="M289.3,128.6c-0.62,0-1.13-0.51-1.13-1.13c0-0.62,0.51-1.13,1.13-1.13c0.62,0,1.13,0.51,1.13,1.13
			C290.44,128.09,289.93,128.6,289.3,128.6z M289.3,126.66c-0.44,0-0.81,0.36-0.81,0.81c0,0.44,0.36,0.81,0.81,0.81
			c0.45,0,0.81-0.36,0.81-0.81C290.11,127.02,289.75,126.66,289.3,126.66z"/>
	</g>
</g>
</svg>
