<?xml version="1.0" encoding="utf-8"?>
<!-- Generator: Adobe Illustrator 24.2.1, SVG Export Plug-In . SVG Version: 6.00 Build 0)  -->
<svg version="1.1" id="Layer_1" xmlns="http://www.w3.org/2000/svg" xmlns:xlink="http://www.w3.org/1999/xlink" x="0px" y="0px"
	 viewBox="0 0 430.47 430.47" style="enable-background:new 0 0 430.47 430.47;" xml:space="preserve">
<style type="text/css">
	.st0{fill:#343466;}
</style>
<g>
	<g>
		<path class="st0" d="M301.57,332.01h-166.1V98.46h166.1V332.01z M139.8,327.68h157.44V102.79H139.8V327.68z"/>
	</g>
	<g>
		<path class="st0" d="M183.8,180.04l-1.17-0.75c-1.24-0.8-30.47-19.75-29.53-36.91c0.76-13.85,9.48-15.92,14.61-15.92
			c6.54,0,13.37,3.07,16.01,4.4c2.6-1.47,9.38-4.9,15.95-4.9c6.03,0,13.48,2.83,14.78,16.33c1.62,16.8-28.21,36.18-29.49,37
			L183.8,180.04z M167.71,130.79c-6.57,0-9.84,3.76-10.28,11.82c-0.64,11.6,17.82,26.51,26.37,32.26
			c8.69-5.85,27.42-20.93,26.34-32.17c-0.8-8.35-4.23-12.41-10.47-12.41c-6.91,0-14.66,4.83-14.73,4.88l-1.09,0.69l-1.13-0.63
			C182.65,135.18,174.73,130.79,167.71,130.79z"/>
	</g>
	<g>
		<path class="st0" d="M248.15,177.63l-1.17-0.75c-1.24-0.8-30.47-19.75-29.53-36.91c0.76-13.85,9.48-15.92,14.61-15.92
			c6.54,0,13.37,3.07,16.01,4.4c2.6-1.47,9.38-4.9,15.95-4.9c6.03,0,13.49,2.83,14.78,16.33c1.62,16.8-28.21,36.18-29.49,37
			L248.15,177.63z M232.06,128.38c-6.57,0-9.84,3.76-10.28,11.82c-0.64,11.6,17.82,26.51,26.37,32.26
			c8.7-5.85,27.42-20.93,26.34-32.17c-0.8-8.35-4.23-12.41-10.47-12.41c-6.91,0-14.66,4.83-14.73,4.87l-1.09,0.69l-1.13-0.63
			C246.99,132.77,239.07,128.38,232.06,128.38z"/>
	</g>
	<g>
		<path class="st0" d="M272.3,306.82H163.97V197.77H272.3V306.82z M168.3,302.49h99.66V202.1H168.3V302.49z"/>
	</g>
	<g>
		<rect x="183.8" y="210.32" class="st0" width="64.35" height="4.33"/>
	</g>
	<g>
		<rect x="183.8" y="228.74" class="st0" width="64.35" height="4.33"/>
	</g>
	<g>
		<rect x="183.8" y="247.16" class="st0" width="64.35" height="4.33"/>
	</g>
	<g>
		<rect x="183.8" y="263.04" class="st0" width="64.35" height="4.33"/>
	</g>
	<g>
		<rect x="183.8" y="280.74" class="st0" width="64.35" height="4.33"/>
	</g>
	<g>
		<path class="st0" d="M215.23,410.7c-107.78,0-195.47-87.69-195.47-195.47S107.45,19.76,215.23,19.76
			c107.78,0,195.47,87.69,195.47,195.47S323.02,410.7,215.23,410.7z M215.23,24.1C109.84,24.1,24.1,109.84,24.1,215.23
			s85.74,191.14,191.14,191.14c105.39,0,191.14-85.74,191.14-191.14S320.63,24.1,215.23,24.1z"/>
	</g>
</g>
</svg>
