<?xml version="1.0" encoding="utf-8"?>
<!-- Generator: Adobe Illustrator 24.2.1, SVG Export Plug-In . SVG Version: 6.00 Build 0)  -->
<svg version="1.1" id="Layer_1" xmlns="http://www.w3.org/2000/svg" xmlns:xlink="http://www.w3.org/1999/xlink" x="0px" y="0px"
	 viewBox="0 0 430.47 430.47" style="enable-background:new 0 0 430.47 430.47;" xml:space="preserve">
<style type="text/css">
	.st0{fill:#343466;}
</style>
<g>
	<g>
		<path class="st0" d="M215.23,412.47C106.48,412.47,18,323.99,18,215.23C18,106.48,106.48,18,215.23,18s197.23,88.48,197.23,197.23
			C412.47,323.99,323.99,412.47,215.23,412.47z M215.23,22.37c-106.34,0-192.86,86.52-192.86,192.86
			c0,106.34,86.52,192.86,192.86,192.86S408.1,321.58,408.1,215.23C408.1,108.89,321.58,22.37,215.23,22.37z"/>
	</g>
	<g>
		<path class="st0" d="M281.79,195.54H148.46v-93.23h133.34V195.54z M152.83,191.17h124.59v-84.48H152.83V191.17z"/>
	</g>
	<g>
		<path class="st0" d="M215.12,177.69c-15.86,0-28.76-12.9-28.76-28.76c0-15.86,12.9-28.76,28.76-28.76
			c15.86,0,28.76,12.9,28.76,28.76C243.89,164.79,230.99,177.69,215.12,177.69z M215.12,124.53c-13.45,0-24.39,10.94-24.39,24.39
			c0,13.45,10.94,24.39,24.39,24.39c13.45,0,24.39-10.94,24.39-24.39C239.52,135.48,228.57,124.53,215.12,124.53z"/>
	</g>
	<g>
		<path class="st0" d="M215,184.98c-19.97,0-36.22-16.25-36.22-36.22c0-19.97,16.25-36.22,36.22-36.22
			c19.97,0,36.22,16.25,36.22,36.22C251.21,168.74,234.97,184.98,215,184.98z M215,116.92c-17.56,0-31.85,14.29-31.85,31.85
			c0,17.56,14.29,31.85,31.85,31.85c17.56,0,31.85-14.29,31.85-31.85C246.84,131.21,232.56,116.92,215,116.92z"/>
	</g>
	<g>
		<path class="st0" d="M178.22,106.68h-22.65V95.71h22.65V106.68z M159.94,102.31h13.91v-2.23h-13.91V102.31z"/>
	</g>
	<g>
		<path class="st0" d="M242.31,106.68h-50.36l9.77-16.05h28.74L242.31,106.68z M199.72,102.31h33.92l-5.4-7.31h-24.07L199.72,102.31
			z"/>
	</g>
	<g>
		<path class="st0" d="M270.88,106.68h-17.06V96.47h17.06V106.68z M258.18,102.31h8.32v-1.47h-8.32V102.31z"/>
	</g>
	<g>
		<path class="st0" d="M156.71,339.83l-15.57-0.12l48.12-148.55h15.59L156.71,339.83z M147.14,335.39l6.41,0.05l45.29-139.9h-6.4
			L147.14,335.39z"/>
	</g>
	<g>
		<path class="st0" d="M288.2,339.82h-15.87l-48.13-148.66h15.59L288.2,339.82z M275.51,335.45h6.67l-45.56-139.91h-6.4
			L275.51,335.45z"/>
	</g>
</g>
</svg>
