<?xml version="1.0" encoding="utf-8"?>
<!-- Generator: Adobe Illustrator 24.2.1, SVG Export Plug-In . SVG Version: 6.00 Build 0)  -->
<svg version="1.1" id="Layer_1" xmlns="http://www.w3.org/2000/svg" xmlns:xlink="http://www.w3.org/1999/xlink" x="0px" y="0px"
	 viewBox="0 0 430.47 430.47" style="enable-background:new 0 0 430.47 430.47;" xml:space="preserve">
<style type="text/css">
	.st0{fill:#343466;}
</style>
<g>
	<g>
		<path class="st0" d="M215.23,418.21c-111.92,0-202.98-91.06-202.98-202.98S103.31,12.26,215.23,12.26
			c111.92,0,202.98,91.06,202.98,202.98S327.16,418.21,215.23,418.21z M215.23,16.76c-109.44,0-198.48,89.04-198.48,198.48
			s89.04,198.48,198.48,198.48c109.44,0,198.48-89.04,198.48-198.48S324.67,16.76,215.23,16.76z"/>
	</g>
	<g>
		<path class="st0" d="M137.13,243.39l-0.79-0.46c-1-0.59-9.8-5.89-9.65-11.24c0.1-3.49,2.01-5.49,5.23-5.49
			c1.83,0,3.71,0.67,4.73,1.1c1.02-0.53,2.95-1.38,4.9-1.38c1.4,0,4.71,0.52,5.35,5.37c0.69,5.29-8,10.98-8.99,11.61L137.13,243.39z
			 M131.92,229.2c-1.29,0-2.17,0.44-2.23,2.58c-0.07,2.5,4.2,6.07,7.38,8.09c3.25-2.23,7.15-5.92,6.85-8.18
			c-0.32-2.43-1.38-2.76-2.37-2.76c-1.54,0-3.43,0.96-4.03,1.33l-0.71,0.45l-0.76-0.38C136.02,230.31,133.81,229.2,131.92,229.2z"/>
	</g>
	<g>
		<path class="st0" d="M238.92,187.56l-0.79-0.46c-1-0.59-9.8-5.89-9.65-11.25c0.1-3.49,2.01-5.49,5.23-5.49
			c1.83,0,3.71,0.67,4.73,1.1c1.02-0.53,2.95-1.38,4.9-1.38c1.39,0,4.71,0.52,5.34,5.37c0.69,5.29-8,10.98-8.99,11.61L238.92,187.56
			z M233.71,173.36c-1.29,0-2.17,0.44-2.23,2.57c-0.07,2.57,4.52,6.25,7.38,8.09c3.25-2.24,7.15-5.92,6.85-8.18
			c-0.32-2.44-1.38-2.76-2.37-2.76c-1.85,0-4.01,1.32-4.03,1.33l-0.72,0.45l-0.76-0.38C237.81,174.47,235.6,173.36,233.71,173.36z"
			/>
	</g>
	<g>
		<path class="st0" d="M306.86,198.52l-0.79-0.46c-1-0.59-9.8-5.89-9.65-11.24c0.1-3.49,2.01-5.49,5.23-5.49
			c1.83,0,3.71,0.67,4.73,1.1c1.02-0.53,2.95-1.38,4.9-1.38c1.39,0,4.71,0.52,5.34,5.37c0.69,5.29-8,10.98-8.99,11.61L306.86,198.52
			z M301.65,184.32c-1.29,0-2.17,0.44-2.23,2.57c-0.07,2.5,4.2,6.07,7.38,8.09c3.25-2.24,7.15-5.92,6.85-8.18
			c-0.32-2.43-1.38-2.76-2.37-2.76c-1.85,0-4.01,1.32-4.03,1.33l-0.72,0.45l-0.76-0.38C305.75,185.43,303.54,184.32,301.65,184.32z"
			/>
	</g>
	<g>
		<g>
			<path class="st0" d="M216.82,244.98c-4.73,0-7.95-4.42-9.61-7.48c-1.72,2.75-4.86,6.57-9.04,6.57c-2.07,0-4.09-0.93-6.02-2.75
				c-2.44-2.32-3.54-4.87-3.25-7.58c0.35-3.38,2.83-6.19,4.82-7.93c-2.46-0.86-5.78-2.5-7.51-5.39c-1.32-2.2-1.54-4.72-0.64-7.49
				c1.49-4.56,4.77-5.51,7.26-5.51c2.9,0,5.96,1.31,7.99,2.39c0.15-2.85,0.81-7.25,3.3-9.91c1.61-1.72,3.66-2.49,6.23-2.27
				c2.4,0.2,4.27,1.22,5.58,3.02c2.19,3.02,2.14,7.59,1.82,10.52c1.68-0.61,3.97-1.24,6.23-1.24c4.46,0,7.39,2.46,8.26,6.92
				c0.58,2.98,0.05,5.49-1.58,7.46c-2.28,2.76-6.13,3.73-8.87,4.06c1.67,2.5,3.85,6.61,3.17,10.29c-0.41,2.24-1.76,3.99-4.01,5.21
				C219.58,244.6,218.19,244.98,216.82,244.98z M207.43,230.15l1.29,3.5c0.86,2.32,3.97,8.33,8.1,8.33c0.86,0,1.78-0.25,2.7-0.76
				c1.43-0.77,2.24-1.79,2.48-3.11c0.65-3.52-2.83-8.49-4.22-10.11l-2.21-2.56l3.54,0.09c0.68,0,6.71-0.09,9.23-3.14
				c1.04-1.26,1.35-2.89,0.95-4.98c-0.6-3.06-2.29-4.49-5.32-4.49c-3.56,0-7.41,1.99-7.45,2.01l-2.91,1.52l0.75-3.19
				c0.47-2.03,1.25-7.94-0.88-10.86c-0.78-1.08-1.9-1.66-3.41-1.79c-1.6-0.14-2.82,0.3-3.78,1.33c-2.45,2.61-2.63,8.4-2.5,10.41
				l0.21,3.12l-2.56-1.79c-0.05-0.03-4.73-3.26-8.62-3.26c-2.24,0-3.64,1.09-4.4,3.44c-0.63,1.93-0.52,3.57,0.35,5
				c2.21,3.67,8.47,4.81,8.53,4.82l3.88,0.68l-3.35,2.07c-0.06,0.03-5.52,3.46-5.95,7.62c-0.18,1.76,0.58,3.43,2.33,5.09
				c1.35,1.28,2.69,1.93,3.96,1.93c3.68,0,6.85-5.42,7.76-7.51L207.43,230.15z"/>
		</g>
		<g>
			<path class="st0" d="M208.21,227.72c-0.21,0-0.41-0.01-0.62-0.04c-2.8-0.35-4.81-2.93-4.48-5.76c0.34-2.81,2.84-4.88,5.71-4.53
				c2.81,0.34,4.81,2.93,4.47,5.76C212.99,225.76,210.8,227.72,208.21,227.72z M208.2,220.36c-1.07,0-1.98,0.83-2.11,1.92
				c-0.14,1.19,0.7,2.28,1.86,2.43c1.13,0.14,2.22-0.72,2.36-1.9c0.14-1.2-0.69-2.29-1.86-2.43
				C208.37,220.36,208.29,220.36,208.2,220.36z"/>
		</g>
	</g>
	<g>
		<g>
			<path class="st0" d="M112.69,224.58c-4.73,0-7.95-4.42-9.61-7.48c-1.72,2.75-4.85,6.57-9.03,6.57c0,0,0,0,0,0
				c-2.07,0-4.09-0.93-6.02-2.75c-2.44-2.32-3.54-4.87-3.25-7.58c0.35-3.38,2.83-6.19,4.82-7.94c-2.46-0.86-5.77-2.5-7.51-5.39
				c-1.32-2.2-1.54-4.71-0.64-7.49c1.17-3.61,3.69-5.51,7.26-5.51c2.9,0,5.96,1.31,7.99,2.39c0.15-2.85,0.81-7.25,3.29-9.91
				c1.61-1.72,3.64-2.49,6.23-2.27c2.4,0.2,4.27,1.22,5.58,3.02c2.19,3.02,2.14,7.59,1.82,10.52c1.68-0.61,3.97-1.24,6.24-1.24
				c4.46,0,7.39,2.46,8.26,6.92c0.58,2.98,0.05,5.49-1.57,7.46c-2.28,2.76-6.13,3.73-8.87,4.06c1.67,2.5,3.85,6.61,3.17,10.29
				c-0.41,2.24-1.76,3.99-4.01,5.21C115.45,224.21,114.06,224.58,112.69,224.58z M103.31,209.76l1.29,3.5
				c0.85,2.32,3.97,8.33,8.1,8.33c0.86,0,1.78-0.25,2.7-0.76c1.43-0.77,2.24-1.79,2.48-3.11c0.65-3.53-2.83-8.49-4.22-10.11
				l-2.22-2.57l3.55,0.09c0.68,0,6.72-0.09,9.23-3.14c1.04-1.26,1.35-2.89,0.94-4.98c-0.6-3.06-2.29-4.49-5.31-4.49
				c-3.56,0-7.42,1.99-7.46,2.02l-2.9,1.52l0.75-3.19c0.48-2.03,1.25-7.94-0.88-10.86c-0.78-1.08-1.9-1.66-3.4-1.79
				c-1.6-0.14-2.81,0.3-3.78,1.33c-2.44,2.6-2.63,8.4-2.5,10.41l0.2,3.11l-2.56-1.78c-0.05-0.03-4.73-3.26-8.62-3.26
				c-2.24,0-3.64,1.09-4.4,3.44c-0.63,1.93-0.52,3.57,0.35,5c2.21,3.67,8.47,4.81,8.53,4.82l3.88,0.68l-3.35,2.07
				c-0.06,0.03-5.52,3.46-5.95,7.62c-0.18,1.76,0.58,3.43,2.33,5.09c1.35,1.28,2.69,1.93,3.96,1.93c3.68,0,6.85-5.42,7.76-7.51
				L103.31,209.76z"/>
		</g>
		<g>
			<path class="st0" d="M104.09,207.32c-0.21,0-0.41-0.01-0.62-0.04c-2.8-0.35-4.81-2.93-4.48-5.76c0.34-2.81,2.86-4.87,5.7-4.53
				c2.8,0.34,4.81,2.92,4.47,5.76C108.86,205.36,106.68,207.32,104.09,207.32z M104.08,199.96c-1.07,0-1.98,0.83-2.11,1.92
				c-0.14,1.19,0.69,2.28,1.86,2.43c1.14,0.13,2.22-0.72,2.36-1.9c0.14-1.2-0.69-2.29-1.85-2.43
				C104.25,199.97,104.16,199.96,104.08,199.96z"/>
		</g>
	</g>
	<g>
		<g>
			<path class="st0" d="M96.29,285c-4.73,0-7.95-4.42-9.61-7.48c-1.72,2.75-4.86,6.57-9.04,6.57l0,0c-2.07,0-4.09-0.93-6.02-2.75
				c-2.44-2.32-3.54-4.87-3.25-7.58c0.35-3.38,2.83-6.19,4.81-7.93c-2.46-0.86-5.77-2.5-7.51-5.39c-1.32-2.2-1.54-4.71-0.64-7.49
				c1.49-4.56,4.77-5.51,7.26-5.51c2.9,0,5.96,1.31,7.99,2.39c0.15-2.85,0.81-7.25,3.29-9.91c1.61-1.72,3.66-2.49,6.24-2.27
				c2.4,0.2,4.27,1.22,5.58,3.02c2.19,3.02,2.14,7.59,1.82,10.52c1.68-0.61,3.97-1.24,6.23-1.24c4.46,0,7.39,2.46,8.26,6.92
				c0.58,2.98,0.05,5.49-1.58,7.46c-2.28,2.76-6.13,3.73-8.87,4.06c1.67,2.5,3.85,6.61,3.18,10.29c-0.41,2.24-1.76,3.99-4.01,5.21
				C99.05,284.63,97.66,285,96.29,285z M86.9,270.18l1.29,3.5c0.86,2.32,3.97,8.33,8.1,8.33c0.86,0,1.77-0.25,2.7-0.76
				c1.43-0.77,2.24-1.79,2.48-3.11c0.65-3.52-2.83-8.49-4.22-10.11l-2.21-2.56l3.54,0.09c0.68,0,6.71-0.09,9.23-3.14
				c1.04-1.26,1.35-2.89,0.95-4.98c-0.6-3.06-2.29-4.49-5.32-4.49c-3.56,0-7.41,1.99-7.45,2.01l-2.91,1.52l0.75-3.19
				c0.47-2.03,1.25-7.94-0.88-10.86c-0.78-1.08-1.9-1.66-3.41-1.79c-1.61-0.14-2.82,0.3-3.78,1.33c-2.44,2.6-2.63,8.4-2.5,10.41
				l0.2,3.11l-2.56-1.78c-0.05-0.03-4.73-3.26-8.62-3.26c-2.24,0-3.64,1.09-4.4,3.44c-0.63,1.93-0.51,3.57,0.35,5.01
				c1.84,3.06,6.78,4.51,8.53,4.81l3.9,0.68l-3.37,2.08c-0.05,0.03-5.52,3.46-5.94,7.62c-0.18,1.76,0.58,3.43,2.33,5.09
				c1.35,1.28,2.69,1.93,3.96,1.93c3.67,0,6.85-5.42,7.76-7.51L86.9,270.18z"/>
		</g>
		<g>
			<path class="st0" d="M87.68,267.74c-0.2,0-0.41-0.01-0.62-0.04c-2.8-0.35-4.81-2.93-4.48-5.76c0.34-2.81,2.85-4.87,5.71-4.53
				c2.8,0.34,4.81,2.92,4.47,5.76C92.46,265.78,90.27,267.74,87.68,267.74z M87.67,260.38c-1.07,0-1.98,0.83-2.11,1.92
				c-0.14,1.19,0.7,2.28,1.87,2.43c1.13,0.14,2.22-0.73,2.36-1.9c0.14-1.2-0.69-2.29-1.86-2.43
				C87.84,260.39,87.76,260.38,87.67,260.38z"/>
		</g>
	</g>
	<g>
		<g>
			<path class="st0" d="M350.34,245.4c-4.73,0-7.95-4.42-9.61-7.48c-1.72,2.75-4.85,6.57-9.03,6.57c0,0,0,0,0,0
				c-2.07,0-4.09-0.93-6.02-2.75c-2.44-2.32-3.54-4.87-3.25-7.58c0.35-3.38,2.83-6.19,4.82-7.93c-2.46-0.86-5.77-2.5-7.51-5.39
				c-1.32-2.2-1.54-4.71-0.64-7.49c1.49-4.56,4.77-5.51,7.26-5.51c2.9,0,5.96,1.31,7.99,2.39c0.15-2.85,0.81-7.25,3.29-9.91
				c1.61-1.72,3.66-2.49,6.23-2.27c2.4,0.2,4.27,1.22,5.58,3.02c2.19,3.02,2.14,7.59,1.82,10.52c1.68-0.61,3.97-1.24,6.23-1.24
				c4.46,0,7.39,2.46,8.26,6.92c0.58,2.98,0.05,5.49-1.57,7.46c-2.28,2.76-6.13,3.73-8.87,4.06c1.67,2.5,3.85,6.61,3.17,10.29
				c-0.41,2.24-1.76,3.99-4.01,5.21C353.09,245.03,351.7,245.4,350.34,245.4z M340.95,230.58l1.29,3.5c0.85,2.32,3.97,8.33,8.1,8.33
				c0.86,0,1.77-0.25,2.7-0.76c1.43-0.77,2.24-1.79,2.48-3.11c0.65-3.52-2.83-8.49-4.22-10.11l-2.21-2.56l3.54,0.09
				c0.68,0,6.72-0.09,9.23-3.14c1.04-1.26,1.35-2.89,0.94-4.98c-0.6-3.06-2.29-4.49-5.32-4.49c-3.56,0-7.41,1.99-7.45,2.01
				l-2.9,1.52l0.75-3.19c0.48-2.03,1.25-7.94-0.88-10.86c-0.78-1.08-1.9-1.66-3.4-1.79c-1.61-0.13-2.81,0.3-3.78,1.33
				c-2.44,2.6-2.63,8.4-2.5,10.41l0.2,3.11l-2.56-1.78c-0.04-0.03-4.73-3.26-8.62-3.26c-2.24,0-3.64,1.09-4.4,3.44
				c-0.63,1.93-0.52,3.57,0.35,5.01c1.84,3.06,6.78,4.51,8.53,4.81l3.9,0.68l-3.37,2.08c-0.06,0.03-5.52,3.46-5.95,7.62
				c-0.18,1.76,0.58,3.43,2.33,5.09c1.35,1.28,2.69,1.93,3.96,1.93c3.68,0,6.85-5.42,7.76-7.51L340.95,230.58z"/>
		</g>
		<g>
			<path class="st0" d="M341.72,228.15c-0.21,0-0.41-0.01-0.62-0.04c-2.8-0.35-4.81-2.93-4.48-5.76c0.34-2.81,2.85-4.88,5.7-4.53
				c2.8,0.34,4.81,2.92,4.47,5.76C346.5,226.18,344.32,228.15,341.72,228.15z M341.72,220.78c-1.07,0-1.98,0.83-2.11,1.92
				c-0.14,1.19,0.69,2.28,1.86,2.43c1.13,0.14,2.22-0.72,2.36-1.9c0.14-1.2-0.69-2.29-1.85-2.43
				C341.89,220.79,341.8,220.78,341.72,220.78z"/>
		</g>
	</g>
	<g>
		<g>
			<path class="st0" d="M134.91,329.55c-4.73,0-7.95-4.42-9.61-7.48c-1.72,2.75-4.86,6.57-9.04,6.57l0,0
				c-2.07,0-4.09-0.93-6.02-2.75c-2.44-2.32-3.54-4.87-3.25-7.58c0.35-3.38,2.83-6.19,4.81-7.93c-2.46-0.86-5.77-2.5-7.51-5.39
				c-1.32-2.2-1.54-4.71-0.64-7.49c1.49-4.56,4.77-5.51,7.26-5.51c2.9,0,5.96,1.31,7.99,2.39c0.15-2.85,0.81-7.25,3.29-9.91
				c1.61-1.72,3.66-2.49,6.24-2.27c2.4,0.2,4.27,1.22,5.58,3.02c2.19,3.02,2.14,7.59,1.82,10.51c1.68-0.61,3.97-1.24,6.23-1.24
				c4.46,0,7.39,2.46,8.26,6.92c0.58,2.98,0.05,5.49-1.58,7.46c-2.28,2.76-6.13,3.73-8.87,4.06c1.67,2.5,3.85,6.61,3.18,10.29
				c-0.41,2.24-1.76,3.99-4.01,5.21C137.67,329.18,136.28,329.55,134.91,329.55z M125.52,314.73l1.29,3.5
				c0.86,2.32,3.97,8.33,8.1,8.33c0.86,0,1.77-0.25,2.7-0.76c1.43-0.77,2.24-1.79,2.48-3.11c0.65-3.52-2.83-8.49-4.22-10.11
				l-2.21-2.56l3.54,0.09c0.68,0,6.71-0.09,9.23-3.14c1.04-1.26,1.35-2.89,0.95-4.98c-0.6-3.06-2.29-4.49-5.32-4.49
				c-3.56,0-7.41,1.99-7.45,2.01l-2.91,1.52l0.75-3.19c0.47-2.03,1.24-7.94-0.88-10.86c-0.78-1.08-1.9-1.66-3.41-1.79
				c-1.61-0.13-2.82,0.3-3.78,1.33c-2.44,2.6-2.63,8.4-2.5,10.41l0.2,3.11l-2.56-1.78c-0.05-0.03-4.73-3.26-8.62-3.26
				c-2.24,0-3.64,1.09-4.4,3.44c-0.63,1.93-0.51,3.57,0.35,5.01c1.84,3.06,6.78,4.51,8.53,4.81l3.9,0.68l-3.37,2.08
				c-0.05,0.03-5.52,3.46-5.94,7.62c-0.18,1.76,0.58,3.43,2.33,5.09c1.35,1.28,2.69,1.93,3.96,1.93c3.67,0,6.85-5.42,7.76-7.51
				L125.52,314.73z"/>
		</g>
		<g>
			<path class="st0" d="M126.3,312.3c-0.2,0-0.41-0.01-0.62-0.04c-2.8-0.35-4.81-2.93-4.48-5.76c0.34-2.81,2.85-4.87,5.71-4.53
				c2.8,0.34,4.81,2.92,4.47,5.76C131.08,310.33,128.89,312.3,126.3,312.3z M126.3,304.93c-1.07,0-1.98,0.83-2.11,1.92
				c-0.14,1.19,0.7,2.28,1.87,2.43c1.13,0.14,2.22-0.73,2.36-1.9c0.14-1.2-0.69-2.29-1.86-2.43
				C126.47,304.94,126.38,304.93,126.3,304.93z"/>
		</g>
	</g>
	<g>
		<path class="st0" d="M275.98,297.64c-7.19,0-13.04-5.85-13.04-13.04c0-4.14,1.99-8.02,5.27-10.47l-8.27-14.32h32.09l-8.27,14.32
			c3.28,2.44,5.27,6.33,5.27,10.47C289.02,291.79,283.17,297.64,275.98,297.64z M265.13,262.81l7.13,12.35l-1.3,0.75
			c-3.1,1.79-5.02,5.12-5.02,8.7c0,5.54,4.51,10.04,10.04,10.04c5.54,0,10.04-4.5,10.04-10.04c0-3.57-1.92-6.9-5.02-8.7l-1.3-0.75
			l7.13-12.35H265.13z"/>
	</g>
	<path class="st0" d="M282.69,217.8v-75.39h21.68v-8.8h-7.45v-6.94h7.45v-8.8h-7.45v-6.94h7.45v-9.37h-30.98v116.22
		c-14.6,9.09-66.84,43.89-65.91,75.93c0.78,27.42,17.23,33.17,30.89,33.17c15.73,0,32.35-7.41,36.82-9.54
		c4.39,2.57,21.1,11.7,37.21,11.7c0,0,0,0,0,0c12.56,0,28.29-5.77,31.88-33.22C348.4,264.38,296.61,227.18,282.69,217.8z
		 M276.38,104.58h24.99v3.37h-7.45v12.94h7.45v2.8h-7.45v12.94h7.45v2.8h-21.68v76.4c-0.13-0.08-0.24-0.16-0.31-0.2l-1.16-0.74
		l-1.19,0.69c-0.11,0.07-0.34,0.2-0.66,0.39V104.58z M339.81,295.25c-2.55,19.45-11.77,29.31-27.43,29.31
		c-17.04,0-35.72-11.55-35.91-11.66l-1.08-0.67l-1.14,0.58c-0.19,0.1-19.01,9.61-35.9,9.61c-17.21,0-25.85-9.42-26.4-28.8
		c-0.9-31.3,57.08-67.89,66.16-73.43C287.02,226.06,343.79,264.94,339.81,295.25z"/>
	<g>
		<path class="st0" d="M179.13,172.2h-32.09l8.27-14.33c-3.28-2.44-5.27-6.33-5.27-10.47c0-7.19,5.85-13.04,13.04-13.04
			c7.19,0,13.04,5.85,13.04,13.04c0,4.13-1.99,8.02-5.27,10.47L179.13,172.2z M152.24,169.2h21.7l-7.13-12.35l1.29-0.75
			c3.1-1.79,5.02-5.12,5.02-8.69c0-5.54-4.51-10.04-10.04-10.04c-5.54,0-10.04,4.5-10.04,10.04c0,3.57,1.92,6.9,5.02,8.69l1.3,0.75
			L152.24,169.2z"/>
	</g>
	<path class="st0" d="M232.47,134.05c-3.59-27.46-19.32-33.22-31.88-33.22c-16.11,0-32.82,9.12-37.21,11.7
		c-4.46-2.14-21.09-9.54-36.82-9.54c-13.66,0-30.11,5.75-30.89,33.17c-0.91,31.51,49.62,65.7,65.16,75.46v117.44h32.48v-10.87h-7.45
		v-5.44h7.45v-10.3h-7.45v-5.44h7.45v-10.3h-21.67v-75.14C186.58,201.42,236.53,164.95,232.47,134.05z M100.17,136.28
		c0.55-19.38,9.18-28.8,26.39-28.8c16.89,0,35.72,9.51,35.9,9.61l1.14,0.58l1.08-0.68c0.18-0.12,18.83-11.66,35.91-11.66
		c15.65,0,24.88,9.86,27.42,29.31c3.98,30.3-52.79,69.18-61.68,75.07C157.24,204.18,99.27,167.59,100.17,136.28z M188.82,291.22v1.3
		h-7.45v14.44h7.45v1.3h-7.45v14.44h7.45v1.87h-23.48V214.61h0.43l0.66,0.39l0.61-0.39h0.11v76.6H188.82z"/>
</g>
</svg>
