<?xml version="1.0" encoding="utf-8"?>
<!-- Generator: Adobe Illustrator 24.2.1, SVG Export Plug-In . SVG Version: 6.00 Build 0)  -->
<svg version="1.1" id="Layer_1" xmlns="http://www.w3.org/2000/svg" xmlns:xlink="http://www.w3.org/1999/xlink" x="0px" y="0px"
	 viewBox="0 0 430.47 430.47" style="enable-background:new 0 0 430.47 430.47;" xml:space="preserve">
<style type="text/css">
	.st0{fill:#343466;}
</style>
<g>
	<g>
		<path class="st0" d="M215.23,418.6c-112.14,0-203.36-91.23-203.36-203.36c0-112.13,91.23-203.36,203.36-203.36
			c112.13,0,203.36,91.23,203.36,203.36C418.6,327.37,327.37,418.6,215.23,418.6z M215.23,16.38
			c-109.65,0-198.85,89.21-198.85,198.85c0,109.65,89.2,198.85,198.85,198.85c109.65,0,198.85-89.21,198.85-198.85
			C414.09,105.59,324.88,16.38,215.23,16.38z"/>
	</g>
	<g>
		<path class="st0" d="M312.46,330.26H118.38V165.31h194.08V330.26z M122.89,325.75h185.07V169.82H122.89V325.75z"/>
	</g>
	<g>
		<path class="st0" d="M220.8,170.06v-2.49c0-0.64,0.36-64.34,31.78-64.34c5.31,0,11.2,1.89,17.5,5.63
			c13.05,7.75,14.1,16.99,12.68,23.38c-3.88,17.52-31.12,34.72-59.49,37.57L220.8,170.06z M252.58,107.73
			c-23.35,0-26.73,45.88-27.2,57.29c25.26-3.36,49.66-18.75,52.98-33.76c1.59-7.18-1.97-13.42-10.59-18.53
			C262.19,109.41,257.08,107.73,252.58,107.73z"/>
	</g>
	<g>
		<path class="st0" d="M210.52,170.06l-2.48-0.25c-28.37-2.85-55.61-20.05-59.49-37.57c-1.41-6.39-0.36-15.64,12.69-23.38
			c6.3-3.74,12.19-5.63,17.5-5.63c12.38,0,21.75,10.23,27.09,29.57c4.63,16.79,4.69,34.05,4.69,34.78V170.06z M178.74,107.73
			c-4.49,0-9.61,1.68-15.2,5c-8.61,5.11-12.18,11.35-10.58,18.53c3.32,15.01,27.72,30.4,52.98,33.76
			C205.46,153.62,202.09,107.73,178.74,107.73z"/>
	</g>
	<g>
		<path class="st0" d="M159.94,223.88l-1.22-0.78c-1.85-1.19-11.06-7.42-10.71-13.87c0.24-4.27,2.65-6.83,6.47-6.83
			c2.07,0,4.13,0.75,5.38,1.31c1.25-0.63,3.33-1.48,5.45-1.48c1.76,0,5.92,0.67,6.52,6.91c0.61,6.36-8.78,12.74-10.67,13.96
			L159.94,223.88z M154.48,206.91c-0.81,0-1.83,0-1.97,2.57c-0.14,2.54,3.92,6.5,7.42,9c3.48-2.5,7.64-6.51,7.41-8.9
			c-0.27-2.83-1.37-2.83-2.03-2.83c-1.57,0-3.55,1.02-4.19,1.42l-1.13,0.71l-1.17-0.65C158.17,207.86,156.11,206.91,154.48,206.91z"
			/>
	</g>
	<g>
		<path class="st0" d="M192.32,255.05l-1.22-0.78c-1.13-0.73-11.06-7.29-10.7-13.87c0.24-4.28,2.66-6.83,6.47-6.83
			c2.07,0,4.13,0.75,5.38,1.31c1.25-0.63,3.33-1.48,5.44-1.48c1.76,0,5.92,0.67,6.52,6.9c0.61,6.36-8.79,12.74-10.68,13.96
			L192.32,255.05z M186.86,238.08c-0.81,0-1.83,0-1.97,2.57c-0.14,2.54,3.93,6.5,7.42,9c3.48-2.5,7.65-6.51,7.41-8.91
			c-0.27-2.83-1.37-2.83-2.03-2.83c-1.57,0-3.55,1.02-4.18,1.42l-1.13,0.71l-1.17-0.65C190.55,239.03,188.5,238.08,186.86,238.08z"
			/>
	</g>
	<g>
		<path class="st0" d="M161.53,286.14l-1.22-0.78c-1.85-1.19-11.06-7.43-10.7-13.87c0.23-4.27,2.65-6.83,6.47-6.83
			c2.07,0,4.13,0.75,5.38,1.31c1.25-0.63,3.34-1.48,5.45-1.48c1.76,0,5.92,0.67,6.52,6.91c0.62,6.36-8.78,12.74-10.67,13.96
			L161.53,286.14z M156.08,269.17c-0.81,0-1.82,0-1.97,2.57c-0.14,2.55,3.92,6.5,7.42,9c3.48-2.5,7.64-6.51,7.41-8.91
			c-0.27-2.83-1.37-2.83-2.03-2.83c-1.58,0-3.6,1.05-4.18,1.42l-1.14,0.72l-1.17-0.66C159.77,270.11,157.71,269.17,156.08,269.17z"
			/>
	</g>
	<g>
		<path class="st0" d="M189.25,314.47l-1.22-0.78c-1.85-1.19-11.05-7.43-10.7-13.86c0.23-4.28,2.65-6.83,6.47-6.83
			c2.07,0,4.13,0.75,5.39,1.31c1.25-0.63,3.33-1.48,5.44-1.48c1.76,0,5.92,0.67,6.52,6.91c0.62,6.36-8.79,12.74-10.68,13.95
			L189.25,314.47z M183.79,297.5c-0.81,0-1.82,0-1.97,2.57c-0.14,2.55,3.92,6.5,7.42,8.99c3.48-2.5,7.64-6.51,7.41-8.9
			c-0.27-2.83-1.37-2.83-2.03-2.83c-1.58,0-3.6,1.05-4.18,1.42l-1.14,0.72l-1.17-0.66C187.48,298.45,185.42,297.5,183.79,297.5z"/>
	</g>
	<g>
		<path class="st0" d="M266.28,223.88l-1.22-0.78c-1.89-1.22-11.29-7.6-10.68-13.96c0.6-6.23,4.76-6.9,6.52-6.9
			c2.11,0,4.19,0.85,5.44,1.48c1.25-0.56,3.32-1.31,5.38-1.31c3.82,0,6.23,2.55,6.47,6.83c0.36,6.58-9.56,13.14-10.7,13.87
			L266.28,223.88z M260.9,206.74c-0.66,0-1.76,0-2.04,2.83c-0.23,2.4,3.93,6.41,7.42,8.9c3.49-2.5,7.55-6.45,7.42-9
			c-0.14-2.56-1.16-2.56-1.97-2.56c-1.63,0-3.69,0.94-4.35,1.31l-1.17,0.65l-1.13-0.71C264.45,207.77,262.47,206.74,260.9,206.74z"
			/>
	</g>
	<g>
		<path class="st0" d="M234.06,255.05l-1.22-0.78c-1.89-1.22-11.29-7.6-10.68-13.96c0.6-6.23,4.76-6.9,6.52-6.9
			c2.11,0,4.19,0.85,5.44,1.48c1.25-0.56,3.31-1.31,5.38-1.31c3.81,0,6.23,2.55,6.47,6.83c0.36,6.58-9.56,13.15-10.7,13.87
			L234.06,255.05z M228.69,237.91c-0.66,0-1.76,0-2.03,2.83c-0.23,2.39,3.93,6.41,7.41,8.91c3.49-2.5,7.55-6.45,7.41-9
			c-0.14-2.57-1.15-2.57-1.96-2.57c-1.63,0-3.69,0.94-4.34,1.31l-1.17,0.65l-1.13-0.71C232.24,238.94,230.25,237.91,228.69,237.91z"
			/>
	</g>
	<g>
		<path class="st0" d="M266.27,286.14l-1.22-0.78c-1.89-1.22-11.3-7.6-10.68-13.96c0.6-6.23,4.76-6.9,6.52-6.9
			c2.11,0,4.2,0.85,5.45,1.48c1.25-0.56,3.32-1.31,5.38-1.31c3.82,0,6.23,2.55,6.47,6.83c0.35,6.45-8.86,12.68-10.71,13.87
			L266.27,286.14z M260.89,269c-0.66,0-1.76,0-2.03,2.83c-0.23,2.39,3.93,6.41,7.41,8.91c3.49-2.5,7.56-6.46,7.42-9
			c-0.14-2.56-1.16-2.56-1.97-2.56c-1.64,0-3.74,0.97-4.34,1.31l-1.17,0.66l-1.14-0.72C264.45,270.02,262.46,269,260.89,269z"/>
	</g>
	<g>
		<path class="st0" d="M235.24,315.29l-1.22-0.78c-1.89-1.21-11.3-7.6-10.68-13.96c0.6-6.23,4.76-6.9,6.52-6.9
			c2.11,0,4.19,0.85,5.44,1.47c1.25-0.56,3.32-1.31,5.39-1.31c3.81,0,6.23,2.55,6.47,6.83c0.35,6.44-8.85,12.68-10.7,13.86
			L235.24,315.29z M229.86,298.16c-0.66,0-1.76,0-2.03,2.83c-0.23,2.39,3.93,6.4,7.41,8.9c3.49-2.5,7.55-6.45,7.42-8.99
			c-0.14-2.57-1.15-2.57-1.97-2.57c-1.63,0-3.69,0.95-4.35,1.31l-1.17,0.65l-1.13-0.71C233.41,299.18,231.43,298.16,229.86,298.16z"
			/>
	</g>
	<g>
		
			<rect x="213.17" y="95.09" transform="matrix(2.640463e-03 -1 1 2.640463e-03 24.9754 404.7953)" class="st0" width="4.51" height="189.58"/>
	</g>
</g>
</svg>
