<?xml version="1.0" encoding="utf-8"?>
<!-- Generator: Adobe Illustrator 24.2.1, SVG Export Plug-In . SVG Version: 6.00 Build 0)  -->
<svg version="1.1" id="Layer_1" xmlns="http://www.w3.org/2000/svg" xmlns:xlink="http://www.w3.org/1999/xlink" x="0px" y="0px"
	 viewBox="0 0 430.47 430.47" style="enable-background:new 0 0 430.47 430.47;" xml:space="preserve">
<style type="text/css">
	.st0{fill:#343466;}
</style>
<g>
	<g>
		<path class="st0" d="M215.23,412c-108.5,0-196.77-88.27-196.77-196.77S106.74,18.47,215.23,18.47
			c108.5,0,196.77,88.27,196.77,196.77S323.73,412,215.23,412z M215.23,22.83c-106.09,0-192.41,86.31-192.41,192.41
			s86.31,192.41,192.41,192.41c106.09,0,192.41-86.31,192.41-192.41S321.33,22.83,215.23,22.83z"/>
	</g>
	<g>
		<path class="st0" d="M293.83,325.56H133.59c-38.98,0-70.69-34.98-70.69-77.97c0-42.99,31.71-77.97,70.69-77.97h160.24
			c38.98,0,70.69,34.98,70.69,77.97C364.52,290.58,332.81,325.56,293.83,325.56z M133.59,173.99c-36.57,0-66.33,33.02-66.33,73.6
			c0,40.59,29.75,73.61,66.33,73.61h160.24c36.58,0,66.33-33.02,66.33-73.61c0-40.59-29.76-73.6-66.33-73.6H133.59z"/>
	</g>
	<g>
		<path class="st0" d="M288.05,313.26H142.12c-35.6,0-64.57-29.46-64.57-65.67c0-36.21,28.97-65.66,64.57-65.66h145.92
			c35.6,0,64.57,29.46,64.57,65.66C352.61,283.8,323.65,313.26,288.05,313.26z M142.12,186.29c-33.2,0-60.21,27.5-60.21,61.3
			c0,33.8,27.01,61.3,60.21,61.3h145.92c33.2,0,60.21-27.5,60.21-61.3c0-33.8-27.01-61.3-60.21-61.3H142.12z"/>
	</g>
	<g>
		<path class="st0" d="M112.85,260.58l-1.02-0.65c-1.86-1.2-18.19-11.97-17.63-22.24c0.48-8.65,5.97-9.94,9.2-9.94
			c3.74,0,7.62,1.65,9.38,2.5c1.75-0.95,5.61-2.8,9.39-2.8c3.11,0,8.45,1.32,9.3,10.15c0.97,10.07-15.7,21.09-17.6,22.31
			L112.85,260.58z M103.4,231.53c-2.36,0-5.12,0.72-5.43,6.37c-0.35,6.38,9.81,14.7,14.87,18.17c5.15-3.52,15.45-11.93,14.86-18.09
			c-0.58-6.04-3.44-6.74-5.54-6.74c-3.24,0-7.1,2-8.32,2.77l-0.95,0.6l-0.98-0.55C111.87,234.03,107.35,231.53,103.4,231.53z"/>
	</g>
	<g>
		<path class="st0" d="M319.74,260.58l-1.02-0.65c-1.86-1.2-18.19-11.97-17.63-22.24c0.48-8.65,5.97-9.94,9.2-9.94
			c3.74,0,7.62,1.65,9.38,2.5c1.75-0.95,5.61-2.8,9.39-2.8c3.11,0,8.45,1.32,9.3,10.15c0.97,10.07-15.7,21.09-17.6,22.31
			L319.74,260.58z M310.29,231.53c-2.36,0-5.12,0.72-5.43,6.37c-0.35,6.38,9.81,14.7,14.87,18.17c5.15-3.52,15.45-11.93,14.86-18.09
			c-0.58-6.04-3.44-6.74-5.54-6.74c-3.24,0-7.1,2-8.32,2.77l-0.95,0.6l-0.98-0.55C318.76,234.03,314.24,231.53,310.29,231.53z"/>
	</g>
	<g>
		<polygon class="st0" points="137.97,173.36 133.77,170.18 213.71,65.11 293.64,170.18 289.45,173.36 213.71,73.44 		"/>
	</g>
	<g>
		<path class="st0" d="M216.44,81.65c0,1.48-1.22,2.68-2.73,2.68c-1.51,0-2.73-1.2-2.73-2.68c0-1.48,1.22-2.68,2.73-2.68
			C215.22,78.97,216.44,80.17,216.44,81.65z"/>
	</g>
	<g>
		<path class="st0" d="M177.23,235.73c-2.6,0-4.51-1.13-5.72-3.38l1.82-1.15c0.87,1.6,2.15,2.39,3.85,2.39c2.6,0,3.9-1.92,3.9-5.77
			V198.2h2.13v29.73C183.21,233.13,181.22,235.73,177.23,235.73z"/>
		<path class="st0" d="M205.92,233.29c-1.91,1.6-4.42,2.39-7.54,2.39c-3.02,0-5.53-0.81-7.54-2.44c-2.11-1.77-3.17-4.16-3.17-7.17
			V198.2h2.08v27.86c0,2.39,0.87,4.26,2.6,5.62c1.59,1.25,3.6,1.87,6.03,1.87c2.39,0,4.4-0.64,6.03-1.92
			c1.77-1.39,2.65-3.24,2.65-5.56V198.2h2.13v27.86C209.2,229.08,208.11,231.48,205.92,233.29z"/>
		<path class="st0" d="M228.02,235c-1.35,0.48-2.95,0.73-4.78,0.73c-5.68,0-9.34-2.69-10.97-8.06l2.13-0.73
			c1.21,4.44,4.16,6.65,8.84,6.65c2.67,0,4.76-0.66,6.29-1.97c1.56-1.35,2.34-3.33,2.34-5.93c0-2.46-0.92-4.5-2.76-6.13
			c-0.49-0.45-1.23-0.95-2.23-1.51c-1-0.56-2.29-1.18-3.85-1.87c-2.95-1.32-4.96-2.46-6.03-3.43c-1.8-1.56-2.7-3.62-2.7-6.18
			c0-2.57,0.92-4.63,2.75-6.19c1.8-1.59,4.02-2.39,6.65-2.39c4.37,0,7.45,1.63,9.25,4.88l-2.03,0.89c-0.69-1.15-1.52-1.99-2.49-2.55
			c-1.21-0.76-2.79-1.14-4.73-1.14c-2.05,0-3.74,0.57-5.09,1.71c-1.46,1.21-2.18,2.81-2.18,4.78c0,1.77,0.76,3.31,2.29,4.62
			c0.87,0.69,2.6,1.63,5.2,2.81c1.63,0.73,3.03,1.45,4.21,2.16c1.18,0.71,2.13,1.43,2.86,2.16c2.01,1.97,3.01,4.44,3.01,7.38
			C233.99,230.41,232,233.51,228.02,235z"/>
		<path class="st0" d="M246.16,200.33v34.98h-2.13v-34.98h-8.21v-2.13h18.56v2.13H246.16z"/>
		<path class="st0" d="M160.55,297.69l-7.9-31.19l-12.21,32.13l-12.22-32.18l-7.95,31.24h-2.13l9.67-38.21l12.63,33.11l12.63-33.16
			l9.67,38.26H160.55z"/>
		<path class="st0" d="M192.98,297.69l-4.26-11.12h-16.89l-4.32,11.12h-2.08l14.81-38.31l14.87,38.31H192.98z M180.25,264.79
			l-7.59,19.65h15.18L180.25,264.79z"/>
		<path class="st0" d="M216.17,297.69l-11.8-18.56h-4v18.56h-2.08v-37.12h8.58c1.39,0,2.7,0.2,3.95,0.6
			c1.25,0.4,2.32,0.99,3.22,1.77c0.9,0.78,1.62,1.74,2.16,2.88c0.54,1.14,0.81,2.46,0.81,3.95c0,1.63-0.25,3.03-0.75,4.21
			c-0.5,1.18-1.21,2.15-2.13,2.91c-0.92,0.76-2,1.33-3.25,1.69c-1.25,0.36-2.62,0.55-4.11,0.55l11.9,18.56H216.17z M214.19,266.63
			c-0.42-0.89-0.99-1.61-1.72-2.18c-0.73-0.57-1.58-1-2.55-1.3c-0.97-0.29-2.01-0.44-3.12-0.44h-6.45V277h7.02
			c2.22,0,4.01-0.63,5.38-1.87c1.37-1.25,2.05-3.05,2.05-5.4C214.82,268.55,214.61,267.52,214.19,266.63z"/>
		<path class="st0" d="M241.33,297.69l-11.8-18.56h-4v18.56h-2.08v-37.12h8.58c1.39,0,2.7,0.2,3.95,0.6
			c1.25,0.4,2.32,0.99,3.22,1.77c0.9,0.78,1.62,1.74,2.16,2.88c0.54,1.14,0.81,2.46,0.81,3.95c0,1.63-0.25,3.03-0.75,4.21
			c-0.5,1.18-1.21,2.15-2.13,2.91c-0.92,0.76-2,1.33-3.25,1.69c-1.25,0.36-2.62,0.55-4.11,0.55l11.9,18.56H241.33z M239.35,266.63
			c-0.42-0.89-0.99-1.61-1.72-2.18c-0.73-0.57-1.58-1-2.55-1.3c-0.97-0.29-2.01-0.44-3.12-0.44h-6.45V277h7.02
			c2.22,0,4.01-0.63,5.38-1.87c1.37-1.25,2.05-3.05,2.05-5.4C239.97,268.55,239.77,267.52,239.35,266.63z"/>
		<path class="st0" d="M248.65,297.69v-37.12h2.08v37.12H248.65z"/>
		<path class="st0" d="M255.31,297.69v-37.12h17.83v2.13h-15.7v13.52h15.7v2.29h-15.7v17.05h15.7v2.13H255.31z"/>
		<path class="st0" d="M302.14,292.08c-3.12,3.74-7.19,5.61-12.22,5.61h-12.37v-37.12h12.37c4.99,0,9.05,1.87,12.16,5.62
			c2.95,3.5,4.42,7.8,4.42,12.89C306.51,284.21,305.05,288.54,302.14,292.08z M300.58,267.65c-2.7-3.33-6.26-4.99-10.66-4.99h-10.29
			v32.91h10.29c3.81,0,7.12-1.42,9.93-4.26c3.01-3.05,4.52-7.12,4.52-12.21C304.38,274.54,303.11,270.73,300.58,267.65z"/>
	</g>
</g>
</svg>
